M48
; DRILL file {KiCad 7.0.10} date Mon Feb 12 17:30:33 2024
; FORMAT={-:-/ absolute / inch / decimal}
; #@! TF.CreationDate,2024-02-12T17:30:33-09:00
; #@! TF.GenerationSoftware,Kicad,Pcbnew,7.0.10
; #@! TF.FileFunction,Plated,1,2,PTH
FMAT,2
INCH
; #@! TA.AperFunction,Plated,PTH,ComponentDrill
T1C0.0315
; #@! TA.AperFunction,Plated,PTH,ComponentDrill
T2C0.0394
; #@! TA.AperFunction,Plated,PTH,ComponentDrill
T3C0.0402
; #@! TA.AperFunction,Plated,PTH,ComponentDrill
T4C0.0598
%
G90
G05
T1
X6.2996Y-2.9
X6.2996Y-3.0
X6.2996Y-3.1
X6.2996Y-3.2
X6.2996Y-3.3
X6.2996Y-3.4
X6.2996Y-3.5
X6.2996Y-3.6
X6.2996Y-3.8
X6.2996Y-3.9
X6.2996Y-4.0
X6.2996Y-4.1
X6.2996Y-4.2
X6.2996Y-4.3
X6.2996Y-4.4
X6.2996Y-4.5
X6.7996Y-2.9
X6.7996Y-3.0
X6.7996Y-3.1
X6.7996Y-3.2
X6.7996Y-3.3
X6.7996Y-3.4
X6.7996Y-3.5
X6.7996Y-3.6
X6.7996Y-3.8
X6.7996Y-3.9
X6.7996Y-4.0
X6.7996Y-4.1
X6.7996Y-4.2
X6.7996Y-4.3
X6.7996Y-4.4
X6.7996Y-4.5
X7.2977Y-3.6
X7.4946Y-3.6
T2
X5.15Y-3.0
X5.15Y-3.1
X5.15Y-3.2
X5.15Y-3.3
X5.15Y-3.4
X5.15Y-3.5
X5.15Y-3.6
X5.15Y-3.7
X5.15Y-3.8
X5.15Y-3.9
X5.15Y-4.0
X5.15Y-4.1
X5.15Y-4.2
X5.15Y-4.3
X5.15Y-4.4
X5.75Y-3.0
X5.75Y-3.1
X5.75Y-3.2
X5.75Y-3.3
X5.75Y-3.4
X5.75Y-3.5
X5.75Y-3.6
X5.75Y-3.7
X5.75Y-3.8
X5.75Y-3.9
X5.75Y-4.0
X5.75Y-4.1
X5.75Y-4.2
X5.75Y-4.3
X5.75Y-4.4
X5.9504Y-3.2
X6.15Y-4.5
X7.0Y-3.1
X7.0Y-3.2
X7.0Y-3.3
X7.0Y-3.4
X7.0Y-4.0
X7.0Y-4.1
X7.0Y-4.2
X7.0Y-4.3
T3
X7.3Y-4.45
X7.4Y-4.45
X7.5Y-4.45
T4
X7.8Y-3.5
X7.8Y-3.7
T2
G00X7.2604Y-3.1242
M15
G01X7.2604Y-3.2029
M16
G05
G00X7.4848Y-3.0454
M15
G01X7.4061Y-3.0454
M16
G05
G00X7.4848Y-3.2816
M15
G01X7.4061Y-3.2816
M16
G05
M30
