<?xml version="1.0" standalone="no"?>
 <!DOCTYPE svg PUBLIC "-//W3C//DTD SVG 1.1//EN" 
 "http://www.w3.org/Graphics/SVG/1.1/DTD/svg11.dtd"> 
<svg
  xmlns:svg="http://www.w3.org/2000/svg"
  xmlns="http://www.w3.org/2000/svg"
  xmlns:xlink="http://www.w3.org/1999/xlink"
  version="1.1"
  width="297.0022mm" height="210.0072mm" viewBox="0.0000 0.0000 297.0022 210.0072">
<title>SVG Image created as CustomPCB-PTH-drl_map.svg date 2024/01/30 03:11:29 </title>
  <desc>Image generated by PCBNEW </desc>
<g style="fill:#000000; fill-opacity:1.0000;stroke:#000000; stroke-opacity:1.0000;
stroke-linecap:round; stroke-linejoin:round;"
 transform="translate(0 0) scale(1 1)">
</g>
<g style="fill:#000000; fill-opacity:0.0; 
stroke:#000000; stroke-width:0.0000; stroke-opacity:1; 
stroke-linecap:round; stroke-linejoin:round;">
</g>
<g style="fill:#000000; fill-opacity:0.0; 
stroke:#000000; stroke-width:0.2120; stroke-opacity:1; 
stroke-linecap:round; stroke-linejoin:round;">
<path d="M82.5264 120.8983
L214.4758 120.8983
" />
<path d="M71.7550 15.8774
L71.7550 110.1269
" />
<path d="M214.4758 5.1060
L82.5264 5.1060
" />
<path d="M225.2471 110.1269
L225.2471 15.8774
" />
<path d="M225.2471 15.8774 A10.7714 10.7714 0.0 0 0 214.4758 5.1060" />
<path d="M214.4758 120.8983 A10.7714 10.7714 0.0 0 0 225.2471 110.1269" />
<path d="M71.7550 110.1269 A10.7714 10.7714 0.0 0 0 82.5264 120.8983" />
<path d="M82.5264 5.1060 A10.7714 10.7714 0.0 0 0 71.7550 15.8774" />
</g>
<g style="fill:#000000; fill-opacity:0.0; 
stroke:#000000; stroke-width:0.4241; stroke-opacity:1; 
stroke-linecap:round; stroke-linejoin:round;">
</g>
<g style="fill:#000000; fill-opacity:0.0; 
stroke:#000000; stroke-width:0.2120; stroke-opacity:1; 
stroke-linecap:round; stroke-linejoin:round;">
<path d="M76.2926 66.2145
L77.9889 67.9108
" />
<path d="M77.9889 66.2145
L76.2926 67.9108
" />
<path d="M76.2926 93.1429
L77.9889 94.8392
" />
<path d="M77.9889 93.1429
L76.2926 94.8392
" />
<path d="M81.6783 66.2145
L83.3746 67.9108
" />
<path d="M83.3746 66.2145
L81.6783 67.9108
" />
<path d="M81.6783 93.1429
L83.3746 94.8392
" />
<path d="M83.3746 93.1429
L81.6783 94.8392
" />
<path d="M87.0640 66.2145
L88.7603 67.9108
" />
<path d="M88.7603 66.2145
L87.0640 67.9108
" />
<path d="M87.0640 93.1429
L88.7603 94.8392
" />
<path d="M88.7603 93.1429
L87.0640 94.8392
" />
<path d="M92.4497 66.2145
L94.1459 67.9108
" />
<path d="M94.1459 66.2145
L92.4497 67.9108
" />
<path d="M92.4497 93.1429
L94.1459 94.8392
" />
<path d="M94.1459 93.1429
L92.4497 94.8392
" />
<path d="M97.8353 66.2145
L99.5316 67.9108
" />
<path d="M99.5316 66.2145
L97.8353 67.9108
" />
<path d="M97.8353 93.1429
L99.5316 94.8392
" />
<path d="M99.5316 93.1429
L97.8353 94.8392
" />
<path d="M103.2210 66.2145
L104.9173 67.9108
" />
<path d="M104.9173 66.2145
L103.2210 67.9108
" />
<path d="M103.2210 93.1429
L104.9173 94.8392
" />
<path d="M104.9173 93.1429
L103.2210 94.8392
" />
<path d="M108.6067 66.2145
L110.3030 67.9108
" />
<path d="M110.3030 66.2145
L108.6067 67.9108
" />
<path d="M108.6067 93.1429
L110.3030 94.8392
" />
<path d="M110.3030 93.1429
L108.6067 94.8392
" />
<path d="M113.9924 66.2145
L115.6887 67.9108
" />
<path d="M115.6887 66.2145
L113.9924 67.9108
" />
<path d="M113.9924 93.1429
L115.6887 94.8392
" />
<path d="M115.6887 93.1429
L113.9924 94.8392
" />
<path d="M165.1564 28.3719
L166.8527 30.0682
" />
<path d="M166.8527 28.3719
L165.1564 30.0682
" />
<path d="M165.1564 38.9736
L166.8527 40.6699
" />
<path d="M166.8527 38.9736
L165.1564 40.6699
" />
<circle cx="87.9121" cy="50.9374" r="1.0602" /> 
<circle cx="93.2978" cy="50.9374" r="1.0602" /> 
<circle cx="98.6835" cy="50.9374" r="1.0602" /> 
<circle cx="104.0692" cy="50.9374" r="1.0602" /> 
<circle cx="136.3833" cy="61.6557" r="1.0602" /> 
<circle cx="136.3833" cy="93.9699" r="1.0602" /> 
<circle cx="141.7690" cy="61.6557" r="1.0602" /> 
<circle cx="141.7690" cy="93.9699" r="1.0602" /> 
<circle cx="147.1547" cy="50.8844" r="1.0602" /> 
<circle cx="147.1547" cy="61.6557" r="1.0602" /> 
<circle cx="147.1547" cy="93.9699" r="1.0602" /> 
<circle cx="152.5404" cy="61.6557" r="1.0602" /> 
<circle cx="152.5404" cy="93.9699" r="1.0602" /> 
<circle cx="157.9261" cy="61.6557" r="1.0602" /> 
<circle cx="157.9261" cy="93.9699" r="1.0602" /> 
<circle cx="163.3117" cy="61.6557" r="1.0602" /> 
<circle cx="163.3117" cy="93.9699" r="1.0602" /> 
<circle cx="168.6974" cy="61.6557" r="1.0602" /> 
<circle cx="168.6974" cy="93.9699" r="1.0602" /> 
<circle cx="174.0831" cy="61.6557" r="1.0602" /> 
<circle cx="174.0831" cy="93.9699" r="1.0602" /> 
<circle cx="174.0831" cy="102.0484" r="1.0602" /> 
<circle cx="179.4688" cy="61.6557" r="1.0602" /> 
<circle cx="179.4688" cy="93.9699" r="1.0602" /> 
<circle cx="184.8545" cy="61.6557" r="1.0602" /> 
<circle cx="184.8545" cy="93.9699" r="1.0602" /> 
<circle cx="190.2402" cy="61.6557" r="1.0602" /> 
<circle cx="190.2402" cy="93.9699" r="1.0602" /> 
<circle cx="195.6259" cy="61.6557" r="1.0602" /> 
<circle cx="195.6259" cy="93.9699" r="1.0602" /> 
<circle cx="196.3680" cy="40.1130" r="1.0602" /> 
<path d="M197.4282 42.2333
L197.4282 37.9926
" />
<path d="M197.4282 37.9926 A1.0602 1.0602 0.0 0 0 195.3078 37.9926" />
<path d="M195.3078 37.9926
L195.3078 42.2333
" />
<path d="M195.3078 42.2333 A1.0602 1.0602 0.0 0 0 197.4282 42.2333" />
<circle cx="201.0116" cy="61.6557" r="1.0602" /> 
<circle cx="201.0116" cy="93.9699" r="1.0602" /> 
<circle cx="202.7290" cy="30.1473" r="1.0602" /> 
<path d="M204.8494 29.0872
L200.6087 29.0872
" />
<path d="M200.6087 29.0872 A1.0602 1.0602 0.0 0 0 200.6087 31.2075" />
<path d="M200.6087 31.2075
L204.8494 31.2075
" />
<path d="M204.8494 31.2075 A1.0602 1.0602 0.0 0 0 204.8494 29.0872" />
<circle cx="206.3972" cy="61.6557" r="1.0602" /> 
<circle cx="206.3972" cy="93.9699" r="1.0602" /> 
<circle cx="209.0901" cy="40.1130" r="1.0602" /> 
<path d="M210.1503 42.2333
L210.1503 37.9926
" />
<path d="M210.1503 37.9926 A1.0602 1.0602 0.0 0 0 208.0299 37.9926" />
<path d="M208.0299 37.9926
L208.0299 42.2333
" />
<path d="M208.0299 42.2333 A1.0602 1.0602 0.0 0 0 210.1503 42.2333" />
<circle cx="211.7829" cy="61.6557" r="1.0602" /> 
<circle cx="211.7829" cy="93.9699" r="1.0602" /> 
</g>
<g style="fill:#000000; fill-opacity:0.0; 
stroke:#000000; stroke-width:0.4241; stroke-opacity:1; 
stroke-linecap:round; stroke-linejoin:round;">
</g>
<g style="fill:#000000; fill-opacity:0.0; 
stroke:#000000; stroke-width:0.2000; stroke-opacity:1; 
stroke-linecap:round; stroke-linejoin:round;">
<text x="73.6490" y="124.2043"
textLength="14.8667" font-size="2.6667" lengthAdjust="spacingAndGlyphs"
text-anchor="start" opacity="0">Drill Map:</text>
<g class="stroked-text"><desc>Drill Map:</desc>
<path d="M74.2568 124.1192
L74.2568 122.1192
" />
<path d="M74.2568 122.1192
L74.7330 122.1192
" />
<path d="M74.7330 122.1192
L75.0187 122.2144
" />
<path d="M75.0187 122.2144
L75.2092 122.4049
" />
<path d="M75.2092 122.4049
L75.3044 122.5954
" />
<path d="M75.3044 122.5954
L75.3997 122.9763
" />
<path d="M75.3997 122.9763
L75.3997 123.2620
" />
<path d="M75.3997 123.2620
L75.3044 123.6430
" />
<path d="M75.3044 123.6430
L75.2092 123.8334
" />
<path d="M75.2092 123.8334
L75.0187 124.0239
" />
<path d="M75.0187 124.0239
L74.7330 124.1192
" />
<path d="M74.7330 124.1192
L74.2568 124.1192
" />
<path d="M76.2568 124.1192
L76.2568 122.7858
" />
<path d="M76.2568 123.1668
L76.3520 122.9763
" />
<path d="M76.3520 122.9763
L76.4473 122.8811
" />
<path d="M76.4473 122.8811
L76.6378 122.7858
" />
<path d="M76.6378 122.7858
L76.8282 122.7858
" />
<path d="M77.4949 124.1192
L77.4949 122.7858
" />
<path d="M77.4949 122.1192
L77.3997 122.2144
" />
<path d="M77.3997 122.2144
L77.4949 122.3096
" />
<path d="M77.4949 122.3096
L77.5901 122.2144
" />
<path d="M77.5901 122.2144
L77.4949 122.1192
" />
<path d="M77.4949 122.1192
L77.4949 122.3096
" />
<path d="M78.7330 124.1192
L78.5425 124.0239
" />
<path d="M78.5425 124.0239
L78.4473 123.8334
" />
<path d="M78.4473 123.8334
L78.4473 122.1192
" />
<path d="M79.7806 124.1192
L79.5901 124.0239
" />
<path d="M79.5901 124.0239
L79.4949 123.8334
" />
<path d="M79.4949 123.8334
L79.4949 122.1192
" />
<path d="M82.0663 124.1192
L82.0663 122.1192
" />
<path d="M82.0663 122.1192
L82.7330 123.5477
" />
<path d="M82.7330 123.5477
L83.3997 122.1192
" />
<path d="M83.3997 122.1192
L83.3997 124.1192
" />
<path d="M85.2092 124.1192
L85.2092 123.0715
" />
<path d="M85.2092 123.0715
L85.1139 122.8811
" />
<path d="M85.1139 122.8811
L84.9235 122.7858
" />
<path d="M84.9235 122.7858
L84.5425 122.7858
" />
<path d="M84.5425 122.7858
L84.3520 122.8811
" />
<path d="M85.2092 124.0239
L85.0187 124.1192
" />
<path d="M85.0187 124.1192
L84.5425 124.1192
" />
<path d="M84.5425 124.1192
L84.3520 124.0239
" />
<path d="M84.3520 124.0239
L84.2568 123.8334
" />
<path d="M84.2568 123.8334
L84.2568 123.6430
" />
<path d="M84.2568 123.6430
L84.3520 123.4525
" />
<path d="M84.3520 123.4525
L84.5425 123.3573
" />
<path d="M84.5425 123.3573
L85.0187 123.3573
" />
<path d="M85.0187 123.3573
L85.2092 123.2620
" />
<path d="M86.1616 122.7858
L86.1616 124.7858
" />
<path d="M86.1616 122.8811
L86.3520 122.7858
" />
<path d="M86.3520 122.7858
L86.7330 122.7858
" />
<path d="M86.7330 122.7858
L86.9235 122.8811
" />
<path d="M86.9235 122.8811
L87.0187 122.9763
" />
<path d="M87.0187 122.9763
L87.1139 123.1668
" />
<path d="M87.1139 123.1668
L87.1139 123.7382
" />
<path d="M87.1139 123.7382
L87.0187 123.9287
" />
<path d="M87.0187 123.9287
L86.9235 124.0239
" />
<path d="M86.9235 124.0239
L86.7330 124.1192
" />
<path d="M86.7330 124.1192
L86.3520 124.1192
" />
<path d="M86.3520 124.1192
L86.1616 124.0239
" />
<path d="M87.9711 123.9287
L88.0663 124.0239
" />
<path d="M88.0663 124.0239
L87.9711 124.1192
" />
<path d="M87.9711 124.1192
L87.8759 124.0239
" />
<path d="M87.8759 124.0239
L87.9711 123.9287
" />
<path d="M87.9711 123.9287
L87.9711 124.1192
" />
<path d="M87.9711 122.8811
L88.0663 122.9763
" />
<path d="M88.0663 122.9763
L87.9711 123.0715
" />
<path d="M87.9711 123.0715
L87.8759 122.9763
" />
<path d="M87.8759 122.9763
L87.9711 122.8811
" />
<path d="M87.9711 122.8811
L87.9711 123.0715
" />
</g></g>
<g style="fill:#000000; fill-opacity:0.0; 
stroke:#000000; stroke-width:0.2120; stroke-opacity:1; 
stroke-linecap:round; stroke-linejoin:round;">
<path d="M69.9528 126.5562
L71.6490 128.2525
" />
<path d="M71.6490 126.5562
L69.9528 128.2525
" />
</g>
<g style="fill:#000000; fill-opacity:0.0; 
stroke:#000000; stroke-width:0.4241; stroke-opacity:1; 
stroke-linecap:round; stroke-linejoin:round;">
</g>
<g style="fill:#000000; fill-opacity:0.0; 
stroke:#000000; stroke-width:0.2000; stroke-opacity:1; 
stroke-linecap:round; stroke-linejoin:round;">
<text x="73.6490" y="128.4043"
textLength="48.7714" font-size="2.6667" lengthAdjust="spacingAndGlyphs"
text-anchor="start" opacity="0">0.800mm / 0.0315" (18 holes)</text>
<g class="stroked-text"><desc>0.800mm / 0.0315" (18 holes)</desc>
<path d="M74.6378 126.3192
L74.8282 126.3192
" />
<path d="M74.8282 126.3192
L75.0187 126.4144
" />
<path d="M75.0187 126.4144
L75.1139 126.5096
" />
<path d="M75.1139 126.5096
L75.2092 126.7001
" />
<path d="M75.2092 126.7001
L75.3044 127.0811
" />
<path d="M75.3044 127.0811
L75.3044 127.5573
" />
<path d="M75.3044 127.5573
L75.2092 127.9382
" />
<path d="M75.2092 127.9382
L75.1139 128.1287
" />
<path d="M75.1139 128.1287
L75.0187 128.2239
" />
<path d="M75.0187 128.2239
L74.8282 128.3192
" />
<path d="M74.8282 128.3192
L74.6378 128.3192
" />
<path d="M74.6378 128.3192
L74.4473 128.2239
" />
<path d="M74.4473 128.2239
L74.3520 128.1287
" />
<path d="M74.3520 128.1287
L74.2568 127.9382
" />
<path d="M74.2568 127.9382
L74.1616 127.5573
" />
<path d="M74.1616 127.5573
L74.1616 127.0811
" />
<path d="M74.1616 127.0811
L74.2568 126.7001
" />
<path d="M74.2568 126.7001
L74.3520 126.5096
" />
<path d="M74.3520 126.5096
L74.4473 126.4144
" />
<path d="M74.4473 126.4144
L74.6378 126.3192
" />
<path d="M76.1616 128.1287
L76.2568 128.2239
" />
<path d="M76.2568 128.2239
L76.1616 128.3192
" />
<path d="M76.1616 128.3192
L76.0663 128.2239
" />
<path d="M76.0663 128.2239
L76.1616 128.1287
" />
<path d="M76.1616 128.1287
L76.1616 128.3192
" />
<path d="M77.3997 127.1763
L77.2092 127.0811
" />
<path d="M77.2092 127.0811
L77.1139 126.9858
" />
<path d="M77.1139 126.9858
L77.0187 126.7954
" />
<path d="M77.0187 126.7954
L77.0187 126.7001
" />
<path d="M77.0187 126.7001
L77.1139 126.5096
" />
<path d="M77.1139 126.5096
L77.2092 126.4144
" />
<path d="M77.2092 126.4144
L77.3997 126.3192
" />
<path d="M77.3997 126.3192
L77.7806 126.3192
" />
<path d="M77.7806 126.3192
L77.9711 126.4144
" />
<path d="M77.9711 126.4144
L78.0663 126.5096
" />
<path d="M78.0663 126.5096
L78.1616 126.7001
" />
<path d="M78.1616 126.7001
L78.1616 126.7954
" />
<path d="M78.1616 126.7954
L78.0663 126.9858
" />
<path d="M78.0663 126.9858
L77.9711 127.0811
" />
<path d="M77.9711 127.0811
L77.7806 127.1763
" />
<path d="M77.7806 127.1763
L77.3997 127.1763
" />
<path d="M77.3997 127.1763
L77.2092 127.2715
" />
<path d="M77.2092 127.2715
L77.1139 127.3668
" />
<path d="M77.1139 127.3668
L77.0187 127.5573
" />
<path d="M77.0187 127.5573
L77.0187 127.9382
" />
<path d="M77.0187 127.9382
L77.1139 128.1287
" />
<path d="M77.1139 128.1287
L77.2092 128.2239
" />
<path d="M77.2092 128.2239
L77.3997 128.3192
" />
<path d="M77.3997 128.3192
L77.7806 128.3192
" />
<path d="M77.7806 128.3192
L77.9711 128.2239
" />
<path d="M77.9711 128.2239
L78.0663 128.1287
" />
<path d="M78.0663 128.1287
L78.1616 127.9382
" />
<path d="M78.1616 127.9382
L78.1616 127.5573
" />
<path d="M78.1616 127.5573
L78.0663 127.3668
" />
<path d="M78.0663 127.3668
L77.9711 127.2715
" />
<path d="M77.9711 127.2715
L77.7806 127.1763
" />
<path d="M79.3997 126.3192
L79.5901 126.3192
" />
<path d="M79.5901 126.3192
L79.7806 126.4144
" />
<path d="M79.7806 126.4144
L79.8759 126.5096
" />
<path d="M79.8759 126.5096
L79.9711 126.7001
" />
<path d="M79.9711 126.7001
L80.0663 127.0811
" />
<path d="M80.0663 127.0811
L80.0663 127.5573
" />
<path d="M80.0663 127.5573
L79.9711 127.9382
" />
<path d="M79.9711 127.9382
L79.8759 128.1287
" />
<path d="M79.8759 128.1287
L79.7806 128.2239
" />
<path d="M79.7806 128.2239
L79.5901 128.3192
" />
<path d="M79.5901 128.3192
L79.3997 128.3192
" />
<path d="M79.3997 128.3192
L79.2092 128.2239
" />
<path d="M79.2092 128.2239
L79.1139 128.1287
" />
<path d="M79.1139 128.1287
L79.0187 127.9382
" />
<path d="M79.0187 127.9382
L78.9235 127.5573
" />
<path d="M78.9235 127.5573
L78.9235 127.0811
" />
<path d="M78.9235 127.0811
L79.0187 126.7001
" />
<path d="M79.0187 126.7001
L79.1139 126.5096
" />
<path d="M79.1139 126.5096
L79.2092 126.4144
" />
<path d="M79.2092 126.4144
L79.3997 126.3192
" />
<path d="M81.3044 126.3192
L81.4949 126.3192
" />
<path d="M81.4949 126.3192
L81.6854 126.4144
" />
<path d="M81.6854 126.4144
L81.7806 126.5096
" />
<path d="M81.7806 126.5096
L81.8759 126.7001
" />
<path d="M81.8759 126.7001
L81.9711 127.0811
" />
<path d="M81.9711 127.0811
L81.9711 127.5573
" />
<path d="M81.9711 127.5573
L81.8759 127.9382
" />
<path d="M81.8759 127.9382
L81.7806 128.1287
" />
<path d="M81.7806 128.1287
L81.6854 128.2239
" />
<path d="M81.6854 128.2239
L81.4949 128.3192
" />
<path d="M81.4949 128.3192
L81.3044 128.3192
" />
<path d="M81.3044 128.3192
L81.1139 128.2239
" />
<path d="M81.1139 128.2239
L81.0187 128.1287
" />
<path d="M81.0187 128.1287
L80.9235 127.9382
" />
<path d="M80.9235 127.9382
L80.8282 127.5573
" />
<path d="M80.8282 127.5573
L80.8282 127.0811
" />
<path d="M80.8282 127.0811
L80.9235 126.7001
" />
<path d="M80.9235 126.7001
L81.0187 126.5096
" />
<path d="M81.0187 126.5096
L81.1139 126.4144
" />
<path d="M81.1139 126.4144
L81.3044 126.3192
" />
<path d="M82.8282 128.3192
L82.8282 126.9858
" />
<path d="M82.8282 127.1763
L82.9235 127.0811
" />
<path d="M82.9235 127.0811
L83.1139 126.9858
" />
<path d="M83.1139 126.9858
L83.3997 126.9858
" />
<path d="M83.3997 126.9858
L83.5901 127.0811
" />
<path d="M83.5901 127.0811
L83.6854 127.2715
" />
<path d="M83.6854 127.2715
L83.6854 128.3192
" />
<path d="M83.6854 127.2715
L83.7806 127.0811
" />
<path d="M83.7806 127.0811
L83.9711 126.9858
" />
<path d="M83.9711 126.9858
L84.2568 126.9858
" />
<path d="M84.2568 126.9858
L84.4473 127.0811
" />
<path d="M84.4473 127.0811
L84.5425 127.2715
" />
<path d="M84.5425 127.2715
L84.5425 128.3192
" />
<path d="M85.4949 128.3192
L85.4949 126.9858
" />
<path d="M85.4949 127.1763
L85.5901 127.0811
" />
<path d="M85.5901 127.0811
L85.7806 126.9858
" />
<path d="M85.7806 126.9858
L86.0663 126.9858
" />
<path d="M86.0663 126.9858
L86.2568 127.0811
" />
<path d="M86.2568 127.0811
L86.3520 127.2715
" />
<path d="M86.3520 127.2715
L86.3520 128.3192
" />
<path d="M86.3520 127.2715
L86.4473 127.0811
" />
<path d="M86.4473 127.0811
L86.6378 126.9858
" />
<path d="M86.6378 126.9858
L86.9235 126.9858
" />
<path d="M86.9235 126.9858
L87.1139 127.0811
" />
<path d="M87.1139 127.0811
L87.2092 127.2715
" />
<path d="M87.2092 127.2715
L87.2092 128.3192
" />
<path d="M91.1140 126.2239
L89.3997 128.7954
" />
<path d="M93.6854 126.3192
L93.8759 126.3192
" />
<path d="M93.8759 126.3192
L94.0663 126.4144
" />
<path d="M94.0663 126.4144
L94.1616 126.5096
" />
<path d="M94.1616 126.5096
L94.2568 126.7001
" />
<path d="M94.2568 126.7001
L94.3520 127.0811
" />
<path d="M94.3520 127.0811
L94.3520 127.5573
" />
<path d="M94.3520 127.5573
L94.2568 127.9382
" />
<path d="M94.2568 127.9382
L94.1616 128.1287
" />
<path d="M94.1616 128.1287
L94.0663 128.2239
" />
<path d="M94.0663 128.2239
L93.8759 128.3192
" />
<path d="M93.8759 128.3192
L93.6854 128.3192
" />
<path d="M93.6854 128.3192
L93.4949 128.2239
" />
<path d="M93.4949 128.2239
L93.3997 128.1287
" />
<path d="M93.3997 128.1287
L93.3044 127.9382
" />
<path d="M93.3044 127.9382
L93.2092 127.5573
" />
<path d="M93.2092 127.5573
L93.2092 127.0811
" />
<path d="M93.2092 127.0811
L93.3044 126.7001
" />
<path d="M93.3044 126.7001
L93.3997 126.5096
" />
<path d="M93.3997 126.5096
L93.4949 126.4144
" />
<path d="M93.4949 126.4144
L93.6854 126.3192
" />
<path d="M95.2092 128.1287
L95.3044 128.2239
" />
<path d="M95.3044 128.2239
L95.2092 128.3192
" />
<path d="M95.2092 128.3192
L95.1140 128.2239
" />
<path d="M95.1140 128.2239
L95.2092 128.1287
" />
<path d="M95.2092 128.1287
L95.2092 128.3192
" />
<path d="M96.5425 126.3192
L96.7330 126.3192
" />
<path d="M96.7330 126.3192
L96.9235 126.4144
" />
<path d="M96.9235 126.4144
L97.0187 126.5096
" />
<path d="M97.0187 126.5096
L97.1140 126.7001
" />
<path d="M97.1140 126.7001
L97.2092 127.0811
" />
<path d="M97.2092 127.0811
L97.2092 127.5573
" />
<path d="M97.2092 127.5573
L97.1140 127.9382
" />
<path d="M97.1140 127.9382
L97.0187 128.1287
" />
<path d="M97.0187 128.1287
L96.9235 128.2239
" />
<path d="M96.9235 128.2239
L96.7330 128.3192
" />
<path d="M96.7330 128.3192
L96.5425 128.3192
" />
<path d="M96.5425 128.3192
L96.3520 128.2239
" />
<path d="M96.3520 128.2239
L96.2568 128.1287
" />
<path d="M96.2568 128.1287
L96.1616 127.9382
" />
<path d="M96.1616 127.9382
L96.0663 127.5573
" />
<path d="M96.0663 127.5573
L96.0663 127.0811
" />
<path d="M96.0663 127.0811
L96.1616 126.7001
" />
<path d="M96.1616 126.7001
L96.2568 126.5096
" />
<path d="M96.2568 126.5096
L96.3520 126.4144
" />
<path d="M96.3520 126.4144
L96.5425 126.3192
" />
<path d="M97.8759 126.3192
L99.1140 126.3192
" />
<path d="M99.1140 126.3192
L98.4473 127.0811
" />
<path d="M98.4473 127.0811
L98.7330 127.0811
" />
<path d="M98.7330 127.0811
L98.9235 127.1763
" />
<path d="M98.9235 127.1763
L99.0187 127.2715
" />
<path d="M99.0187 127.2715
L99.1140 127.4620
" />
<path d="M99.1140 127.4620
L99.1140 127.9382
" />
<path d="M99.1140 127.9382
L99.0187 128.1287
" />
<path d="M99.0187 128.1287
L98.9235 128.2239
" />
<path d="M98.9235 128.2239
L98.7330 128.3192
" />
<path d="M98.7330 128.3192
L98.1616 128.3192
" />
<path d="M98.1616 128.3192
L97.9711 128.2239
" />
<path d="M97.9711 128.2239
L97.8759 128.1287
" />
<path d="M101.0187 128.3192
L99.8759 128.3192
" />
<path d="M100.4473 128.3192
L100.4473 126.3192
" />
<path d="M100.4473 126.3192
L100.2568 126.6049
" />
<path d="M100.2568 126.6049
L100.0663 126.7954
" />
<path d="M100.0663 126.7954
L99.8759 126.8906
" />
<path d="M102.8282 126.3192
L101.8759 126.3192
" />
<path d="M101.8759 126.3192
L101.7806 127.2715
" />
<path d="M101.7806 127.2715
L101.8759 127.1763
" />
<path d="M101.8759 127.1763
L102.0663 127.0811
" />
<path d="M102.0663 127.0811
L102.5425 127.0811
" />
<path d="M102.5425 127.0811
L102.7330 127.1763
" />
<path d="M102.7330 127.1763
L102.8282 127.2715
" />
<path d="M102.8282 127.2715
L102.9235 127.4620
" />
<path d="M102.9235 127.4620
L102.9235 127.9382
" />
<path d="M102.9235 127.9382
L102.8282 128.1287
" />
<path d="M102.8282 128.1287
L102.7330 128.2239
" />
<path d="M102.7330 128.2239
L102.5425 128.3192
" />
<path d="M102.5425 128.3192
L102.0663 128.3192
" />
<path d="M102.0663 128.3192
L101.8759 128.2239
" />
<path d="M101.8759 128.2239
L101.7806 128.1287
" />
<path d="M103.6854 126.3192
L103.6854 126.7001
" />
<path d="M104.4473 126.3192
L104.4473 126.7001
" />
<path d="M107.3997 129.0811
L107.3044 128.9858
" />
<path d="M107.3044 128.9858
L107.1140 128.7001
" />
<path d="M107.1140 128.7001
L107.0187 128.5096
" />
<path d="M107.0187 128.5096
L106.9235 128.2239
" />
<path d="M106.9235 128.2239
L106.8282 127.7477
" />
<path d="M106.8282 127.7477
L106.8282 127.3668
" />
<path d="M106.8282 127.3668
L106.9235 126.8906
" />
<path d="M106.9235 126.8906
L107.0187 126.6049
" />
<path d="M107.0187 126.6049
L107.1140 126.4144
" />
<path d="M107.1140 126.4144
L107.3044 126.1287
" />
<path d="M107.3044 126.1287
L107.3997 126.0334
" />
<path d="M109.2092 128.3192
L108.0663 128.3192
" />
<path d="M108.6378 128.3192
L108.6378 126.3192
" />
<path d="M108.6378 126.3192
L108.4473 126.6049
" />
<path d="M108.4473 126.6049
L108.2568 126.7954
" />
<path d="M108.2568 126.7954
L108.0663 126.8906
" />
<path d="M110.3521 127.1763
L110.1616 127.0811
" />
<path d="M110.1616 127.0811
L110.0663 126.9858
" />
<path d="M110.0663 126.9858
L109.9711 126.7954
" />
<path d="M109.9711 126.7954
L109.9711 126.7001
" />
<path d="M109.9711 126.7001
L110.0663 126.5096
" />
<path d="M110.0663 126.5096
L110.1616 126.4144
" />
<path d="M110.1616 126.4144
L110.3521 126.3192
" />
<path d="M110.3521 126.3192
L110.7330 126.3192
" />
<path d="M110.7330 126.3192
L110.9235 126.4144
" />
<path d="M110.9235 126.4144
L111.0187 126.5096
" />
<path d="M111.0187 126.5096
L111.1140 126.7001
" />
<path d="M111.1140 126.7001
L111.1140 126.7954
" />
<path d="M111.1140 126.7954
L111.0187 126.9858
" />
<path d="M111.0187 126.9858
L110.9235 127.0811
" />
<path d="M110.9235 127.0811
L110.7330 127.1763
" />
<path d="M110.7330 127.1763
L110.3521 127.1763
" />
<path d="M110.3521 127.1763
L110.1616 127.2715
" />
<path d="M110.1616 127.2715
L110.0663 127.3668
" />
<path d="M110.0663 127.3668
L109.9711 127.5573
" />
<path d="M109.9711 127.5573
L109.9711 127.9382
" />
<path d="M109.9711 127.9382
L110.0663 128.1287
" />
<path d="M110.0663 128.1287
L110.1616 128.2239
" />
<path d="M110.1616 128.2239
L110.3521 128.3192
" />
<path d="M110.3521 128.3192
L110.7330 128.3192
" />
<path d="M110.7330 128.3192
L110.9235 128.2239
" />
<path d="M110.9235 128.2239
L111.0187 128.1287
" />
<path d="M111.0187 128.1287
L111.1140 127.9382
" />
<path d="M111.1140 127.9382
L111.1140 127.5573
" />
<path d="M111.1140 127.5573
L111.0187 127.3668
" />
<path d="M111.0187 127.3668
L110.9235 127.2715
" />
<path d="M110.9235 127.2715
L110.7330 127.1763
" />
<path d="M113.4949 128.3192
L113.4949 126.3192
" />
<path d="M114.3521 128.3192
L114.3521 127.2715
" />
<path d="M114.3521 127.2715
L114.2568 127.0811
" />
<path d="M114.2568 127.0811
L114.0663 126.9858
" />
<path d="M114.0663 126.9858
L113.7806 126.9858
" />
<path d="M113.7806 126.9858
L113.5902 127.0811
" />
<path d="M113.5902 127.0811
L113.4949 127.1763
" />
<path d="M115.5902 128.3192
L115.3997 128.2239
" />
<path d="M115.3997 128.2239
L115.3044 128.1287
" />
<path d="M115.3044 128.1287
L115.2092 127.9382
" />
<path d="M115.2092 127.9382
L115.2092 127.3668
" />
<path d="M115.2092 127.3668
L115.3044 127.1763
" />
<path d="M115.3044 127.1763
L115.3997 127.0811
" />
<path d="M115.3997 127.0811
L115.5902 126.9858
" />
<path d="M115.5902 126.9858
L115.8759 126.9858
" />
<path d="M115.8759 126.9858
L116.0663 127.0811
" />
<path d="M116.0663 127.0811
L116.1616 127.1763
" />
<path d="M116.1616 127.1763
L116.2568 127.3668
" />
<path d="M116.2568 127.3668
L116.2568 127.9382
" />
<path d="M116.2568 127.9382
L116.1616 128.1287
" />
<path d="M116.1616 128.1287
L116.0663 128.2239
" />
<path d="M116.0663 128.2239
L115.8759 128.3192
" />
<path d="M115.8759 128.3192
L115.5902 128.3192
" />
<path d="M117.3997 128.3192
L117.2092 128.2239
" />
<path d="M117.2092 128.2239
L117.1140 128.0334
" />
<path d="M117.1140 128.0334
L117.1140 126.3192
" />
<path d="M118.9235 128.2239
L118.7330 128.3192
" />
<path d="M118.7330 128.3192
L118.3521 128.3192
" />
<path d="M118.3521 128.3192
L118.1616 128.2239
" />
<path d="M118.1616 128.2239
L118.0663 128.0334
" />
<path d="M118.0663 128.0334
L118.0663 127.2715
" />
<path d="M118.0663 127.2715
L118.1616 127.0811
" />
<path d="M118.1616 127.0811
L118.3521 126.9858
" />
<path d="M118.3521 126.9858
L118.7330 126.9858
" />
<path d="M118.7330 126.9858
L118.9235 127.0811
" />
<path d="M118.9235 127.0811
L119.0187 127.2715
" />
<path d="M119.0187 127.2715
L119.0187 127.4620
" />
<path d="M119.0187 127.4620
L118.0663 127.6525
" />
<path d="M119.7806 128.2239
L119.9711 128.3192
" />
<path d="M119.9711 128.3192
L120.3521 128.3192
" />
<path d="M120.3521 128.3192
L120.5425 128.2239
" />
<path d="M120.5425 128.2239
L120.6378 128.0334
" />
<path d="M120.6378 128.0334
L120.6378 127.9382
" />
<path d="M120.6378 127.9382
L120.5425 127.7477
" />
<path d="M120.5425 127.7477
L120.3521 127.6525
" />
<path d="M120.3521 127.6525
L120.0663 127.6525
" />
<path d="M120.0663 127.6525
L119.8759 127.5573
" />
<path d="M119.8759 127.5573
L119.7806 127.3668
" />
<path d="M119.7806 127.3668
L119.7806 127.2715
" />
<path d="M119.7806 127.2715
L119.8759 127.0811
" />
<path d="M119.8759 127.0811
L120.0663 126.9858
" />
<path d="M120.0663 126.9858
L120.3521 126.9858
" />
<path d="M120.3521 126.9858
L120.5425 127.0811
" />
<path d="M121.3044 129.0811
L121.3997 128.9858
" />
<path d="M121.3997 128.9858
L121.5902 128.7001
" />
<path d="M121.5902 128.7001
L121.6854 128.5096
" />
<path d="M121.6854 128.5096
L121.7806 128.2239
" />
<path d="M121.7806 128.2239
L121.8759 127.7477
" />
<path d="M121.8759 127.7477
L121.8759 127.3668
" />
<path d="M121.8759 127.3668
L121.7806 126.8906
" />
<path d="M121.7806 126.8906
L121.6854 126.6049
" />
<path d="M121.6854 126.6049
L121.5902 126.4144
" />
<path d="M121.5902 126.4144
L121.3997 126.1287
" />
<path d="M121.3997 126.1287
L121.3044 126.0334
" />
</g></g>
<g style="fill:#000000; fill-opacity:0.0; 
stroke:#000000; stroke-width:0.2120; stroke-opacity:1; 
stroke-linecap:round; stroke-linejoin:round;">
<circle cx="70.6490" cy="130.3006" r="1.0000" /> 
</g>
<g style="fill:#000000; fill-opacity:0.0; 
stroke:#000000; stroke-width:0.4241; stroke-opacity:1; 
stroke-linecap:round; stroke-linejoin:round;">
</g>
<g style="fill:#000000; fill-opacity:0.0; 
stroke:#000000; stroke-width:0.2000; stroke-opacity:1; 
stroke-linecap:round; stroke-linejoin:round;">
<text x="73.6490" y="131.3006"
textLength="64.9619" font-size="2.6667" lengthAdjust="spacingAndGlyphs"
text-anchor="start" opacity="0">1.000mm / 0.0394" (36 holes + 3 slots)</text>
<g class="stroked-text"><desc>1.000mm / 0.0394" (36 holes + 3 slots)</desc>
<path d="M75.3044 131.2154
L74.1616 131.2154
" />
<path d="M74.7330 131.2154
L74.7330 129.2154
" />
<path d="M74.7330 129.2154
L74.5425 129.5012
" />
<path d="M74.5425 129.5012
L74.3520 129.6916
" />
<path d="M74.3520 129.6916
L74.1616 129.7869
" />
<path d="M76.1616 131.0250
L76.2568 131.1202
" />
<path d="M76.2568 131.1202
L76.1616 131.2154
" />
<path d="M76.1616 131.2154
L76.0663 131.1202
" />
<path d="M76.0663 131.1202
L76.1616 131.0250
" />
<path d="M76.1616 131.0250
L76.1616 131.2154
" />
<path d="M77.4949 129.2154
L77.6854 129.2154
" />
<path d="M77.6854 129.2154
L77.8759 129.3107
" />
<path d="M77.8759 129.3107
L77.9711 129.4059
" />
<path d="M77.9711 129.4059
L78.0663 129.5964
" />
<path d="M78.0663 129.5964
L78.1616 129.9773
" />
<path d="M78.1616 129.9773
L78.1616 130.4535
" />
<path d="M78.1616 130.4535
L78.0663 130.8345
" />
<path d="M78.0663 130.8345
L77.9711 131.0250
" />
<path d="M77.9711 131.0250
L77.8759 131.1202
" />
<path d="M77.8759 131.1202
L77.6854 131.2154
" />
<path d="M77.6854 131.2154
L77.4949 131.2154
" />
<path d="M77.4949 131.2154
L77.3044 131.1202
" />
<path d="M77.3044 131.1202
L77.2092 131.0250
" />
<path d="M77.2092 131.0250
L77.1139 130.8345
" />
<path d="M77.1139 130.8345
L77.0187 130.4535
" />
<path d="M77.0187 130.4535
L77.0187 129.9773
" />
<path d="M77.0187 129.9773
L77.1139 129.5964
" />
<path d="M77.1139 129.5964
L77.2092 129.4059
" />
<path d="M77.2092 129.4059
L77.3044 129.3107
" />
<path d="M77.3044 129.3107
L77.4949 129.2154
" />
<path d="M79.3997 129.2154
L79.5901 129.2154
" />
<path d="M79.5901 129.2154
L79.7806 129.3107
" />
<path d="M79.7806 129.3107
L79.8759 129.4059
" />
<path d="M79.8759 129.4059
L79.9711 129.5964
" />
<path d="M79.9711 129.5964
L80.0663 129.9773
" />
<path d="M80.0663 129.9773
L80.0663 130.4535
" />
<path d="M80.0663 130.4535
L79.9711 130.8345
" />
<path d="M79.9711 130.8345
L79.8759 131.0250
" />
<path d="M79.8759 131.0250
L79.7806 131.1202
" />
<path d="M79.7806 131.1202
L79.5901 131.2154
" />
<path d="M79.5901 131.2154
L79.3997 131.2154
" />
<path d="M79.3997 131.2154
L79.2092 131.1202
" />
<path d="M79.2092 131.1202
L79.1139 131.0250
" />
<path d="M79.1139 131.0250
L79.0187 130.8345
" />
<path d="M79.0187 130.8345
L78.9235 130.4535
" />
<path d="M78.9235 130.4535
L78.9235 129.9773
" />
<path d="M78.9235 129.9773
L79.0187 129.5964
" />
<path d="M79.0187 129.5964
L79.1139 129.4059
" />
<path d="M79.1139 129.4059
L79.2092 129.3107
" />
<path d="M79.2092 129.3107
L79.3997 129.2154
" />
<path d="M81.3044 129.2154
L81.4949 129.2154
" />
<path d="M81.4949 129.2154
L81.6854 129.3107
" />
<path d="M81.6854 129.3107
L81.7806 129.4059
" />
<path d="M81.7806 129.4059
L81.8759 129.5964
" />
<path d="M81.8759 129.5964
L81.9711 129.9773
" />
<path d="M81.9711 129.9773
L81.9711 130.4535
" />
<path d="M81.9711 130.4535
L81.8759 130.8345
" />
<path d="M81.8759 130.8345
L81.7806 131.0250
" />
<path d="M81.7806 131.0250
L81.6854 131.1202
" />
<path d="M81.6854 131.1202
L81.4949 131.2154
" />
<path d="M81.4949 131.2154
L81.3044 131.2154
" />
<path d="M81.3044 131.2154
L81.1139 131.1202
" />
<path d="M81.1139 131.1202
L81.0187 131.0250
" />
<path d="M81.0187 131.0250
L80.9235 130.8345
" />
<path d="M80.9235 130.8345
L80.8282 130.4535
" />
<path d="M80.8282 130.4535
L80.8282 129.9773
" />
<path d="M80.8282 129.9773
L80.9235 129.5964
" />
<path d="M80.9235 129.5964
L81.0187 129.4059
" />
<path d="M81.0187 129.4059
L81.1139 129.3107
" />
<path d="M81.1139 129.3107
L81.3044 129.2154
" />
<path d="M82.8282 131.2154
L82.8282 129.8821
" />
<path d="M82.8282 130.0726
L82.9235 129.9773
" />
<path d="M82.9235 129.9773
L83.1139 129.8821
" />
<path d="M83.1139 129.8821
L83.3997 129.8821
" />
<path d="M83.3997 129.8821
L83.5901 129.9773
" />
<path d="M83.5901 129.9773
L83.6854 130.1678
" />
<path d="M83.6854 130.1678
L83.6854 131.2154
" />
<path d="M83.6854 130.1678
L83.7806 129.9773
" />
<path d="M83.7806 129.9773
L83.9711 129.8821
" />
<path d="M83.9711 129.8821
L84.2568 129.8821
" />
<path d="M84.2568 129.8821
L84.4473 129.9773
" />
<path d="M84.4473 129.9773
L84.5425 130.1678
" />
<path d="M84.5425 130.1678
L84.5425 131.2154
" />
<path d="M85.4949 131.2154
L85.4949 129.8821
" />
<path d="M85.4949 130.0726
L85.5901 129.9773
" />
<path d="M85.5901 129.9773
L85.7806 129.8821
" />
<path d="M85.7806 129.8821
L86.0663 129.8821
" />
<path d="M86.0663 129.8821
L86.2568 129.9773
" />
<path d="M86.2568 129.9773
L86.3520 130.1678
" />
<path d="M86.3520 130.1678
L86.3520 131.2154
" />
<path d="M86.3520 130.1678
L86.4473 129.9773
" />
<path d="M86.4473 129.9773
L86.6378 129.8821
" />
<path d="M86.6378 129.8821
L86.9235 129.8821
" />
<path d="M86.9235 129.8821
L87.1139 129.9773
" />
<path d="M87.1139 129.9773
L87.2092 130.1678
" />
<path d="M87.2092 130.1678
L87.2092 131.2154
" />
<path d="M91.1140 129.1202
L89.3997 131.6916
" />
<path d="M93.6854 129.2154
L93.8759 129.2154
" />
<path d="M93.8759 129.2154
L94.0663 129.3107
" />
<path d="M94.0663 129.3107
L94.1616 129.4059
" />
<path d="M94.1616 129.4059
L94.2568 129.5964
" />
<path d="M94.2568 129.5964
L94.3520 129.9773
" />
<path d="M94.3520 129.9773
L94.3520 130.4535
" />
<path d="M94.3520 130.4535
L94.2568 130.8345
" />
<path d="M94.2568 130.8345
L94.1616 131.0250
" />
<path d="M94.1616 131.0250
L94.0663 131.1202
" />
<path d="M94.0663 131.1202
L93.8759 131.2154
" />
<path d="M93.8759 131.2154
L93.6854 131.2154
" />
<path d="M93.6854 131.2154
L93.4949 131.1202
" />
<path d="M93.4949 131.1202
L93.3997 131.0250
" />
<path d="M93.3997 131.0250
L93.3044 130.8345
" />
<path d="M93.3044 130.8345
L93.2092 130.4535
" />
<path d="M93.2092 130.4535
L93.2092 129.9773
" />
<path d="M93.2092 129.9773
L93.3044 129.5964
" />
<path d="M93.3044 129.5964
L93.3997 129.4059
" />
<path d="M93.3997 129.4059
L93.4949 129.3107
" />
<path d="M93.4949 129.3107
L93.6854 129.2154
" />
<path d="M95.2092 131.0250
L95.3044 131.1202
" />
<path d="M95.3044 131.1202
L95.2092 131.2154
" />
<path d="M95.2092 131.2154
L95.1140 131.1202
" />
<path d="M95.1140 131.1202
L95.2092 131.0250
" />
<path d="M95.2092 131.0250
L95.2092 131.2154
" />
<path d="M96.5425 129.2154
L96.7330 129.2154
" />
<path d="M96.7330 129.2154
L96.9235 129.3107
" />
<path d="M96.9235 129.3107
L97.0187 129.4059
" />
<path d="M97.0187 129.4059
L97.1140 129.5964
" />
<path d="M97.1140 129.5964
L97.2092 129.9773
" />
<path d="M97.2092 129.9773
L97.2092 130.4535
" />
<path d="M97.2092 130.4535
L97.1140 130.8345
" />
<path d="M97.1140 130.8345
L97.0187 131.0250
" />
<path d="M97.0187 131.0250
L96.9235 131.1202
" />
<path d="M96.9235 131.1202
L96.7330 131.2154
" />
<path d="M96.7330 131.2154
L96.5425 131.2154
" />
<path d="M96.5425 131.2154
L96.3520 131.1202
" />
<path d="M96.3520 131.1202
L96.2568 131.0250
" />
<path d="M96.2568 131.0250
L96.1616 130.8345
" />
<path d="M96.1616 130.8345
L96.0663 130.4535
" />
<path d="M96.0663 130.4535
L96.0663 129.9773
" />
<path d="M96.0663 129.9773
L96.1616 129.5964
" />
<path d="M96.1616 129.5964
L96.2568 129.4059
" />
<path d="M96.2568 129.4059
L96.3520 129.3107
" />
<path d="M96.3520 129.3107
L96.5425 129.2154
" />
<path d="M97.8759 129.2154
L99.1140 129.2154
" />
<path d="M99.1140 129.2154
L98.4473 129.9773
" />
<path d="M98.4473 129.9773
L98.7330 129.9773
" />
<path d="M98.7330 129.9773
L98.9235 130.0726
" />
<path d="M98.9235 130.0726
L99.0187 130.1678
" />
<path d="M99.0187 130.1678
L99.1140 130.3583
" />
<path d="M99.1140 130.3583
L99.1140 130.8345
" />
<path d="M99.1140 130.8345
L99.0187 131.0250
" />
<path d="M99.0187 131.0250
L98.9235 131.1202
" />
<path d="M98.9235 131.1202
L98.7330 131.2154
" />
<path d="M98.7330 131.2154
L98.1616 131.2154
" />
<path d="M98.1616 131.2154
L97.9711 131.1202
" />
<path d="M97.9711 131.1202
L97.8759 131.0250
" />
<path d="M100.0663 131.2154
L100.4473 131.2154
" />
<path d="M100.4473 131.2154
L100.6378 131.1202
" />
<path d="M100.6378 131.1202
L100.7330 131.0250
" />
<path d="M100.7330 131.0250
L100.9235 130.7392
" />
<path d="M100.9235 130.7392
L101.0187 130.3583
" />
<path d="M101.0187 130.3583
L101.0187 129.5964
" />
<path d="M101.0187 129.5964
L100.9235 129.4059
" />
<path d="M100.9235 129.4059
L100.8282 129.3107
" />
<path d="M100.8282 129.3107
L100.6378 129.2154
" />
<path d="M100.6378 129.2154
L100.2568 129.2154
" />
<path d="M100.2568 129.2154
L100.0663 129.3107
" />
<path d="M100.0663 129.3107
L99.9711 129.4059
" />
<path d="M99.9711 129.4059
L99.8759 129.5964
" />
<path d="M99.8759 129.5964
L99.8759 130.0726
" />
<path d="M99.8759 130.0726
L99.9711 130.2631
" />
<path d="M99.9711 130.2631
L100.0663 130.3583
" />
<path d="M100.0663 130.3583
L100.2568 130.4535
" />
<path d="M100.2568 130.4535
L100.6378 130.4535
" />
<path d="M100.6378 130.4535
L100.8282 130.3583
" />
<path d="M100.8282 130.3583
L100.9235 130.2631
" />
<path d="M100.9235 130.2631
L101.0187 130.0726
" />
<path d="M102.7330 129.8821
L102.7330 131.2154
" />
<path d="M102.2568 129.1202
L101.7806 130.5488
" />
<path d="M101.7806 130.5488
L103.0187 130.5488
" />
<path d="M103.6854 129.2154
L103.6854 129.5964
" />
<path d="M104.4473 129.2154
L104.4473 129.5964
" />
<path d="M107.3997 131.9773
L107.3044 131.8821
" />
<path d="M107.3044 131.8821
L107.1140 131.5964
" />
<path d="M107.1140 131.5964
L107.0187 131.4059
" />
<path d="M107.0187 131.4059
L106.9235 131.1202
" />
<path d="M106.9235 131.1202
L106.8282 130.6440
" />
<path d="M106.8282 130.6440
L106.8282 130.2631
" />
<path d="M106.8282 130.2631
L106.9235 129.7869
" />
<path d="M106.9235 129.7869
L107.0187 129.5012
" />
<path d="M107.0187 129.5012
L107.1140 129.3107
" />
<path d="M107.1140 129.3107
L107.3044 129.0250
" />
<path d="M107.3044 129.0250
L107.3997 128.9297
" />
<path d="M107.9711 129.2154
L109.2092 129.2154
" />
<path d="M109.2092 129.2154
L108.5425 129.9773
" />
<path d="M108.5425 129.9773
L108.8282 129.9773
" />
<path d="M108.8282 129.9773
L109.0187 130.0726
" />
<path d="M109.0187 130.0726
L109.1140 130.1678
" />
<path d="M109.1140 130.1678
L109.2092 130.3583
" />
<path d="M109.2092 130.3583
L109.2092 130.8345
" />
<path d="M109.2092 130.8345
L109.1140 131.0250
" />
<path d="M109.1140 131.0250
L109.0187 131.1202
" />
<path d="M109.0187 131.1202
L108.8282 131.2154
" />
<path d="M108.8282 131.2154
L108.2568 131.2154
" />
<path d="M108.2568 131.2154
L108.0663 131.1202
" />
<path d="M108.0663 131.1202
L107.9711 131.0250
" />
<path d="M110.9235 129.2154
L110.5425 129.2154
" />
<path d="M110.5425 129.2154
L110.3521 129.3107
" />
<path d="M110.3521 129.3107
L110.2568 129.4059
" />
<path d="M110.2568 129.4059
L110.0663 129.6916
" />
<path d="M110.0663 129.6916
L109.9711 130.0726
" />
<path d="M109.9711 130.0726
L109.9711 130.8345
" />
<path d="M109.9711 130.8345
L110.0663 131.0250
" />
<path d="M110.0663 131.0250
L110.1616 131.1202
" />
<path d="M110.1616 131.1202
L110.3521 131.2154
" />
<path d="M110.3521 131.2154
L110.7330 131.2154
" />
<path d="M110.7330 131.2154
L110.9235 131.1202
" />
<path d="M110.9235 131.1202
L111.0187 131.0250
" />
<path d="M111.0187 131.0250
L111.1140 130.8345
" />
<path d="M111.1140 130.8345
L111.1140 130.3583
" />
<path d="M111.1140 130.3583
L111.0187 130.1678
" />
<path d="M111.0187 130.1678
L110.9235 130.0726
" />
<path d="M110.9235 130.0726
L110.7330 129.9773
" />
<path d="M110.7330 129.9773
L110.3521 129.9773
" />
<path d="M110.3521 129.9773
L110.1616 130.0726
" />
<path d="M110.1616 130.0726
L110.0663 130.1678
" />
<path d="M110.0663 130.1678
L109.9711 130.3583
" />
<path d="M113.4949 131.2154
L113.4949 129.2154
" />
<path d="M114.3521 131.2154
L114.3521 130.1678
" />
<path d="M114.3521 130.1678
L114.2568 129.9773
" />
<path d="M114.2568 129.9773
L114.0663 129.8821
" />
<path d="M114.0663 129.8821
L113.7806 129.8821
" />
<path d="M113.7806 129.8821
L113.5902 129.9773
" />
<path d="M113.5902 129.9773
L113.4949 130.0726
" />
<path d="M115.5902 131.2154
L115.3997 131.1202
" />
<path d="M115.3997 131.1202
L115.3044 131.0250
" />
<path d="M115.3044 131.0250
L115.2092 130.8345
" />
<path d="M115.2092 130.8345
L115.2092 130.2631
" />
<path d="M115.2092 130.2631
L115.3044 130.0726
" />
<path d="M115.3044 130.0726
L115.3997 129.9773
" />
<path d="M115.3997 129.9773
L115.5902 129.8821
" />
<path d="M115.5902 129.8821
L115.8759 129.8821
" />
<path d="M115.8759 129.8821
L116.0663 129.9773
" />
<path d="M116.0663 129.9773
L116.1616 130.0726
" />
<path d="M116.1616 130.0726
L116.2568 130.2631
" />
<path d="M116.2568 130.2631
L116.2568 130.8345
" />
<path d="M116.2568 130.8345
L116.1616 131.0250
" />
<path d="M116.1616 131.0250
L116.0663 131.1202
" />
<path d="M116.0663 131.1202
L115.8759 131.2154
" />
<path d="M115.8759 131.2154
L115.5902 131.2154
" />
<path d="M117.3997 131.2154
L117.2092 131.1202
" />
<path d="M117.2092 131.1202
L117.1140 130.9297
" />
<path d="M117.1140 130.9297
L117.1140 129.2154
" />
<path d="M118.9235 131.1202
L118.7330 131.2154
" />
<path d="M118.7330 131.2154
L118.3521 131.2154
" />
<path d="M118.3521 131.2154
L118.1616 131.1202
" />
<path d="M118.1616 131.1202
L118.0663 130.9297
" />
<path d="M118.0663 130.9297
L118.0663 130.1678
" />
<path d="M118.0663 130.1678
L118.1616 129.9773
" />
<path d="M118.1616 129.9773
L118.3521 129.8821
" />
<path d="M118.3521 129.8821
L118.7330 129.8821
" />
<path d="M118.7330 129.8821
L118.9235 129.9773
" />
<path d="M118.9235 129.9773
L119.0187 130.1678
" />
<path d="M119.0187 130.1678
L119.0187 130.3583
" />
<path d="M119.0187 130.3583
L118.0663 130.5488
" />
<path d="M119.7806 131.1202
L119.9711 131.2154
" />
<path d="M119.9711 131.2154
L120.3521 131.2154
" />
<path d="M120.3521 131.2154
L120.5425 131.1202
" />
<path d="M120.5425 131.1202
L120.6378 130.9297
" />
<path d="M120.6378 130.9297
L120.6378 130.8345
" />
<path d="M120.6378 130.8345
L120.5425 130.6440
" />
<path d="M120.5425 130.6440
L120.3521 130.5488
" />
<path d="M120.3521 130.5488
L120.0663 130.5488
" />
<path d="M120.0663 130.5488
L119.8759 130.4535
" />
<path d="M119.8759 130.4535
L119.7806 130.2631
" />
<path d="M119.7806 130.2631
L119.7806 130.1678
" />
<path d="M119.7806 130.1678
L119.8759 129.9773
" />
<path d="M119.8759 129.9773
L120.0663 129.8821
" />
<path d="M120.0663 129.8821
L120.3521 129.8821
" />
<path d="M120.3521 129.8821
L120.5425 129.9773
" />
<path d="M123.0187 130.4535
L124.5425 130.4535
" />
<path d="M123.7806 131.2154
L123.7806 129.6916
" />
<path d="M126.8283 129.2154
L128.0663 129.2154
" />
<path d="M128.0663 129.2154
L127.3997 129.9773
" />
<path d="M127.3997 129.9773
L127.6854 129.9773
" />
<path d="M127.6854 129.9773
L127.8759 130.0726
" />
<path d="M127.8759 130.0726
L127.9711 130.1678
" />
<path d="M127.9711 130.1678
L128.0663 130.3583
" />
<path d="M128.0663 130.3583
L128.0663 130.8345
" />
<path d="M128.0663 130.8345
L127.9711 131.0250
" />
<path d="M127.9711 131.0250
L127.8759 131.1202
" />
<path d="M127.8759 131.1202
L127.6854 131.2154
" />
<path d="M127.6854 131.2154
L127.1140 131.2154
" />
<path d="M127.1140 131.2154
L126.9235 131.1202
" />
<path d="M126.9235 131.1202
L126.8283 131.0250
" />
<path d="M130.3521 131.1202
L130.5425 131.2154
" />
<path d="M130.5425 131.2154
L130.9235 131.2154
" />
<path d="M130.9235 131.2154
L131.1140 131.1202
" />
<path d="M131.1140 131.1202
L131.2092 130.9297
" />
<path d="M131.2092 130.9297
L131.2092 130.8345
" />
<path d="M131.2092 130.8345
L131.1140 130.6440
" />
<path d="M131.1140 130.6440
L130.9235 130.5488
" />
<path d="M130.9235 130.5488
L130.6378 130.5488
" />
<path d="M130.6378 130.5488
L130.4473 130.4535
" />
<path d="M130.4473 130.4535
L130.3521 130.2631
" />
<path d="M130.3521 130.2631
L130.3521 130.1678
" />
<path d="M130.3521 130.1678
L130.4473 129.9773
" />
<path d="M130.4473 129.9773
L130.6378 129.8821
" />
<path d="M130.6378 129.8821
L130.9235 129.8821
" />
<path d="M130.9235 129.8821
L131.1140 129.9773
" />
<path d="M132.3521 131.2154
L132.1616 131.1202
" />
<path d="M132.1616 131.1202
L132.0664 130.9297
" />
<path d="M132.0664 130.9297
L132.0664 129.2154
" />
<path d="M133.3997 131.2154
L133.2092 131.1202
" />
<path d="M133.2092 131.1202
L133.1140 131.0250
" />
<path d="M133.1140 131.0250
L133.0187 130.8345
" />
<path d="M133.0187 130.8345
L133.0187 130.2631
" />
<path d="M133.0187 130.2631
L133.1140 130.0726
" />
<path d="M133.1140 130.0726
L133.2092 129.9773
" />
<path d="M133.2092 129.9773
L133.3997 129.8821
" />
<path d="M133.3997 129.8821
L133.6854 129.8821
" />
<path d="M133.6854 129.8821
L133.8759 129.9773
" />
<path d="M133.8759 129.9773
L133.9711 130.0726
" />
<path d="M133.9711 130.0726
L134.0664 130.2631
" />
<path d="M134.0664 130.2631
L134.0664 130.8345
" />
<path d="M134.0664 130.8345
L133.9711 131.0250
" />
<path d="M133.9711 131.0250
L133.8759 131.1202
" />
<path d="M133.8759 131.1202
L133.6854 131.2154
" />
<path d="M133.6854 131.2154
L133.3997 131.2154
" />
<path d="M134.6378 129.8821
L135.3997 129.8821
" />
<path d="M134.9235 129.2154
L134.9235 130.9297
" />
<path d="M134.9235 130.9297
L135.0187 131.1202
" />
<path d="M135.0187 131.1202
L135.2092 131.2154
" />
<path d="M135.2092 131.2154
L135.3997 131.2154
" />
<path d="M135.9711 131.1202
L136.1616 131.2154
" />
<path d="M136.1616 131.2154
L136.5425 131.2154
" />
<path d="M136.5425 131.2154
L136.7330 131.1202
" />
<path d="M136.7330 131.1202
L136.8283 130.9297
" />
<path d="M136.8283 130.9297
L136.8283 130.8345
" />
<path d="M136.8283 130.8345
L136.7330 130.6440
" />
<path d="M136.7330 130.6440
L136.5425 130.5488
" />
<path d="M136.5425 130.5488
L136.2568 130.5488
" />
<path d="M136.2568 130.5488
L136.0664 130.4535
" />
<path d="M136.0664 130.4535
L135.9711 130.2631
" />
<path d="M135.9711 130.2631
L135.9711 130.1678
" />
<path d="M135.9711 130.1678
L136.0664 129.9773
" />
<path d="M136.0664 129.9773
L136.2568 129.8821
" />
<path d="M136.2568 129.8821
L136.5425 129.8821
" />
<path d="M136.5425 129.8821
L136.7330 129.9773
" />
<path d="M137.4949 131.9773
L137.5902 131.8821
" />
<path d="M137.5902 131.8821
L137.7806 131.5964
" />
<path d="M137.7806 131.5964
L137.8759 131.4059
" />
<path d="M137.8759 131.4059
L137.9711 131.1202
" />
<path d="M137.9711 131.1202
L138.0664 130.6440
" />
<path d="M138.0664 130.6440
L138.0664 130.2631
" />
<path d="M138.0664 130.2631
L137.9711 129.7869
" />
<path d="M137.9711 129.7869
L137.8759 129.5012
" />
<path d="M137.8759 129.5012
L137.7806 129.3107
" />
<path d="M137.7806 129.3107
L137.5902 129.0250
" />
<path d="M137.5902 129.0250
L137.4949 128.9297
" />
</g></g> 
</svg>
