%TF.GenerationSoftware,KiCad,Pcbnew,7.0.10*%
%TF.CreationDate,2024-02-12T17:30:29-09:00*%
%TF.ProjectId,CustomPCB,43757374-6f6d-4504-9342-2e6b69636164,rev?*%
%TF.SameCoordinates,Original*%
%TF.FileFunction,Copper,L1,Top*%
%TF.FilePolarity,Positive*%
%FSLAX46Y46*%
G04 Gerber Fmt 4.6, Leading zero omitted, Abs format (unit mm)*
G04 Created by KiCad (PCBNEW 7.0.10) date 2024-02-12 17:30:29*
%MOMM*%
%LPD*%
G01*
G04 APERTURE LIST*
G04 Aperture macros list*
%AMRoundRect*
0 Rectangle with rounded corners*
0 $1 Rounding radius*
0 $2 $3 $4 $5 $6 $7 $8 $9 X,Y pos of 4 corners*
0 Add a 4 corners polygon primitive as box body*
4,1,4,$2,$3,$4,$5,$6,$7,$8,$9,$2,$3,0*
0 Add four circle primitives for the rounded corners*
1,1,$1+$1,$2,$3*
1,1,$1+$1,$4,$5*
1,1,$1+$1,$6,$7*
1,1,$1+$1,$8,$9*
0 Add four rect primitives between the rounded corners*
20,1,$1+$1,$2,$3,$4,$5,0*
20,1,$1+$1,$4,$5,$6,$7,0*
20,1,$1+$1,$6,$7,$8,$9,0*
20,1,$1+$1,$8,$9,$2,$3,0*%
G04 Aperture macros list end*
%TA.AperFunction,ComponentPad*%
%ADD10R,1.730000X2.030000*%
%TD*%
%TA.AperFunction,ComponentPad*%
%ADD11O,1.730000X2.030000*%
%TD*%
%TA.AperFunction,ComponentPad*%
%ADD12R,1.700000X1.700000*%
%TD*%
%TA.AperFunction,ComponentPad*%
%ADD13O,1.700000X1.700000*%
%TD*%
%TA.AperFunction,SMDPad,CuDef*%
%ADD14R,1.500000X1.500000*%
%TD*%
%TA.AperFunction,ComponentPad*%
%ADD15R,1.600000X1.600000*%
%TD*%
%TA.AperFunction,ComponentPad*%
%ADD16O,1.600000X1.600000*%
%TD*%
%TA.AperFunction,ComponentPad*%
%ADD17R,3.000000X3.000000*%
%TD*%
%TA.AperFunction,ComponentPad*%
%ADD18C,3.000000*%
%TD*%
%TA.AperFunction,ComponentPad*%
%ADD19RoundRect,0.875000X-0.875000X0.875000X-0.875000X-0.875000X0.875000X-0.875000X0.875000X0.875000X0*%
%TD*%
%TA.AperFunction,ComponentPad*%
%ADD20RoundRect,0.750000X-1.000000X0.750000X-1.000000X-0.750000X1.000000X-0.750000X1.000000X0.750000X0*%
%TD*%
%TA.AperFunction,ComponentPad*%
%ADD21R,3.500000X3.500000*%
%TD*%
%TA.AperFunction,ComponentPad*%
%ADD22C,1.600000*%
%TD*%
%TA.AperFunction,Conductor*%
%ADD23C,0.900000*%
%TD*%
%TA.AperFunction,Conductor*%
%ADD24C,0.500000*%
%TD*%
%TA.AperFunction,Conductor*%
%ADD25C,0.250000*%
%TD*%
G04 APERTURE END LIST*
D10*
%TO.P,Fan_Header_1,1,-*%
%TO.N,/12v Negative*%
X185420000Y-113030000D03*
D11*
%TO.P,Fan_Header_1,2,+*%
%TO.N,/12v Positive*%
X187960000Y-113030000D03*
%TO.P,Fan_Header_1,3,Tacho*%
%TO.N,unconnected-(Fan_Header_1-Tacho-Pad3)*%
X190500000Y-113030000D03*
%TD*%
D12*
%TO.P,Motor_2,1,Pin_1*%
%TO.N,/Motor1A*%
X177800000Y-86360000D03*
D13*
%TO.P,Motor_2,2,Pin_2*%
%TO.N,/Motor1B*%
X177800000Y-83820000D03*
%TO.P,Motor_2,3,Pin_3*%
%TO.N,/Motor1C*%
X177800000Y-81280000D03*
%TO.P,Motor_2,4,Pin_4*%
%TO.N,/Motor1D*%
X177800000Y-78740000D03*
%TD*%
D12*
%TO.P,Motor_1,1,Pin_1*%
%TO.N,/Motor2A*%
X177800000Y-109220000D03*
D13*
%TO.P,Motor_1,2,Pin_2*%
%TO.N,/Motor2B*%
X177800000Y-106680000D03*
%TO.P,Motor_1,3,Pin_3*%
%TO.N,/Motor2C*%
X177800000Y-104140000D03*
%TO.P,Motor_1,4,Pin_4*%
%TO.N,/Motor2D*%
X177800000Y-101600000D03*
%TD*%
D14*
%TO.P,D11,1,1*%
%TO.N,/D11 Breakout*%
X154940000Y-74930000D03*
%TD*%
D12*
%TO.P,J2,1,Pin_1*%
%TO.N,/Logic Negative*%
X156210000Y-114300000D03*
%TD*%
D15*
%TO.P,TMC2088_2,1,GND*%
%TO.N,/Logic Negative*%
X172710000Y-91440000D03*
D16*
%TO.P,TMC2088_2,2,VDD*%
%TO.N,/Logic Positive*%
X172710000Y-88900000D03*
%TO.P,TMC2088_2,3,1B*%
%TO.N,/Motor1A*%
X172710000Y-86360000D03*
%TO.P,TMC2088_2,4,1A*%
%TO.N,/Motor1B*%
X172710000Y-83820000D03*
%TO.P,TMC2088_2,5,2A*%
%TO.N,/Motor1C*%
X172710000Y-81280000D03*
%TO.P,TMC2088_2,6,2B*%
%TO.N,/Motor1D*%
X172710000Y-78740000D03*
%TO.P,TMC2088_2,7,GND*%
%TO.N,/12v Negative*%
X172710000Y-76200000D03*
%TO.P,TMC2088_2,8,VMOT*%
%TO.N,/12v Positive*%
X172710000Y-73660000D03*
%TO.P,TMC2088_2,9,~{ENABLE}*%
%TO.N,/Enable Pin*%
X160010000Y-73660000D03*
%TO.P,TMC2088_2,10,MS1*%
%TO.N,unconnected-(TMC2088_2-MS1-Pad10)*%
X160010000Y-76200000D03*
%TO.P,TMC2088_2,11,MS2*%
%TO.N,unconnected-(TMC2088_2-MS2-Pad11)*%
X160010000Y-78740000D03*
%TO.P,TMC2088_2,12,MS3*%
%TO.N,unconnected-(TMC2088_2-MS3-Pad12)*%
X160010000Y-81280000D03*
%TO.P,TMC2088_2,13,~{RESET}*%
%TO.N,/Reset1*%
X160010000Y-83820000D03*
%TO.P,TMC2088_2,14,~{SLEEP}*%
%TO.N,unconnected-(TMC2088_2-~{SLEEP}-Pad14)*%
X160010000Y-86360000D03*
%TO.P,TMC2088_2,15,STEP*%
%TO.N,/Step1*%
X160010000Y-88900000D03*
%TO.P,TMC2088_2,16,DIR*%
%TO.N,/Direction1*%
X160010000Y-91440000D03*
%TD*%
D17*
%TO.P,Pwr_Switch_1,1,Pin_1*%
%TO.N,/12v Positive Terminal*%
X198120000Y-88900000D03*
D18*
%TO.P,Pwr_Switch_1,2,Pin_2*%
%TO.N,/12v Positive*%
X198120000Y-93980000D03*
%TD*%
D15*
%TO.P,TMC2088_1,1,GND*%
%TO.N,/Logic Negative*%
X172710000Y-114300000D03*
D16*
%TO.P,TMC2088_1,2,VDD*%
%TO.N,/Logic Positive*%
X172710000Y-111760000D03*
%TO.P,TMC2088_1,3,1B*%
%TO.N,/Motor2A*%
X172710000Y-109220000D03*
%TO.P,TMC2088_1,4,1A*%
%TO.N,/Motor2B*%
X172710000Y-106680000D03*
%TO.P,TMC2088_1,5,2A*%
%TO.N,/Motor2C*%
X172710000Y-104140000D03*
%TO.P,TMC2088_1,6,2B*%
%TO.N,/Motor2D*%
X172710000Y-101600000D03*
%TO.P,TMC2088_1,7,GND*%
%TO.N,/12v Negative*%
X172710000Y-99060000D03*
%TO.P,TMC2088_1,8,VMOT*%
%TO.N,/12v Positive*%
X172710000Y-96520000D03*
%TO.P,TMC2088_1,9,~{ENABLE}*%
%TO.N,/Enable Pin*%
X160010000Y-96520000D03*
%TO.P,TMC2088_1,10,MS1*%
%TO.N,unconnected-(TMC2088_1-MS1-Pad10)*%
X160010000Y-99060000D03*
%TO.P,TMC2088_1,11,MS2*%
%TO.N,unconnected-(TMC2088_1-MS2-Pad11)*%
X160010000Y-101600000D03*
%TO.P,TMC2088_1,12,MS3*%
%TO.N,unconnected-(TMC2088_1-MS3-Pad12)*%
X160010000Y-104140000D03*
%TO.P,TMC2088_1,13,~{RESET}*%
%TO.N,/Reset2*%
X160010000Y-106680000D03*
%TO.P,TMC2088_1,14,~{SLEEP}*%
%TO.N,unconnected-(TMC2088_1-~{SLEEP}-Pad14)*%
X160010000Y-109220000D03*
%TO.P,TMC2088_1,15,STEP*%
%TO.N,/Step2*%
X160010000Y-111760000D03*
%TO.P,TMC2088_1,16,DIR*%
%TO.N,/Direction2*%
X160010000Y-114300000D03*
%TD*%
D19*
%TO.P,DC_12V_1,3*%
%TO.N,N/C*%
X184413750Y-80353750D03*
D20*
%TO.P,DC_12V_1,2*%
%TO.N,/12v Negative*%
X189113750Y-77353750D03*
D21*
%TO.P,DC_12V_1,1*%
%TO.N,/12v Positive Terminal*%
X189113750Y-83353750D03*
%TD*%
D12*
%TO.P,J1,1,Pin_1*%
%TO.N,/Limit Pin*%
X151140000Y-81280000D03*
%TD*%
D15*
%TO.P,100uF_C1,1*%
%TO.N,/12v Positive*%
X190362651Y-91440000D03*
D22*
%TO.P,100uF_C1,2*%
%TO.N,/12v Negative*%
X185362651Y-91440000D03*
%TD*%
D14*
%TO.P,12v_N_1,1,1*%
%TO.N,/12v Negative*%
X177800000Y-90170000D03*
%TD*%
%TO.P,D2,1,1*%
%TO.N,/D2 Breakout*%
X149860000Y-105410000D03*
%TD*%
%TO.P,D12,1,1*%
%TO.N,/D12 Breakout*%
X152400000Y-74930000D03*
%TD*%
D15*
%TO.P,Arduino_1,1,D1/TX*%
%TO.N,unconnected-(Arduino_1-D1{slash}TX-Pad1)*%
X146050000Y-111760000D03*
D16*
%TO.P,Arduino_1,2,D0/RX*%
%TO.N,unconnected-(Arduino_1-D0{slash}RX-Pad2)*%
X146050000Y-109220000D03*
%TO.P,Arduino_1,3,~{RESET}*%
%TO.N,unconnected-(Arduino_1-~{RESET}-Pad3)*%
X146050000Y-106680000D03*
%TO.P,Arduino_1,4,GND*%
%TO.N,unconnected-(Arduino_1-GND-Pad4)*%
X146050000Y-104140000D03*
%TO.P,Arduino_1,5,D2*%
%TO.N,/D2 Breakout*%
X146050000Y-101600000D03*
%TO.P,Arduino_1,6,D3*%
%TO.N,/Direction2*%
X146050000Y-99060000D03*
%TO.P,Arduino_1,7,D4*%
%TO.N,/Step2*%
X146050000Y-96520000D03*
%TO.P,Arduino_1,8,D5*%
%TO.N,/Reset2*%
X146050000Y-93980000D03*
%TO.P,Arduino_1,9,D6*%
%TO.N,/Direction1*%
X146050000Y-91440000D03*
%TO.P,Arduino_1,10,D7*%
%TO.N,/Step1*%
X146050000Y-88900000D03*
%TO.P,Arduino_1,11,D8*%
%TO.N,/Reset1*%
X146050000Y-86360000D03*
%TO.P,Arduino_1,12,D9*%
%TO.N,/Enable Pin*%
X146050000Y-83820000D03*
%TO.P,Arduino_1,13,D10*%
%TO.N,/Limit Pin*%
X146050000Y-81280000D03*
%TO.P,Arduino_1,14,D11*%
%TO.N,/D11 Breakout*%
X146050000Y-78740000D03*
%TO.P,Arduino_1,15,D12*%
%TO.N,/D12 Breakout*%
X146050000Y-76200000D03*
%TO.P,Arduino_1,16,D13*%
%TO.N,/D13 Breakout*%
X130810000Y-76200000D03*
%TO.P,Arduino_1,17,3V3*%
%TO.N,unconnected-(Arduino_1-3V3-Pad17)*%
X130810000Y-78740000D03*
%TO.P,Arduino_1,18,AREF*%
%TO.N,unconnected-(Arduino_1-AREF-Pad18)*%
X130810000Y-81280000D03*
%TO.P,Arduino_1,19,A0*%
%TO.N,unconnected-(Arduino_1-A0-Pad19)*%
X130810000Y-83820000D03*
%TO.P,Arduino_1,20,A1*%
%TO.N,unconnected-(Arduino_1-A1-Pad20)*%
X130810000Y-86360000D03*
%TO.P,Arduino_1,21,A2*%
%TO.N,unconnected-(Arduino_1-A2-Pad21)*%
X130810000Y-88900000D03*
%TO.P,Arduino_1,22,A3*%
%TO.N,unconnected-(Arduino_1-A3-Pad22)*%
X130810000Y-91440000D03*
%TO.P,Arduino_1,23,A4*%
%TO.N,unconnected-(Arduino_1-A4-Pad23)*%
X130810000Y-93980000D03*
%TO.P,Arduino_1,24,A5*%
%TO.N,unconnected-(Arduino_1-A5-Pad24)*%
X130810000Y-96520000D03*
%TO.P,Arduino_1,25,A6*%
%TO.N,unconnected-(Arduino_1-A6-Pad25)*%
X130810000Y-99060000D03*
%TO.P,Arduino_1,26,A7*%
%TO.N,unconnected-(Arduino_1-A7-Pad26)*%
X130810000Y-101600000D03*
%TO.P,Arduino_1,27,+5V*%
%TO.N,/Logic Positive*%
X130810000Y-104140000D03*
%TO.P,Arduino_1,28,~{RESET}*%
%TO.N,unconnected-(Arduino_1-~{RESET}-Pad28)*%
X130810000Y-106680000D03*
%TO.P,Arduino_1,29,GND*%
%TO.N,/Logic Negative*%
X130810000Y-109220000D03*
%TO.P,Arduino_1,30,VIN*%
%TO.N,unconnected-(Arduino_1-VIN-Pad30)*%
X130810000Y-111760000D03*
%TD*%
D14*
%TO.P,D13,1,1*%
%TO.N,/D13 Breakout*%
X149860000Y-74930000D03*
%TD*%
D23*
%TO.N,/Logic Positive*%
X148590000Y-116840000D02*
X167630000Y-116840000D01*
X135890000Y-104140000D02*
X148590000Y-116840000D01*
X167630000Y-116840000D02*
X170175000Y-114295000D01*
X130810000Y-104140000D02*
X135890000Y-104140000D01*
%TO.N,/12v Negative*%
X182013750Y-78839776D02*
X183499776Y-77353750D01*
X182013750Y-88091099D02*
X182013750Y-78839776D01*
X185362651Y-91440000D02*
X182013750Y-88091099D01*
X183499776Y-77353750D02*
X189113750Y-77353750D01*
X182880000Y-91440000D02*
X180340000Y-88900000D01*
X185362651Y-91440000D02*
X182880000Y-91440000D01*
X185420000Y-91497349D02*
X185362651Y-91440000D01*
X185420000Y-113030000D02*
X185420000Y-91497349D01*
%TO.N,/12v Positive*%
X192902651Y-93980000D02*
X190362651Y-91440000D01*
X198120000Y-93980000D02*
X192902651Y-93980000D01*
%TO.N,/12v Negative*%
X177800000Y-90170000D02*
X179070000Y-88900000D01*
X179070000Y-88900000D02*
X180340000Y-88900000D01*
%TO.N,/12v Positive Terminal*%
X192573750Y-83353750D02*
X198120000Y-88900000D01*
X189113750Y-83353750D02*
X192573750Y-83353750D01*
D24*
%TO.N,/Enable Pin*%
X161290000Y-95240000D02*
X160010000Y-96520000D01*
X161290000Y-74940000D02*
X161290000Y-95240000D01*
X160010000Y-73660000D02*
X161290000Y-74940000D01*
D23*
%TO.N,/Logic Negative*%
X180340000Y-109680000D02*
X175720000Y-114300000D01*
X180340000Y-99060000D02*
X180340000Y-109680000D01*
X175720000Y-114300000D02*
X172710000Y-114300000D01*
X172710000Y-91440000D02*
X172720000Y-91440000D01*
X172720000Y-91440000D02*
X180340000Y-99060000D01*
D24*
%TO.N,/Direction1*%
X160010000Y-91440000D02*
X146050000Y-91440000D01*
%TO.N,/Step1*%
X146050000Y-88900000D02*
X160010000Y-88900000D01*
%TO.N,/Reset1*%
X146050000Y-86360000D02*
X157470000Y-86360000D01*
X157470000Y-86360000D02*
X160010000Y-83820000D01*
D25*
X160010000Y-83820000D02*
X160010000Y-83830000D01*
D24*
%TO.N,/Direction2*%
X160010000Y-114300000D02*
X156210000Y-110500000D01*
X156210000Y-109220000D02*
X146050000Y-99060000D01*
X156210000Y-110500000D02*
X156210000Y-109220000D01*
%TO.N,/Step2*%
X157480000Y-109230000D02*
X157480000Y-107950000D01*
X157480000Y-107950000D02*
X146050000Y-96520000D01*
X160010000Y-111760000D02*
X157480000Y-109230000D01*
%TO.N,/Reset2*%
X160010000Y-106680000D02*
X158750000Y-106680000D01*
X158750000Y-106680000D02*
X146050000Y-93980000D01*
D23*
%TO.N,/Logic Positive*%
X170175000Y-114295000D02*
X170175000Y-91435000D01*
X170175000Y-114295000D02*
X172710000Y-111760000D01*
X170175000Y-91435000D02*
X172710000Y-88900000D01*
D24*
%TO.N,/Enable Pin*%
X153670000Y-80000000D02*
X160010000Y-73660000D01*
X146050000Y-83820000D02*
X153670000Y-83820000D01*
X153670000Y-83820000D02*
X153670000Y-80000000D01*
D23*
%TO.N,/Motor1A*%
X177800000Y-86360000D02*
X172710000Y-86360000D01*
%TO.N,/Motor1B*%
X177800000Y-83820000D02*
X172710000Y-83820000D01*
%TO.N,/Motor1C*%
X177800000Y-81280000D02*
X172710000Y-81280000D01*
%TO.N,/Motor1D*%
X177800000Y-78740000D02*
X172710000Y-78740000D01*
%TO.N,/Motor2A*%
X177800000Y-109220000D02*
X172710000Y-109220000D01*
%TO.N,/Motor2B*%
X177800000Y-106680000D02*
X172710000Y-106680000D01*
%TO.N,/Motor2C*%
X177800000Y-104140000D02*
X172710000Y-104140000D01*
%TO.N,/Motor2D*%
X177800000Y-101600000D02*
X172710000Y-101600000D01*
D24*
%TO.N,/Limit Pin*%
X146050000Y-81280000D02*
X151140000Y-81280000D01*
%TO.N,/D2 Breakout*%
X146050000Y-101600000D02*
X149860000Y-105410000D01*
%TO.N,/D11 Breakout*%
X151130000Y-78740000D02*
X154940000Y-74930000D01*
X146050000Y-78740000D02*
X151130000Y-78740000D01*
%TO.N,/D12 Breakout*%
X146050000Y-76200000D02*
X151130000Y-76200000D01*
X151130000Y-76200000D02*
X152400000Y-74930000D01*
%TO.N,/D13 Breakout*%
X132080000Y-74930000D02*
X149860000Y-74930000D01*
X130810000Y-76200000D02*
X132080000Y-74930000D01*
D23*
%TO.N,/12v Negative*%
X177381321Y-76200000D02*
X172710000Y-76200000D01*
X180340000Y-88900000D02*
X180340000Y-79158679D01*
X180340000Y-79158679D02*
X177381321Y-76200000D01*
%TD*%
%TA.AperFunction,NonConductor*%
G36*
X177003288Y-77170185D02*
G01*
X177023930Y-77186819D01*
X177188522Y-77351411D01*
X177222007Y-77412734D01*
X177217023Y-77482426D01*
X177175151Y-77538359D01*
X177153246Y-77551474D01*
X177122171Y-77565964D01*
X177122169Y-77565965D01*
X176928597Y-77701505D01*
X176876924Y-77753180D01*
X176815601Y-77786666D01*
X176789242Y-77789500D01*
X173650049Y-77789500D01*
X173583010Y-77769815D01*
X173562368Y-77753181D01*
X173549141Y-77739954D01*
X173362734Y-77609432D01*
X173362728Y-77609429D01*
X173304725Y-77582382D01*
X173252285Y-77536210D01*
X173233133Y-77469017D01*
X173253348Y-77402135D01*
X173304725Y-77357618D01*
X173318036Y-77351411D01*
X173362734Y-77330568D01*
X173549139Y-77200047D01*
X173549141Y-77200045D01*
X173562368Y-77186819D01*
X173623691Y-77153334D01*
X173650049Y-77150500D01*
X176936249Y-77150500D01*
X177003288Y-77170185D01*
G37*
%TD.AperFunction*%
%TA.AperFunction,NonConductor*%
G36*
X152395810Y-76200184D02*
G01*
X152441565Y-76252988D01*
X152451509Y-76322146D01*
X152422484Y-76385702D01*
X152416452Y-76392180D01*
X150855451Y-77953181D01*
X150794128Y-77986666D01*
X150767770Y-77989500D01*
X147176663Y-77989500D01*
X147109624Y-77969815D01*
X147075088Y-77936623D01*
X147050045Y-77900858D01*
X146889141Y-77739954D01*
X146702734Y-77609432D01*
X146702728Y-77609429D01*
X146644725Y-77582382D01*
X146592285Y-77536210D01*
X146573133Y-77469017D01*
X146593348Y-77402135D01*
X146644725Y-77357618D01*
X146658036Y-77351411D01*
X146702734Y-77330568D01*
X146889139Y-77200047D01*
X147050047Y-77039139D01*
X147075088Y-77003377D01*
X147129665Y-76959752D01*
X147176663Y-76950500D01*
X151066295Y-76950500D01*
X151084265Y-76951809D01*
X151108023Y-76955289D01*
X151157369Y-76950971D01*
X151168176Y-76950500D01*
X151173704Y-76950500D01*
X151173709Y-76950500D01*
X151204556Y-76946893D01*
X151208030Y-76946539D01*
X151282797Y-76939999D01*
X151282805Y-76939996D01*
X151289866Y-76938539D01*
X151289878Y-76938598D01*
X151297243Y-76936965D01*
X151297229Y-76936906D01*
X151304249Y-76935241D01*
X151304255Y-76935241D01*
X151374779Y-76909572D01*
X151378117Y-76908412D01*
X151449334Y-76884814D01*
X151449342Y-76884808D01*
X151455882Y-76881760D01*
X151455908Y-76881816D01*
X151462690Y-76878532D01*
X151462663Y-76878478D01*
X151469113Y-76875238D01*
X151469117Y-76875237D01*
X151531837Y-76833984D01*
X151534732Y-76832140D01*
X151598656Y-76792712D01*
X151598662Y-76792705D01*
X151604325Y-76788229D01*
X151604362Y-76788277D01*
X151610204Y-76783518D01*
X151610164Y-76783471D01*
X151615686Y-76778835D01*
X151615696Y-76778830D01*
X151667185Y-76724253D01*
X151669632Y-76721734D01*
X152174548Y-76216817D01*
X152235871Y-76183333D01*
X152262229Y-76180499D01*
X152328771Y-76180499D01*
X152395810Y-76200184D01*
G37*
%TD.AperFunction*%
%TA.AperFunction,NonConductor*%
G36*
X176856281Y-79710185D02*
G01*
X176876923Y-79726819D01*
X176928597Y-79778493D01*
X176928603Y-79778498D01*
X177114158Y-79908425D01*
X177157783Y-79963002D01*
X177164977Y-80032500D01*
X177133454Y-80094855D01*
X177114158Y-80111575D01*
X176928597Y-80241505D01*
X176876924Y-80293180D01*
X176815601Y-80326666D01*
X176789242Y-80329500D01*
X173650049Y-80329500D01*
X173583010Y-80309815D01*
X173562368Y-80293181D01*
X173549141Y-80279954D01*
X173362734Y-80149432D01*
X173362728Y-80149429D01*
X173304725Y-80122382D01*
X173252285Y-80076210D01*
X173233133Y-80009017D01*
X173253348Y-79942135D01*
X173304725Y-79897618D01*
X173362734Y-79870568D01*
X173549139Y-79740047D01*
X173549141Y-79740045D01*
X173562368Y-79726819D01*
X173623691Y-79693334D01*
X173650049Y-79690500D01*
X176789242Y-79690500D01*
X176856281Y-79710185D01*
G37*
%TD.AperFunction*%
%TA.AperFunction,NonConductor*%
G36*
X179168769Y-79335376D02*
G01*
X179188588Y-79351477D01*
X179353181Y-79516070D01*
X179386666Y-79577393D01*
X179389500Y-79603751D01*
X179389500Y-81112753D01*
X179369815Y-81179792D01*
X179317011Y-81225547D01*
X179247853Y-81235491D01*
X179184297Y-81206466D01*
X179146523Y-81147688D01*
X179141972Y-81123561D01*
X179135826Y-81053313D01*
X179135063Y-81044592D01*
X179073903Y-80816337D01*
X178974035Y-80602171D01*
X178923151Y-80529500D01*
X178838494Y-80408597D01*
X178671402Y-80241506D01*
X178671396Y-80241501D01*
X178485842Y-80111575D01*
X178442217Y-80056998D01*
X178435023Y-79987500D01*
X178466546Y-79925145D01*
X178485842Y-79908425D01*
X178539909Y-79870567D01*
X178671401Y-79778495D01*
X178838495Y-79611401D01*
X178974035Y-79417830D01*
X178988527Y-79386751D01*
X179034694Y-79334316D01*
X179101887Y-79315162D01*
X179168769Y-79335376D01*
G37*
%TD.AperFunction*%
%TA.AperFunction,NonConductor*%
G36*
X176856281Y-82250185D02*
G01*
X176876923Y-82266819D01*
X176928597Y-82318493D01*
X176928603Y-82318498D01*
X177114158Y-82448425D01*
X177157783Y-82503002D01*
X177164977Y-82572500D01*
X177133454Y-82634855D01*
X177114158Y-82651575D01*
X176928597Y-82781505D01*
X176876924Y-82833180D01*
X176815601Y-82866666D01*
X176789242Y-82869500D01*
X173650049Y-82869500D01*
X173583010Y-82849815D01*
X173562368Y-82833181D01*
X173549141Y-82819954D01*
X173362734Y-82689432D01*
X173362728Y-82689429D01*
X173304725Y-82662382D01*
X173252285Y-82616210D01*
X173233133Y-82549017D01*
X173253348Y-82482135D01*
X173304725Y-82437618D01*
X173362734Y-82410568D01*
X173549139Y-82280047D01*
X173549936Y-82279250D01*
X173562368Y-82266819D01*
X173623691Y-82233334D01*
X173650049Y-82230500D01*
X176789242Y-82230500D01*
X176856281Y-82250185D01*
G37*
%TD.AperFunction*%
%TA.AperFunction,NonConductor*%
G36*
X179354562Y-81360967D02*
G01*
X179387069Y-81422814D01*
X179389500Y-81447246D01*
X179389500Y-83652753D01*
X179369815Y-83719792D01*
X179317011Y-83765547D01*
X179247853Y-83775491D01*
X179184297Y-83746466D01*
X179146523Y-83687688D01*
X179141972Y-83663561D01*
X179135826Y-83593313D01*
X179135063Y-83584592D01*
X179073903Y-83356337D01*
X178974035Y-83142171D01*
X178923151Y-83069500D01*
X178838494Y-82948597D01*
X178671402Y-82781506D01*
X178671396Y-82781501D01*
X178485842Y-82651575D01*
X178442217Y-82596998D01*
X178435023Y-82527500D01*
X178466546Y-82465145D01*
X178485842Y-82448425D01*
X178578471Y-82383565D01*
X178671401Y-82318495D01*
X178838495Y-82151401D01*
X178974035Y-81957830D01*
X179073903Y-81743663D01*
X179135063Y-81515408D01*
X179141972Y-81436437D01*
X179167425Y-81371370D01*
X179224015Y-81330391D01*
X179293777Y-81326513D01*
X179354562Y-81360967D01*
G37*
%TD.AperFunction*%
%TA.AperFunction,NonConductor*%
G36*
X176856281Y-84790185D02*
G01*
X176876923Y-84806819D01*
X176883430Y-84813326D01*
X176916915Y-84874649D01*
X176911931Y-84944341D01*
X176870059Y-85000274D01*
X176839083Y-85017189D01*
X176707669Y-85066203D01*
X176707664Y-85066206D01*
X176592455Y-85152452D01*
X176592452Y-85152455D01*
X176506206Y-85267664D01*
X176506202Y-85267671D01*
X176483391Y-85328833D01*
X176441520Y-85384767D01*
X176376056Y-85409184D01*
X176367209Y-85409500D01*
X173650049Y-85409500D01*
X173583010Y-85389815D01*
X173562368Y-85373181D01*
X173549141Y-85359954D01*
X173362734Y-85229432D01*
X173362728Y-85229429D01*
X173304725Y-85202382D01*
X173252285Y-85156210D01*
X173233133Y-85089017D01*
X173253348Y-85022135D01*
X173304725Y-84977618D01*
X173362734Y-84950568D01*
X173549139Y-84820047D01*
X173549141Y-84820045D01*
X173562368Y-84806819D01*
X173623691Y-84773334D01*
X173650049Y-84770500D01*
X176789242Y-84770500D01*
X176856281Y-84790185D01*
G37*
%TD.AperFunction*%
%TA.AperFunction,NonConductor*%
G36*
X179354562Y-83900967D02*
G01*
X179387069Y-83962814D01*
X179389500Y-83987246D01*
X179389500Y-85377099D01*
X179369815Y-85444138D01*
X179317011Y-85489893D01*
X179247853Y-85499837D01*
X179184297Y-85470812D01*
X179146523Y-85412034D01*
X179144824Y-85405616D01*
X179144092Y-85402520D01*
X179093797Y-85267671D01*
X179093793Y-85267664D01*
X179007547Y-85152455D01*
X179007544Y-85152452D01*
X178892335Y-85066206D01*
X178892328Y-85066202D01*
X178760917Y-85017189D01*
X178704983Y-84975318D01*
X178680566Y-84909853D01*
X178695418Y-84841580D01*
X178716563Y-84813332D01*
X178838495Y-84691401D01*
X178974035Y-84497830D01*
X179073903Y-84283663D01*
X179135063Y-84055408D01*
X179141972Y-83976437D01*
X179167425Y-83911370D01*
X179224015Y-83870391D01*
X179293777Y-83866513D01*
X179354562Y-83900967D01*
G37*
%TD.AperFunction*%
%TA.AperFunction,NonConductor*%
G36*
X158633583Y-76200297D02*
G01*
X158689516Y-76242169D01*
X158713777Y-76305671D01*
X158724364Y-76426687D01*
X158724366Y-76426697D01*
X158783258Y-76646488D01*
X158783261Y-76646497D01*
X158879431Y-76852732D01*
X158879432Y-76852734D01*
X159009954Y-77039141D01*
X159170858Y-77200045D01*
X159170861Y-77200047D01*
X159357266Y-77330568D01*
X159382462Y-77342317D01*
X159415275Y-77357618D01*
X159467714Y-77403791D01*
X159486866Y-77470984D01*
X159466650Y-77537865D01*
X159415275Y-77582382D01*
X159357267Y-77609431D01*
X159357265Y-77609432D01*
X159170858Y-77739954D01*
X159009954Y-77900858D01*
X158879432Y-78087265D01*
X158879431Y-78087267D01*
X158783261Y-78293502D01*
X158783258Y-78293511D01*
X158724366Y-78513302D01*
X158724364Y-78513313D01*
X158704532Y-78739998D01*
X158704532Y-78740001D01*
X158724364Y-78966686D01*
X158724366Y-78966697D01*
X158783258Y-79186488D01*
X158783261Y-79186497D01*
X158879431Y-79392732D01*
X158879432Y-79392734D01*
X159009954Y-79579141D01*
X159170858Y-79740045D01*
X159170861Y-79740047D01*
X159357266Y-79870568D01*
X159415275Y-79897618D01*
X159467714Y-79943791D01*
X159486866Y-80010984D01*
X159466650Y-80077865D01*
X159415275Y-80122382D01*
X159357267Y-80149431D01*
X159357265Y-80149432D01*
X159170858Y-80279954D01*
X159009954Y-80440858D01*
X158879432Y-80627265D01*
X158879431Y-80627267D01*
X158783261Y-80833502D01*
X158783258Y-80833511D01*
X158724366Y-81053302D01*
X158724364Y-81053313D01*
X158704532Y-81279998D01*
X158704532Y-81280001D01*
X158724364Y-81506686D01*
X158724366Y-81506697D01*
X158783258Y-81726488D01*
X158783261Y-81726497D01*
X158879431Y-81932732D01*
X158879432Y-81932734D01*
X159009954Y-82119141D01*
X159170858Y-82280045D01*
X159170861Y-82280047D01*
X159357266Y-82410568D01*
X159400926Y-82430927D01*
X159415275Y-82437618D01*
X159467714Y-82483791D01*
X159486866Y-82550984D01*
X159466650Y-82617865D01*
X159415275Y-82662382D01*
X159357267Y-82689431D01*
X159357265Y-82689432D01*
X159170858Y-82819954D01*
X159009954Y-82980858D01*
X158879432Y-83167265D01*
X158879431Y-83167267D01*
X158783261Y-83373502D01*
X158783258Y-83373511D01*
X158724366Y-83593302D01*
X158724364Y-83593313D01*
X158704532Y-83819998D01*
X158704532Y-83820003D01*
X158719129Y-83986861D01*
X158705362Y-84055360D01*
X158683282Y-84085348D01*
X157195451Y-85573181D01*
X157134128Y-85606666D01*
X157107770Y-85609500D01*
X147176663Y-85609500D01*
X147109624Y-85589815D01*
X147075088Y-85556623D01*
X147050045Y-85520858D01*
X146889141Y-85359954D01*
X146702734Y-85229432D01*
X146702728Y-85229429D01*
X146644725Y-85202382D01*
X146592285Y-85156210D01*
X146573133Y-85089017D01*
X146593348Y-85022135D01*
X146644725Y-84977618D01*
X146702734Y-84950568D01*
X146889139Y-84820047D01*
X147050047Y-84659139D01*
X147075088Y-84623377D01*
X147129665Y-84579752D01*
X147176663Y-84570500D01*
X153644555Y-84570500D01*
X153651764Y-84570709D01*
X153713935Y-84574331D01*
X153775304Y-84563508D01*
X153782384Y-84562471D01*
X153844255Y-84555241D01*
X153854782Y-84551408D01*
X153875672Y-84545811D01*
X153886711Y-84543865D01*
X153902961Y-84536855D01*
X153943898Y-84519197D01*
X153950580Y-84516541D01*
X154009117Y-84495237D01*
X154018488Y-84489072D01*
X154037506Y-84478818D01*
X154047804Y-84474377D01*
X154097786Y-84437165D01*
X154103648Y-84433061D01*
X154155696Y-84398830D01*
X154163391Y-84390672D01*
X154179534Y-84376306D01*
X154188530Y-84369610D01*
X154228584Y-84321874D01*
X154233333Y-84316538D01*
X154276092Y-84271218D01*
X154281700Y-84261502D01*
X154294093Y-84243803D01*
X154301302Y-84235214D01*
X154329262Y-84179538D01*
X154332653Y-84173248D01*
X154363812Y-84119281D01*
X154367029Y-84108533D01*
X154375006Y-84088455D01*
X154380040Y-84078433D01*
X154394405Y-84017820D01*
X154396265Y-84010877D01*
X154414130Y-83951210D01*
X154414781Y-83940018D01*
X154417917Y-83918617D01*
X154420499Y-83907725D01*
X154420500Y-83907721D01*
X154420500Y-83845444D01*
X154420710Y-83838234D01*
X154421772Y-83819998D01*
X154424331Y-83776065D01*
X154423180Y-83769541D01*
X154422384Y-83765021D01*
X154420500Y-83743490D01*
X154420500Y-80362229D01*
X154440185Y-80295190D01*
X154456814Y-80274553D01*
X158502570Y-76228796D01*
X158563891Y-76195313D01*
X158633583Y-76200297D01*
G37*
%TD.AperFunction*%
%TA.AperFunction,NonConductor*%
G36*
X158633583Y-86360297D02*
G01*
X158689516Y-86402169D01*
X158713777Y-86465671D01*
X158724364Y-86586687D01*
X158724366Y-86586697D01*
X158783258Y-86806488D01*
X158783261Y-86806497D01*
X158879431Y-87012732D01*
X158879432Y-87012734D01*
X159009954Y-87199141D01*
X159170858Y-87360045D01*
X159170861Y-87360047D01*
X159357266Y-87490568D01*
X159415275Y-87517618D01*
X159467714Y-87563791D01*
X159486866Y-87630984D01*
X159466650Y-87697865D01*
X159415275Y-87742382D01*
X159357267Y-87769431D01*
X159357265Y-87769432D01*
X159170858Y-87899954D01*
X159009954Y-88060858D01*
X158984912Y-88096623D01*
X158930335Y-88140248D01*
X158883337Y-88149500D01*
X147176663Y-88149500D01*
X147109624Y-88129815D01*
X147075088Y-88096623D01*
X147050045Y-88060858D01*
X146889141Y-87899954D01*
X146702734Y-87769432D01*
X146702728Y-87769429D01*
X146644725Y-87742382D01*
X146592285Y-87696210D01*
X146573133Y-87629017D01*
X146593348Y-87562135D01*
X146644725Y-87517618D01*
X146702734Y-87490568D01*
X146889139Y-87360047D01*
X147050047Y-87199139D01*
X147075088Y-87163377D01*
X147129665Y-87119752D01*
X147176663Y-87110500D01*
X157406295Y-87110500D01*
X157424265Y-87111809D01*
X157448023Y-87115289D01*
X157497369Y-87110971D01*
X157508176Y-87110500D01*
X157513704Y-87110500D01*
X157513709Y-87110500D01*
X157544556Y-87106893D01*
X157548030Y-87106539D01*
X157622797Y-87099999D01*
X157622805Y-87099996D01*
X157629866Y-87098539D01*
X157629878Y-87098598D01*
X157637243Y-87096965D01*
X157637229Y-87096906D01*
X157644249Y-87095241D01*
X157644255Y-87095241D01*
X157714779Y-87069572D01*
X157718117Y-87068412D01*
X157789334Y-87044814D01*
X157789342Y-87044808D01*
X157795882Y-87041760D01*
X157795908Y-87041816D01*
X157802690Y-87038532D01*
X157802663Y-87038478D01*
X157809113Y-87035238D01*
X157809117Y-87035237D01*
X157871837Y-86993984D01*
X157874732Y-86992140D01*
X157938656Y-86952712D01*
X157938662Y-86952705D01*
X157944325Y-86948229D01*
X157944362Y-86948277D01*
X157950204Y-86943518D01*
X157950164Y-86943471D01*
X157955686Y-86938835D01*
X157955696Y-86938830D01*
X158007185Y-86884253D01*
X158009632Y-86881734D01*
X158502570Y-86388796D01*
X158563891Y-86355313D01*
X158633583Y-86360297D01*
G37*
%TD.AperFunction*%
%TA.AperFunction,NonConductor*%
G36*
X158950376Y-89670185D02*
G01*
X158984912Y-89703377D01*
X159009954Y-89739141D01*
X159170858Y-89900045D01*
X159170861Y-89900047D01*
X159357266Y-90030568D01*
X159415275Y-90057618D01*
X159467714Y-90103791D01*
X159486866Y-90170984D01*
X159466650Y-90237865D01*
X159415275Y-90282381D01*
X159415118Y-90282455D01*
X159357267Y-90309431D01*
X159357265Y-90309432D01*
X159170858Y-90439954D01*
X159009954Y-90600858D01*
X158984912Y-90636623D01*
X158930335Y-90680248D01*
X158883337Y-90689500D01*
X147176663Y-90689500D01*
X147109624Y-90669815D01*
X147075088Y-90636623D01*
X147050045Y-90600858D01*
X146889141Y-90439954D01*
X146702734Y-90309432D01*
X146702728Y-90309429D01*
X146644882Y-90282455D01*
X146644724Y-90282381D01*
X146592285Y-90236210D01*
X146573133Y-90169017D01*
X146593348Y-90102135D01*
X146644725Y-90057618D01*
X146702734Y-90030568D01*
X146889139Y-89900047D01*
X147050047Y-89739139D01*
X147075088Y-89703377D01*
X147129665Y-89659752D01*
X147176663Y-89650500D01*
X158883337Y-89650500D01*
X158950376Y-89670185D01*
G37*
%TD.AperFunction*%
%TA.AperFunction,NonConductor*%
G36*
X176856281Y-102570185D02*
G01*
X176876923Y-102586819D01*
X176928597Y-102638493D01*
X176928603Y-102638498D01*
X177114158Y-102768425D01*
X177157783Y-102823002D01*
X177164977Y-102892500D01*
X177133454Y-102954855D01*
X177114158Y-102971575D01*
X176928597Y-103101505D01*
X176876924Y-103153180D01*
X176815601Y-103186666D01*
X176789242Y-103189500D01*
X173650049Y-103189500D01*
X173583010Y-103169815D01*
X173562368Y-103153181D01*
X173549141Y-103139954D01*
X173362734Y-103009432D01*
X173362728Y-103009429D01*
X173304725Y-102982382D01*
X173252285Y-102936210D01*
X173233133Y-102869017D01*
X173253348Y-102802135D01*
X173304725Y-102757618D01*
X173362734Y-102730568D01*
X173549139Y-102600047D01*
X173549141Y-102600045D01*
X173562368Y-102586819D01*
X173623691Y-102553334D01*
X173650049Y-102550500D01*
X176789242Y-102550500D01*
X176856281Y-102570185D01*
G37*
%TD.AperFunction*%
%TA.AperFunction,NonConductor*%
G36*
X179354562Y-101680967D02*
G01*
X179387069Y-101742814D01*
X179389500Y-101767246D01*
X179389500Y-103972753D01*
X179369815Y-104039792D01*
X179317011Y-104085547D01*
X179247853Y-104095491D01*
X179184297Y-104066466D01*
X179146523Y-104007688D01*
X179141972Y-103983561D01*
X179135826Y-103913313D01*
X179135063Y-103904592D01*
X179073903Y-103676337D01*
X178974035Y-103462171D01*
X178941063Y-103415081D01*
X178838494Y-103268597D01*
X178671402Y-103101506D01*
X178671396Y-103101501D01*
X178485842Y-102971575D01*
X178442217Y-102916998D01*
X178435023Y-102847500D01*
X178466546Y-102785145D01*
X178485842Y-102768425D01*
X178539909Y-102730567D01*
X178671401Y-102638495D01*
X178838495Y-102471401D01*
X178974035Y-102277830D01*
X179073903Y-102063663D01*
X179135063Y-101835408D01*
X179141972Y-101756437D01*
X179167425Y-101691370D01*
X179224015Y-101650391D01*
X179293777Y-101646513D01*
X179354562Y-101680967D01*
G37*
%TD.AperFunction*%
%TA.AperFunction,NonConductor*%
G36*
X147557431Y-101628799D02*
G01*
X149876451Y-103947819D01*
X149909936Y-104009142D01*
X149904952Y-104078834D01*
X149863080Y-104134767D01*
X149797616Y-104159184D01*
X149788770Y-104159500D01*
X149722229Y-104159500D01*
X149655190Y-104139815D01*
X149634548Y-104123181D01*
X147376716Y-101865348D01*
X147343231Y-101804025D01*
X147340869Y-101766863D01*
X147346222Y-101705670D01*
X147371674Y-101640604D01*
X147428265Y-101599625D01*
X147498027Y-101595747D01*
X147557431Y-101628799D01*
G37*
%TD.AperFunction*%
%TA.AperFunction,NonConductor*%
G36*
X176856281Y-105110185D02*
G01*
X176876923Y-105126819D01*
X176928597Y-105178493D01*
X176928603Y-105178498D01*
X177114158Y-105308425D01*
X177157783Y-105363002D01*
X177164977Y-105432500D01*
X177133454Y-105494855D01*
X177114158Y-105511575D01*
X176928597Y-105641505D01*
X176876924Y-105693180D01*
X176815601Y-105726666D01*
X176789242Y-105729500D01*
X173650049Y-105729500D01*
X173583010Y-105709815D01*
X173562368Y-105693181D01*
X173549141Y-105679954D01*
X173362734Y-105549432D01*
X173362728Y-105549429D01*
X173304725Y-105522382D01*
X173252285Y-105476210D01*
X173233133Y-105409017D01*
X173253348Y-105342135D01*
X173304725Y-105297618D01*
X173362734Y-105270568D01*
X173549139Y-105140047D01*
X173549141Y-105140045D01*
X173562368Y-105126819D01*
X173623691Y-105093334D01*
X173650049Y-105090500D01*
X176789242Y-105090500D01*
X176856281Y-105110185D01*
G37*
%TD.AperFunction*%
%TA.AperFunction,NonConductor*%
G36*
X158950376Y-92210185D02*
G01*
X158984912Y-92243377D01*
X159009954Y-92279141D01*
X159170858Y-92440045D01*
X159170861Y-92440047D01*
X159357266Y-92570568D01*
X159563504Y-92666739D01*
X159783308Y-92725635D01*
X159945230Y-92739801D01*
X160009998Y-92745468D01*
X160010000Y-92745468D01*
X160010002Y-92745468D01*
X160066807Y-92740498D01*
X160236692Y-92725635D01*
X160383407Y-92686323D01*
X160453257Y-92687986D01*
X160511119Y-92727149D01*
X160538623Y-92791377D01*
X160539500Y-92806098D01*
X160539500Y-94877769D01*
X160519815Y-94944808D01*
X160503181Y-94965450D01*
X160275348Y-95193282D01*
X160214025Y-95226767D01*
X160176861Y-95229129D01*
X160010003Y-95214532D01*
X160009998Y-95214532D01*
X159783313Y-95234364D01*
X159783302Y-95234366D01*
X159563511Y-95293258D01*
X159563502Y-95293261D01*
X159357267Y-95389431D01*
X159357265Y-95389432D01*
X159170858Y-95519954D01*
X159009954Y-95680858D01*
X158879432Y-95867265D01*
X158879431Y-95867267D01*
X158783261Y-96073502D01*
X158783258Y-96073511D01*
X158724366Y-96293302D01*
X158724364Y-96293313D01*
X158704532Y-96519998D01*
X158704532Y-96520001D01*
X158724364Y-96746686D01*
X158724366Y-96746697D01*
X158783258Y-96966488D01*
X158783261Y-96966497D01*
X158879431Y-97172732D01*
X158879432Y-97172734D01*
X159009954Y-97359141D01*
X159170858Y-97520045D01*
X159170861Y-97520047D01*
X159357266Y-97650568D01*
X159415275Y-97677618D01*
X159467714Y-97723791D01*
X159486866Y-97790984D01*
X159466650Y-97857865D01*
X159415275Y-97902382D01*
X159357267Y-97929431D01*
X159357265Y-97929432D01*
X159170858Y-98059954D01*
X159009954Y-98220858D01*
X158879432Y-98407265D01*
X158879431Y-98407267D01*
X158783261Y-98613502D01*
X158783258Y-98613511D01*
X158724366Y-98833302D01*
X158724364Y-98833313D01*
X158704532Y-99059998D01*
X158704532Y-99060001D01*
X158724364Y-99286686D01*
X158724366Y-99286697D01*
X158783258Y-99506488D01*
X158783261Y-99506497D01*
X158879431Y-99712732D01*
X158879432Y-99712734D01*
X159009954Y-99899141D01*
X159170858Y-100060045D01*
X159170861Y-100060047D01*
X159357266Y-100190568D01*
X159415275Y-100217618D01*
X159467714Y-100263791D01*
X159486866Y-100330984D01*
X159466650Y-100397865D01*
X159415275Y-100442382D01*
X159357267Y-100469431D01*
X159357265Y-100469432D01*
X159170858Y-100599954D01*
X159009954Y-100760858D01*
X158879432Y-100947265D01*
X158879431Y-100947267D01*
X158783261Y-101153502D01*
X158783258Y-101153511D01*
X158724366Y-101373302D01*
X158724364Y-101373313D01*
X158704532Y-101599998D01*
X158704532Y-101600001D01*
X158724364Y-101826686D01*
X158724366Y-101826697D01*
X158783258Y-102046488D01*
X158783261Y-102046497D01*
X158879431Y-102252732D01*
X158879432Y-102252734D01*
X159009954Y-102439141D01*
X159170858Y-102600045D01*
X159170861Y-102600047D01*
X159357266Y-102730568D01*
X159415275Y-102757618D01*
X159467714Y-102803791D01*
X159486866Y-102870984D01*
X159466650Y-102937865D01*
X159415275Y-102982382D01*
X159357267Y-103009431D01*
X159357265Y-103009432D01*
X159170858Y-103139954D01*
X159009954Y-103300858D01*
X158879432Y-103487265D01*
X158879431Y-103487267D01*
X158783261Y-103693502D01*
X158783258Y-103693511D01*
X158724366Y-103913302D01*
X158724364Y-103913313D01*
X158704532Y-104139998D01*
X158704532Y-104140001D01*
X158724364Y-104366686D01*
X158724366Y-104366697D01*
X158783258Y-104586488D01*
X158783261Y-104586497D01*
X158879431Y-104792732D01*
X158879432Y-104792734D01*
X159009954Y-104979141D01*
X159170858Y-105140045D01*
X159170861Y-105140047D01*
X159357266Y-105270568D01*
X159415275Y-105297618D01*
X159467714Y-105343791D01*
X159486866Y-105410984D01*
X159466650Y-105477865D01*
X159415275Y-105522382D01*
X159357267Y-105549431D01*
X159357265Y-105549432D01*
X159170862Y-105679951D01*
X159078771Y-105772042D01*
X159017447Y-105805526D01*
X158947756Y-105800542D01*
X158903409Y-105772041D01*
X147376716Y-94245348D01*
X147343231Y-94184025D01*
X147340869Y-94146863D01*
X147355468Y-93980000D01*
X147335635Y-93753308D01*
X147276739Y-93533504D01*
X147180568Y-93327266D01*
X147050047Y-93140861D01*
X147050045Y-93140858D01*
X146889141Y-92979954D01*
X146702734Y-92849432D01*
X146702728Y-92849429D01*
X146644725Y-92822382D01*
X146592285Y-92776210D01*
X146573133Y-92709017D01*
X146593348Y-92642135D01*
X146644725Y-92597618D01*
X146702734Y-92570568D01*
X146889139Y-92440047D01*
X147050047Y-92279139D01*
X147064232Y-92258880D01*
X147075088Y-92243377D01*
X147129665Y-92199752D01*
X147176663Y-92190500D01*
X158883337Y-92190500D01*
X158950376Y-92210185D01*
G37*
%TD.AperFunction*%
%TA.AperFunction,NonConductor*%
G36*
X179354562Y-104220967D02*
G01*
X179387069Y-104282814D01*
X179389500Y-104307246D01*
X179389500Y-106512753D01*
X179369815Y-106579792D01*
X179317011Y-106625547D01*
X179247853Y-106635491D01*
X179184297Y-106606466D01*
X179146523Y-106547688D01*
X179141972Y-106523561D01*
X179135826Y-106453313D01*
X179135063Y-106444592D01*
X179073903Y-106216337D01*
X178974035Y-106002171D01*
X178876621Y-105863048D01*
X178838494Y-105808597D01*
X178671402Y-105641506D01*
X178671396Y-105641501D01*
X178485842Y-105511575D01*
X178442217Y-105456998D01*
X178435023Y-105387500D01*
X178466546Y-105325145D01*
X178485842Y-105308425D01*
X178575178Y-105245871D01*
X178671401Y-105178495D01*
X178838495Y-105011401D01*
X178974035Y-104817830D01*
X179073903Y-104603663D01*
X179135063Y-104375408D01*
X179141972Y-104296437D01*
X179167425Y-104231370D01*
X179224015Y-104190391D01*
X179293777Y-104186513D01*
X179354562Y-104220967D01*
G37*
%TD.AperFunction*%
%TA.AperFunction,NonConductor*%
G36*
X176856281Y-107650185D02*
G01*
X176876923Y-107666819D01*
X176883430Y-107673326D01*
X176916915Y-107734649D01*
X176911931Y-107804341D01*
X176870059Y-107860274D01*
X176839083Y-107877189D01*
X176707669Y-107926203D01*
X176707664Y-107926206D01*
X176592455Y-108012452D01*
X176592452Y-108012455D01*
X176506206Y-108127664D01*
X176506202Y-108127671D01*
X176483391Y-108188833D01*
X176441520Y-108244767D01*
X176376056Y-108269184D01*
X176367209Y-108269500D01*
X173650049Y-108269500D01*
X173583010Y-108249815D01*
X173562368Y-108233181D01*
X173549141Y-108219954D01*
X173362734Y-108089432D01*
X173362728Y-108089429D01*
X173304725Y-108062382D01*
X173252285Y-108016210D01*
X173233133Y-107949017D01*
X173253348Y-107882135D01*
X173304725Y-107837618D01*
X173362734Y-107810568D01*
X173549139Y-107680047D01*
X173549141Y-107680045D01*
X173562368Y-107666819D01*
X173623691Y-107633334D01*
X173650049Y-107630500D01*
X176789242Y-107630500D01*
X176856281Y-107650185D01*
G37*
%TD.AperFunction*%
%TA.AperFunction,NonConductor*%
G36*
X179354562Y-106760967D02*
G01*
X179387069Y-106822814D01*
X179389500Y-106847246D01*
X179389500Y-108237099D01*
X179369815Y-108304138D01*
X179317011Y-108349893D01*
X179247853Y-108359837D01*
X179184297Y-108330812D01*
X179146523Y-108272034D01*
X179144824Y-108265616D01*
X179144092Y-108262520D01*
X179093797Y-108127671D01*
X179093793Y-108127664D01*
X179007547Y-108012455D01*
X179007544Y-108012452D01*
X178892335Y-107926206D01*
X178892328Y-107926202D01*
X178760917Y-107877189D01*
X178704983Y-107835318D01*
X178680566Y-107769853D01*
X178695418Y-107701580D01*
X178716563Y-107673332D01*
X178838495Y-107551401D01*
X178974035Y-107357830D01*
X179073903Y-107143663D01*
X179135063Y-106915408D01*
X179141972Y-106836437D01*
X179167425Y-106771370D01*
X179224015Y-106730391D01*
X179293777Y-106726513D01*
X179354562Y-106760967D01*
G37*
%TD.AperFunction*%
%TA.AperFunction,NonConductor*%
G36*
X147557431Y-99088799D02*
G01*
X156693181Y-108224549D01*
X156726666Y-108285872D01*
X156729500Y-108312230D01*
X156729500Y-108378770D01*
X156709815Y-108445809D01*
X156657011Y-108491564D01*
X156587853Y-108501508D01*
X156524297Y-108472483D01*
X156517819Y-108466451D01*
X147376716Y-99325348D01*
X147343231Y-99264025D01*
X147340869Y-99226863D01*
X147346222Y-99165670D01*
X147371674Y-99100604D01*
X147428265Y-99059625D01*
X147498027Y-99055747D01*
X147557431Y-99088799D01*
G37*
%TD.AperFunction*%
%TA.AperFunction,NonConductor*%
G36*
X147557431Y-96548799D02*
G01*
X158174267Y-107165634D01*
X158186048Y-107179266D01*
X158200390Y-107198530D01*
X158238343Y-107230376D01*
X158246319Y-107237686D01*
X158250219Y-107241587D01*
X158274544Y-107260821D01*
X158277340Y-107263099D01*
X158305062Y-107286360D01*
X158334786Y-107311302D01*
X158334794Y-107311306D01*
X158340824Y-107315273D01*
X158340790Y-107315323D01*
X158347137Y-107319366D01*
X158347169Y-107319316D01*
X158353321Y-107323110D01*
X158353322Y-107323110D01*
X158353323Y-107323111D01*
X158373955Y-107332732D01*
X158421294Y-107354806D01*
X158424510Y-107356362D01*
X158491567Y-107390040D01*
X158491576Y-107390042D01*
X158498355Y-107392510D01*
X158498334Y-107392567D01*
X158505451Y-107395040D01*
X158505470Y-107394984D01*
X158512324Y-107397255D01*
X158512325Y-107397255D01*
X158512327Y-107397256D01*
X158585848Y-107412436D01*
X158589209Y-107413181D01*
X158662279Y-107430500D01*
X158662285Y-107430500D01*
X158669452Y-107431338D01*
X158669445Y-107431397D01*
X158676946Y-107432163D01*
X158676952Y-107432104D01*
X158684141Y-107432733D01*
X158684143Y-107432732D01*
X158684144Y-107432733D01*
X158759111Y-107430552D01*
X158762717Y-107430500D01*
X158883337Y-107430500D01*
X158950376Y-107450185D01*
X158984912Y-107483377D01*
X159009954Y-107519141D01*
X159170858Y-107680045D01*
X159170861Y-107680047D01*
X159357266Y-107810568D01*
X159415275Y-107837618D01*
X159467714Y-107883791D01*
X159486866Y-107950984D01*
X159466650Y-108017865D01*
X159415275Y-108062382D01*
X159357267Y-108089431D01*
X159357265Y-108089432D01*
X159170858Y-108219954D01*
X159009954Y-108380858D01*
X158879432Y-108567265D01*
X158879431Y-108567267D01*
X158783261Y-108773502D01*
X158783258Y-108773511D01*
X158724366Y-108993302D01*
X158724364Y-108993312D01*
X158713777Y-109114327D01*
X158688324Y-109179395D01*
X158631733Y-109220374D01*
X158561971Y-109224252D01*
X158502568Y-109191200D01*
X158266819Y-108955451D01*
X158233334Y-108894128D01*
X158230500Y-108867770D01*
X158230500Y-108013705D01*
X158231809Y-107995735D01*
X158232171Y-107993261D01*
X158235289Y-107971977D01*
X158233452Y-107950984D01*
X158230972Y-107922630D01*
X158230500Y-107911822D01*
X158230500Y-107906296D01*
X158230500Y-107906291D01*
X158226901Y-107875509D01*
X158226536Y-107871929D01*
X158219999Y-107797201D01*
X158218539Y-107790129D01*
X158218597Y-107790116D01*
X158216965Y-107782757D01*
X158216906Y-107782772D01*
X158215242Y-107775753D01*
X158215241Y-107775745D01*
X158189591Y-107705273D01*
X158188408Y-107701868D01*
X158164813Y-107630663D01*
X158161764Y-107624124D01*
X158161817Y-107624099D01*
X158158531Y-107617311D01*
X158158479Y-107617338D01*
X158155236Y-107610882D01*
X158114025Y-107548222D01*
X158112088Y-107545181D01*
X158072714Y-107481347D01*
X158068234Y-107475681D01*
X158068280Y-107475643D01*
X158063519Y-107469799D01*
X158063474Y-107469838D01*
X158058831Y-107464305D01*
X158004290Y-107412848D01*
X158001703Y-107410335D01*
X147376716Y-96785348D01*
X147343231Y-96724025D01*
X147340869Y-96686863D01*
X147346222Y-96625670D01*
X147371674Y-96560604D01*
X147428265Y-96519625D01*
X147498027Y-96515747D01*
X147557431Y-96548799D01*
G37*
%TD.AperFunction*%
%TA.AperFunction,NonConductor*%
G36*
X144748261Y-75700185D02*
G01*
X144794016Y-75752989D01*
X144803960Y-75822147D01*
X144800997Y-75836593D01*
X144764366Y-75973302D01*
X144764364Y-75973313D01*
X144744532Y-76199998D01*
X144744532Y-76200001D01*
X144764364Y-76426686D01*
X144764366Y-76426697D01*
X144823258Y-76646488D01*
X144823261Y-76646497D01*
X144919431Y-76852732D01*
X144919432Y-76852734D01*
X145049954Y-77039141D01*
X145210858Y-77200045D01*
X145210861Y-77200047D01*
X145397266Y-77330568D01*
X145422462Y-77342317D01*
X145455275Y-77357618D01*
X145507714Y-77403791D01*
X145526866Y-77470984D01*
X145506650Y-77537865D01*
X145455275Y-77582382D01*
X145397267Y-77609431D01*
X145397265Y-77609432D01*
X145210858Y-77739954D01*
X145049954Y-77900858D01*
X144919432Y-78087265D01*
X144919431Y-78087267D01*
X144823261Y-78293502D01*
X144823258Y-78293511D01*
X144764366Y-78513302D01*
X144764364Y-78513313D01*
X144744532Y-78739998D01*
X144744532Y-78740001D01*
X144764364Y-78966686D01*
X144764366Y-78966697D01*
X144823258Y-79186488D01*
X144823261Y-79186497D01*
X144919431Y-79392732D01*
X144919432Y-79392734D01*
X145049954Y-79579141D01*
X145210858Y-79740045D01*
X145210861Y-79740047D01*
X145397266Y-79870568D01*
X145455275Y-79897618D01*
X145507714Y-79943791D01*
X145526866Y-80010984D01*
X145506650Y-80077865D01*
X145455275Y-80122382D01*
X145397267Y-80149431D01*
X145397265Y-80149432D01*
X145210858Y-80279954D01*
X145049954Y-80440858D01*
X144919432Y-80627265D01*
X144919431Y-80627267D01*
X144823261Y-80833502D01*
X144823258Y-80833511D01*
X144764366Y-81053302D01*
X144764364Y-81053313D01*
X144744532Y-81279998D01*
X144744532Y-81280001D01*
X144764364Y-81506686D01*
X144764366Y-81506697D01*
X144823258Y-81726488D01*
X144823261Y-81726497D01*
X144919431Y-81932732D01*
X144919432Y-81932734D01*
X145049954Y-82119141D01*
X145210858Y-82280045D01*
X145210861Y-82280047D01*
X145397266Y-82410568D01*
X145440926Y-82430927D01*
X145455275Y-82437618D01*
X145507714Y-82483791D01*
X145526866Y-82550984D01*
X145506650Y-82617865D01*
X145455275Y-82662382D01*
X145397267Y-82689431D01*
X145397265Y-82689432D01*
X145210858Y-82819954D01*
X145049954Y-82980858D01*
X144919432Y-83167265D01*
X144919431Y-83167267D01*
X144823261Y-83373502D01*
X144823258Y-83373511D01*
X144764366Y-83593302D01*
X144764364Y-83593313D01*
X144744532Y-83819998D01*
X144744532Y-83820001D01*
X144764364Y-84046686D01*
X144764366Y-84046697D01*
X144823258Y-84266488D01*
X144823261Y-84266497D01*
X144919431Y-84472732D01*
X144919432Y-84472734D01*
X145049954Y-84659141D01*
X145210858Y-84820045D01*
X145210861Y-84820047D01*
X145397266Y-84950568D01*
X145455275Y-84977618D01*
X145507714Y-85023791D01*
X145526866Y-85090984D01*
X145506650Y-85157865D01*
X145455275Y-85202382D01*
X145397267Y-85229431D01*
X145397265Y-85229432D01*
X145210858Y-85359954D01*
X145049954Y-85520858D01*
X144919432Y-85707265D01*
X144919431Y-85707267D01*
X144823261Y-85913502D01*
X144823258Y-85913511D01*
X144764366Y-86133302D01*
X144764364Y-86133313D01*
X144744532Y-86359998D01*
X144744532Y-86360001D01*
X144764364Y-86586686D01*
X144764366Y-86586697D01*
X144823258Y-86806488D01*
X144823261Y-86806497D01*
X144919431Y-87012732D01*
X144919432Y-87012734D01*
X145049954Y-87199141D01*
X145210858Y-87360045D01*
X145210861Y-87360047D01*
X145397266Y-87490568D01*
X145455275Y-87517618D01*
X145507714Y-87563791D01*
X145526866Y-87630984D01*
X145506650Y-87697865D01*
X145455275Y-87742382D01*
X145397267Y-87769431D01*
X145397265Y-87769432D01*
X145210858Y-87899954D01*
X145049954Y-88060858D01*
X144919432Y-88247265D01*
X144919431Y-88247267D01*
X144823261Y-88453502D01*
X144823258Y-88453511D01*
X144764366Y-88673302D01*
X144764364Y-88673313D01*
X144744532Y-88899998D01*
X144744532Y-88900001D01*
X144764364Y-89126686D01*
X144764366Y-89126697D01*
X144823258Y-89346488D01*
X144823261Y-89346497D01*
X144919431Y-89552732D01*
X144919432Y-89552734D01*
X145049954Y-89739141D01*
X145210858Y-89900045D01*
X145210861Y-89900047D01*
X145397266Y-90030568D01*
X145455275Y-90057618D01*
X145507714Y-90103791D01*
X145526866Y-90170984D01*
X145506650Y-90237865D01*
X145455275Y-90282381D01*
X145455118Y-90282455D01*
X145397267Y-90309431D01*
X145397265Y-90309432D01*
X145210858Y-90439954D01*
X145049954Y-90600858D01*
X144919432Y-90787265D01*
X144919431Y-90787267D01*
X144823261Y-90993502D01*
X144823258Y-90993511D01*
X144764366Y-91213302D01*
X144764364Y-91213313D01*
X144744532Y-91439998D01*
X144744532Y-91440001D01*
X144764364Y-91666686D01*
X144764366Y-91666697D01*
X144823258Y-91886488D01*
X144823261Y-91886497D01*
X144919431Y-92092732D01*
X144919432Y-92092734D01*
X145049954Y-92279141D01*
X145210858Y-92440045D01*
X145210861Y-92440047D01*
X145397266Y-92570568D01*
X145455275Y-92597618D01*
X145507714Y-92643791D01*
X145526866Y-92710984D01*
X145506650Y-92777865D01*
X145455275Y-92822382D01*
X145397267Y-92849431D01*
X145397265Y-92849432D01*
X145210858Y-92979954D01*
X145049954Y-93140858D01*
X144919432Y-93327265D01*
X144919431Y-93327267D01*
X144823261Y-93533502D01*
X144823258Y-93533511D01*
X144764366Y-93753302D01*
X144764364Y-93753313D01*
X144744532Y-93979998D01*
X144744532Y-93980001D01*
X144764364Y-94206686D01*
X144764366Y-94206697D01*
X144823258Y-94426488D01*
X144823261Y-94426497D01*
X144919431Y-94632732D01*
X144919432Y-94632734D01*
X145049954Y-94819141D01*
X145210858Y-94980045D01*
X145210861Y-94980047D01*
X145397266Y-95110568D01*
X145455275Y-95137618D01*
X145507714Y-95183791D01*
X145526866Y-95250984D01*
X145506650Y-95317865D01*
X145455275Y-95362382D01*
X145397267Y-95389431D01*
X145397265Y-95389432D01*
X145210858Y-95519954D01*
X145049954Y-95680858D01*
X144919432Y-95867265D01*
X144919431Y-95867267D01*
X144823261Y-96073502D01*
X144823258Y-96073511D01*
X144764366Y-96293302D01*
X144764364Y-96293313D01*
X144744532Y-96519998D01*
X144744532Y-96520001D01*
X144764364Y-96746686D01*
X144764366Y-96746697D01*
X144823258Y-96966488D01*
X144823261Y-96966497D01*
X144919431Y-97172732D01*
X144919432Y-97172734D01*
X145049954Y-97359141D01*
X145210858Y-97520045D01*
X145210861Y-97520047D01*
X145397266Y-97650568D01*
X145455275Y-97677618D01*
X145507714Y-97723791D01*
X145526866Y-97790984D01*
X145506650Y-97857865D01*
X145455275Y-97902382D01*
X145397267Y-97929431D01*
X145397265Y-97929432D01*
X145210858Y-98059954D01*
X145049954Y-98220858D01*
X144919432Y-98407265D01*
X144919431Y-98407267D01*
X144823261Y-98613502D01*
X144823258Y-98613511D01*
X144764366Y-98833302D01*
X144764364Y-98833313D01*
X144744532Y-99059998D01*
X144744532Y-99060001D01*
X144764364Y-99286686D01*
X144764366Y-99286697D01*
X144823258Y-99506488D01*
X144823261Y-99506497D01*
X144919431Y-99712732D01*
X144919432Y-99712734D01*
X145049954Y-99899141D01*
X145210858Y-100060045D01*
X145210861Y-100060047D01*
X145397266Y-100190568D01*
X145455275Y-100217618D01*
X145507714Y-100263791D01*
X145526866Y-100330984D01*
X145506650Y-100397865D01*
X145455275Y-100442382D01*
X145397267Y-100469431D01*
X145397265Y-100469432D01*
X145210858Y-100599954D01*
X145049954Y-100760858D01*
X144919432Y-100947265D01*
X144919431Y-100947267D01*
X144823261Y-101153502D01*
X144823258Y-101153511D01*
X144764366Y-101373302D01*
X144764364Y-101373313D01*
X144744532Y-101599998D01*
X144744532Y-101600001D01*
X144764364Y-101826686D01*
X144764366Y-101826697D01*
X144823258Y-102046488D01*
X144823261Y-102046497D01*
X144919431Y-102252732D01*
X144919432Y-102252734D01*
X145049954Y-102439141D01*
X145210858Y-102600045D01*
X145210861Y-102600047D01*
X145397266Y-102730568D01*
X145455275Y-102757618D01*
X145507714Y-102803791D01*
X145526866Y-102870984D01*
X145506650Y-102937865D01*
X145455275Y-102982382D01*
X145397267Y-103009431D01*
X145397265Y-103009432D01*
X145210858Y-103139954D01*
X145049954Y-103300858D01*
X144919432Y-103487265D01*
X144919431Y-103487267D01*
X144823261Y-103693502D01*
X144823258Y-103693511D01*
X144764366Y-103913302D01*
X144764364Y-103913313D01*
X144744532Y-104139998D01*
X144744532Y-104140001D01*
X144764364Y-104366686D01*
X144764366Y-104366697D01*
X144823258Y-104586488D01*
X144823261Y-104586497D01*
X144919431Y-104792732D01*
X144919432Y-104792734D01*
X145049954Y-104979141D01*
X145210858Y-105140045D01*
X145210861Y-105140047D01*
X145397266Y-105270568D01*
X145455275Y-105297618D01*
X145507714Y-105343791D01*
X145526866Y-105410984D01*
X145506650Y-105477865D01*
X145455275Y-105522382D01*
X145397267Y-105549431D01*
X145397265Y-105549432D01*
X145210858Y-105679954D01*
X145049954Y-105840858D01*
X144919432Y-106027265D01*
X144919431Y-106027267D01*
X144823261Y-106233502D01*
X144823258Y-106233511D01*
X144764366Y-106453302D01*
X144764364Y-106453313D01*
X144744532Y-106679998D01*
X144744532Y-106680001D01*
X144764364Y-106906686D01*
X144764366Y-106906697D01*
X144823258Y-107126488D01*
X144823261Y-107126497D01*
X144919431Y-107332732D01*
X144919432Y-107332734D01*
X145049954Y-107519141D01*
X145210858Y-107680045D01*
X145210861Y-107680047D01*
X145397266Y-107810568D01*
X145455275Y-107837618D01*
X145507714Y-107883791D01*
X145526866Y-107950984D01*
X145506650Y-108017865D01*
X145455275Y-108062382D01*
X145397267Y-108089431D01*
X145397265Y-108089432D01*
X145210858Y-108219954D01*
X145049954Y-108380858D01*
X144919432Y-108567265D01*
X144919431Y-108567267D01*
X144823261Y-108773502D01*
X144823258Y-108773511D01*
X144764366Y-108993302D01*
X144764364Y-108993313D01*
X144744532Y-109219998D01*
X144744532Y-109220001D01*
X144764364Y-109446686D01*
X144764366Y-109446697D01*
X144823258Y-109666488D01*
X144823261Y-109666497D01*
X144919431Y-109872732D01*
X144919432Y-109872734D01*
X145049954Y-110059141D01*
X145210858Y-110220045D01*
X145235462Y-110237273D01*
X145279087Y-110291849D01*
X145286281Y-110361348D01*
X145254758Y-110423703D01*
X145194529Y-110459117D01*
X145177593Y-110462138D01*
X145142516Y-110465908D01*
X145007671Y-110516202D01*
X145007664Y-110516206D01*
X144892455Y-110602452D01*
X144892452Y-110602455D01*
X144806206Y-110717664D01*
X144806202Y-110717671D01*
X144755908Y-110852517D01*
X144750612Y-110901784D01*
X144749501Y-110912123D01*
X144749500Y-110912135D01*
X144749500Y-111355928D01*
X144729815Y-111422967D01*
X144677011Y-111468722D01*
X144607853Y-111478666D01*
X144544297Y-111449641D01*
X144537819Y-111443609D01*
X136571743Y-103477533D01*
X136569550Y-103475284D01*
X136512324Y-103415082D01*
X136512320Y-103415079D01*
X136466503Y-103383189D01*
X136459018Y-103377545D01*
X136415751Y-103342266D01*
X136415747Y-103342264D01*
X136415746Y-103342263D01*
X136415744Y-103342262D01*
X136390480Y-103329065D01*
X136377053Y-103320930D01*
X136353659Y-103304647D01*
X136302374Y-103282639D01*
X136293863Y-103278597D01*
X136244409Y-103252764D01*
X136244406Y-103252763D01*
X136216996Y-103244919D01*
X136202213Y-103239656D01*
X136176012Y-103228412D01*
X136121345Y-103217177D01*
X136112199Y-103214932D01*
X136058557Y-103199584D01*
X136058545Y-103199581D01*
X136030126Y-103197418D01*
X136014580Y-103195238D01*
X135986658Y-103189500D01*
X135986656Y-103189500D01*
X135930854Y-103189500D01*
X135921439Y-103189142D01*
X135919062Y-103188961D01*
X135865798Y-103184904D01*
X135842077Y-103187925D01*
X135837521Y-103188506D01*
X135821856Y-103189500D01*
X131750049Y-103189500D01*
X131683010Y-103169815D01*
X131662368Y-103153181D01*
X131649141Y-103139954D01*
X131462734Y-103009432D01*
X131462728Y-103009429D01*
X131404725Y-102982382D01*
X131352285Y-102936210D01*
X131333133Y-102869017D01*
X131353348Y-102802135D01*
X131404725Y-102757618D01*
X131462734Y-102730568D01*
X131649139Y-102600047D01*
X131810047Y-102439139D01*
X131940568Y-102252734D01*
X132036739Y-102046496D01*
X132095635Y-101826692D01*
X132115468Y-101600000D01*
X132095635Y-101373308D01*
X132036739Y-101153504D01*
X131940568Y-100947266D01*
X131810047Y-100760861D01*
X131810045Y-100760858D01*
X131649141Y-100599954D01*
X131462734Y-100469432D01*
X131462728Y-100469429D01*
X131404725Y-100442382D01*
X131352285Y-100396210D01*
X131333133Y-100329017D01*
X131353348Y-100262135D01*
X131404725Y-100217618D01*
X131462734Y-100190568D01*
X131649139Y-100060047D01*
X131810047Y-99899139D01*
X131940568Y-99712734D01*
X132036739Y-99506496D01*
X132095635Y-99286692D01*
X132112948Y-99088799D01*
X132115468Y-99060001D01*
X132115468Y-99059998D01*
X132103499Y-98923193D01*
X132095635Y-98833308D01*
X132036739Y-98613504D01*
X131940568Y-98407266D01*
X131810047Y-98220861D01*
X131810045Y-98220858D01*
X131649141Y-98059954D01*
X131462734Y-97929432D01*
X131462728Y-97929429D01*
X131404725Y-97902382D01*
X131352285Y-97856210D01*
X131333133Y-97789017D01*
X131353348Y-97722135D01*
X131404725Y-97677618D01*
X131462734Y-97650568D01*
X131649139Y-97520047D01*
X131810047Y-97359139D01*
X131940568Y-97172734D01*
X132036739Y-96966496D01*
X132095635Y-96746692D01*
X132115468Y-96520000D01*
X132095635Y-96293308D01*
X132036739Y-96073504D01*
X131940568Y-95867266D01*
X131834278Y-95715467D01*
X131810045Y-95680858D01*
X131649141Y-95519954D01*
X131462734Y-95389432D01*
X131462728Y-95389429D01*
X131404725Y-95362382D01*
X131352285Y-95316210D01*
X131333133Y-95249017D01*
X131353348Y-95182135D01*
X131404725Y-95137618D01*
X131462734Y-95110568D01*
X131649139Y-94980047D01*
X131810047Y-94819139D01*
X131940568Y-94632734D01*
X132036739Y-94426496D01*
X132095635Y-94206692D01*
X132115468Y-93980000D01*
X132095635Y-93753308D01*
X132036739Y-93533504D01*
X131940568Y-93327266D01*
X131810047Y-93140861D01*
X131810045Y-93140858D01*
X131649141Y-92979954D01*
X131462734Y-92849432D01*
X131462728Y-92849429D01*
X131404725Y-92822382D01*
X131352285Y-92776210D01*
X131333133Y-92709017D01*
X131353348Y-92642135D01*
X131404725Y-92597618D01*
X131462734Y-92570568D01*
X131649139Y-92440047D01*
X131810047Y-92279139D01*
X131940568Y-92092734D01*
X132036739Y-91886496D01*
X132095635Y-91666692D01*
X132115468Y-91440000D01*
X132113946Y-91422608D01*
X132101255Y-91277544D01*
X132095635Y-91213308D01*
X132036739Y-90993504D01*
X131940568Y-90787266D01*
X131810047Y-90600861D01*
X131810045Y-90600858D01*
X131649141Y-90439954D01*
X131462734Y-90309432D01*
X131462728Y-90309429D01*
X131404882Y-90282455D01*
X131404724Y-90282381D01*
X131352285Y-90236210D01*
X131333133Y-90169017D01*
X131353348Y-90102135D01*
X131404725Y-90057618D01*
X131462734Y-90030568D01*
X131649139Y-89900047D01*
X131810047Y-89739139D01*
X131940568Y-89552734D01*
X132036739Y-89346496D01*
X132095635Y-89126692D01*
X132115468Y-88900000D01*
X132111753Y-88857543D01*
X132095635Y-88673313D01*
X132095635Y-88673312D01*
X132095635Y-88673308D01*
X132036739Y-88453504D01*
X131940568Y-88247266D01*
X131810047Y-88060861D01*
X131810045Y-88060858D01*
X131649141Y-87899954D01*
X131462734Y-87769432D01*
X131462728Y-87769429D01*
X131404725Y-87742382D01*
X131352285Y-87696210D01*
X131333133Y-87629017D01*
X131353348Y-87562135D01*
X131404725Y-87517618D01*
X131462734Y-87490568D01*
X131649139Y-87360047D01*
X131810047Y-87199139D01*
X131940568Y-87012734D01*
X132036739Y-86806496D01*
X132095635Y-86586692D01*
X132112634Y-86392384D01*
X132115468Y-86360001D01*
X132115468Y-86359998D01*
X132109801Y-86295230D01*
X132095635Y-86133308D01*
X132036739Y-85913504D01*
X131940568Y-85707266D01*
X131810047Y-85520861D01*
X131810045Y-85520858D01*
X131649141Y-85359954D01*
X131462734Y-85229432D01*
X131462728Y-85229429D01*
X131404725Y-85202382D01*
X131352285Y-85156210D01*
X131333133Y-85089017D01*
X131353348Y-85022135D01*
X131404725Y-84977618D01*
X131462734Y-84950568D01*
X131649139Y-84820047D01*
X131810047Y-84659139D01*
X131940568Y-84472734D01*
X132036739Y-84266496D01*
X132095635Y-84046692D01*
X132115468Y-83820000D01*
X132095635Y-83593308D01*
X132036739Y-83373504D01*
X131940568Y-83167266D01*
X131810047Y-82980861D01*
X131810045Y-82980858D01*
X131649141Y-82819954D01*
X131462734Y-82689432D01*
X131462728Y-82689429D01*
X131404725Y-82662382D01*
X131352285Y-82616210D01*
X131333133Y-82549017D01*
X131353348Y-82482135D01*
X131404725Y-82437618D01*
X131462734Y-82410568D01*
X131649139Y-82280047D01*
X131810047Y-82119139D01*
X131940568Y-81932734D01*
X132036739Y-81726496D01*
X132095635Y-81506692D01*
X132115468Y-81280000D01*
X132095635Y-81053308D01*
X132036739Y-80833504D01*
X131940568Y-80627266D01*
X131810047Y-80440861D01*
X131810045Y-80440858D01*
X131649141Y-80279954D01*
X131462734Y-80149432D01*
X131462728Y-80149429D01*
X131404725Y-80122382D01*
X131352285Y-80076210D01*
X131333133Y-80009017D01*
X131353348Y-79942135D01*
X131404725Y-79897618D01*
X131462734Y-79870568D01*
X131649139Y-79740047D01*
X131810047Y-79579139D01*
X131940568Y-79392734D01*
X132036739Y-79186496D01*
X132095635Y-78966692D01*
X132115468Y-78740000D01*
X132095635Y-78513308D01*
X132036739Y-78293504D01*
X131940568Y-78087266D01*
X131810047Y-77900861D01*
X131810045Y-77900858D01*
X131649141Y-77739954D01*
X131462734Y-77609432D01*
X131462728Y-77609429D01*
X131404725Y-77582382D01*
X131352285Y-77536210D01*
X131333133Y-77469017D01*
X131353348Y-77402135D01*
X131404725Y-77357618D01*
X131418036Y-77351411D01*
X131462734Y-77330568D01*
X131649139Y-77200047D01*
X131810047Y-77039139D01*
X131940568Y-76852734D01*
X132036739Y-76646496D01*
X132095635Y-76426692D01*
X132115468Y-76200000D01*
X132100869Y-76033137D01*
X132114635Y-75964639D01*
X132136713Y-75934653D01*
X132354548Y-75716819D01*
X132415871Y-75683334D01*
X132442229Y-75680500D01*
X144681222Y-75680500D01*
X144748261Y-75700185D01*
G37*
%TD.AperFunction*%
%TA.AperFunction,NonConductor*%
G36*
X157165703Y-109977516D02*
G01*
X157172179Y-109983546D01*
X157933337Y-110744705D01*
X158683282Y-111494650D01*
X158716767Y-111555973D01*
X158719129Y-111593138D01*
X158713776Y-111654325D01*
X158688324Y-111719394D01*
X158631733Y-111760373D01*
X158561971Y-111764251D01*
X158502567Y-111731199D01*
X156996819Y-110225451D01*
X156963334Y-110164128D01*
X156960500Y-110137770D01*
X156960500Y-110071229D01*
X156980185Y-110004190D01*
X157032989Y-109958435D01*
X157102147Y-109948491D01*
X157165703Y-109977516D01*
G37*
%TD.AperFunction*%
%TA.AperFunction,NonConductor*%
G36*
X171328834Y-91727889D02*
G01*
X171384767Y-91769761D01*
X171409184Y-91835225D01*
X171409500Y-91844071D01*
X171409500Y-92287870D01*
X171409501Y-92287876D01*
X171415908Y-92347483D01*
X171466202Y-92482328D01*
X171466206Y-92482335D01*
X171552452Y-92597544D01*
X171552455Y-92597547D01*
X171667664Y-92683793D01*
X171667671Y-92683797D01*
X171802517Y-92734091D01*
X171802516Y-92734091D01*
X171809444Y-92734835D01*
X171862127Y-92740500D01*
X172624927Y-92740499D01*
X172691966Y-92760183D01*
X172712608Y-92776818D01*
X179353181Y-99417391D01*
X179386666Y-99478714D01*
X179389500Y-99505072D01*
X179389500Y-101432753D01*
X179369815Y-101499792D01*
X179317011Y-101545547D01*
X179247853Y-101555491D01*
X179184297Y-101526466D01*
X179146523Y-101467688D01*
X179141972Y-101443561D01*
X179135826Y-101373313D01*
X179135063Y-101364592D01*
X179073903Y-101136337D01*
X178974035Y-100922171D01*
X178838495Y-100728599D01*
X178838494Y-100728597D01*
X178671402Y-100561506D01*
X178671395Y-100561501D01*
X178477834Y-100425967D01*
X178477830Y-100425965D01*
X178477828Y-100425964D01*
X178263663Y-100326097D01*
X178263659Y-100326096D01*
X178263655Y-100326094D01*
X178035413Y-100264938D01*
X178035403Y-100264936D01*
X177800001Y-100244341D01*
X177799999Y-100244341D01*
X177564596Y-100264936D01*
X177564586Y-100264938D01*
X177336344Y-100326094D01*
X177336335Y-100326098D01*
X177122171Y-100425964D01*
X177122169Y-100425965D01*
X176928597Y-100561505D01*
X176876924Y-100613180D01*
X176815601Y-100646666D01*
X176789242Y-100649500D01*
X173650049Y-100649500D01*
X173583010Y-100629815D01*
X173562368Y-100613181D01*
X173549141Y-100599954D01*
X173362734Y-100469432D01*
X173362728Y-100469429D01*
X173304725Y-100442382D01*
X173252285Y-100396210D01*
X173233133Y-100329017D01*
X173253348Y-100262135D01*
X173304725Y-100217618D01*
X173362734Y-100190568D01*
X173549139Y-100060047D01*
X173710047Y-99899139D01*
X173840568Y-99712734D01*
X173936739Y-99506496D01*
X173995635Y-99286692D01*
X174012948Y-99088799D01*
X174015468Y-99060001D01*
X174015468Y-99059998D01*
X174003499Y-98923193D01*
X173995635Y-98833308D01*
X173936739Y-98613504D01*
X173840568Y-98407266D01*
X173710047Y-98220861D01*
X173710045Y-98220858D01*
X173549141Y-98059954D01*
X173362734Y-97929432D01*
X173362728Y-97929429D01*
X173304725Y-97902382D01*
X173252285Y-97856210D01*
X173233133Y-97789017D01*
X173253348Y-97722135D01*
X173304725Y-97677618D01*
X173362734Y-97650568D01*
X173549139Y-97520047D01*
X173710047Y-97359139D01*
X173840568Y-97172734D01*
X173936739Y-96966496D01*
X173995635Y-96746692D01*
X174015468Y-96520000D01*
X173995635Y-96293308D01*
X173936739Y-96073504D01*
X173840568Y-95867266D01*
X173734278Y-95715467D01*
X173710045Y-95680858D01*
X173549141Y-95519954D01*
X173362734Y-95389432D01*
X173362732Y-95389431D01*
X173156497Y-95293261D01*
X173156488Y-95293258D01*
X172936697Y-95234366D01*
X172936693Y-95234365D01*
X172936692Y-95234365D01*
X172936691Y-95234364D01*
X172936686Y-95234364D01*
X172710002Y-95214532D01*
X172709998Y-95214532D01*
X172483313Y-95234364D01*
X172483302Y-95234366D01*
X172263511Y-95293258D01*
X172263502Y-95293261D01*
X172057267Y-95389431D01*
X172057265Y-95389432D01*
X171870858Y-95519954D01*
X171709954Y-95680858D01*
X171579432Y-95867265D01*
X171579431Y-95867267D01*
X171483261Y-96073502D01*
X171483258Y-96073511D01*
X171424366Y-96293302D01*
X171424364Y-96293313D01*
X171404532Y-96519998D01*
X171404532Y-96520001D01*
X171424364Y-96746686D01*
X171424366Y-96746697D01*
X171483258Y-96966488D01*
X171483261Y-96966497D01*
X171579431Y-97172732D01*
X171579432Y-97172734D01*
X171709954Y-97359141D01*
X171870858Y-97520045D01*
X171870861Y-97520047D01*
X172057266Y-97650568D01*
X172115275Y-97677618D01*
X172167714Y-97723791D01*
X172186866Y-97790984D01*
X172166650Y-97857865D01*
X172115275Y-97902382D01*
X172057267Y-97929431D01*
X172057265Y-97929432D01*
X171870858Y-98059954D01*
X171709954Y-98220858D01*
X171579432Y-98407265D01*
X171579431Y-98407267D01*
X171483261Y-98613502D01*
X171483258Y-98613511D01*
X171424366Y-98833302D01*
X171424364Y-98833313D01*
X171404532Y-99059998D01*
X171404532Y-99060001D01*
X171424364Y-99286686D01*
X171424366Y-99286697D01*
X171483258Y-99506488D01*
X171483261Y-99506497D01*
X171579431Y-99712732D01*
X171579432Y-99712734D01*
X171709954Y-99899141D01*
X171870858Y-100060045D01*
X171870861Y-100060047D01*
X172057266Y-100190568D01*
X172115275Y-100217618D01*
X172167714Y-100263791D01*
X172186866Y-100330984D01*
X172166650Y-100397865D01*
X172115275Y-100442382D01*
X172057267Y-100469431D01*
X172057265Y-100469432D01*
X171870858Y-100599954D01*
X171709954Y-100760858D01*
X171579432Y-100947265D01*
X171579431Y-100947267D01*
X171483261Y-101153502D01*
X171483258Y-101153511D01*
X171424366Y-101373302D01*
X171424364Y-101373313D01*
X171404532Y-101599998D01*
X171404532Y-101600001D01*
X171424364Y-101826686D01*
X171424366Y-101826697D01*
X171483258Y-102046488D01*
X171483261Y-102046497D01*
X171579431Y-102252732D01*
X171579432Y-102252734D01*
X171709954Y-102439141D01*
X171870858Y-102600045D01*
X171870861Y-102600047D01*
X172057266Y-102730568D01*
X172115275Y-102757618D01*
X172167714Y-102803791D01*
X172186866Y-102870984D01*
X172166650Y-102937865D01*
X172115275Y-102982382D01*
X172057267Y-103009431D01*
X172057265Y-103009432D01*
X171870858Y-103139954D01*
X171709954Y-103300858D01*
X171579432Y-103487265D01*
X171579431Y-103487267D01*
X171483261Y-103693502D01*
X171483258Y-103693511D01*
X171424366Y-103913302D01*
X171424364Y-103913313D01*
X171404532Y-104139998D01*
X171404532Y-104140001D01*
X171424364Y-104366686D01*
X171424366Y-104366697D01*
X171483258Y-104586488D01*
X171483261Y-104586497D01*
X171579431Y-104792732D01*
X171579432Y-104792734D01*
X171709954Y-104979141D01*
X171870858Y-105140045D01*
X171870861Y-105140047D01*
X172057266Y-105270568D01*
X172115275Y-105297618D01*
X172167714Y-105343791D01*
X172186866Y-105410984D01*
X172166650Y-105477865D01*
X172115275Y-105522382D01*
X172057267Y-105549431D01*
X172057265Y-105549432D01*
X171870858Y-105679954D01*
X171709954Y-105840858D01*
X171579432Y-106027265D01*
X171579431Y-106027267D01*
X171483261Y-106233502D01*
X171483258Y-106233511D01*
X171424366Y-106453302D01*
X171424364Y-106453313D01*
X171404532Y-106679998D01*
X171404532Y-106680001D01*
X171424364Y-106906686D01*
X171424366Y-106906697D01*
X171483258Y-107126488D01*
X171483261Y-107126497D01*
X171579431Y-107332732D01*
X171579432Y-107332734D01*
X171709954Y-107519141D01*
X171870858Y-107680045D01*
X171870861Y-107680047D01*
X172057266Y-107810568D01*
X172115275Y-107837618D01*
X172167714Y-107883791D01*
X172186866Y-107950984D01*
X172166650Y-108017865D01*
X172115275Y-108062382D01*
X172057267Y-108089431D01*
X172057265Y-108089432D01*
X171870858Y-108219954D01*
X171709954Y-108380858D01*
X171579432Y-108567265D01*
X171579431Y-108567267D01*
X171483261Y-108773502D01*
X171483258Y-108773511D01*
X171424366Y-108993302D01*
X171424364Y-108993313D01*
X171404532Y-109219998D01*
X171404532Y-109220001D01*
X171424364Y-109446686D01*
X171424366Y-109446697D01*
X171483258Y-109666488D01*
X171483261Y-109666497D01*
X171579431Y-109872732D01*
X171579432Y-109872734D01*
X171709954Y-110059141D01*
X171870858Y-110220045D01*
X171903626Y-110242989D01*
X172057266Y-110350568D01*
X172115275Y-110377618D01*
X172167714Y-110423791D01*
X172186866Y-110490984D01*
X172166650Y-110557865D01*
X172115275Y-110602381D01*
X172115118Y-110602455D01*
X172057267Y-110629431D01*
X172057265Y-110629432D01*
X171870858Y-110759954D01*
X171709954Y-110920858D01*
X171579432Y-111107265D01*
X171579431Y-111107267D01*
X171483261Y-111313502D01*
X171483258Y-111313511D01*
X171424366Y-111533302D01*
X171424364Y-111533312D01*
X171412179Y-111672583D01*
X171386726Y-111737652D01*
X171376333Y-111749455D01*
X171337182Y-111788607D01*
X171275860Y-111822093D01*
X171206168Y-111817109D01*
X171150234Y-111775239D01*
X171125816Y-111709775D01*
X171125500Y-111700927D01*
X171125500Y-91880071D01*
X171145185Y-91813032D01*
X171161815Y-91792394D01*
X171197820Y-91756389D01*
X171259142Y-91722905D01*
X171328834Y-91727889D01*
G37*
%TD.AperFunction*%
%TA.AperFunction,NonConductor*%
G36*
X176434248Y-110190185D02*
G01*
X176480003Y-110242989D01*
X176483391Y-110251167D01*
X176506202Y-110312328D01*
X176506206Y-110312335D01*
X176592452Y-110427544D01*
X176592455Y-110427547D01*
X176707664Y-110513793D01*
X176707671Y-110513797D01*
X176842517Y-110564091D01*
X176842516Y-110564091D01*
X176849444Y-110564835D01*
X176902127Y-110570500D01*
X177805927Y-110570499D01*
X177872966Y-110590183D01*
X177918721Y-110642987D01*
X177928665Y-110712146D01*
X177899640Y-110775702D01*
X177893608Y-110782180D01*
X175362609Y-113313181D01*
X175301286Y-113346666D01*
X175274928Y-113349500D01*
X174074141Y-113349500D01*
X174007102Y-113329815D01*
X173961347Y-113277011D01*
X173957969Y-113268859D01*
X173953796Y-113257669D01*
X173953793Y-113257665D01*
X173953793Y-113257664D01*
X173867547Y-113142455D01*
X173867544Y-113142452D01*
X173752335Y-113056206D01*
X173752328Y-113056202D01*
X173617482Y-113005908D01*
X173617483Y-113005908D01*
X173582404Y-113002137D01*
X173517853Y-112975399D01*
X173478005Y-112918006D01*
X173475512Y-112848181D01*
X173511165Y-112788092D01*
X173524539Y-112777272D01*
X173549140Y-112760046D01*
X173710045Y-112599141D01*
X173710047Y-112599139D01*
X173840568Y-112412734D01*
X173936739Y-112206496D01*
X173995635Y-111986692D01*
X174015468Y-111760000D01*
X174014545Y-111749455D01*
X174006496Y-111657452D01*
X173995635Y-111533308D01*
X173936739Y-111313504D01*
X173840568Y-111107266D01*
X173710047Y-110920861D01*
X173710045Y-110920858D01*
X173549141Y-110759954D01*
X173362734Y-110629432D01*
X173362728Y-110629429D01*
X173304882Y-110602455D01*
X173304724Y-110602381D01*
X173252285Y-110556210D01*
X173233133Y-110489017D01*
X173253348Y-110422135D01*
X173304725Y-110377618D01*
X173362734Y-110350568D01*
X173549139Y-110220047D01*
X173549141Y-110220045D01*
X173562368Y-110206819D01*
X173623691Y-110173334D01*
X173650049Y-110170500D01*
X176367209Y-110170500D01*
X176434248Y-110190185D01*
G37*
%TD.AperFunction*%
%TA.AperFunction,NonConductor*%
G36*
X171665080Y-72660185D02*
G01*
X171710835Y-72712989D01*
X171720779Y-72782147D01*
X171699616Y-72835623D01*
X171579432Y-73007265D01*
X171579431Y-73007267D01*
X171483261Y-73213502D01*
X171483258Y-73213511D01*
X171424366Y-73433302D01*
X171424364Y-73433313D01*
X171404532Y-73659998D01*
X171404532Y-73660001D01*
X171424364Y-73886686D01*
X171424366Y-73886697D01*
X171483258Y-74106488D01*
X171483261Y-74106497D01*
X171579431Y-74312732D01*
X171579432Y-74312734D01*
X171709954Y-74499141D01*
X171870858Y-74660045D01*
X171870861Y-74660047D01*
X172057266Y-74790568D01*
X172115275Y-74817618D01*
X172167714Y-74863791D01*
X172186866Y-74930984D01*
X172166650Y-74997865D01*
X172115275Y-75042382D01*
X172057267Y-75069431D01*
X172057265Y-75069432D01*
X171870858Y-75199954D01*
X171709954Y-75360858D01*
X171579432Y-75547265D01*
X171579431Y-75547267D01*
X171483261Y-75753502D01*
X171483258Y-75753511D01*
X171424366Y-75973302D01*
X171424364Y-75973313D01*
X171404532Y-76199998D01*
X171404532Y-76200001D01*
X171424364Y-76426686D01*
X171424366Y-76426697D01*
X171483258Y-76646488D01*
X171483261Y-76646497D01*
X171579431Y-76852732D01*
X171579432Y-76852734D01*
X171709954Y-77039141D01*
X171870858Y-77200045D01*
X171870861Y-77200047D01*
X172057266Y-77330568D01*
X172082462Y-77342317D01*
X172115275Y-77357618D01*
X172167714Y-77403791D01*
X172186866Y-77470984D01*
X172166650Y-77537865D01*
X172115275Y-77582382D01*
X172057267Y-77609431D01*
X172057265Y-77609432D01*
X171870858Y-77739954D01*
X171709954Y-77900858D01*
X171579432Y-78087265D01*
X171579431Y-78087267D01*
X171483261Y-78293502D01*
X171483258Y-78293511D01*
X171424366Y-78513302D01*
X171424364Y-78513313D01*
X171404532Y-78739998D01*
X171404532Y-78740001D01*
X171424364Y-78966686D01*
X171424366Y-78966697D01*
X171483258Y-79186488D01*
X171483261Y-79186497D01*
X171579431Y-79392732D01*
X171579432Y-79392734D01*
X171709954Y-79579141D01*
X171870858Y-79740045D01*
X171870861Y-79740047D01*
X172057266Y-79870568D01*
X172115275Y-79897618D01*
X172167714Y-79943791D01*
X172186866Y-80010984D01*
X172166650Y-80077865D01*
X172115275Y-80122382D01*
X172057267Y-80149431D01*
X172057265Y-80149432D01*
X171870858Y-80279954D01*
X171709954Y-80440858D01*
X171579432Y-80627265D01*
X171579431Y-80627267D01*
X171483261Y-80833502D01*
X171483258Y-80833511D01*
X171424366Y-81053302D01*
X171424364Y-81053313D01*
X171404532Y-81279998D01*
X171404532Y-81280001D01*
X171424364Y-81506686D01*
X171424366Y-81506697D01*
X171483258Y-81726488D01*
X171483261Y-81726497D01*
X171579431Y-81932732D01*
X171579432Y-81932734D01*
X171709954Y-82119141D01*
X171870858Y-82280045D01*
X171870861Y-82280047D01*
X172057266Y-82410568D01*
X172100926Y-82430927D01*
X172115275Y-82437618D01*
X172167714Y-82483791D01*
X172186866Y-82550984D01*
X172166650Y-82617865D01*
X172115275Y-82662382D01*
X172057267Y-82689431D01*
X172057265Y-82689432D01*
X171870858Y-82819954D01*
X171709954Y-82980858D01*
X171579432Y-83167265D01*
X171579431Y-83167267D01*
X171483261Y-83373502D01*
X171483258Y-83373511D01*
X171424366Y-83593302D01*
X171424364Y-83593313D01*
X171404532Y-83819998D01*
X171404532Y-83820001D01*
X171424364Y-84046686D01*
X171424366Y-84046697D01*
X171483258Y-84266488D01*
X171483261Y-84266497D01*
X171579431Y-84472732D01*
X171579432Y-84472734D01*
X171709954Y-84659141D01*
X171870858Y-84820045D01*
X171870861Y-84820047D01*
X172057266Y-84950568D01*
X172115275Y-84977618D01*
X172167714Y-85023791D01*
X172186866Y-85090984D01*
X172166650Y-85157865D01*
X172115275Y-85202382D01*
X172057267Y-85229431D01*
X172057265Y-85229432D01*
X171870858Y-85359954D01*
X171709954Y-85520858D01*
X171579432Y-85707265D01*
X171579431Y-85707267D01*
X171483261Y-85913502D01*
X171483258Y-85913511D01*
X171424366Y-86133302D01*
X171424364Y-86133313D01*
X171404532Y-86359998D01*
X171404532Y-86360001D01*
X171424364Y-86586686D01*
X171424366Y-86586697D01*
X171483258Y-86806488D01*
X171483261Y-86806497D01*
X171579431Y-87012732D01*
X171579432Y-87012734D01*
X171709954Y-87199141D01*
X171870858Y-87360045D01*
X171870861Y-87360047D01*
X172057266Y-87490568D01*
X172115275Y-87517618D01*
X172167714Y-87563791D01*
X172186866Y-87630984D01*
X172166650Y-87697865D01*
X172115275Y-87742382D01*
X172057267Y-87769431D01*
X172057265Y-87769432D01*
X171870858Y-87899954D01*
X171709954Y-88060858D01*
X171579432Y-88247265D01*
X171579431Y-88247267D01*
X171483261Y-88453502D01*
X171483258Y-88453511D01*
X171424366Y-88673302D01*
X171424364Y-88673312D01*
X171412179Y-88812583D01*
X171386726Y-88877652D01*
X171376332Y-88889456D01*
X169512551Y-90753237D01*
X169510303Y-90755429D01*
X169450085Y-90812671D01*
X169450082Y-90812675D01*
X169418201Y-90858478D01*
X169412532Y-90865997D01*
X169384400Y-90900500D01*
X169377266Y-90909249D01*
X169377265Y-90909250D01*
X169377264Y-90909250D01*
X169364066Y-90934517D01*
X169355936Y-90947937D01*
X169339646Y-90971342D01*
X169339646Y-90971343D01*
X169317640Y-91022624D01*
X169313598Y-91031134D01*
X169287764Y-91080591D01*
X169287762Y-91080595D01*
X169279919Y-91108003D01*
X169274658Y-91122779D01*
X169263412Y-91148986D01*
X169263412Y-91148988D01*
X169252177Y-91203653D01*
X169249933Y-91212798D01*
X169234582Y-91266449D01*
X169234581Y-91266454D01*
X169232418Y-91294874D01*
X169230238Y-91310420D01*
X169224500Y-91338343D01*
X169224500Y-91394145D01*
X169224142Y-91403561D01*
X169219904Y-91459201D01*
X169223506Y-91487475D01*
X169224500Y-91503143D01*
X169224500Y-113849928D01*
X169204815Y-113916967D01*
X169188181Y-113937609D01*
X167272609Y-115853181D01*
X167211286Y-115886666D01*
X167184928Y-115889500D01*
X157192901Y-115889500D01*
X157125862Y-115869815D01*
X157080107Y-115817011D01*
X157070163Y-115747853D01*
X157099188Y-115684297D01*
X157157966Y-115646523D01*
X157164384Y-115644824D01*
X157167479Y-115644092D01*
X157167481Y-115644091D01*
X157167483Y-115644091D01*
X157302331Y-115593796D01*
X157417546Y-115507546D01*
X157503796Y-115392331D01*
X157554091Y-115257483D01*
X157560500Y-115197873D01*
X157560499Y-113402128D01*
X157554091Y-113342517D01*
X157549353Y-113329815D01*
X157503797Y-113207671D01*
X157503795Y-113207668D01*
X157493180Y-113193488D01*
X157468762Y-113128024D01*
X157483613Y-113059751D01*
X157533018Y-113010345D01*
X157601290Y-112995492D01*
X157666755Y-113019908D01*
X157680127Y-113031495D01*
X158683282Y-114034650D01*
X158716767Y-114095973D01*
X158719129Y-114133137D01*
X158704532Y-114299996D01*
X158704532Y-114300001D01*
X158724364Y-114526686D01*
X158724366Y-114526697D01*
X158783258Y-114746488D01*
X158783261Y-114746497D01*
X158879431Y-114952732D01*
X158879432Y-114952734D01*
X159009954Y-115139141D01*
X159170858Y-115300045D01*
X159170861Y-115300047D01*
X159357266Y-115430568D01*
X159563504Y-115526739D01*
X159783308Y-115585635D01*
X159945230Y-115599801D01*
X160009998Y-115605468D01*
X160010000Y-115605468D01*
X160010002Y-115605468D01*
X160066807Y-115600498D01*
X160236692Y-115585635D01*
X160456496Y-115526739D01*
X160662734Y-115430568D01*
X160849139Y-115300047D01*
X161010047Y-115139139D01*
X161140568Y-114952734D01*
X161236739Y-114746496D01*
X161295635Y-114526692D01*
X161315468Y-114300000D01*
X161295635Y-114073308D01*
X161236739Y-113853504D01*
X161140568Y-113647266D01*
X161010047Y-113460861D01*
X161010045Y-113460858D01*
X160849141Y-113299954D01*
X160662734Y-113169432D01*
X160662728Y-113169429D01*
X160604882Y-113142455D01*
X160604724Y-113142381D01*
X160552285Y-113096210D01*
X160533133Y-113029017D01*
X160553348Y-112962135D01*
X160604725Y-112917618D01*
X160662734Y-112890568D01*
X160849139Y-112760047D01*
X161010047Y-112599139D01*
X161140568Y-112412734D01*
X161236739Y-112206496D01*
X161295635Y-111986692D01*
X161315468Y-111760000D01*
X161314545Y-111749455D01*
X161306496Y-111657452D01*
X161295635Y-111533308D01*
X161236739Y-111313504D01*
X161140568Y-111107266D01*
X161010047Y-110920861D01*
X161010045Y-110920858D01*
X160849141Y-110759954D01*
X160662734Y-110629432D01*
X160662728Y-110629429D01*
X160604882Y-110602455D01*
X160604724Y-110602381D01*
X160552285Y-110556210D01*
X160533133Y-110489017D01*
X160553348Y-110422135D01*
X160604725Y-110377618D01*
X160662734Y-110350568D01*
X160849139Y-110220047D01*
X161010047Y-110059139D01*
X161140568Y-109872734D01*
X161236739Y-109666496D01*
X161295635Y-109446692D01*
X161315468Y-109220000D01*
X161295635Y-108993308D01*
X161236739Y-108773504D01*
X161140568Y-108567266D01*
X161010047Y-108380861D01*
X161010045Y-108380858D01*
X160849141Y-108219954D01*
X160662734Y-108089432D01*
X160662728Y-108089429D01*
X160604725Y-108062382D01*
X160552285Y-108016210D01*
X160533133Y-107949017D01*
X160553348Y-107882135D01*
X160604725Y-107837618D01*
X160662734Y-107810568D01*
X160849139Y-107680047D01*
X161010047Y-107519139D01*
X161140568Y-107332734D01*
X161236739Y-107126496D01*
X161295635Y-106906692D01*
X161315468Y-106680000D01*
X161295635Y-106453308D01*
X161236739Y-106233504D01*
X161140568Y-106027266D01*
X161010047Y-105840861D01*
X161010045Y-105840858D01*
X160849141Y-105679954D01*
X160662734Y-105549432D01*
X160662728Y-105549429D01*
X160604725Y-105522382D01*
X160552285Y-105476210D01*
X160533133Y-105409017D01*
X160553348Y-105342135D01*
X160604725Y-105297618D01*
X160662734Y-105270568D01*
X160849139Y-105140047D01*
X161010047Y-104979139D01*
X161140568Y-104792734D01*
X161236739Y-104586496D01*
X161295635Y-104366692D01*
X161315468Y-104140000D01*
X161295635Y-103913308D01*
X161236739Y-103693504D01*
X161140568Y-103487266D01*
X161039036Y-103342262D01*
X161010045Y-103300858D01*
X160849141Y-103139954D01*
X160662734Y-103009432D01*
X160662728Y-103009429D01*
X160604725Y-102982382D01*
X160552285Y-102936210D01*
X160533133Y-102869017D01*
X160553348Y-102802135D01*
X160604725Y-102757618D01*
X160662734Y-102730568D01*
X160849139Y-102600047D01*
X161010047Y-102439139D01*
X161140568Y-102252734D01*
X161236739Y-102046496D01*
X161295635Y-101826692D01*
X161315468Y-101600000D01*
X161295635Y-101373308D01*
X161236739Y-101153504D01*
X161140568Y-100947266D01*
X161010047Y-100760861D01*
X161010045Y-100760858D01*
X160849141Y-100599954D01*
X160662734Y-100469432D01*
X160662728Y-100469429D01*
X160604725Y-100442382D01*
X160552285Y-100396210D01*
X160533133Y-100329017D01*
X160553348Y-100262135D01*
X160604725Y-100217618D01*
X160662734Y-100190568D01*
X160849139Y-100060047D01*
X161010047Y-99899139D01*
X161140568Y-99712734D01*
X161236739Y-99506496D01*
X161295635Y-99286692D01*
X161312948Y-99088799D01*
X161315468Y-99060001D01*
X161315468Y-99059998D01*
X161303499Y-98923193D01*
X161295635Y-98833308D01*
X161236739Y-98613504D01*
X161140568Y-98407266D01*
X161010047Y-98220861D01*
X161010045Y-98220858D01*
X160849141Y-98059954D01*
X160662734Y-97929432D01*
X160662728Y-97929429D01*
X160604725Y-97902382D01*
X160552285Y-97856210D01*
X160533133Y-97789017D01*
X160553348Y-97722135D01*
X160604725Y-97677618D01*
X160662734Y-97650568D01*
X160849139Y-97520047D01*
X161010047Y-97359139D01*
X161140568Y-97172734D01*
X161236739Y-96966496D01*
X161295635Y-96746692D01*
X161315468Y-96520000D01*
X161300869Y-96353137D01*
X161314635Y-96284639D01*
X161336713Y-96254653D01*
X161775638Y-95815727D01*
X161789267Y-95803950D01*
X161808530Y-95789610D01*
X161840366Y-95751669D01*
X161847683Y-95743684D01*
X161848993Y-95742372D01*
X161851590Y-95739777D01*
X161870811Y-95715467D01*
X161873094Y-95712664D01*
X161921301Y-95655215D01*
X161925272Y-95649179D01*
X161925323Y-95649212D01*
X161929369Y-95642860D01*
X161929317Y-95642828D01*
X161933105Y-95636683D01*
X161933111Y-95636677D01*
X161964829Y-95568655D01*
X161966369Y-95565476D01*
X162000040Y-95498433D01*
X162000043Y-95498417D01*
X162002510Y-95491644D01*
X162002568Y-95491665D01*
X162005043Y-95484546D01*
X162004985Y-95484527D01*
X162007255Y-95477677D01*
X162007256Y-95477673D01*
X162022431Y-95404171D01*
X162023186Y-95400767D01*
X162040500Y-95327721D01*
X162040500Y-95327719D01*
X162040501Y-95327715D01*
X162041339Y-95320548D01*
X162041397Y-95320554D01*
X162042164Y-95313056D01*
X162042104Y-95313051D01*
X162042733Y-95305860D01*
X162042366Y-95293261D01*
X162040552Y-95230889D01*
X162040500Y-95227283D01*
X162040500Y-75003705D01*
X162041809Y-74985735D01*
X162043636Y-74973261D01*
X162045289Y-74961977D01*
X162040971Y-74912632D01*
X162040500Y-74901826D01*
X162040500Y-74896296D01*
X162040500Y-74896291D01*
X162036898Y-74865478D01*
X162036534Y-74861915D01*
X162032659Y-74817618D01*
X162029998Y-74787202D01*
X162029995Y-74787195D01*
X162028538Y-74780133D01*
X162028597Y-74780120D01*
X162026967Y-74772764D01*
X162026908Y-74772779D01*
X162025241Y-74765747D01*
X162025241Y-74765745D01*
X161999563Y-74695196D01*
X161998424Y-74691918D01*
X161974814Y-74620665D01*
X161974813Y-74620663D01*
X161971763Y-74614121D01*
X161971817Y-74614095D01*
X161968533Y-74607312D01*
X161968480Y-74607340D01*
X161965238Y-74600885D01*
X161957750Y-74589500D01*
X161923994Y-74538176D01*
X161922118Y-74535232D01*
X161882711Y-74471344D01*
X161882708Y-74471341D01*
X161878233Y-74465681D01*
X161878280Y-74465643D01*
X161873519Y-74459799D01*
X161873474Y-74459838D01*
X161868831Y-74454305D01*
X161814273Y-74402832D01*
X161811686Y-74400319D01*
X161336716Y-73925348D01*
X161303231Y-73864025D01*
X161300869Y-73826861D01*
X161315468Y-73660000D01*
X161295635Y-73433308D01*
X161236739Y-73213504D01*
X161140568Y-73007266D01*
X161072039Y-72909395D01*
X161020384Y-72835623D01*
X160998057Y-72769416D01*
X161015068Y-72701649D01*
X161066016Y-72653837D01*
X161121959Y-72640500D01*
X171598041Y-72640500D01*
X171665080Y-72660185D01*
G37*
%TD.AperFunction*%
%TA.AperFunction,NonConductor*%
G36*
X147557431Y-104168799D02*
G01*
X148573181Y-105184548D01*
X148606666Y-105245871D01*
X148609500Y-105272229D01*
X148609500Y-106207870D01*
X148609501Y-106207876D01*
X148615908Y-106267483D01*
X148666202Y-106402328D01*
X148666206Y-106402335D01*
X148752452Y-106517544D01*
X148752455Y-106517547D01*
X148867664Y-106603793D01*
X148867671Y-106603797D01*
X149002517Y-106654091D01*
X149002516Y-106654091D01*
X149009444Y-106654835D01*
X149062127Y-106660500D01*
X150657872Y-106660499D01*
X150717483Y-106654091D01*
X150852331Y-106603796D01*
X150967546Y-106517546D01*
X151053796Y-106402331D01*
X151104091Y-106267483D01*
X151110500Y-106207873D01*
X151110499Y-105481228D01*
X151130183Y-105414190D01*
X151182987Y-105368435D01*
X151252146Y-105358491D01*
X151315702Y-105387516D01*
X151322180Y-105393548D01*
X155423181Y-109494549D01*
X155456666Y-109555872D01*
X155459500Y-109582230D01*
X155459500Y-110436294D01*
X155458191Y-110454263D01*
X155454710Y-110478025D01*
X155459028Y-110527368D01*
X155459500Y-110538176D01*
X155459500Y-110543711D01*
X155463098Y-110574495D01*
X155463464Y-110578083D01*
X155470000Y-110652791D01*
X155471461Y-110659867D01*
X155471403Y-110659878D01*
X155473034Y-110667237D01*
X155473092Y-110667224D01*
X155474757Y-110674249D01*
X155500400Y-110744705D01*
X155501582Y-110748107D01*
X155525182Y-110819326D01*
X155528236Y-110825874D01*
X155528182Y-110825898D01*
X155531470Y-110832688D01*
X155531521Y-110832663D01*
X155534761Y-110839114D01*
X155575979Y-110901784D01*
X155577889Y-110904782D01*
X155608972Y-110955174D01*
X155617289Y-110968658D01*
X155621766Y-110974319D01*
X155621719Y-110974356D01*
X155626482Y-110980202D01*
X155626528Y-110980164D01*
X155631173Y-110985699D01*
X155685708Y-111037150D01*
X155688296Y-111039664D01*
X157478504Y-112829872D01*
X157511989Y-112891195D01*
X157507005Y-112960887D01*
X157465133Y-113016820D01*
X157399669Y-113041237D01*
X157331396Y-113026385D01*
X157316512Y-113016820D01*
X157302330Y-113006203D01*
X157302328Y-113006202D01*
X157167482Y-112955908D01*
X157167483Y-112955908D01*
X157107883Y-112949501D01*
X157107881Y-112949500D01*
X157107873Y-112949500D01*
X157107864Y-112949500D01*
X155312129Y-112949500D01*
X155312123Y-112949501D01*
X155252516Y-112955908D01*
X155117671Y-113006202D01*
X155117664Y-113006206D01*
X155002455Y-113092452D01*
X155002452Y-113092455D01*
X154916206Y-113207664D01*
X154916202Y-113207671D01*
X154865908Y-113342517D01*
X154859501Y-113402116D01*
X154859501Y-113402123D01*
X154859500Y-113402135D01*
X154859500Y-115197870D01*
X154859501Y-115197876D01*
X154865908Y-115257483D01*
X154916202Y-115392328D01*
X154916206Y-115392335D01*
X155002452Y-115507544D01*
X155002455Y-115507547D01*
X155117664Y-115593793D01*
X155117671Y-115593797D01*
X155252511Y-115644089D01*
X155252512Y-115644089D01*
X155252517Y-115644091D01*
X155252521Y-115644091D01*
X155255613Y-115644822D01*
X155257771Y-115646050D01*
X155259785Y-115646802D01*
X155259663Y-115647128D01*
X155316330Y-115679394D01*
X155348717Y-115741304D01*
X155342493Y-115810896D01*
X155299632Y-115866075D01*
X155233743Y-115889322D01*
X155227101Y-115889500D01*
X149035072Y-115889500D01*
X148968033Y-115869815D01*
X148947391Y-115853181D01*
X146366390Y-113272180D01*
X146332905Y-113210857D01*
X146337889Y-113141165D01*
X146379761Y-113085232D01*
X146445225Y-113060815D01*
X146454071Y-113060499D01*
X146897871Y-113060499D01*
X146897872Y-113060499D01*
X146957483Y-113054091D01*
X147092331Y-113003796D01*
X147207546Y-112917546D01*
X147293796Y-112802331D01*
X147344091Y-112667483D01*
X147350500Y-112607873D01*
X147350499Y-110912128D01*
X147344091Y-110852517D01*
X147336695Y-110832688D01*
X147293797Y-110717671D01*
X147293793Y-110717664D01*
X147207547Y-110602455D01*
X147207544Y-110602452D01*
X147092335Y-110516206D01*
X147092328Y-110516202D01*
X146957482Y-110465908D01*
X146957483Y-110465908D01*
X146922404Y-110462137D01*
X146857853Y-110435399D01*
X146818005Y-110378006D01*
X146815512Y-110308181D01*
X146851165Y-110248092D01*
X146864539Y-110237272D01*
X146889140Y-110220046D01*
X147050045Y-110059141D01*
X147050047Y-110059139D01*
X147180568Y-109872734D01*
X147276739Y-109666496D01*
X147335635Y-109446692D01*
X147355468Y-109220000D01*
X147335635Y-108993308D01*
X147276739Y-108773504D01*
X147180568Y-108567266D01*
X147050047Y-108380861D01*
X147050045Y-108380858D01*
X146889141Y-108219954D01*
X146702734Y-108089432D01*
X146702728Y-108089429D01*
X146644725Y-108062382D01*
X146592285Y-108016210D01*
X146573133Y-107949017D01*
X146593348Y-107882135D01*
X146644725Y-107837618D01*
X146702734Y-107810568D01*
X146889139Y-107680047D01*
X147050047Y-107519139D01*
X147180568Y-107332734D01*
X147276739Y-107126496D01*
X147335635Y-106906692D01*
X147355468Y-106680000D01*
X147335635Y-106453308D01*
X147276739Y-106233504D01*
X147180568Y-106027266D01*
X147050047Y-105840861D01*
X147050045Y-105840858D01*
X146889141Y-105679954D01*
X146702734Y-105549432D01*
X146702728Y-105549429D01*
X146644725Y-105522382D01*
X146592285Y-105476210D01*
X146573133Y-105409017D01*
X146593348Y-105342135D01*
X146644725Y-105297618D01*
X146702734Y-105270568D01*
X146889139Y-105140047D01*
X147050047Y-104979139D01*
X147180568Y-104792734D01*
X147276739Y-104586496D01*
X147335635Y-104366692D01*
X147346223Y-104245670D01*
X147371674Y-104180604D01*
X147428265Y-104139626D01*
X147498027Y-104135747D01*
X147557431Y-104168799D01*
G37*
%TD.AperFunction*%
%TA.AperFunction,NonConductor*%
G36*
X198123032Y-72640648D02*
G01*
X198462810Y-72657341D01*
X198474919Y-72658534D01*
X198808397Y-72708001D01*
X198820331Y-72710375D01*
X198942554Y-72740990D01*
X199147377Y-72792295D01*
X199158994Y-72795820D01*
X199476424Y-72909398D01*
X199487654Y-72914048D01*
X199792447Y-73058204D01*
X199803155Y-73063928D01*
X200092322Y-73237249D01*
X200102437Y-73244007D01*
X200373234Y-73444843D01*
X200382640Y-73452563D01*
X200632441Y-73678969D01*
X200641030Y-73687558D01*
X200767285Y-73826859D01*
X200867436Y-73937359D01*
X200875156Y-73946765D01*
X201075990Y-74217559D01*
X201082750Y-74227677D01*
X201228797Y-74471341D01*
X201256064Y-74516832D01*
X201261801Y-74527564D01*
X201405948Y-74832339D01*
X201410604Y-74843582D01*
X201467389Y-75002285D01*
X201509197Y-75119132D01*
X201524174Y-75160988D01*
X201527707Y-75172633D01*
X201609624Y-75499668D01*
X201611998Y-75511602D01*
X201661465Y-75845080D01*
X201662658Y-75857190D01*
X201679351Y-76196966D01*
X201679500Y-76203051D01*
X201679500Y-114296948D01*
X201679351Y-114303033D01*
X201662658Y-114642809D01*
X201661465Y-114654919D01*
X201611998Y-114988397D01*
X201609624Y-115000331D01*
X201527707Y-115327366D01*
X201524174Y-115339011D01*
X201410604Y-115656417D01*
X201405948Y-115667660D01*
X201261801Y-115972435D01*
X201256064Y-115983167D01*
X201082750Y-116272322D01*
X201075990Y-116282440D01*
X200875156Y-116553234D01*
X200867436Y-116562640D01*
X200641038Y-116812433D01*
X200632433Y-116821038D01*
X200382640Y-117047436D01*
X200373234Y-117055156D01*
X200102440Y-117255990D01*
X200092322Y-117262750D01*
X199803167Y-117436064D01*
X199792435Y-117441801D01*
X199487660Y-117585948D01*
X199476417Y-117590604D01*
X199159011Y-117704174D01*
X199147366Y-117707707D01*
X198820331Y-117789624D01*
X198808397Y-117791998D01*
X198474919Y-117841465D01*
X198462809Y-117842658D01*
X198142559Y-117858391D01*
X198123031Y-117859351D01*
X198116949Y-117859500D01*
X168230704Y-117859500D01*
X168163665Y-117839815D01*
X168117910Y-117787011D01*
X168107966Y-117717853D01*
X168136991Y-117654297D01*
X168170526Y-117627081D01*
X168175791Y-117624159D01*
X168197426Y-117605584D01*
X168209950Y-117596141D01*
X168233759Y-117580451D01*
X168273226Y-117540982D01*
X168280111Y-117534601D01*
X168322468Y-117498240D01*
X168339917Y-117475695D01*
X168350285Y-117463923D01*
X170837504Y-114976704D01*
X170839635Y-114974626D01*
X170899919Y-114917323D01*
X170900561Y-114916399D01*
X170914654Y-114899554D01*
X171197821Y-114616387D01*
X171259142Y-114582904D01*
X171328834Y-114587888D01*
X171384767Y-114629760D01*
X171409184Y-114695224D01*
X171409500Y-114704070D01*
X171409500Y-115147870D01*
X171409501Y-115147876D01*
X171415908Y-115207483D01*
X171466202Y-115342328D01*
X171466206Y-115342335D01*
X171552452Y-115457544D01*
X171552455Y-115457547D01*
X171667664Y-115543793D01*
X171667671Y-115543797D01*
X171802517Y-115594091D01*
X171802516Y-115594091D01*
X171809444Y-115594835D01*
X171862127Y-115600500D01*
X173557872Y-115600499D01*
X173617483Y-115594091D01*
X173752331Y-115543796D01*
X173867546Y-115457546D01*
X173953796Y-115342331D01*
X173957960Y-115331165D01*
X173999829Y-115275234D01*
X174065293Y-115250816D01*
X174074141Y-115250500D01*
X175706374Y-115250500D01*
X175709516Y-115250540D01*
X175792539Y-115252644D01*
X175792539Y-115252643D01*
X175792546Y-115252644D01*
X175847497Y-115242794D01*
X175856788Y-115241491D01*
X175912321Y-115235845D01*
X175939535Y-115227305D01*
X175954760Y-115223569D01*
X175982828Y-115218539D01*
X176034658Y-115197834D01*
X176043508Y-115194683D01*
X176096768Y-115177974D01*
X176121700Y-115164134D01*
X176135868Y-115157406D01*
X176162348Y-115146830D01*
X176174015Y-115139141D01*
X176208931Y-115116128D01*
X176216995Y-115111242D01*
X176221903Y-115108517D01*
X176265791Y-115084159D01*
X176287426Y-115065584D01*
X176299950Y-115056141D01*
X176323759Y-115040451D01*
X176363226Y-115000982D01*
X176370111Y-114994601D01*
X176412468Y-114958240D01*
X176429917Y-114935695D01*
X176440285Y-114923923D01*
X181002504Y-110361704D01*
X181004635Y-110359626D01*
X181064919Y-110302323D01*
X181096816Y-110256493D01*
X181102455Y-110249015D01*
X181137734Y-110205751D01*
X181150936Y-110180474D01*
X181159071Y-110167049D01*
X181161105Y-110164128D01*
X181175353Y-110143658D01*
X181197375Y-110092338D01*
X181201384Y-110083895D01*
X181227237Y-110034406D01*
X181235080Y-110006991D01*
X181240340Y-109992219D01*
X181251587Y-109966012D01*
X181262819Y-109911348D01*
X181265059Y-109902221D01*
X181280417Y-109848551D01*
X181282582Y-109820106D01*
X181284757Y-109804593D01*
X181290500Y-109776656D01*
X181290500Y-109720853D01*
X181290858Y-109711437D01*
X181295095Y-109655797D01*
X181291494Y-109627522D01*
X181290500Y-109611855D01*
X181290500Y-99073608D01*
X181290540Y-99070465D01*
X181292644Y-98987457D01*
X181292643Y-98987456D01*
X181292644Y-98987453D01*
X181282799Y-98932525D01*
X181281490Y-98923193D01*
X181275845Y-98867680D01*
X181275843Y-98867673D01*
X181267309Y-98840473D01*
X181263568Y-98825234D01*
X181258539Y-98797172D01*
X181237835Y-98745341D01*
X181234680Y-98736480D01*
X181217974Y-98683232D01*
X181204140Y-98658308D01*
X181197405Y-98644127D01*
X181186830Y-98617651D01*
X181184096Y-98613502D01*
X181156120Y-98571053D01*
X181151238Y-98562996D01*
X181124159Y-98514209D01*
X181105580Y-98492567D01*
X181096137Y-98480042D01*
X181080450Y-98456239D01*
X181080449Y-98456238D01*
X181040999Y-98416789D01*
X181034593Y-98409878D01*
X180998241Y-98367533D01*
X180998240Y-98367532D01*
X180975689Y-98350076D01*
X180963918Y-98339708D01*
X174046818Y-91422608D01*
X174013333Y-91361285D01*
X174010499Y-91334927D01*
X174010499Y-90592129D01*
X174010498Y-90592123D01*
X174010497Y-90592116D01*
X174004091Y-90532517D01*
X173972520Y-90447872D01*
X173953797Y-90397671D01*
X173953793Y-90397664D01*
X173867547Y-90282455D01*
X173867544Y-90282452D01*
X173752335Y-90196206D01*
X173752328Y-90196202D01*
X173617482Y-90145908D01*
X173617483Y-90145908D01*
X173582404Y-90142137D01*
X173517853Y-90115399D01*
X173478005Y-90058006D01*
X173475512Y-89988181D01*
X173511165Y-89928092D01*
X173524539Y-89917272D01*
X173549140Y-89900046D01*
X173710045Y-89739141D01*
X173710047Y-89739139D01*
X173840568Y-89552734D01*
X173936739Y-89346496D01*
X173995635Y-89126692D01*
X174015468Y-88900000D01*
X174011753Y-88857543D01*
X173995635Y-88673313D01*
X173995635Y-88673312D01*
X173995635Y-88673308D01*
X173936739Y-88453504D01*
X173840568Y-88247266D01*
X173710047Y-88060861D01*
X173710045Y-88060858D01*
X173549141Y-87899954D01*
X173362734Y-87769432D01*
X173362728Y-87769429D01*
X173304725Y-87742382D01*
X173252285Y-87696210D01*
X173233133Y-87629017D01*
X173253348Y-87562135D01*
X173304725Y-87517618D01*
X173362734Y-87490568D01*
X173549139Y-87360047D01*
X173549141Y-87360045D01*
X173562368Y-87346819D01*
X173623691Y-87313334D01*
X173650049Y-87310500D01*
X176367209Y-87310500D01*
X176434248Y-87330185D01*
X176480003Y-87382989D01*
X176483391Y-87391167D01*
X176506202Y-87452328D01*
X176506206Y-87452335D01*
X176592452Y-87567544D01*
X176592455Y-87567547D01*
X176707664Y-87653793D01*
X176707671Y-87653797D01*
X176842517Y-87704091D01*
X176842516Y-87704091D01*
X176849444Y-87704835D01*
X176902127Y-87710500D01*
X178697872Y-87710499D01*
X178757483Y-87704091D01*
X178892331Y-87653796D01*
X179007546Y-87567546D01*
X179093796Y-87452331D01*
X179144091Y-87317483D01*
X179144091Y-87317476D01*
X179144822Y-87314387D01*
X179146050Y-87312228D01*
X179146802Y-87310215D01*
X179147128Y-87310336D01*
X179179394Y-87253670D01*
X179241304Y-87221283D01*
X179310896Y-87227507D01*
X179366075Y-87270368D01*
X179389322Y-87336257D01*
X179389500Y-87342899D01*
X179389500Y-87825500D01*
X179369815Y-87892539D01*
X179317011Y-87938294D01*
X179265500Y-87949500D01*
X179083609Y-87949500D01*
X179080467Y-87949460D01*
X179078837Y-87949418D01*
X178997455Y-87947355D01*
X178997452Y-87947355D01*
X178942531Y-87957199D01*
X178933204Y-87958507D01*
X178877686Y-87964154D01*
X178877672Y-87964156D01*
X178850469Y-87972691D01*
X178835235Y-87976430D01*
X178807173Y-87981460D01*
X178807171Y-87981461D01*
X178755352Y-88002160D01*
X178746480Y-88005318D01*
X178693236Y-88022024D01*
X178693225Y-88022029D01*
X178668298Y-88035864D01*
X178654124Y-88042595D01*
X178627654Y-88053168D01*
X178627649Y-88053170D01*
X178581056Y-88083877D01*
X178573003Y-88088757D01*
X178524207Y-88115841D01*
X178524206Y-88115842D01*
X178502577Y-88134411D01*
X178490044Y-88143861D01*
X178466239Y-88159549D01*
X178466236Y-88159551D01*
X178426785Y-88199003D01*
X178419879Y-88205404D01*
X178377529Y-88241762D01*
X178360079Y-88264305D01*
X178349707Y-88276081D01*
X177742607Y-88883181D01*
X177681284Y-88916666D01*
X177654926Y-88919500D01*
X177002129Y-88919500D01*
X177002123Y-88919501D01*
X176942516Y-88925908D01*
X176807671Y-88976202D01*
X176807664Y-88976206D01*
X176692455Y-89062452D01*
X176692452Y-89062455D01*
X176606206Y-89177664D01*
X176606202Y-89177671D01*
X176555908Y-89312517D01*
X176549501Y-89372116D01*
X176549500Y-89372135D01*
X176549500Y-90967870D01*
X176549501Y-90967876D01*
X176555908Y-91027483D01*
X176606202Y-91162328D01*
X176606206Y-91162335D01*
X176692452Y-91277544D01*
X176692455Y-91277547D01*
X176807664Y-91363793D01*
X176807671Y-91363797D01*
X176942517Y-91414091D01*
X176942516Y-91414091D01*
X176949444Y-91414835D01*
X177002127Y-91420500D01*
X178597872Y-91420499D01*
X178657483Y-91414091D01*
X178792331Y-91363796D01*
X178907546Y-91277546D01*
X178993796Y-91162331D01*
X179044091Y-91027483D01*
X179050500Y-90967873D01*
X179050499Y-90315071D01*
X179070183Y-90248033D01*
X179086818Y-90227391D01*
X179427391Y-89886819D01*
X179488714Y-89853334D01*
X179515072Y-89850500D01*
X179894928Y-89850500D01*
X179961967Y-89870185D01*
X179982609Y-89886819D01*
X182198255Y-92102465D01*
X182200448Y-92104714D01*
X182257677Y-92164919D01*
X182283576Y-92182945D01*
X182303484Y-92196802D01*
X182311007Y-92202475D01*
X182354243Y-92237730D01*
X182354246Y-92237731D01*
X182354249Y-92237734D01*
X182379525Y-92250937D01*
X182392940Y-92259065D01*
X182416342Y-92275353D01*
X182456942Y-92292775D01*
X182467631Y-92297362D01*
X182476133Y-92301399D01*
X182525594Y-92327236D01*
X182553005Y-92335079D01*
X182567768Y-92340335D01*
X182593988Y-92351587D01*
X182648659Y-92362821D01*
X182657799Y-92365064D01*
X182711448Y-92380416D01*
X182711453Y-92380416D01*
X182711455Y-92380417D01*
X182730247Y-92381847D01*
X182739863Y-92382579D01*
X182755412Y-92384760D01*
X182783341Y-92390500D01*
X182783344Y-92390500D01*
X182839159Y-92390500D01*
X182848573Y-92390857D01*
X182856927Y-92391494D01*
X182904202Y-92395094D01*
X182904202Y-92395093D01*
X182904203Y-92395094D01*
X182932470Y-92391493D01*
X182948137Y-92390500D01*
X184345500Y-92390500D01*
X184412539Y-92410185D01*
X184458294Y-92462989D01*
X184469500Y-92514500D01*
X184469500Y-111426614D01*
X184449815Y-111493653D01*
X184397011Y-111539408D01*
X184388833Y-111542796D01*
X184312671Y-111571202D01*
X184312664Y-111571206D01*
X184197455Y-111657452D01*
X184197452Y-111657455D01*
X184111206Y-111772664D01*
X184111202Y-111772671D01*
X184060908Y-111907517D01*
X184054501Y-111967116D01*
X184054500Y-111967135D01*
X184054500Y-114092870D01*
X184054501Y-114092876D01*
X184060908Y-114152483D01*
X184111202Y-114287328D01*
X184111206Y-114287335D01*
X184197452Y-114402544D01*
X184197455Y-114402547D01*
X184312664Y-114488793D01*
X184312671Y-114488797D01*
X184447517Y-114539091D01*
X184447516Y-114539091D01*
X184454444Y-114539835D01*
X184507127Y-114545500D01*
X186332872Y-114545499D01*
X186392483Y-114539091D01*
X186527331Y-114488796D01*
X186642546Y-114402546D01*
X186728796Y-114287331D01*
X186772133Y-114171137D01*
X186814004Y-114115205D01*
X186879468Y-114090787D01*
X186947741Y-114105638D01*
X186977837Y-114128670D01*
X187000660Y-114152483D01*
X187054587Y-114208749D01*
X187241470Y-114346967D01*
X187449024Y-114451613D01*
X187671277Y-114519678D01*
X187901837Y-114549202D01*
X188134070Y-114539337D01*
X188361295Y-114490366D01*
X188576976Y-114403699D01*
X188774907Y-114281827D01*
X188949395Y-114128259D01*
X188979652Y-114090787D01*
X189095415Y-113947416D01*
X189095420Y-113947410D01*
X189121698Y-113900369D01*
X189171578Y-113851444D01*
X189239991Y-113837251D01*
X189305216Y-113862298D01*
X189332687Y-113891407D01*
X189433749Y-114040934D01*
X189486500Y-114095973D01*
X189594587Y-114208749D01*
X189781470Y-114346967D01*
X189989024Y-114451613D01*
X190211277Y-114519678D01*
X190441837Y-114549202D01*
X190674070Y-114539337D01*
X190901295Y-114490366D01*
X191116976Y-114403699D01*
X191285392Y-114300000D01*
X196504520Y-114300000D01*
X196524408Y-114552714D01*
X196583585Y-114799206D01*
X196680596Y-115033413D01*
X196813045Y-115249550D01*
X196813046Y-115249552D01*
X196813049Y-115249555D01*
X196977683Y-115442317D01*
X197096500Y-115543796D01*
X197170447Y-115606953D01*
X197170449Y-115606954D01*
X197386586Y-115739403D01*
X197477160Y-115776919D01*
X197620789Y-115836413D01*
X197867283Y-115895591D01*
X198056722Y-115910500D01*
X198056730Y-115910500D01*
X198183270Y-115910500D01*
X198183278Y-115910500D01*
X198372717Y-115895591D01*
X198619211Y-115836413D01*
X198853413Y-115739403D01*
X199069555Y-115606951D01*
X199262317Y-115442317D01*
X199426951Y-115249555D01*
X199559403Y-115033413D01*
X199656413Y-114799211D01*
X199715591Y-114552717D01*
X199735480Y-114300000D01*
X199715591Y-114047283D01*
X199656413Y-113800789D01*
X199592822Y-113647267D01*
X199559403Y-113566586D01*
X199426954Y-113350449D01*
X199426953Y-113350447D01*
X199380638Y-113296219D01*
X199262317Y-113157683D01*
X199101003Y-113019908D01*
X199069552Y-112993046D01*
X199069550Y-112993045D01*
X198853413Y-112860596D01*
X198619206Y-112763585D01*
X198372713Y-112704408D01*
X198372714Y-112704408D01*
X198183283Y-112689500D01*
X198183278Y-112689500D01*
X198056722Y-112689500D01*
X198056716Y-112689500D01*
X197867285Y-112704408D01*
X197620793Y-112763585D01*
X197386586Y-112860596D01*
X197170449Y-112993045D01*
X197170447Y-112993046D01*
X196977683Y-113157683D01*
X196813046Y-113350447D01*
X196813045Y-113350449D01*
X196680596Y-113566586D01*
X196583585Y-113800793D01*
X196524408Y-114047285D01*
X196504520Y-114300000D01*
X191285392Y-114300000D01*
X191314907Y-114281827D01*
X191489395Y-114128259D01*
X191519652Y-114090787D01*
X191635415Y-113947416D01*
X191635420Y-113947410D01*
X191640895Y-113937609D01*
X191748781Y-113744485D01*
X191826217Y-113525320D01*
X191847340Y-113402129D01*
X191865499Y-113296230D01*
X191865500Y-113296219D01*
X191865500Y-112821993D01*
X191865499Y-112821975D01*
X191850726Y-112648399D01*
X191792154Y-112423453D01*
X191792153Y-112423449D01*
X191696416Y-112211654D01*
X191696409Y-112211642D01*
X191566250Y-112019065D01*
X191405413Y-111851251D01*
X191359250Y-111817109D01*
X191218530Y-111713033D01*
X191138302Y-111672583D01*
X191010977Y-111608387D01*
X190796801Y-111542796D01*
X190788723Y-111540322D01*
X190788721Y-111540321D01*
X190788722Y-111540321D01*
X190558157Y-111510797D01*
X190325933Y-111520662D01*
X190325932Y-111520662D01*
X190098703Y-111569634D01*
X189883027Y-111656299D01*
X189685096Y-111778170D01*
X189510599Y-111931746D01*
X189364584Y-112112583D01*
X189364577Y-112112593D01*
X189338301Y-112159630D01*
X189288422Y-112208556D01*
X189220008Y-112222748D01*
X189154783Y-112197700D01*
X189127313Y-112168592D01*
X189026250Y-112019065D01*
X188865413Y-111851251D01*
X188819250Y-111817109D01*
X188678530Y-111713033D01*
X188598302Y-111672583D01*
X188470977Y-111608387D01*
X188256801Y-111542796D01*
X188248723Y-111540322D01*
X188248721Y-111540321D01*
X188248722Y-111540321D01*
X188018157Y-111510797D01*
X187785933Y-111520662D01*
X187785932Y-111520662D01*
X187558703Y-111569634D01*
X187343027Y-111656299D01*
X187145093Y-111778172D01*
X186968399Y-111933682D01*
X186905069Y-111963196D01*
X186835836Y-111953786D01*
X186782681Y-111908440D01*
X186770294Y-111883931D01*
X186728797Y-111772671D01*
X186728793Y-111772664D01*
X186642547Y-111657455D01*
X186642544Y-111657452D01*
X186527335Y-111571206D01*
X186527328Y-111571202D01*
X186451167Y-111542796D01*
X186395233Y-111500925D01*
X186370816Y-111435460D01*
X186370500Y-111426614D01*
X186370500Y-92307092D01*
X186376144Y-92287870D01*
X189062151Y-92287870D01*
X189062152Y-92287876D01*
X189068559Y-92347483D01*
X189118853Y-92482328D01*
X189118857Y-92482335D01*
X189205103Y-92597544D01*
X189205106Y-92597547D01*
X189320315Y-92683793D01*
X189320322Y-92683797D01*
X189455168Y-92734091D01*
X189455167Y-92734091D01*
X189462095Y-92734835D01*
X189514778Y-92740500D01*
X190267578Y-92740499D01*
X190334617Y-92760183D01*
X190355259Y-92776818D01*
X192220906Y-94642465D01*
X192223099Y-94644714D01*
X192280328Y-94704919D01*
X192306227Y-94722945D01*
X192326135Y-94736802D01*
X192333658Y-94742475D01*
X192376894Y-94777730D01*
X192376897Y-94777731D01*
X192376900Y-94777734D01*
X192402176Y-94790937D01*
X192415593Y-94799066D01*
X192435843Y-94813161D01*
X192438993Y-94815353D01*
X192490282Y-94837362D01*
X192498784Y-94841399D01*
X192548245Y-94867236D01*
X192575656Y-94875079D01*
X192590419Y-94880335D01*
X192616639Y-94891587D01*
X192671310Y-94902821D01*
X192680450Y-94905064D01*
X192734099Y-94920416D01*
X192734104Y-94920416D01*
X192734106Y-94920417D01*
X192752898Y-94921847D01*
X192762514Y-94922579D01*
X192778063Y-94924760D01*
X192805992Y-94930500D01*
X192805995Y-94930500D01*
X192861810Y-94930500D01*
X192871224Y-94930857D01*
X192879578Y-94931494D01*
X192926853Y-94935094D01*
X192926853Y-94935093D01*
X192926854Y-94935094D01*
X192955121Y-94931493D01*
X192970788Y-94930500D01*
X196286133Y-94930500D01*
X196353172Y-94950185D01*
X196394965Y-94995074D01*
X196432767Y-95064304D01*
X196432775Y-95064317D01*
X196604254Y-95293387D01*
X196604270Y-95293405D01*
X196806594Y-95495729D01*
X196806612Y-95495745D01*
X197035682Y-95667224D01*
X197035690Y-95667229D01*
X197286833Y-95804364D01*
X197286832Y-95804364D01*
X197286836Y-95804365D01*
X197286839Y-95804367D01*
X197554954Y-95904369D01*
X197554960Y-95904370D01*
X197554962Y-95904371D01*
X197834566Y-95965195D01*
X197834568Y-95965195D01*
X197834572Y-95965196D01*
X198088220Y-95983337D01*
X198119999Y-95985610D01*
X198120000Y-95985610D01*
X198120001Y-95985610D01*
X198148595Y-95983564D01*
X198405428Y-95965196D01*
X198685046Y-95904369D01*
X198953161Y-95804367D01*
X199204315Y-95667226D01*
X199433395Y-95495739D01*
X199635739Y-95293395D01*
X199807226Y-95064315D01*
X199944367Y-94813161D01*
X200044369Y-94545046D01*
X200105196Y-94265428D01*
X200125610Y-93980000D01*
X200105196Y-93694572D01*
X200070159Y-93533511D01*
X200044371Y-93414962D01*
X200044370Y-93414960D01*
X200044369Y-93414954D01*
X199944367Y-93146839D01*
X199872012Y-93014332D01*
X199807229Y-92895690D01*
X199807224Y-92895682D01*
X199635745Y-92666612D01*
X199635729Y-92666594D01*
X199433405Y-92464270D01*
X199433387Y-92464254D01*
X199204317Y-92292775D01*
X199204309Y-92292770D01*
X198953166Y-92155635D01*
X198953167Y-92155635D01*
X198810612Y-92102465D01*
X198685046Y-92055631D01*
X198685043Y-92055630D01*
X198685037Y-92055628D01*
X198405433Y-91994804D01*
X198120001Y-91974390D01*
X198119999Y-91974390D01*
X197834566Y-91994804D01*
X197554962Y-92055628D01*
X197286833Y-92155635D01*
X197035690Y-92292770D01*
X197035682Y-92292775D01*
X196806612Y-92464254D01*
X196806594Y-92464270D01*
X196604270Y-92666594D01*
X196604254Y-92666612D01*
X196432775Y-92895682D01*
X196432767Y-92895695D01*
X196394965Y-92964926D01*
X196345560Y-93014332D01*
X196286133Y-93029500D01*
X193347723Y-93029500D01*
X193280684Y-93009815D01*
X193260042Y-92993181D01*
X191699469Y-91432608D01*
X191665984Y-91371285D01*
X191663150Y-91344927D01*
X191663150Y-90592129D01*
X191663149Y-90592123D01*
X191663148Y-90592116D01*
X191656742Y-90532517D01*
X191625171Y-90447872D01*
X191606448Y-90397671D01*
X191606444Y-90397664D01*
X191520198Y-90282455D01*
X191520195Y-90282452D01*
X191404986Y-90196206D01*
X191404979Y-90196202D01*
X191270133Y-90145908D01*
X191270134Y-90145908D01*
X191210534Y-90139501D01*
X191210532Y-90139500D01*
X191210524Y-90139500D01*
X191210515Y-90139500D01*
X189514780Y-90139500D01*
X189514774Y-90139501D01*
X189455167Y-90145908D01*
X189320322Y-90196202D01*
X189320315Y-90196206D01*
X189205106Y-90282452D01*
X189205103Y-90282455D01*
X189118857Y-90397664D01*
X189118853Y-90397671D01*
X189068559Y-90532517D01*
X189062152Y-90592116D01*
X189062152Y-90592123D01*
X189062151Y-90592135D01*
X189062151Y-92287870D01*
X186376144Y-92287870D01*
X186390185Y-92240053D01*
X186392925Y-92235969D01*
X186410979Y-92210185D01*
X186493219Y-92092734D01*
X186589390Y-91886496D01*
X186648286Y-91666692D01*
X186668119Y-91440000D01*
X186666597Y-91422608D01*
X186653906Y-91277544D01*
X186648286Y-91213308D01*
X186589390Y-90993504D01*
X186493219Y-90787266D01*
X186362698Y-90600861D01*
X186362696Y-90600858D01*
X186201792Y-90439954D01*
X186015385Y-90309432D01*
X186015383Y-90309431D01*
X185809148Y-90213261D01*
X185809139Y-90213258D01*
X185589348Y-90154366D01*
X185589338Y-90154364D01*
X185450066Y-90142179D01*
X185384997Y-90116726D01*
X185373193Y-90106332D01*
X183000569Y-87733708D01*
X182967084Y-87672385D01*
X182964250Y-87646027D01*
X182964250Y-82661463D01*
X182983935Y-82594424D01*
X183036739Y-82548669D01*
X183105897Y-82538725D01*
X183132022Y-82545446D01*
X183162624Y-82556995D01*
X183392509Y-82601455D01*
X183445128Y-82604250D01*
X183445136Y-82604250D01*
X185382364Y-82604250D01*
X185382372Y-82604250D01*
X185434991Y-82601455D01*
X185664876Y-82556995D01*
X185883940Y-82474324D01*
X186085882Y-82355820D01*
X186130154Y-82318493D01*
X186264891Y-82204893D01*
X186264893Y-82204891D01*
X186415815Y-82025888D01*
X186415815Y-82025887D01*
X186415820Y-82025882D01*
X186534324Y-81823940D01*
X186616995Y-81604876D01*
X186617506Y-81602235D01*
X186618031Y-81601217D01*
X186618433Y-81599800D01*
X186618721Y-81599881D01*
X186649562Y-81540153D01*
X186710093Y-81505257D01*
X186779881Y-81508626D01*
X186836769Y-81549190D01*
X186862696Y-81614072D01*
X186863250Y-81625780D01*
X186863250Y-85151620D01*
X186863251Y-85151626D01*
X186869658Y-85211233D01*
X186919952Y-85346078D01*
X186919956Y-85346085D01*
X187006202Y-85461294D01*
X187006205Y-85461297D01*
X187121414Y-85547543D01*
X187121421Y-85547547D01*
X187256267Y-85597841D01*
X187256266Y-85597841D01*
X187263194Y-85598585D01*
X187315877Y-85604250D01*
X190911622Y-85604249D01*
X190971233Y-85597841D01*
X191106081Y-85547546D01*
X191221296Y-85461296D01*
X191307546Y-85346081D01*
X191357841Y-85211233D01*
X191364250Y-85151623D01*
X191364250Y-84428250D01*
X191383935Y-84361211D01*
X191436739Y-84315456D01*
X191488250Y-84304250D01*
X192128678Y-84304250D01*
X192195717Y-84323935D01*
X192216359Y-84340569D01*
X196083181Y-88207391D01*
X196116666Y-88268714D01*
X196119500Y-88295072D01*
X196119500Y-90447870D01*
X196119501Y-90447876D01*
X196125908Y-90507483D01*
X196176202Y-90642328D01*
X196176206Y-90642335D01*
X196262452Y-90757544D01*
X196262455Y-90757547D01*
X196377664Y-90843793D01*
X196377671Y-90843797D01*
X196512517Y-90894091D01*
X196512516Y-90894091D01*
X196519444Y-90894835D01*
X196572127Y-90900500D01*
X199667872Y-90900499D01*
X199727483Y-90894091D01*
X199862331Y-90843796D01*
X199977546Y-90757546D01*
X200063796Y-90642331D01*
X200114091Y-90507483D01*
X200120500Y-90447873D01*
X200120499Y-87352128D01*
X200114091Y-87292517D01*
X200087522Y-87221283D01*
X200063797Y-87157671D01*
X200063793Y-87157664D01*
X199977547Y-87042455D01*
X199977544Y-87042452D01*
X199862335Y-86956206D01*
X199862328Y-86956202D01*
X199727482Y-86905908D01*
X199727483Y-86905908D01*
X199667883Y-86899501D01*
X199667881Y-86899500D01*
X199667873Y-86899500D01*
X199667865Y-86899500D01*
X197515072Y-86899500D01*
X197448033Y-86879815D01*
X197427391Y-86863181D01*
X193255493Y-82691283D01*
X193253300Y-82689034D01*
X193196074Y-82628832D01*
X193196070Y-82628829D01*
X193177940Y-82616210D01*
X193150253Y-82596939D01*
X193142768Y-82591295D01*
X193099501Y-82556016D01*
X193099497Y-82556014D01*
X193099496Y-82556013D01*
X193099494Y-82556012D01*
X193074230Y-82542815D01*
X193060803Y-82534680D01*
X193037409Y-82518397D01*
X192986124Y-82496389D01*
X192977613Y-82492347D01*
X192928159Y-82466514D01*
X192928156Y-82466513D01*
X192900746Y-82458669D01*
X192885963Y-82453406D01*
X192859762Y-82442162D01*
X192805095Y-82430927D01*
X192795949Y-82428682D01*
X192742307Y-82413334D01*
X192742295Y-82413331D01*
X192713876Y-82411168D01*
X192698330Y-82408988D01*
X192670408Y-82403250D01*
X192670406Y-82403250D01*
X192614604Y-82403250D01*
X192605189Y-82402892D01*
X192602812Y-82402711D01*
X192549548Y-82398654D01*
X192525827Y-82401675D01*
X192521271Y-82402256D01*
X192505606Y-82403250D01*
X191488249Y-82403250D01*
X191421210Y-82383565D01*
X191375455Y-82330761D01*
X191364249Y-82279250D01*
X191364249Y-81555879D01*
X191364248Y-81555873D01*
X191362558Y-81540153D01*
X191357841Y-81496267D01*
X191346038Y-81464622D01*
X191307547Y-81361421D01*
X191307543Y-81361414D01*
X191221297Y-81246205D01*
X191221294Y-81246202D01*
X191106085Y-81159956D01*
X191106078Y-81159952D01*
X190971232Y-81109658D01*
X190971233Y-81109658D01*
X190911633Y-81103251D01*
X190911631Y-81103250D01*
X190911623Y-81103250D01*
X190911614Y-81103250D01*
X187315879Y-81103250D01*
X187315873Y-81103251D01*
X187256266Y-81109658D01*
X187121421Y-81159952D01*
X187121414Y-81159956D01*
X187006205Y-81246202D01*
X187006202Y-81246205D01*
X186919956Y-81361414D01*
X186919953Y-81361419D01*
X186902323Y-81408689D01*
X186860451Y-81464622D01*
X186794987Y-81489039D01*
X186726714Y-81474187D01*
X186677309Y-81424782D01*
X186662316Y-81358775D01*
X186664249Y-81322400D01*
X186664250Y-81322363D01*
X186664250Y-79385136D01*
X186664248Y-79385097D01*
X186663660Y-79374022D01*
X186661455Y-79332509D01*
X186616995Y-79102624D01*
X186534324Y-78883560D01*
X186415820Y-78681618D01*
X186415815Y-78681611D01*
X186269590Y-78508179D01*
X186241426Y-78444237D01*
X186252303Y-78375220D01*
X186298767Y-78323038D01*
X186364391Y-78304250D01*
X186778054Y-78304250D01*
X186845093Y-78323935D01*
X186890848Y-78376739D01*
X186898292Y-78397942D01*
X186915495Y-78466211D01*
X186928654Y-78518435D01*
X187021741Y-78723372D01*
X187021747Y-78723382D01*
X187149924Y-78908395D01*
X187149928Y-78908400D01*
X187149931Y-78908404D01*
X187309096Y-79067569D01*
X187309100Y-79067572D01*
X187309104Y-79067575D01*
X187448353Y-79164047D01*
X187494124Y-79195757D01*
X187699067Y-79288846D01*
X187699071Y-79288847D01*
X187917329Y-79343844D01*
X187917331Y-79343844D01*
X187917338Y-79343846D01*
X188049533Y-79354250D01*
X190177966Y-79354249D01*
X190310162Y-79343846D01*
X190528433Y-79288846D01*
X190733376Y-79195757D01*
X190918404Y-79067569D01*
X191077569Y-78908404D01*
X191205757Y-78723376D01*
X191298846Y-78518433D01*
X191353846Y-78300162D01*
X191364250Y-78167967D01*
X191364249Y-76539534D01*
X191353846Y-76407338D01*
X191352302Y-76401212D01*
X191301601Y-76200000D01*
X196504520Y-76200000D01*
X196524408Y-76452714D01*
X196583585Y-76699206D01*
X196680596Y-76933413D01*
X196813045Y-77149550D01*
X196813046Y-77149552D01*
X196844875Y-77186819D01*
X196977683Y-77342317D01*
X197060131Y-77412734D01*
X197170447Y-77506953D01*
X197170449Y-77506954D01*
X197386586Y-77639403D01*
X197477160Y-77676919D01*
X197620789Y-77736413D01*
X197867283Y-77795591D01*
X198056722Y-77810500D01*
X198056730Y-77810500D01*
X198183270Y-77810500D01*
X198183278Y-77810500D01*
X198372717Y-77795591D01*
X198619211Y-77736413D01*
X198853413Y-77639403D01*
X199069555Y-77506951D01*
X199262317Y-77342317D01*
X199426951Y-77149555D01*
X199559403Y-76933413D01*
X199656413Y-76699211D01*
X199715591Y-76452717D01*
X199735480Y-76200000D01*
X199715591Y-75947283D01*
X199656413Y-75700789D01*
X199592822Y-75547267D01*
X199559403Y-75466586D01*
X199426954Y-75250449D01*
X199426953Y-75250447D01*
X199355453Y-75166732D01*
X199262317Y-75057683D01*
X199094512Y-74914364D01*
X199069552Y-74893046D01*
X199069550Y-74893045D01*
X198853413Y-74760596D01*
X198619206Y-74663585D01*
X198372713Y-74604408D01*
X198372714Y-74604408D01*
X198183283Y-74589500D01*
X198183278Y-74589500D01*
X198056722Y-74589500D01*
X198056716Y-74589500D01*
X197867285Y-74604408D01*
X197620793Y-74663585D01*
X197386586Y-74760596D01*
X197170449Y-74893045D01*
X197170447Y-74893046D01*
X196977683Y-75057683D01*
X196813046Y-75250447D01*
X196813045Y-75250449D01*
X196680596Y-75466586D01*
X196583585Y-75700793D01*
X196524408Y-75947285D01*
X196504520Y-76200000D01*
X191301601Y-76200000D01*
X191298847Y-76189071D01*
X191298846Y-76189068D01*
X191298844Y-76189064D01*
X191205757Y-75984124D01*
X191162945Y-75922328D01*
X191077575Y-75799104D01*
X191077572Y-75799100D01*
X191077569Y-75799096D01*
X190918404Y-75639931D01*
X190918400Y-75639928D01*
X190918395Y-75639924D01*
X190733382Y-75511747D01*
X190733380Y-75511745D01*
X190733376Y-75511743D01*
X190652657Y-75475079D01*
X190528431Y-75418653D01*
X190528428Y-75418652D01*
X190310170Y-75363655D01*
X190310163Y-75363654D01*
X190266097Y-75360186D01*
X190177967Y-75353250D01*
X190177965Y-75353250D01*
X188049541Y-75353250D01*
X188049526Y-75353251D01*
X187917336Y-75363654D01*
X187917329Y-75363655D01*
X187699071Y-75418652D01*
X187699068Y-75418653D01*
X187494127Y-75511741D01*
X187494117Y-75511747D01*
X187309104Y-75639924D01*
X187309092Y-75639934D01*
X187149934Y-75799092D01*
X187149924Y-75799104D01*
X187021747Y-75984117D01*
X187021741Y-75984127D01*
X186928654Y-76189064D01*
X186915273Y-76242169D01*
X186898294Y-76309550D01*
X186862827Y-76369746D01*
X186800444Y-76401212D01*
X186778054Y-76403250D01*
X183513385Y-76403250D01*
X183510243Y-76403210D01*
X183508613Y-76403168D01*
X183427231Y-76401105D01*
X183427228Y-76401105D01*
X183372307Y-76410949D01*
X183362980Y-76412257D01*
X183307462Y-76417904D01*
X183307448Y-76417906D01*
X183280245Y-76426441D01*
X183265011Y-76430180D01*
X183236949Y-76435210D01*
X183236947Y-76435211D01*
X183198415Y-76450602D01*
X183193122Y-76452717D01*
X183185128Y-76455910D01*
X183176256Y-76459068D01*
X183123012Y-76475774D01*
X183123001Y-76475779D01*
X183098074Y-76489614D01*
X183083900Y-76496345D01*
X183057430Y-76506918D01*
X183057425Y-76506920D01*
X183010832Y-76537627D01*
X183002779Y-76542507D01*
X182953983Y-76569591D01*
X182953982Y-76569592D01*
X182932353Y-76588161D01*
X182919820Y-76597611D01*
X182896015Y-76613299D01*
X182896012Y-76613301D01*
X182856561Y-76652753D01*
X182849655Y-76659154D01*
X182807305Y-76695512D01*
X182789855Y-76718055D01*
X182779483Y-76729831D01*
X181351301Y-78158013D01*
X181349053Y-78160205D01*
X181288835Y-78217447D01*
X181288832Y-78217451D01*
X181256951Y-78263254D01*
X181251282Y-78270773D01*
X181227319Y-78300163D01*
X181216016Y-78314025D01*
X181216015Y-78314026D01*
X181216014Y-78314026D01*
X181202816Y-78339293D01*
X181194686Y-78352713D01*
X181178396Y-78376118D01*
X181178394Y-78376121D01*
X181167626Y-78401215D01*
X181123099Y-78455058D01*
X181056530Y-78476280D01*
X180989055Y-78458144D01*
X180977796Y-78450386D01*
X180977529Y-78450180D01*
X180975713Y-78448773D01*
X180963918Y-78438387D01*
X178063064Y-75537533D01*
X178060871Y-75535284D01*
X178003645Y-75475082D01*
X178003641Y-75475079D01*
X177957824Y-75443189D01*
X177950339Y-75437545D01*
X177907072Y-75402266D01*
X177907068Y-75402264D01*
X177907067Y-75402263D01*
X177907065Y-75402262D01*
X177881801Y-75389065D01*
X177868374Y-75380930D01*
X177844980Y-75364647D01*
X177793695Y-75342639D01*
X177785184Y-75338597D01*
X177735730Y-75312764D01*
X177735727Y-75312763D01*
X177708317Y-75304919D01*
X177693534Y-75299656D01*
X177667333Y-75288412D01*
X177612666Y-75277177D01*
X177603520Y-75274932D01*
X177549878Y-75259584D01*
X177549866Y-75259581D01*
X177521447Y-75257418D01*
X177505901Y-75255238D01*
X177477979Y-75249500D01*
X177477977Y-75249500D01*
X177422175Y-75249500D01*
X177412760Y-75249142D01*
X177410383Y-75248961D01*
X177357119Y-75244904D01*
X177333398Y-75247925D01*
X177328842Y-75248506D01*
X177313177Y-75249500D01*
X173650049Y-75249500D01*
X173583010Y-75229815D01*
X173562368Y-75213181D01*
X173549141Y-75199954D01*
X173362734Y-75069432D01*
X173362728Y-75069429D01*
X173304725Y-75042382D01*
X173252285Y-74996210D01*
X173233133Y-74929017D01*
X173253348Y-74862135D01*
X173304725Y-74817618D01*
X173362734Y-74790568D01*
X173549139Y-74660047D01*
X173710047Y-74499139D01*
X173840568Y-74312734D01*
X173936739Y-74106496D01*
X173995635Y-73886692D01*
X174015468Y-73660000D01*
X173995635Y-73433308D01*
X173936739Y-73213504D01*
X173840568Y-73007266D01*
X173772039Y-72909395D01*
X173720384Y-72835623D01*
X173698057Y-72769416D01*
X173715068Y-72701649D01*
X173766016Y-72653837D01*
X173821959Y-72640500D01*
X198075830Y-72640500D01*
X198116949Y-72640500D01*
X198123032Y-72640648D01*
G37*
%TD.AperFunction*%
%TA.AperFunction,NonConductor*%
G36*
X158965080Y-72660185D02*
G01*
X159010835Y-72712989D01*
X159020779Y-72782147D01*
X158999616Y-72835623D01*
X158879432Y-73007265D01*
X158879431Y-73007267D01*
X158783261Y-73213502D01*
X158783258Y-73213511D01*
X158724366Y-73433302D01*
X158724364Y-73433313D01*
X158704532Y-73659998D01*
X158704532Y-73660003D01*
X158719129Y-73826861D01*
X158705362Y-73895360D01*
X158683282Y-73925348D01*
X153184358Y-79424272D01*
X153170729Y-79436051D01*
X153151469Y-79450390D01*
X153119632Y-79488331D01*
X153112346Y-79496284D01*
X153108407Y-79500224D01*
X153089176Y-79524545D01*
X153086902Y-79527337D01*
X153038694Y-79584790D01*
X153034729Y-79590819D01*
X153034682Y-79590788D01*
X153030630Y-79597147D01*
X153030679Y-79597177D01*
X153026889Y-79603321D01*
X152995192Y-79671294D01*
X152993623Y-79674536D01*
X152959957Y-79741572D01*
X152957488Y-79748357D01*
X152957432Y-79748336D01*
X152954960Y-79755450D01*
X152955015Y-79755469D01*
X152952743Y-79762325D01*
X152937573Y-79835788D01*
X152936793Y-79839304D01*
X152919499Y-79912279D01*
X152918661Y-79919454D01*
X152918601Y-79919447D01*
X152917835Y-79926945D01*
X152917895Y-79926951D01*
X152917265Y-79934140D01*
X152919448Y-80009128D01*
X152919500Y-80012735D01*
X152919500Y-82945500D01*
X152899815Y-83012539D01*
X152847011Y-83058294D01*
X152795500Y-83069500D01*
X147176663Y-83069500D01*
X147109624Y-83049815D01*
X147075088Y-83016623D01*
X147050045Y-82980858D01*
X146889141Y-82819954D01*
X146702734Y-82689432D01*
X146702728Y-82689429D01*
X146644725Y-82662382D01*
X146592285Y-82616210D01*
X146573133Y-82549017D01*
X146593348Y-82482135D01*
X146644725Y-82437618D01*
X146702734Y-82410568D01*
X146889139Y-82280047D01*
X147050047Y-82119139D01*
X147075088Y-82083377D01*
X147129665Y-82039752D01*
X147176663Y-82030500D01*
X149665501Y-82030500D01*
X149732540Y-82050185D01*
X149778295Y-82102989D01*
X149789501Y-82154500D01*
X149789501Y-82177876D01*
X149795908Y-82237483D01*
X149846202Y-82372328D01*
X149846206Y-82372335D01*
X149932452Y-82487544D01*
X149932455Y-82487547D01*
X150047664Y-82573793D01*
X150047671Y-82573797D01*
X150182517Y-82624091D01*
X150182516Y-82624091D01*
X150189444Y-82624835D01*
X150242127Y-82630500D01*
X152037872Y-82630499D01*
X152097483Y-82624091D01*
X152232331Y-82573796D01*
X152347546Y-82487546D01*
X152433796Y-82372331D01*
X152484091Y-82237483D01*
X152490500Y-82177873D01*
X152490499Y-80382128D01*
X152484091Y-80322517D01*
X152479746Y-80310868D01*
X152433797Y-80187671D01*
X152433793Y-80187664D01*
X152347547Y-80072455D01*
X152347544Y-80072452D01*
X152232335Y-79986206D01*
X152232328Y-79986202D01*
X152097482Y-79935908D01*
X152097483Y-79935908D01*
X152037883Y-79929501D01*
X152037881Y-79929500D01*
X152037873Y-79929500D01*
X152037864Y-79929500D01*
X150242129Y-79929500D01*
X150242123Y-79929501D01*
X150182516Y-79935908D01*
X150047671Y-79986202D01*
X150047664Y-79986206D01*
X149932455Y-80072452D01*
X149932452Y-80072455D01*
X149846206Y-80187664D01*
X149846202Y-80187671D01*
X149795908Y-80322517D01*
X149791639Y-80362229D01*
X149789501Y-80382123D01*
X149789500Y-80382135D01*
X149789500Y-80405500D01*
X149769815Y-80472539D01*
X149717011Y-80518294D01*
X149665500Y-80529500D01*
X147176663Y-80529500D01*
X147109624Y-80509815D01*
X147075088Y-80476623D01*
X147050045Y-80440858D01*
X146889141Y-80279954D01*
X146702734Y-80149432D01*
X146702728Y-80149429D01*
X146644725Y-80122382D01*
X146592285Y-80076210D01*
X146573133Y-80009017D01*
X146593348Y-79942135D01*
X146644725Y-79897618D01*
X146702734Y-79870568D01*
X146889139Y-79740047D01*
X147050047Y-79579139D01*
X147064232Y-79558880D01*
X147075088Y-79543377D01*
X147129665Y-79499752D01*
X147176663Y-79490500D01*
X151066295Y-79490500D01*
X151084265Y-79491809D01*
X151108023Y-79495289D01*
X151157369Y-79490971D01*
X151168176Y-79490500D01*
X151173704Y-79490500D01*
X151173709Y-79490500D01*
X151204556Y-79486893D01*
X151208030Y-79486539D01*
X151282797Y-79479999D01*
X151282805Y-79479996D01*
X151289866Y-79478539D01*
X151289878Y-79478598D01*
X151297243Y-79476965D01*
X151297229Y-79476906D01*
X151304249Y-79475241D01*
X151304255Y-79475241D01*
X151374779Y-79449572D01*
X151378117Y-79448412D01*
X151449334Y-79424814D01*
X151449342Y-79424808D01*
X151455882Y-79421760D01*
X151455908Y-79421816D01*
X151462690Y-79418532D01*
X151462663Y-79418478D01*
X151469113Y-79415238D01*
X151469117Y-79415237D01*
X151531837Y-79373984D01*
X151534732Y-79372140D01*
X151598656Y-79332712D01*
X151598662Y-79332705D01*
X151604325Y-79328229D01*
X151604362Y-79328277D01*
X151610204Y-79323518D01*
X151610164Y-79323471D01*
X151615686Y-79318835D01*
X151615696Y-79318830D01*
X151667185Y-79264253D01*
X151669632Y-79261734D01*
X154714548Y-76216817D01*
X154775871Y-76183333D01*
X154802229Y-76180499D01*
X155737871Y-76180499D01*
X155737872Y-76180499D01*
X155797483Y-76174091D01*
X155932331Y-76123796D01*
X156047546Y-76037546D01*
X156133796Y-75922331D01*
X156184091Y-75787483D01*
X156190500Y-75727873D01*
X156190499Y-74132128D01*
X156184091Y-74072517D01*
X156135365Y-73941877D01*
X156133797Y-73937671D01*
X156133793Y-73937664D01*
X156047547Y-73822455D01*
X156047544Y-73822452D01*
X155932335Y-73736206D01*
X155932328Y-73736202D01*
X155797482Y-73685908D01*
X155797483Y-73685908D01*
X155737883Y-73679501D01*
X155737881Y-73679500D01*
X155737873Y-73679500D01*
X155737864Y-73679500D01*
X154142129Y-73679500D01*
X154142123Y-73679501D01*
X154082516Y-73685908D01*
X153947671Y-73736202D01*
X153947664Y-73736206D01*
X153832455Y-73822452D01*
X153832452Y-73822455D01*
X153769266Y-73906861D01*
X153713332Y-73948732D01*
X153643641Y-73953716D01*
X153582318Y-73920230D01*
X153570734Y-73906861D01*
X153507547Y-73822455D01*
X153507544Y-73822452D01*
X153392335Y-73736206D01*
X153392328Y-73736202D01*
X153257482Y-73685908D01*
X153257483Y-73685908D01*
X153197883Y-73679501D01*
X153197881Y-73679500D01*
X153197873Y-73679500D01*
X153197864Y-73679500D01*
X151602129Y-73679500D01*
X151602123Y-73679501D01*
X151542516Y-73685908D01*
X151407671Y-73736202D01*
X151407664Y-73736206D01*
X151292455Y-73822452D01*
X151292452Y-73822455D01*
X151229266Y-73906861D01*
X151173332Y-73948732D01*
X151103641Y-73953716D01*
X151042318Y-73920230D01*
X151030734Y-73906861D01*
X150967547Y-73822455D01*
X150967544Y-73822452D01*
X150852335Y-73736206D01*
X150852328Y-73736202D01*
X150717482Y-73685908D01*
X150717483Y-73685908D01*
X150657883Y-73679501D01*
X150657881Y-73679500D01*
X150657873Y-73679500D01*
X150657864Y-73679500D01*
X149062129Y-73679500D01*
X149062123Y-73679501D01*
X149002516Y-73685908D01*
X148867671Y-73736202D01*
X148867664Y-73736206D01*
X148752455Y-73822452D01*
X148752452Y-73822455D01*
X148666206Y-73937664D01*
X148666202Y-73937671D01*
X148615908Y-74072517D01*
X148614126Y-74080062D01*
X148611853Y-74079525D01*
X148589571Y-74133312D01*
X148532177Y-74173157D01*
X148493024Y-74179500D01*
X132143705Y-74179500D01*
X132125735Y-74178191D01*
X132101972Y-74174710D01*
X132055642Y-74178764D01*
X132052632Y-74179028D01*
X132041826Y-74179500D01*
X132036282Y-74179500D01*
X132005488Y-74183099D01*
X132001905Y-74183465D01*
X131927200Y-74190001D01*
X131920134Y-74191461D01*
X131920122Y-74191404D01*
X131912753Y-74193038D01*
X131912767Y-74193095D01*
X131905743Y-74194759D01*
X131835245Y-74220417D01*
X131831845Y-74221598D01*
X131760665Y-74245186D01*
X131760663Y-74245186D01*
X131760660Y-74245188D01*
X131754123Y-74248236D01*
X131754098Y-74248184D01*
X131747310Y-74251470D01*
X131747336Y-74251521D01*
X131740884Y-74254761D01*
X131678236Y-74295965D01*
X131675196Y-74297902D01*
X131611347Y-74337285D01*
X131605682Y-74341765D01*
X131605646Y-74341719D01*
X131599798Y-74346484D01*
X131599835Y-74346528D01*
X131594310Y-74351164D01*
X131542848Y-74405709D01*
X131540336Y-74408294D01*
X131075348Y-74873282D01*
X131014025Y-74906767D01*
X130976861Y-74909129D01*
X130810003Y-74894532D01*
X130809998Y-74894532D01*
X130583313Y-74914364D01*
X130583302Y-74914366D01*
X130363511Y-74973258D01*
X130363502Y-74973261D01*
X130157267Y-75069431D01*
X130157265Y-75069432D01*
X129970858Y-75199954D01*
X129809954Y-75360858D01*
X129679432Y-75547265D01*
X129679431Y-75547267D01*
X129583261Y-75753502D01*
X129583258Y-75753511D01*
X129524366Y-75973302D01*
X129524364Y-75973313D01*
X129504532Y-76199998D01*
X129504532Y-76200001D01*
X129524364Y-76426686D01*
X129524366Y-76426697D01*
X129583258Y-76646488D01*
X129583261Y-76646497D01*
X129679431Y-76852732D01*
X129679432Y-76852734D01*
X129809954Y-77039141D01*
X129970858Y-77200045D01*
X129970861Y-77200047D01*
X130157266Y-77330568D01*
X130182462Y-77342317D01*
X130215275Y-77357618D01*
X130267714Y-77403791D01*
X130286866Y-77470984D01*
X130266650Y-77537865D01*
X130215275Y-77582382D01*
X130157267Y-77609431D01*
X130157265Y-77609432D01*
X129970858Y-77739954D01*
X129809954Y-77900858D01*
X129679432Y-78087265D01*
X129679431Y-78087267D01*
X129583261Y-78293502D01*
X129583258Y-78293511D01*
X129524366Y-78513302D01*
X129524364Y-78513313D01*
X129504532Y-78739998D01*
X129504532Y-78740001D01*
X129524364Y-78966686D01*
X129524366Y-78966697D01*
X129583258Y-79186488D01*
X129583261Y-79186497D01*
X129679431Y-79392732D01*
X129679432Y-79392734D01*
X129809954Y-79579141D01*
X129970858Y-79740045D01*
X129970861Y-79740047D01*
X130157266Y-79870568D01*
X130215275Y-79897618D01*
X130267714Y-79943791D01*
X130286866Y-80010984D01*
X130266650Y-80077865D01*
X130215275Y-80122382D01*
X130157267Y-80149431D01*
X130157265Y-80149432D01*
X129970858Y-80279954D01*
X129809954Y-80440858D01*
X129679432Y-80627265D01*
X129679431Y-80627267D01*
X129583261Y-80833502D01*
X129583258Y-80833511D01*
X129524366Y-81053302D01*
X129524364Y-81053313D01*
X129504532Y-81279998D01*
X129504532Y-81280001D01*
X129524364Y-81506686D01*
X129524366Y-81506697D01*
X129583258Y-81726488D01*
X129583261Y-81726497D01*
X129679431Y-81932732D01*
X129679432Y-81932734D01*
X129809954Y-82119141D01*
X129970858Y-82280045D01*
X129970861Y-82280047D01*
X130157266Y-82410568D01*
X130200926Y-82430927D01*
X130215275Y-82437618D01*
X130267714Y-82483791D01*
X130286866Y-82550984D01*
X130266650Y-82617865D01*
X130215275Y-82662382D01*
X130157267Y-82689431D01*
X130157265Y-82689432D01*
X129970858Y-82819954D01*
X129809954Y-82980858D01*
X129679432Y-83167265D01*
X129679431Y-83167267D01*
X129583261Y-83373502D01*
X129583258Y-83373511D01*
X129524366Y-83593302D01*
X129524364Y-83593313D01*
X129504532Y-83819998D01*
X129504532Y-83820001D01*
X129524364Y-84046686D01*
X129524366Y-84046697D01*
X129583258Y-84266488D01*
X129583261Y-84266497D01*
X129679431Y-84472732D01*
X129679432Y-84472734D01*
X129809954Y-84659141D01*
X129970858Y-84820045D01*
X129970861Y-84820047D01*
X130157266Y-84950568D01*
X130215275Y-84977618D01*
X130267714Y-85023791D01*
X130286866Y-85090984D01*
X130266650Y-85157865D01*
X130215275Y-85202382D01*
X130157267Y-85229431D01*
X130157265Y-85229432D01*
X129970858Y-85359954D01*
X129809954Y-85520858D01*
X129679432Y-85707265D01*
X129679431Y-85707267D01*
X129583261Y-85913502D01*
X129583258Y-85913511D01*
X129524366Y-86133302D01*
X129524364Y-86133313D01*
X129504532Y-86359998D01*
X129504532Y-86360001D01*
X129524364Y-86586686D01*
X129524366Y-86586697D01*
X129583258Y-86806488D01*
X129583261Y-86806497D01*
X129679431Y-87012732D01*
X129679432Y-87012734D01*
X129809954Y-87199141D01*
X129970858Y-87360045D01*
X129970861Y-87360047D01*
X130157266Y-87490568D01*
X130215275Y-87517618D01*
X130267714Y-87563791D01*
X130286866Y-87630984D01*
X130266650Y-87697865D01*
X130215275Y-87742382D01*
X130157267Y-87769431D01*
X130157265Y-87769432D01*
X129970858Y-87899954D01*
X129809954Y-88060858D01*
X129679432Y-88247265D01*
X129679431Y-88247267D01*
X129583261Y-88453502D01*
X129583258Y-88453511D01*
X129524366Y-88673302D01*
X129524364Y-88673313D01*
X129504532Y-88899998D01*
X129504532Y-88900001D01*
X129524364Y-89126686D01*
X129524366Y-89126697D01*
X129583258Y-89346488D01*
X129583261Y-89346497D01*
X129679431Y-89552732D01*
X129679432Y-89552734D01*
X129809954Y-89739141D01*
X129970858Y-89900045D01*
X129970861Y-89900047D01*
X130157266Y-90030568D01*
X130215275Y-90057618D01*
X130267714Y-90103791D01*
X130286866Y-90170984D01*
X130266650Y-90237865D01*
X130215275Y-90282381D01*
X130215118Y-90282455D01*
X130157267Y-90309431D01*
X130157265Y-90309432D01*
X129970858Y-90439954D01*
X129809954Y-90600858D01*
X129679432Y-90787265D01*
X129679431Y-90787267D01*
X129583261Y-90993502D01*
X129583258Y-90993511D01*
X129524366Y-91213302D01*
X129524364Y-91213313D01*
X129504532Y-91439998D01*
X129504532Y-91440001D01*
X129524364Y-91666686D01*
X129524366Y-91666697D01*
X129583258Y-91886488D01*
X129583261Y-91886497D01*
X129679431Y-92092732D01*
X129679432Y-92092734D01*
X129809954Y-92279141D01*
X129970858Y-92440045D01*
X129970861Y-92440047D01*
X130157266Y-92570568D01*
X130215275Y-92597618D01*
X130267714Y-92643791D01*
X130286866Y-92710984D01*
X130266650Y-92777865D01*
X130215275Y-92822382D01*
X130157267Y-92849431D01*
X130157265Y-92849432D01*
X129970858Y-92979954D01*
X129809954Y-93140858D01*
X129679432Y-93327265D01*
X129679431Y-93327267D01*
X129583261Y-93533502D01*
X129583258Y-93533511D01*
X129524366Y-93753302D01*
X129524364Y-93753313D01*
X129504532Y-93979998D01*
X129504532Y-93980001D01*
X129524364Y-94206686D01*
X129524366Y-94206697D01*
X129583258Y-94426488D01*
X129583261Y-94426497D01*
X129679431Y-94632732D01*
X129679432Y-94632734D01*
X129809954Y-94819141D01*
X129970858Y-94980045D01*
X129970861Y-94980047D01*
X130157266Y-95110568D01*
X130215275Y-95137618D01*
X130267714Y-95183791D01*
X130286866Y-95250984D01*
X130266650Y-95317865D01*
X130215275Y-95362382D01*
X130157267Y-95389431D01*
X130157265Y-95389432D01*
X129970858Y-95519954D01*
X129809954Y-95680858D01*
X129679432Y-95867265D01*
X129679431Y-95867267D01*
X129583261Y-96073502D01*
X129583258Y-96073511D01*
X129524366Y-96293302D01*
X129524364Y-96293313D01*
X129504532Y-96519998D01*
X129504532Y-96520001D01*
X129524364Y-96746686D01*
X129524366Y-96746697D01*
X129583258Y-96966488D01*
X129583261Y-96966497D01*
X129679431Y-97172732D01*
X129679432Y-97172734D01*
X129809954Y-97359141D01*
X129970858Y-97520045D01*
X129970861Y-97520047D01*
X130157266Y-97650568D01*
X130215275Y-97677618D01*
X130267714Y-97723791D01*
X130286866Y-97790984D01*
X130266650Y-97857865D01*
X130215275Y-97902382D01*
X130157267Y-97929431D01*
X130157265Y-97929432D01*
X129970858Y-98059954D01*
X129809954Y-98220858D01*
X129679432Y-98407265D01*
X129679431Y-98407267D01*
X129583261Y-98613502D01*
X129583258Y-98613511D01*
X129524366Y-98833302D01*
X129524364Y-98833313D01*
X129504532Y-99059998D01*
X129504532Y-99060001D01*
X129524364Y-99286686D01*
X129524366Y-99286697D01*
X129583258Y-99506488D01*
X129583261Y-99506497D01*
X129679431Y-99712732D01*
X129679432Y-99712734D01*
X129809954Y-99899141D01*
X129970858Y-100060045D01*
X129970861Y-100060047D01*
X130157266Y-100190568D01*
X130215275Y-100217618D01*
X130267714Y-100263791D01*
X130286866Y-100330984D01*
X130266650Y-100397865D01*
X130215275Y-100442382D01*
X130157267Y-100469431D01*
X130157265Y-100469432D01*
X129970858Y-100599954D01*
X129809954Y-100760858D01*
X129679432Y-100947265D01*
X129679431Y-100947267D01*
X129583261Y-101153502D01*
X129583258Y-101153511D01*
X129524366Y-101373302D01*
X129524364Y-101373313D01*
X129504532Y-101599998D01*
X129504532Y-101600001D01*
X129524364Y-101826686D01*
X129524366Y-101826697D01*
X129583258Y-102046488D01*
X129583261Y-102046497D01*
X129679431Y-102252732D01*
X129679432Y-102252734D01*
X129809954Y-102439141D01*
X129970858Y-102600045D01*
X129970861Y-102600047D01*
X130157266Y-102730568D01*
X130215275Y-102757618D01*
X130267714Y-102803791D01*
X130286866Y-102870984D01*
X130266650Y-102937865D01*
X130215275Y-102982382D01*
X130157267Y-103009431D01*
X130157265Y-103009432D01*
X129970858Y-103139954D01*
X129809954Y-103300858D01*
X129679432Y-103487265D01*
X129679431Y-103487267D01*
X129583261Y-103693502D01*
X129583258Y-103693511D01*
X129524366Y-103913302D01*
X129524364Y-103913313D01*
X129504532Y-104139998D01*
X129504532Y-104140001D01*
X129524364Y-104366686D01*
X129524366Y-104366697D01*
X129583258Y-104586488D01*
X129583261Y-104586497D01*
X129679431Y-104792732D01*
X129679432Y-104792734D01*
X129809954Y-104979141D01*
X129970858Y-105140045D01*
X129970861Y-105140047D01*
X130157266Y-105270568D01*
X130215275Y-105297618D01*
X130267714Y-105343791D01*
X130286866Y-105410984D01*
X130266650Y-105477865D01*
X130215275Y-105522382D01*
X130157267Y-105549431D01*
X130157265Y-105549432D01*
X129970858Y-105679954D01*
X129809954Y-105840858D01*
X129679432Y-106027265D01*
X129679431Y-106027267D01*
X129583261Y-106233502D01*
X129583258Y-106233511D01*
X129524366Y-106453302D01*
X129524364Y-106453313D01*
X129504532Y-106679998D01*
X129504532Y-106680001D01*
X129524364Y-106906686D01*
X129524366Y-106906697D01*
X129583258Y-107126488D01*
X129583261Y-107126497D01*
X129679431Y-107332732D01*
X129679432Y-107332734D01*
X129809954Y-107519141D01*
X129970858Y-107680045D01*
X129970861Y-107680047D01*
X130157266Y-107810568D01*
X130215275Y-107837618D01*
X130267714Y-107883791D01*
X130286866Y-107950984D01*
X130266650Y-108017865D01*
X130215275Y-108062382D01*
X130157267Y-108089431D01*
X130157265Y-108089432D01*
X129970858Y-108219954D01*
X129809954Y-108380858D01*
X129679432Y-108567265D01*
X129679431Y-108567267D01*
X129583261Y-108773502D01*
X129583258Y-108773511D01*
X129524366Y-108993302D01*
X129524364Y-108993313D01*
X129504532Y-109219998D01*
X129504532Y-109220001D01*
X129524364Y-109446686D01*
X129524366Y-109446697D01*
X129583258Y-109666488D01*
X129583261Y-109666497D01*
X129679431Y-109872732D01*
X129679432Y-109872734D01*
X129809954Y-110059141D01*
X129970858Y-110220045D01*
X130003626Y-110242989D01*
X130157266Y-110350568D01*
X130215275Y-110377618D01*
X130267714Y-110423791D01*
X130286866Y-110490984D01*
X130266650Y-110557865D01*
X130215275Y-110602381D01*
X130215118Y-110602455D01*
X130157267Y-110629431D01*
X130157265Y-110629432D01*
X129970858Y-110759954D01*
X129809954Y-110920858D01*
X129679432Y-111107265D01*
X129679431Y-111107267D01*
X129583261Y-111313502D01*
X129583258Y-111313511D01*
X129524366Y-111533302D01*
X129524364Y-111533313D01*
X129504532Y-111759998D01*
X129504532Y-111760001D01*
X129524364Y-111986686D01*
X129524366Y-111986697D01*
X129583258Y-112206488D01*
X129583261Y-112206497D01*
X129679431Y-112412732D01*
X129679432Y-112412734D01*
X129809954Y-112599141D01*
X129970858Y-112760045D01*
X129970861Y-112760047D01*
X130157266Y-112890568D01*
X130363504Y-112986739D01*
X130583308Y-113045635D01*
X130744654Y-113059751D01*
X130809998Y-113065468D01*
X130810000Y-113065468D01*
X130810002Y-113065468D01*
X130866807Y-113060498D01*
X131036692Y-113045635D01*
X131256496Y-112986739D01*
X131462734Y-112890568D01*
X131649139Y-112760047D01*
X131810047Y-112599139D01*
X131940568Y-112412734D01*
X132036739Y-112206496D01*
X132095635Y-111986692D01*
X132115468Y-111760000D01*
X132114545Y-111749455D01*
X132106496Y-111657452D01*
X132095635Y-111533308D01*
X132036739Y-111313504D01*
X131940568Y-111107266D01*
X131810047Y-110920861D01*
X131810045Y-110920858D01*
X131649141Y-110759954D01*
X131462734Y-110629432D01*
X131462728Y-110629429D01*
X131404882Y-110602455D01*
X131404724Y-110602381D01*
X131352285Y-110556210D01*
X131333133Y-110489017D01*
X131353348Y-110422135D01*
X131404725Y-110377618D01*
X131462734Y-110350568D01*
X131649139Y-110220047D01*
X131810047Y-110059139D01*
X131940568Y-109872734D01*
X132036739Y-109666496D01*
X132095635Y-109446692D01*
X132115468Y-109220000D01*
X132095635Y-108993308D01*
X132036739Y-108773504D01*
X131940568Y-108567266D01*
X131810047Y-108380861D01*
X131810045Y-108380858D01*
X131649141Y-108219954D01*
X131462734Y-108089432D01*
X131462728Y-108089429D01*
X131404725Y-108062382D01*
X131352285Y-108016210D01*
X131333133Y-107949017D01*
X131353348Y-107882135D01*
X131404725Y-107837618D01*
X131462734Y-107810568D01*
X131649139Y-107680047D01*
X131810047Y-107519139D01*
X131940568Y-107332734D01*
X132036739Y-107126496D01*
X132095635Y-106906692D01*
X132115468Y-106680000D01*
X132095635Y-106453308D01*
X132036739Y-106233504D01*
X131940568Y-106027266D01*
X131810047Y-105840861D01*
X131810045Y-105840858D01*
X131649141Y-105679954D01*
X131462734Y-105549432D01*
X131462728Y-105549429D01*
X131404725Y-105522382D01*
X131352285Y-105476210D01*
X131333133Y-105409017D01*
X131353348Y-105342135D01*
X131404725Y-105297618D01*
X131462734Y-105270568D01*
X131649139Y-105140047D01*
X131649141Y-105140045D01*
X131662368Y-105126819D01*
X131723691Y-105093334D01*
X131750049Y-105090500D01*
X135444928Y-105090500D01*
X135511967Y-105110185D01*
X135532609Y-105126819D01*
X147908255Y-117502465D01*
X147910449Y-117504715D01*
X147967674Y-117564917D01*
X147967677Y-117564919D01*
X148013486Y-117596803D01*
X148020988Y-117602460D01*
X148064249Y-117637734D01*
X148066290Y-117639398D01*
X148105807Y-117697019D01*
X148107899Y-117766858D01*
X148071900Y-117826740D01*
X148009242Y-117857655D01*
X147987929Y-117859500D01*
X125733051Y-117859500D01*
X125726968Y-117859351D01*
X125706300Y-117858335D01*
X125387190Y-117842658D01*
X125375080Y-117841465D01*
X125041602Y-117791998D01*
X125029668Y-117789624D01*
X124702633Y-117707707D01*
X124690992Y-117704175D01*
X124475528Y-117627081D01*
X124373582Y-117590604D01*
X124362339Y-117585948D01*
X124116087Y-117469480D01*
X124057560Y-117441799D01*
X124046837Y-117436066D01*
X123757677Y-117262750D01*
X123747559Y-117255990D01*
X123476765Y-117055156D01*
X123467359Y-117047436D01*
X123301166Y-116896808D01*
X123217558Y-116821030D01*
X123208969Y-116812441D01*
X122982563Y-116562640D01*
X122974843Y-116553234D01*
X122774009Y-116282440D01*
X122767249Y-116272322D01*
X122593928Y-115983155D01*
X122588204Y-115972447D01*
X122444048Y-115667654D01*
X122439395Y-115656417D01*
X122437278Y-115650500D01*
X122325820Y-115338994D01*
X122322295Y-115327377D01*
X122261373Y-115084160D01*
X122240375Y-115000331D01*
X122238001Y-114988397D01*
X122188534Y-114654919D01*
X122187341Y-114642808D01*
X122182742Y-114549202D01*
X122170649Y-114303032D01*
X122170575Y-114300000D01*
X124114520Y-114300000D01*
X124134408Y-114552714D01*
X124193585Y-114799206D01*
X124290596Y-115033413D01*
X124423045Y-115249550D01*
X124423046Y-115249552D01*
X124423049Y-115249555D01*
X124587683Y-115442317D01*
X124706500Y-115543796D01*
X124780447Y-115606953D01*
X124780449Y-115606954D01*
X124996586Y-115739403D01*
X125087160Y-115776919D01*
X125230789Y-115836413D01*
X125477283Y-115895591D01*
X125666722Y-115910500D01*
X125666730Y-115910500D01*
X125793270Y-115910500D01*
X125793278Y-115910500D01*
X125982717Y-115895591D01*
X126229211Y-115836413D01*
X126463413Y-115739403D01*
X126679555Y-115606951D01*
X126872317Y-115442317D01*
X127036951Y-115249555D01*
X127169403Y-115033413D01*
X127266413Y-114799211D01*
X127325591Y-114552717D01*
X127345480Y-114300000D01*
X127325591Y-114047283D01*
X127266413Y-113800789D01*
X127202822Y-113647267D01*
X127169403Y-113566586D01*
X127036954Y-113350449D01*
X127036953Y-113350447D01*
X126990638Y-113296219D01*
X126872317Y-113157683D01*
X126711003Y-113019908D01*
X126679552Y-112993046D01*
X126679550Y-112993045D01*
X126463413Y-112860596D01*
X126229206Y-112763585D01*
X125982713Y-112704408D01*
X125982714Y-112704408D01*
X125793283Y-112689500D01*
X125793278Y-112689500D01*
X125666722Y-112689500D01*
X125666716Y-112689500D01*
X125477285Y-112704408D01*
X125230793Y-112763585D01*
X124996586Y-112860596D01*
X124780449Y-112993045D01*
X124780447Y-112993046D01*
X124587683Y-113157683D01*
X124423046Y-113350447D01*
X124423045Y-113350449D01*
X124290596Y-113566586D01*
X124193585Y-113800793D01*
X124134408Y-114047285D01*
X124114520Y-114300000D01*
X122170575Y-114300000D01*
X122170500Y-114296948D01*
X122170500Y-76203051D01*
X122170575Y-76200000D01*
X124114520Y-76200000D01*
X124134408Y-76452714D01*
X124193585Y-76699206D01*
X124290596Y-76933413D01*
X124423045Y-77149550D01*
X124423046Y-77149552D01*
X124454875Y-77186819D01*
X124587683Y-77342317D01*
X124670131Y-77412734D01*
X124780447Y-77506953D01*
X124780449Y-77506954D01*
X124996586Y-77639403D01*
X125087160Y-77676919D01*
X125230789Y-77736413D01*
X125477283Y-77795591D01*
X125666722Y-77810500D01*
X125666730Y-77810500D01*
X125793270Y-77810500D01*
X125793278Y-77810500D01*
X125982717Y-77795591D01*
X126229211Y-77736413D01*
X126463413Y-77639403D01*
X126679555Y-77506951D01*
X126872317Y-77342317D01*
X127036951Y-77149555D01*
X127169403Y-76933413D01*
X127266413Y-76699211D01*
X127325591Y-76452717D01*
X127345480Y-76200000D01*
X127325591Y-75947283D01*
X127266413Y-75700789D01*
X127202822Y-75547267D01*
X127169403Y-75466586D01*
X127036954Y-75250449D01*
X127036953Y-75250447D01*
X126965453Y-75166732D01*
X126872317Y-75057683D01*
X126704512Y-74914364D01*
X126679552Y-74893046D01*
X126679550Y-74893045D01*
X126463413Y-74760596D01*
X126229206Y-74663585D01*
X125982713Y-74604408D01*
X125982714Y-74604408D01*
X125793283Y-74589500D01*
X125793278Y-74589500D01*
X125666722Y-74589500D01*
X125666716Y-74589500D01*
X125477285Y-74604408D01*
X125230793Y-74663585D01*
X124996586Y-74760596D01*
X124780449Y-74893045D01*
X124780447Y-74893046D01*
X124587683Y-75057683D01*
X124423046Y-75250447D01*
X124423045Y-75250449D01*
X124290596Y-75466586D01*
X124193585Y-75700793D01*
X124134408Y-75947285D01*
X124114520Y-76200000D01*
X122170575Y-76200000D01*
X122170649Y-76196967D01*
X122178697Y-76033139D01*
X122187341Y-75857187D01*
X122188534Y-75845080D01*
X122202119Y-75753502D01*
X122238001Y-75511599D01*
X122240375Y-75499668D01*
X122264773Y-75402266D01*
X122322297Y-75172616D01*
X122325818Y-75161010D01*
X122439400Y-74843568D01*
X122444045Y-74832353D01*
X122588208Y-74527544D01*
X122593923Y-74516852D01*
X122767257Y-74227664D01*
X122774000Y-74217571D01*
X122974851Y-73946754D01*
X122982554Y-73937369D01*
X123208978Y-73687548D01*
X123217548Y-73678978D01*
X123467369Y-73452554D01*
X123476754Y-73444851D01*
X123747571Y-73244000D01*
X123757664Y-73237257D01*
X124046852Y-73063923D01*
X124057544Y-73058208D01*
X124362353Y-72914045D01*
X124373568Y-72909400D01*
X124691010Y-72795818D01*
X124702616Y-72792297D01*
X125029668Y-72710375D01*
X125041599Y-72708001D01*
X125375083Y-72658533D01*
X125387187Y-72657341D01*
X125726967Y-72640648D01*
X125733051Y-72640500D01*
X125774170Y-72640500D01*
X158898041Y-72640500D01*
X158965080Y-72660185D01*
G37*
%TD.AperFunction*%
M02*
