%TF.GenerationSoftware,KiCad,Pcbnew,7.0.10*%
%TF.CreationDate,2024-02-01T12:14:39-09:00*%
%TF.ProjectId,CustomPCB,43757374-6f6d-4504-9342-2e6b69636164,rev?*%
%TF.SameCoordinates,Original*%
%TF.FileFunction,Drillmap*%
%TF.FilePolarity,Positive*%
%FSLAX45Y45*%
G04 Gerber Fmt 4.5, Leading zero omitted, Abs format (unit mm)*
G04 Created by KiCad (PCBNEW 7.0.10) date 2024-02-01 12:14:39*
%MOMM*%
%LPD*%
G01*
G04 APERTURE LIST*
%ADD10C,0.100000*%
%ADD11C,0.200000*%
G04 APERTURE END LIST*
D10*
X17399000Y-12340000D02*
G75*
G03*
X17907000Y-11832000I0J508000D01*
G01*
X17907000Y-7387000D02*
G75*
G03*
X17399000Y-6879000I-508000J0D01*
G01*
X17907000Y-11832000D02*
X17907000Y-7387000D01*
X11176000Y-6879000D02*
G75*
G03*
X10668000Y-7387000I0J-508000D01*
G01*
X10668000Y-11832000D02*
G75*
G03*
X11176000Y-12340000I508000J0D01*
G01*
X11176000Y-12340000D02*
X17399000Y-12340000D01*
X10668000Y-7387000D02*
X10668000Y-11832000D01*
X17399000Y-6879000D02*
X11176000Y-6879000D01*
D11*
D10*
X10882000Y-9761000D02*
X10962000Y-9841000D01*
X10962000Y-9761000D02*
X10882000Y-9841000D01*
X10882000Y-11031000D02*
X10962000Y-11111000D01*
X10962000Y-11031000D02*
X10882000Y-11111000D01*
X11136000Y-9761000D02*
X11216000Y-9841000D01*
X11216000Y-9761000D02*
X11136000Y-9841000D01*
X11136000Y-11031000D02*
X11216000Y-11111000D01*
X11216000Y-11031000D02*
X11136000Y-11111000D01*
X11390000Y-9761000D02*
X11470000Y-9841000D01*
X11470000Y-9761000D02*
X11390000Y-9841000D01*
X11390000Y-11031000D02*
X11470000Y-11111000D01*
X11470000Y-11031000D02*
X11390000Y-11111000D01*
X11644000Y-9761000D02*
X11724000Y-9841000D01*
X11724000Y-9761000D02*
X11644000Y-9841000D01*
X11644000Y-11031000D02*
X11724000Y-11111000D01*
X11724000Y-11031000D02*
X11644000Y-11111000D01*
X11898000Y-9761000D02*
X11978000Y-9841000D01*
X11978000Y-9761000D02*
X11898000Y-9841000D01*
X11898000Y-11031000D02*
X11978000Y-11111000D01*
X11978000Y-11031000D02*
X11898000Y-11111000D01*
X12152000Y-9761000D02*
X12232000Y-9841000D01*
X12232000Y-9761000D02*
X12152000Y-9841000D01*
X12152000Y-11031000D02*
X12232000Y-11111000D01*
X12232000Y-11031000D02*
X12152000Y-11111000D01*
X12406000Y-9761000D02*
X12486000Y-9841000D01*
X12486000Y-9761000D02*
X12406000Y-9841000D01*
X12406000Y-11031000D02*
X12486000Y-11111000D01*
X12486000Y-11031000D02*
X12406000Y-11111000D01*
X12660000Y-9761000D02*
X12740000Y-9841000D01*
X12740000Y-9761000D02*
X12660000Y-9841000D01*
X12660000Y-11031000D02*
X12740000Y-11111000D01*
X12740000Y-11031000D02*
X12660000Y-11111000D01*
X15073000Y-7976265D02*
X15153000Y-8056265D01*
X15153000Y-7976265D02*
X15073000Y-8056265D01*
X15073000Y-8476265D02*
X15153000Y-8556265D01*
X15153000Y-8476265D02*
X15073000Y-8556265D01*
X11480000Y-9040500D02*
G75*
G03*
X11380000Y-9040500I-50000J0D01*
G01*
X11380000Y-9040500D02*
G75*
G03*
X11480000Y-9040500I50000J0D01*
G01*
X11734000Y-9040500D02*
G75*
G03*
X11634000Y-9040500I-50000J0D01*
G01*
X11634000Y-9040500D02*
G75*
G03*
X11734000Y-9040500I50000J0D01*
G01*
X11988000Y-9040500D02*
G75*
G03*
X11888000Y-9040500I-50000J0D01*
G01*
X11888000Y-9040500D02*
G75*
G03*
X11988000Y-9040500I50000J0D01*
G01*
X12242000Y-9040500D02*
G75*
G03*
X12142000Y-9040500I-50000J0D01*
G01*
X12142000Y-9040500D02*
G75*
G03*
X12242000Y-9040500I50000J0D01*
G01*
X13766000Y-9546000D02*
G75*
G03*
X13666000Y-9546000I-50000J0D01*
G01*
X13666000Y-9546000D02*
G75*
G03*
X13766000Y-9546000I50000J0D01*
G01*
X13766000Y-11070000D02*
G75*
G03*
X13666000Y-11070000I-50000J0D01*
G01*
X13666000Y-11070000D02*
G75*
G03*
X13766000Y-11070000I50000J0D01*
G01*
X14020000Y-9546000D02*
G75*
G03*
X13920000Y-9546000I-50000J0D01*
G01*
X13920000Y-9546000D02*
G75*
G03*
X14020000Y-9546000I50000J0D01*
G01*
X14020000Y-11070000D02*
G75*
G03*
X13920000Y-11070000I-50000J0D01*
G01*
X13920000Y-11070000D02*
G75*
G03*
X14020000Y-11070000I50000J0D01*
G01*
X14274000Y-9038000D02*
G75*
G03*
X14174000Y-9038000I-50000J0D01*
G01*
X14174000Y-9038000D02*
G75*
G03*
X14274000Y-9038000I50000J0D01*
G01*
X14274000Y-9546000D02*
G75*
G03*
X14174000Y-9546000I-50000J0D01*
G01*
X14174000Y-9546000D02*
G75*
G03*
X14274000Y-9546000I50000J0D01*
G01*
X14274000Y-11070000D02*
G75*
G03*
X14174000Y-11070000I-50000J0D01*
G01*
X14174000Y-11070000D02*
G75*
G03*
X14274000Y-11070000I50000J0D01*
G01*
X14528000Y-9546000D02*
G75*
G03*
X14428000Y-9546000I-50000J0D01*
G01*
X14428000Y-9546000D02*
G75*
G03*
X14528000Y-9546000I50000J0D01*
G01*
X14528000Y-11070000D02*
G75*
G03*
X14428000Y-11070000I-50000J0D01*
G01*
X14428000Y-11070000D02*
G75*
G03*
X14528000Y-11070000I50000J0D01*
G01*
X14782000Y-9546000D02*
G75*
G03*
X14682000Y-9546000I-50000J0D01*
G01*
X14682000Y-9546000D02*
G75*
G03*
X14782000Y-9546000I50000J0D01*
G01*
X14782000Y-11070000D02*
G75*
G03*
X14682000Y-11070000I-50000J0D01*
G01*
X14682000Y-11070000D02*
G75*
G03*
X14782000Y-11070000I50000J0D01*
G01*
X15036000Y-9546000D02*
G75*
G03*
X14936000Y-9546000I-50000J0D01*
G01*
X14936000Y-9546000D02*
G75*
G03*
X15036000Y-9546000I50000J0D01*
G01*
X15036000Y-11070000D02*
G75*
G03*
X14936000Y-11070000I-50000J0D01*
G01*
X14936000Y-11070000D02*
G75*
G03*
X15036000Y-11070000I50000J0D01*
G01*
X15290000Y-9546000D02*
G75*
G03*
X15190000Y-9546000I-50000J0D01*
G01*
X15190000Y-9546000D02*
G75*
G03*
X15290000Y-9546000I50000J0D01*
G01*
X15290000Y-11070000D02*
G75*
G03*
X15190000Y-11070000I-50000J0D01*
G01*
X15190000Y-11070000D02*
G75*
G03*
X15290000Y-11070000I50000J0D01*
G01*
X15544000Y-9546000D02*
G75*
G03*
X15444000Y-9546000I-50000J0D01*
G01*
X15444000Y-9546000D02*
G75*
G03*
X15544000Y-9546000I50000J0D01*
G01*
X15544000Y-11070000D02*
G75*
G03*
X15444000Y-11070000I-50000J0D01*
G01*
X15444000Y-11070000D02*
G75*
G03*
X15544000Y-11070000I50000J0D01*
G01*
X15544000Y-11451000D02*
G75*
G03*
X15444000Y-11451000I-50000J0D01*
G01*
X15444000Y-11451000D02*
G75*
G03*
X15544000Y-11451000I50000J0D01*
G01*
X15798000Y-9546000D02*
G75*
G03*
X15698000Y-9546000I-50000J0D01*
G01*
X15698000Y-9546000D02*
G75*
G03*
X15798000Y-9546000I50000J0D01*
G01*
X15798000Y-11070000D02*
G75*
G03*
X15698000Y-11070000I-50000J0D01*
G01*
X15698000Y-11070000D02*
G75*
G03*
X15798000Y-11070000I50000J0D01*
G01*
X16052000Y-9546000D02*
G75*
G03*
X15952000Y-9546000I-50000J0D01*
G01*
X15952000Y-9546000D02*
G75*
G03*
X16052000Y-9546000I50000J0D01*
G01*
X16052000Y-11070000D02*
G75*
G03*
X15952000Y-11070000I-50000J0D01*
G01*
X15952000Y-11070000D02*
G75*
G03*
X16052000Y-11070000I50000J0D01*
G01*
X16306000Y-9546000D02*
G75*
G03*
X16206000Y-9546000I-50000J0D01*
G01*
X16206000Y-9546000D02*
G75*
G03*
X16306000Y-9546000I50000J0D01*
G01*
X16306000Y-11070000D02*
G75*
G03*
X16206000Y-11070000I-50000J0D01*
G01*
X16206000Y-11070000D02*
G75*
G03*
X16306000Y-11070000I50000J0D01*
G01*
X16560000Y-9546000D02*
G75*
G03*
X16460000Y-9546000I-50000J0D01*
G01*
X16460000Y-9546000D02*
G75*
G03*
X16560000Y-9546000I50000J0D01*
G01*
X16560000Y-11070000D02*
G75*
G03*
X16460000Y-11070000I-50000J0D01*
G01*
X16460000Y-11070000D02*
G75*
G03*
X16560000Y-11070000I50000J0D01*
G01*
X16595000Y-8530000D02*
G75*
G03*
X16495000Y-8530000I-50000J0D01*
G01*
X16495000Y-8530000D02*
G75*
G03*
X16595000Y-8530000I50000J0D01*
G01*
X16595000Y-8630000D02*
X16595000Y-8430000D01*
X16595000Y-8430000D02*
G75*
G03*
X16495000Y-8430000I-50000J0D01*
G01*
X16495000Y-8430000D02*
X16495000Y-8630000D01*
X16495000Y-8630000D02*
G75*
G03*
X16595000Y-8630000I50000J0D01*
G01*
X16814000Y-9546000D02*
G75*
G03*
X16714000Y-9546000I-50000J0D01*
G01*
X16714000Y-9546000D02*
G75*
G03*
X16814000Y-9546000I50000J0D01*
G01*
X16814000Y-11070000D02*
G75*
G03*
X16714000Y-11070000I-50000J0D01*
G01*
X16714000Y-11070000D02*
G75*
G03*
X16814000Y-11070000I50000J0D01*
G01*
X16895000Y-8060000D02*
G75*
G03*
X16795000Y-8060000I-50000J0D01*
G01*
X16795000Y-8060000D02*
G75*
G03*
X16895000Y-8060000I50000J0D01*
G01*
X16945000Y-8010000D02*
X16745000Y-8010000D01*
X16745000Y-8010000D02*
G75*
G03*
X16745000Y-8110000I0J-50000D01*
G01*
X16745000Y-8110000D02*
X16945000Y-8110000D01*
X16945000Y-8110000D02*
G75*
G03*
X16945000Y-8010000I0J50000D01*
G01*
X17068000Y-9546000D02*
G75*
G03*
X16968000Y-9546000I-50000J0D01*
G01*
X16968000Y-9546000D02*
G75*
G03*
X17068000Y-9546000I50000J0D01*
G01*
X17068000Y-11070000D02*
G75*
G03*
X16968000Y-11070000I-50000J0D01*
G01*
X16968000Y-11070000D02*
G75*
G03*
X17068000Y-11070000I50000J0D01*
G01*
X17195000Y-8530000D02*
G75*
G03*
X17095000Y-8530000I-50000J0D01*
G01*
X17095000Y-8530000D02*
G75*
G03*
X17195000Y-8530000I50000J0D01*
G01*
X17195000Y-8630000D02*
X17195000Y-8430000D01*
X17195000Y-8430000D02*
G75*
G03*
X17095000Y-8430000I-50000J0D01*
G01*
X17095000Y-8430000D02*
X17095000Y-8630000D01*
X17095000Y-8630000D02*
G75*
G03*
X17195000Y-8630000I50000J0D01*
G01*
X17322000Y-9546000D02*
G75*
G03*
X17222000Y-9546000I-50000J0D01*
G01*
X17222000Y-9546000D02*
G75*
G03*
X17322000Y-9546000I50000J0D01*
G01*
X17322000Y-11070000D02*
G75*
G03*
X17222000Y-11070000I-50000J0D01*
G01*
X17222000Y-11070000D02*
G75*
G03*
X17322000Y-11070000I50000J0D01*
G01*
D11*
X10923777Y-12656484D02*
X10923777Y-12456484D01*
X10923777Y-12456484D02*
X10971396Y-12456484D01*
X10971396Y-12456484D02*
X10999967Y-12466008D01*
X10999967Y-12466008D02*
X11019015Y-12485055D01*
X11019015Y-12485055D02*
X11028539Y-12504103D01*
X11028539Y-12504103D02*
X11038063Y-12542198D01*
X11038063Y-12542198D02*
X11038063Y-12570769D01*
X11038063Y-12570769D02*
X11028539Y-12608865D01*
X11028539Y-12608865D02*
X11019015Y-12627912D01*
X11019015Y-12627912D02*
X10999967Y-12646960D01*
X10999967Y-12646960D02*
X10971396Y-12656484D01*
X10971396Y-12656484D02*
X10923777Y-12656484D01*
X11123777Y-12656484D02*
X11123777Y-12523150D01*
X11123777Y-12561246D02*
X11133301Y-12542198D01*
X11133301Y-12542198D02*
X11142824Y-12532674D01*
X11142824Y-12532674D02*
X11161872Y-12523150D01*
X11161872Y-12523150D02*
X11180920Y-12523150D01*
X11247586Y-12656484D02*
X11247586Y-12523150D01*
X11247586Y-12456484D02*
X11238062Y-12466008D01*
X11238062Y-12466008D02*
X11247586Y-12475531D01*
X11247586Y-12475531D02*
X11257110Y-12466008D01*
X11257110Y-12466008D02*
X11247586Y-12456484D01*
X11247586Y-12456484D02*
X11247586Y-12475531D01*
X11371396Y-12656484D02*
X11352348Y-12646960D01*
X11352348Y-12646960D02*
X11342824Y-12627912D01*
X11342824Y-12627912D02*
X11342824Y-12456484D01*
X11476158Y-12656484D02*
X11457110Y-12646960D01*
X11457110Y-12646960D02*
X11447586Y-12627912D01*
X11447586Y-12627912D02*
X11447586Y-12456484D01*
X11704729Y-12656484D02*
X11704729Y-12456484D01*
X11704729Y-12456484D02*
X11771396Y-12599341D01*
X11771396Y-12599341D02*
X11838062Y-12456484D01*
X11838062Y-12456484D02*
X11838062Y-12656484D01*
X12019015Y-12656484D02*
X12019015Y-12551722D01*
X12019015Y-12551722D02*
X12009491Y-12532674D01*
X12009491Y-12532674D02*
X11990443Y-12523150D01*
X11990443Y-12523150D02*
X11952348Y-12523150D01*
X11952348Y-12523150D02*
X11933301Y-12532674D01*
X12019015Y-12646960D02*
X11999967Y-12656484D01*
X11999967Y-12656484D02*
X11952348Y-12656484D01*
X11952348Y-12656484D02*
X11933301Y-12646960D01*
X11933301Y-12646960D02*
X11923777Y-12627912D01*
X11923777Y-12627912D02*
X11923777Y-12608865D01*
X11923777Y-12608865D02*
X11933301Y-12589817D01*
X11933301Y-12589817D02*
X11952348Y-12580293D01*
X11952348Y-12580293D02*
X11999967Y-12580293D01*
X11999967Y-12580293D02*
X12019015Y-12570769D01*
X12114253Y-12523150D02*
X12114253Y-12723150D01*
X12114253Y-12532674D02*
X12133301Y-12523150D01*
X12133301Y-12523150D02*
X12171396Y-12523150D01*
X12171396Y-12523150D02*
X12190443Y-12532674D01*
X12190443Y-12532674D02*
X12199967Y-12542198D01*
X12199967Y-12542198D02*
X12209491Y-12561246D01*
X12209491Y-12561246D02*
X12209491Y-12618388D01*
X12209491Y-12618388D02*
X12199967Y-12637436D01*
X12199967Y-12637436D02*
X12190443Y-12646960D01*
X12190443Y-12646960D02*
X12171396Y-12656484D01*
X12171396Y-12656484D02*
X12133301Y-12656484D01*
X12133301Y-12656484D02*
X12114253Y-12646960D01*
X12295205Y-12637436D02*
X12304729Y-12646960D01*
X12304729Y-12646960D02*
X12295205Y-12656484D01*
X12295205Y-12656484D02*
X12285682Y-12646960D01*
X12285682Y-12646960D02*
X12295205Y-12637436D01*
X12295205Y-12637436D02*
X12295205Y-12656484D01*
X12295205Y-12532674D02*
X12304729Y-12542198D01*
X12304729Y-12542198D02*
X12295205Y-12551722D01*
X12295205Y-12551722D02*
X12285682Y-12542198D01*
X12285682Y-12542198D02*
X12295205Y-12532674D01*
X12295205Y-12532674D02*
X12295205Y-12551722D01*
D10*
X10583000Y-12945000D02*
X10663000Y-13025000D01*
X10663000Y-12945000D02*
X10583000Y-13025000D01*
D11*
X10961872Y-12876484D02*
X10980920Y-12876484D01*
X10980920Y-12876484D02*
X10999967Y-12886008D01*
X10999967Y-12886008D02*
X11009491Y-12895531D01*
X11009491Y-12895531D02*
X11019015Y-12914579D01*
X11019015Y-12914579D02*
X11028539Y-12952674D01*
X11028539Y-12952674D02*
X11028539Y-13000293D01*
X11028539Y-13000293D02*
X11019015Y-13038388D01*
X11019015Y-13038388D02*
X11009491Y-13057436D01*
X11009491Y-13057436D02*
X10999967Y-13066960D01*
X10999967Y-13066960D02*
X10980920Y-13076484D01*
X10980920Y-13076484D02*
X10961872Y-13076484D01*
X10961872Y-13076484D02*
X10942824Y-13066960D01*
X10942824Y-13066960D02*
X10933301Y-13057436D01*
X10933301Y-13057436D02*
X10923777Y-13038388D01*
X10923777Y-13038388D02*
X10914253Y-13000293D01*
X10914253Y-13000293D02*
X10914253Y-12952674D01*
X10914253Y-12952674D02*
X10923777Y-12914579D01*
X10923777Y-12914579D02*
X10933301Y-12895531D01*
X10933301Y-12895531D02*
X10942824Y-12886008D01*
X10942824Y-12886008D02*
X10961872Y-12876484D01*
X11114253Y-13057436D02*
X11123777Y-13066960D01*
X11123777Y-13066960D02*
X11114253Y-13076484D01*
X11114253Y-13076484D02*
X11104729Y-13066960D01*
X11104729Y-13066960D02*
X11114253Y-13057436D01*
X11114253Y-13057436D02*
X11114253Y-13076484D01*
X11238062Y-12962198D02*
X11219015Y-12952674D01*
X11219015Y-12952674D02*
X11209491Y-12943150D01*
X11209491Y-12943150D02*
X11199967Y-12924103D01*
X11199967Y-12924103D02*
X11199967Y-12914579D01*
X11199967Y-12914579D02*
X11209491Y-12895531D01*
X11209491Y-12895531D02*
X11219015Y-12886008D01*
X11219015Y-12886008D02*
X11238062Y-12876484D01*
X11238062Y-12876484D02*
X11276158Y-12876484D01*
X11276158Y-12876484D02*
X11295205Y-12886008D01*
X11295205Y-12886008D02*
X11304729Y-12895531D01*
X11304729Y-12895531D02*
X11314253Y-12914579D01*
X11314253Y-12914579D02*
X11314253Y-12924103D01*
X11314253Y-12924103D02*
X11304729Y-12943150D01*
X11304729Y-12943150D02*
X11295205Y-12952674D01*
X11295205Y-12952674D02*
X11276158Y-12962198D01*
X11276158Y-12962198D02*
X11238062Y-12962198D01*
X11238062Y-12962198D02*
X11219015Y-12971722D01*
X11219015Y-12971722D02*
X11209491Y-12981246D01*
X11209491Y-12981246D02*
X11199967Y-13000293D01*
X11199967Y-13000293D02*
X11199967Y-13038388D01*
X11199967Y-13038388D02*
X11209491Y-13057436D01*
X11209491Y-13057436D02*
X11219015Y-13066960D01*
X11219015Y-13066960D02*
X11238062Y-13076484D01*
X11238062Y-13076484D02*
X11276158Y-13076484D01*
X11276158Y-13076484D02*
X11295205Y-13066960D01*
X11295205Y-13066960D02*
X11304729Y-13057436D01*
X11304729Y-13057436D02*
X11314253Y-13038388D01*
X11314253Y-13038388D02*
X11314253Y-13000293D01*
X11314253Y-13000293D02*
X11304729Y-12981246D01*
X11304729Y-12981246D02*
X11295205Y-12971722D01*
X11295205Y-12971722D02*
X11276158Y-12962198D01*
X11438062Y-12876484D02*
X11457110Y-12876484D01*
X11457110Y-12876484D02*
X11476158Y-12886008D01*
X11476158Y-12886008D02*
X11485682Y-12895531D01*
X11485682Y-12895531D02*
X11495205Y-12914579D01*
X11495205Y-12914579D02*
X11504729Y-12952674D01*
X11504729Y-12952674D02*
X11504729Y-13000293D01*
X11504729Y-13000293D02*
X11495205Y-13038388D01*
X11495205Y-13038388D02*
X11485682Y-13057436D01*
X11485682Y-13057436D02*
X11476158Y-13066960D01*
X11476158Y-13066960D02*
X11457110Y-13076484D01*
X11457110Y-13076484D02*
X11438062Y-13076484D01*
X11438062Y-13076484D02*
X11419015Y-13066960D01*
X11419015Y-13066960D02*
X11409491Y-13057436D01*
X11409491Y-13057436D02*
X11399967Y-13038388D01*
X11399967Y-13038388D02*
X11390443Y-13000293D01*
X11390443Y-13000293D02*
X11390443Y-12952674D01*
X11390443Y-12952674D02*
X11399967Y-12914579D01*
X11399967Y-12914579D02*
X11409491Y-12895531D01*
X11409491Y-12895531D02*
X11419015Y-12886008D01*
X11419015Y-12886008D02*
X11438062Y-12876484D01*
X11628539Y-12876484D02*
X11647586Y-12876484D01*
X11647586Y-12876484D02*
X11666634Y-12886008D01*
X11666634Y-12886008D02*
X11676158Y-12895531D01*
X11676158Y-12895531D02*
X11685682Y-12914579D01*
X11685682Y-12914579D02*
X11695205Y-12952674D01*
X11695205Y-12952674D02*
X11695205Y-13000293D01*
X11695205Y-13000293D02*
X11685682Y-13038388D01*
X11685682Y-13038388D02*
X11676158Y-13057436D01*
X11676158Y-13057436D02*
X11666634Y-13066960D01*
X11666634Y-13066960D02*
X11647586Y-13076484D01*
X11647586Y-13076484D02*
X11628539Y-13076484D01*
X11628539Y-13076484D02*
X11609491Y-13066960D01*
X11609491Y-13066960D02*
X11599967Y-13057436D01*
X11599967Y-13057436D02*
X11590443Y-13038388D01*
X11590443Y-13038388D02*
X11580920Y-13000293D01*
X11580920Y-13000293D02*
X11580920Y-12952674D01*
X11580920Y-12952674D02*
X11590443Y-12914579D01*
X11590443Y-12914579D02*
X11599967Y-12895531D01*
X11599967Y-12895531D02*
X11609491Y-12886008D01*
X11609491Y-12886008D02*
X11628539Y-12876484D01*
X11780920Y-13076484D02*
X11780920Y-12943150D01*
X11780920Y-12962198D02*
X11790443Y-12952674D01*
X11790443Y-12952674D02*
X11809491Y-12943150D01*
X11809491Y-12943150D02*
X11838063Y-12943150D01*
X11838063Y-12943150D02*
X11857110Y-12952674D01*
X11857110Y-12952674D02*
X11866634Y-12971722D01*
X11866634Y-12971722D02*
X11866634Y-13076484D01*
X11866634Y-12971722D02*
X11876158Y-12952674D01*
X11876158Y-12952674D02*
X11895205Y-12943150D01*
X11895205Y-12943150D02*
X11923777Y-12943150D01*
X11923777Y-12943150D02*
X11942824Y-12952674D01*
X11942824Y-12952674D02*
X11952348Y-12971722D01*
X11952348Y-12971722D02*
X11952348Y-13076484D01*
X12047586Y-13076484D02*
X12047586Y-12943150D01*
X12047586Y-12962198D02*
X12057110Y-12952674D01*
X12057110Y-12952674D02*
X12076158Y-12943150D01*
X12076158Y-12943150D02*
X12104729Y-12943150D01*
X12104729Y-12943150D02*
X12123777Y-12952674D01*
X12123777Y-12952674D02*
X12133301Y-12971722D01*
X12133301Y-12971722D02*
X12133301Y-13076484D01*
X12133301Y-12971722D02*
X12142824Y-12952674D01*
X12142824Y-12952674D02*
X12161872Y-12943150D01*
X12161872Y-12943150D02*
X12190443Y-12943150D01*
X12190443Y-12943150D02*
X12209491Y-12952674D01*
X12209491Y-12952674D02*
X12219015Y-12971722D01*
X12219015Y-12971722D02*
X12219015Y-13076484D01*
X12609491Y-12866960D02*
X12438063Y-13124103D01*
X12866634Y-12876484D02*
X12885682Y-12876484D01*
X12885682Y-12876484D02*
X12904729Y-12886008D01*
X12904729Y-12886008D02*
X12914253Y-12895531D01*
X12914253Y-12895531D02*
X12923777Y-12914579D01*
X12923777Y-12914579D02*
X12933301Y-12952674D01*
X12933301Y-12952674D02*
X12933301Y-13000293D01*
X12933301Y-13000293D02*
X12923777Y-13038388D01*
X12923777Y-13038388D02*
X12914253Y-13057436D01*
X12914253Y-13057436D02*
X12904729Y-13066960D01*
X12904729Y-13066960D02*
X12885682Y-13076484D01*
X12885682Y-13076484D02*
X12866634Y-13076484D01*
X12866634Y-13076484D02*
X12847586Y-13066960D01*
X12847586Y-13066960D02*
X12838063Y-13057436D01*
X12838063Y-13057436D02*
X12828539Y-13038388D01*
X12828539Y-13038388D02*
X12819015Y-13000293D01*
X12819015Y-13000293D02*
X12819015Y-12952674D01*
X12819015Y-12952674D02*
X12828539Y-12914579D01*
X12828539Y-12914579D02*
X12838063Y-12895531D01*
X12838063Y-12895531D02*
X12847586Y-12886008D01*
X12847586Y-12886008D02*
X12866634Y-12876484D01*
X13019015Y-13057436D02*
X13028539Y-13066960D01*
X13028539Y-13066960D02*
X13019015Y-13076484D01*
X13019015Y-13076484D02*
X13009491Y-13066960D01*
X13009491Y-13066960D02*
X13019015Y-13057436D01*
X13019015Y-13057436D02*
X13019015Y-13076484D01*
X13152348Y-12876484D02*
X13171396Y-12876484D01*
X13171396Y-12876484D02*
X13190444Y-12886008D01*
X13190444Y-12886008D02*
X13199967Y-12895531D01*
X13199967Y-12895531D02*
X13209491Y-12914579D01*
X13209491Y-12914579D02*
X13219015Y-12952674D01*
X13219015Y-12952674D02*
X13219015Y-13000293D01*
X13219015Y-13000293D02*
X13209491Y-13038388D01*
X13209491Y-13038388D02*
X13199967Y-13057436D01*
X13199967Y-13057436D02*
X13190444Y-13066960D01*
X13190444Y-13066960D02*
X13171396Y-13076484D01*
X13171396Y-13076484D02*
X13152348Y-13076484D01*
X13152348Y-13076484D02*
X13133301Y-13066960D01*
X13133301Y-13066960D02*
X13123777Y-13057436D01*
X13123777Y-13057436D02*
X13114253Y-13038388D01*
X13114253Y-13038388D02*
X13104729Y-13000293D01*
X13104729Y-13000293D02*
X13104729Y-12952674D01*
X13104729Y-12952674D02*
X13114253Y-12914579D01*
X13114253Y-12914579D02*
X13123777Y-12895531D01*
X13123777Y-12895531D02*
X13133301Y-12886008D01*
X13133301Y-12886008D02*
X13152348Y-12876484D01*
X13285682Y-12876484D02*
X13409491Y-12876484D01*
X13409491Y-12876484D02*
X13342825Y-12952674D01*
X13342825Y-12952674D02*
X13371396Y-12952674D01*
X13371396Y-12952674D02*
X13390444Y-12962198D01*
X13390444Y-12962198D02*
X13399967Y-12971722D01*
X13399967Y-12971722D02*
X13409491Y-12990769D01*
X13409491Y-12990769D02*
X13409491Y-13038388D01*
X13409491Y-13038388D02*
X13399967Y-13057436D01*
X13399967Y-13057436D02*
X13390444Y-13066960D01*
X13390444Y-13066960D02*
X13371396Y-13076484D01*
X13371396Y-13076484D02*
X13314253Y-13076484D01*
X13314253Y-13076484D02*
X13295206Y-13066960D01*
X13295206Y-13066960D02*
X13285682Y-13057436D01*
X13599967Y-13076484D02*
X13485682Y-13076484D01*
X13542825Y-13076484D02*
X13542825Y-12876484D01*
X13542825Y-12876484D02*
X13523777Y-12905055D01*
X13523777Y-12905055D02*
X13504729Y-12924103D01*
X13504729Y-12924103D02*
X13485682Y-12933627D01*
X13780920Y-12876484D02*
X13685682Y-12876484D01*
X13685682Y-12876484D02*
X13676158Y-12971722D01*
X13676158Y-12971722D02*
X13685682Y-12962198D01*
X13685682Y-12962198D02*
X13704729Y-12952674D01*
X13704729Y-12952674D02*
X13752348Y-12952674D01*
X13752348Y-12952674D02*
X13771396Y-12962198D01*
X13771396Y-12962198D02*
X13780920Y-12971722D01*
X13780920Y-12971722D02*
X13790444Y-12990769D01*
X13790444Y-12990769D02*
X13790444Y-13038388D01*
X13790444Y-13038388D02*
X13780920Y-13057436D01*
X13780920Y-13057436D02*
X13771396Y-13066960D01*
X13771396Y-13066960D02*
X13752348Y-13076484D01*
X13752348Y-13076484D02*
X13704729Y-13076484D01*
X13704729Y-13076484D02*
X13685682Y-13066960D01*
X13685682Y-13066960D02*
X13676158Y-13057436D01*
X13866634Y-12876484D02*
X13866634Y-12914579D01*
X13942825Y-12876484D02*
X13942825Y-12914579D01*
X14238063Y-13152674D02*
X14228539Y-13143150D01*
X14228539Y-13143150D02*
X14209491Y-13114579D01*
X14209491Y-13114579D02*
X14199968Y-13095531D01*
X14199968Y-13095531D02*
X14190444Y-13066960D01*
X14190444Y-13066960D02*
X14180920Y-13019341D01*
X14180920Y-13019341D02*
X14180920Y-12981246D01*
X14180920Y-12981246D02*
X14190444Y-12933627D01*
X14190444Y-12933627D02*
X14199968Y-12905055D01*
X14199968Y-12905055D02*
X14209491Y-12886008D01*
X14209491Y-12886008D02*
X14228539Y-12857436D01*
X14228539Y-12857436D02*
X14238063Y-12847912D01*
X14419015Y-13076484D02*
X14304729Y-13076484D01*
X14361872Y-13076484D02*
X14361872Y-12876484D01*
X14361872Y-12876484D02*
X14342825Y-12905055D01*
X14342825Y-12905055D02*
X14323777Y-12924103D01*
X14323777Y-12924103D02*
X14304729Y-12933627D01*
X14533301Y-12962198D02*
X14514253Y-12952674D01*
X14514253Y-12952674D02*
X14504729Y-12943150D01*
X14504729Y-12943150D02*
X14495206Y-12924103D01*
X14495206Y-12924103D02*
X14495206Y-12914579D01*
X14495206Y-12914579D02*
X14504729Y-12895531D01*
X14504729Y-12895531D02*
X14514253Y-12886008D01*
X14514253Y-12886008D02*
X14533301Y-12876484D01*
X14533301Y-12876484D02*
X14571396Y-12876484D01*
X14571396Y-12876484D02*
X14590444Y-12886008D01*
X14590444Y-12886008D02*
X14599968Y-12895531D01*
X14599968Y-12895531D02*
X14609491Y-12914579D01*
X14609491Y-12914579D02*
X14609491Y-12924103D01*
X14609491Y-12924103D02*
X14599968Y-12943150D01*
X14599968Y-12943150D02*
X14590444Y-12952674D01*
X14590444Y-12952674D02*
X14571396Y-12962198D01*
X14571396Y-12962198D02*
X14533301Y-12962198D01*
X14533301Y-12962198D02*
X14514253Y-12971722D01*
X14514253Y-12971722D02*
X14504729Y-12981246D01*
X14504729Y-12981246D02*
X14495206Y-13000293D01*
X14495206Y-13000293D02*
X14495206Y-13038388D01*
X14495206Y-13038388D02*
X14504729Y-13057436D01*
X14504729Y-13057436D02*
X14514253Y-13066960D01*
X14514253Y-13066960D02*
X14533301Y-13076484D01*
X14533301Y-13076484D02*
X14571396Y-13076484D01*
X14571396Y-13076484D02*
X14590444Y-13066960D01*
X14590444Y-13066960D02*
X14599968Y-13057436D01*
X14599968Y-13057436D02*
X14609491Y-13038388D01*
X14609491Y-13038388D02*
X14609491Y-13000293D01*
X14609491Y-13000293D02*
X14599968Y-12981246D01*
X14599968Y-12981246D02*
X14590444Y-12971722D01*
X14590444Y-12971722D02*
X14571396Y-12962198D01*
X14847587Y-13076484D02*
X14847587Y-12876484D01*
X14933301Y-13076484D02*
X14933301Y-12971722D01*
X14933301Y-12971722D02*
X14923777Y-12952674D01*
X14923777Y-12952674D02*
X14904730Y-12943150D01*
X14904730Y-12943150D02*
X14876158Y-12943150D01*
X14876158Y-12943150D02*
X14857110Y-12952674D01*
X14857110Y-12952674D02*
X14847587Y-12962198D01*
X15057110Y-13076484D02*
X15038063Y-13066960D01*
X15038063Y-13066960D02*
X15028539Y-13057436D01*
X15028539Y-13057436D02*
X15019015Y-13038388D01*
X15019015Y-13038388D02*
X15019015Y-12981246D01*
X15019015Y-12981246D02*
X15028539Y-12962198D01*
X15028539Y-12962198D02*
X15038063Y-12952674D01*
X15038063Y-12952674D02*
X15057110Y-12943150D01*
X15057110Y-12943150D02*
X15085682Y-12943150D01*
X15085682Y-12943150D02*
X15104730Y-12952674D01*
X15104730Y-12952674D02*
X15114253Y-12962198D01*
X15114253Y-12962198D02*
X15123777Y-12981246D01*
X15123777Y-12981246D02*
X15123777Y-13038388D01*
X15123777Y-13038388D02*
X15114253Y-13057436D01*
X15114253Y-13057436D02*
X15104730Y-13066960D01*
X15104730Y-13066960D02*
X15085682Y-13076484D01*
X15085682Y-13076484D02*
X15057110Y-13076484D01*
X15238063Y-13076484D02*
X15219015Y-13066960D01*
X15219015Y-13066960D02*
X15209491Y-13047912D01*
X15209491Y-13047912D02*
X15209491Y-12876484D01*
X15390444Y-13066960D02*
X15371396Y-13076484D01*
X15371396Y-13076484D02*
X15333301Y-13076484D01*
X15333301Y-13076484D02*
X15314253Y-13066960D01*
X15314253Y-13066960D02*
X15304730Y-13047912D01*
X15304730Y-13047912D02*
X15304730Y-12971722D01*
X15304730Y-12971722D02*
X15314253Y-12952674D01*
X15314253Y-12952674D02*
X15333301Y-12943150D01*
X15333301Y-12943150D02*
X15371396Y-12943150D01*
X15371396Y-12943150D02*
X15390444Y-12952674D01*
X15390444Y-12952674D02*
X15399968Y-12971722D01*
X15399968Y-12971722D02*
X15399968Y-12990769D01*
X15399968Y-12990769D02*
X15304730Y-13009817D01*
X15476158Y-13066960D02*
X15495206Y-13076484D01*
X15495206Y-13076484D02*
X15533301Y-13076484D01*
X15533301Y-13076484D02*
X15552349Y-13066960D01*
X15552349Y-13066960D02*
X15561872Y-13047912D01*
X15561872Y-13047912D02*
X15561872Y-13038388D01*
X15561872Y-13038388D02*
X15552349Y-13019341D01*
X15552349Y-13019341D02*
X15533301Y-13009817D01*
X15533301Y-13009817D02*
X15504730Y-13009817D01*
X15504730Y-13009817D02*
X15485682Y-13000293D01*
X15485682Y-13000293D02*
X15476158Y-12981246D01*
X15476158Y-12981246D02*
X15476158Y-12971722D01*
X15476158Y-12971722D02*
X15485682Y-12952674D01*
X15485682Y-12952674D02*
X15504730Y-12943150D01*
X15504730Y-12943150D02*
X15533301Y-12943150D01*
X15533301Y-12943150D02*
X15552349Y-12952674D01*
X15628539Y-13152674D02*
X15638063Y-13143150D01*
X15638063Y-13143150D02*
X15657111Y-13114579D01*
X15657111Y-13114579D02*
X15666634Y-13095531D01*
X15666634Y-13095531D02*
X15676158Y-13066960D01*
X15676158Y-13066960D02*
X15685682Y-13019341D01*
X15685682Y-13019341D02*
X15685682Y-12981246D01*
X15685682Y-12981246D02*
X15676158Y-12933627D01*
X15676158Y-12933627D02*
X15666634Y-12905055D01*
X15666634Y-12905055D02*
X15657111Y-12886008D01*
X15657111Y-12886008D02*
X15638063Y-12857436D01*
X15638063Y-12857436D02*
X15628539Y-12847912D01*
D10*
X10663000Y-13249000D02*
G75*
G03*
X10563000Y-13249000I-50000J0D01*
G01*
X10563000Y-13249000D02*
G75*
G03*
X10663000Y-13249000I50000J0D01*
G01*
D11*
X11028539Y-13340484D02*
X10914253Y-13340484D01*
X10971396Y-13340484D02*
X10971396Y-13140484D01*
X10971396Y-13140484D02*
X10952348Y-13169055D01*
X10952348Y-13169055D02*
X10933301Y-13188103D01*
X10933301Y-13188103D02*
X10914253Y-13197627D01*
X11114253Y-13321436D02*
X11123777Y-13330960D01*
X11123777Y-13330960D02*
X11114253Y-13340484D01*
X11114253Y-13340484D02*
X11104729Y-13330960D01*
X11104729Y-13330960D02*
X11114253Y-13321436D01*
X11114253Y-13321436D02*
X11114253Y-13340484D01*
X11247586Y-13140484D02*
X11266634Y-13140484D01*
X11266634Y-13140484D02*
X11285682Y-13150008D01*
X11285682Y-13150008D02*
X11295205Y-13159531D01*
X11295205Y-13159531D02*
X11304729Y-13178579D01*
X11304729Y-13178579D02*
X11314253Y-13216674D01*
X11314253Y-13216674D02*
X11314253Y-13264293D01*
X11314253Y-13264293D02*
X11304729Y-13302388D01*
X11304729Y-13302388D02*
X11295205Y-13321436D01*
X11295205Y-13321436D02*
X11285682Y-13330960D01*
X11285682Y-13330960D02*
X11266634Y-13340484D01*
X11266634Y-13340484D02*
X11247586Y-13340484D01*
X11247586Y-13340484D02*
X11228539Y-13330960D01*
X11228539Y-13330960D02*
X11219015Y-13321436D01*
X11219015Y-13321436D02*
X11209491Y-13302388D01*
X11209491Y-13302388D02*
X11199967Y-13264293D01*
X11199967Y-13264293D02*
X11199967Y-13216674D01*
X11199967Y-13216674D02*
X11209491Y-13178579D01*
X11209491Y-13178579D02*
X11219015Y-13159531D01*
X11219015Y-13159531D02*
X11228539Y-13150008D01*
X11228539Y-13150008D02*
X11247586Y-13140484D01*
X11438062Y-13140484D02*
X11457110Y-13140484D01*
X11457110Y-13140484D02*
X11476158Y-13150008D01*
X11476158Y-13150008D02*
X11485682Y-13159531D01*
X11485682Y-13159531D02*
X11495205Y-13178579D01*
X11495205Y-13178579D02*
X11504729Y-13216674D01*
X11504729Y-13216674D02*
X11504729Y-13264293D01*
X11504729Y-13264293D02*
X11495205Y-13302388D01*
X11495205Y-13302388D02*
X11485682Y-13321436D01*
X11485682Y-13321436D02*
X11476158Y-13330960D01*
X11476158Y-13330960D02*
X11457110Y-13340484D01*
X11457110Y-13340484D02*
X11438062Y-13340484D01*
X11438062Y-13340484D02*
X11419015Y-13330960D01*
X11419015Y-13330960D02*
X11409491Y-13321436D01*
X11409491Y-13321436D02*
X11399967Y-13302388D01*
X11399967Y-13302388D02*
X11390443Y-13264293D01*
X11390443Y-13264293D02*
X11390443Y-13216674D01*
X11390443Y-13216674D02*
X11399967Y-13178579D01*
X11399967Y-13178579D02*
X11409491Y-13159531D01*
X11409491Y-13159531D02*
X11419015Y-13150008D01*
X11419015Y-13150008D02*
X11438062Y-13140484D01*
X11628539Y-13140484D02*
X11647586Y-13140484D01*
X11647586Y-13140484D02*
X11666634Y-13150008D01*
X11666634Y-13150008D02*
X11676158Y-13159531D01*
X11676158Y-13159531D02*
X11685682Y-13178579D01*
X11685682Y-13178579D02*
X11695205Y-13216674D01*
X11695205Y-13216674D02*
X11695205Y-13264293D01*
X11695205Y-13264293D02*
X11685682Y-13302388D01*
X11685682Y-13302388D02*
X11676158Y-13321436D01*
X11676158Y-13321436D02*
X11666634Y-13330960D01*
X11666634Y-13330960D02*
X11647586Y-13340484D01*
X11647586Y-13340484D02*
X11628539Y-13340484D01*
X11628539Y-13340484D02*
X11609491Y-13330960D01*
X11609491Y-13330960D02*
X11599967Y-13321436D01*
X11599967Y-13321436D02*
X11590443Y-13302388D01*
X11590443Y-13302388D02*
X11580920Y-13264293D01*
X11580920Y-13264293D02*
X11580920Y-13216674D01*
X11580920Y-13216674D02*
X11590443Y-13178579D01*
X11590443Y-13178579D02*
X11599967Y-13159531D01*
X11599967Y-13159531D02*
X11609491Y-13150008D01*
X11609491Y-13150008D02*
X11628539Y-13140484D01*
X11780920Y-13340484D02*
X11780920Y-13207150D01*
X11780920Y-13226198D02*
X11790443Y-13216674D01*
X11790443Y-13216674D02*
X11809491Y-13207150D01*
X11809491Y-13207150D02*
X11838063Y-13207150D01*
X11838063Y-13207150D02*
X11857110Y-13216674D01*
X11857110Y-13216674D02*
X11866634Y-13235722D01*
X11866634Y-13235722D02*
X11866634Y-13340484D01*
X11866634Y-13235722D02*
X11876158Y-13216674D01*
X11876158Y-13216674D02*
X11895205Y-13207150D01*
X11895205Y-13207150D02*
X11923777Y-13207150D01*
X11923777Y-13207150D02*
X11942824Y-13216674D01*
X11942824Y-13216674D02*
X11952348Y-13235722D01*
X11952348Y-13235722D02*
X11952348Y-13340484D01*
X12047586Y-13340484D02*
X12047586Y-13207150D01*
X12047586Y-13226198D02*
X12057110Y-13216674D01*
X12057110Y-13216674D02*
X12076158Y-13207150D01*
X12076158Y-13207150D02*
X12104729Y-13207150D01*
X12104729Y-13207150D02*
X12123777Y-13216674D01*
X12123777Y-13216674D02*
X12133301Y-13235722D01*
X12133301Y-13235722D02*
X12133301Y-13340484D01*
X12133301Y-13235722D02*
X12142824Y-13216674D01*
X12142824Y-13216674D02*
X12161872Y-13207150D01*
X12161872Y-13207150D02*
X12190443Y-13207150D01*
X12190443Y-13207150D02*
X12209491Y-13216674D01*
X12209491Y-13216674D02*
X12219015Y-13235722D01*
X12219015Y-13235722D02*
X12219015Y-13340484D01*
X12609491Y-13130960D02*
X12438063Y-13388103D01*
X12866634Y-13140484D02*
X12885682Y-13140484D01*
X12885682Y-13140484D02*
X12904729Y-13150008D01*
X12904729Y-13150008D02*
X12914253Y-13159531D01*
X12914253Y-13159531D02*
X12923777Y-13178579D01*
X12923777Y-13178579D02*
X12933301Y-13216674D01*
X12933301Y-13216674D02*
X12933301Y-13264293D01*
X12933301Y-13264293D02*
X12923777Y-13302388D01*
X12923777Y-13302388D02*
X12914253Y-13321436D01*
X12914253Y-13321436D02*
X12904729Y-13330960D01*
X12904729Y-13330960D02*
X12885682Y-13340484D01*
X12885682Y-13340484D02*
X12866634Y-13340484D01*
X12866634Y-13340484D02*
X12847586Y-13330960D01*
X12847586Y-13330960D02*
X12838063Y-13321436D01*
X12838063Y-13321436D02*
X12828539Y-13302388D01*
X12828539Y-13302388D02*
X12819015Y-13264293D01*
X12819015Y-13264293D02*
X12819015Y-13216674D01*
X12819015Y-13216674D02*
X12828539Y-13178579D01*
X12828539Y-13178579D02*
X12838063Y-13159531D01*
X12838063Y-13159531D02*
X12847586Y-13150008D01*
X12847586Y-13150008D02*
X12866634Y-13140484D01*
X13019015Y-13321436D02*
X13028539Y-13330960D01*
X13028539Y-13330960D02*
X13019015Y-13340484D01*
X13019015Y-13340484D02*
X13009491Y-13330960D01*
X13009491Y-13330960D02*
X13019015Y-13321436D01*
X13019015Y-13321436D02*
X13019015Y-13340484D01*
X13152348Y-13140484D02*
X13171396Y-13140484D01*
X13171396Y-13140484D02*
X13190444Y-13150008D01*
X13190444Y-13150008D02*
X13199967Y-13159531D01*
X13199967Y-13159531D02*
X13209491Y-13178579D01*
X13209491Y-13178579D02*
X13219015Y-13216674D01*
X13219015Y-13216674D02*
X13219015Y-13264293D01*
X13219015Y-13264293D02*
X13209491Y-13302388D01*
X13209491Y-13302388D02*
X13199967Y-13321436D01*
X13199967Y-13321436D02*
X13190444Y-13330960D01*
X13190444Y-13330960D02*
X13171396Y-13340484D01*
X13171396Y-13340484D02*
X13152348Y-13340484D01*
X13152348Y-13340484D02*
X13133301Y-13330960D01*
X13133301Y-13330960D02*
X13123777Y-13321436D01*
X13123777Y-13321436D02*
X13114253Y-13302388D01*
X13114253Y-13302388D02*
X13104729Y-13264293D01*
X13104729Y-13264293D02*
X13104729Y-13216674D01*
X13104729Y-13216674D02*
X13114253Y-13178579D01*
X13114253Y-13178579D02*
X13123777Y-13159531D01*
X13123777Y-13159531D02*
X13133301Y-13150008D01*
X13133301Y-13150008D02*
X13152348Y-13140484D01*
X13285682Y-13140484D02*
X13409491Y-13140484D01*
X13409491Y-13140484D02*
X13342825Y-13216674D01*
X13342825Y-13216674D02*
X13371396Y-13216674D01*
X13371396Y-13216674D02*
X13390444Y-13226198D01*
X13390444Y-13226198D02*
X13399967Y-13235722D01*
X13399967Y-13235722D02*
X13409491Y-13254769D01*
X13409491Y-13254769D02*
X13409491Y-13302388D01*
X13409491Y-13302388D02*
X13399967Y-13321436D01*
X13399967Y-13321436D02*
X13390444Y-13330960D01*
X13390444Y-13330960D02*
X13371396Y-13340484D01*
X13371396Y-13340484D02*
X13314253Y-13340484D01*
X13314253Y-13340484D02*
X13295206Y-13330960D01*
X13295206Y-13330960D02*
X13285682Y-13321436D01*
X13504729Y-13340484D02*
X13542825Y-13340484D01*
X13542825Y-13340484D02*
X13561872Y-13330960D01*
X13561872Y-13330960D02*
X13571396Y-13321436D01*
X13571396Y-13321436D02*
X13590444Y-13292865D01*
X13590444Y-13292865D02*
X13599967Y-13254769D01*
X13599967Y-13254769D02*
X13599967Y-13178579D01*
X13599967Y-13178579D02*
X13590444Y-13159531D01*
X13590444Y-13159531D02*
X13580920Y-13150008D01*
X13580920Y-13150008D02*
X13561872Y-13140484D01*
X13561872Y-13140484D02*
X13523777Y-13140484D01*
X13523777Y-13140484D02*
X13504729Y-13150008D01*
X13504729Y-13150008D02*
X13495206Y-13159531D01*
X13495206Y-13159531D02*
X13485682Y-13178579D01*
X13485682Y-13178579D02*
X13485682Y-13226198D01*
X13485682Y-13226198D02*
X13495206Y-13245246D01*
X13495206Y-13245246D02*
X13504729Y-13254769D01*
X13504729Y-13254769D02*
X13523777Y-13264293D01*
X13523777Y-13264293D02*
X13561872Y-13264293D01*
X13561872Y-13264293D02*
X13580920Y-13254769D01*
X13580920Y-13254769D02*
X13590444Y-13245246D01*
X13590444Y-13245246D02*
X13599967Y-13226198D01*
X13771396Y-13207150D02*
X13771396Y-13340484D01*
X13723777Y-13130960D02*
X13676158Y-13273817D01*
X13676158Y-13273817D02*
X13799967Y-13273817D01*
X13866634Y-13140484D02*
X13866634Y-13178579D01*
X13942825Y-13140484D02*
X13942825Y-13178579D01*
X14238063Y-13416674D02*
X14228539Y-13407150D01*
X14228539Y-13407150D02*
X14209491Y-13378579D01*
X14209491Y-13378579D02*
X14199968Y-13359531D01*
X14199968Y-13359531D02*
X14190444Y-13330960D01*
X14190444Y-13330960D02*
X14180920Y-13283341D01*
X14180920Y-13283341D02*
X14180920Y-13245246D01*
X14180920Y-13245246D02*
X14190444Y-13197627D01*
X14190444Y-13197627D02*
X14199968Y-13169055D01*
X14199968Y-13169055D02*
X14209491Y-13150008D01*
X14209491Y-13150008D02*
X14228539Y-13121436D01*
X14228539Y-13121436D02*
X14238063Y-13111912D01*
X14295206Y-13140484D02*
X14419015Y-13140484D01*
X14419015Y-13140484D02*
X14352348Y-13216674D01*
X14352348Y-13216674D02*
X14380920Y-13216674D01*
X14380920Y-13216674D02*
X14399968Y-13226198D01*
X14399968Y-13226198D02*
X14409491Y-13235722D01*
X14409491Y-13235722D02*
X14419015Y-13254769D01*
X14419015Y-13254769D02*
X14419015Y-13302388D01*
X14419015Y-13302388D02*
X14409491Y-13321436D01*
X14409491Y-13321436D02*
X14399968Y-13330960D01*
X14399968Y-13330960D02*
X14380920Y-13340484D01*
X14380920Y-13340484D02*
X14323777Y-13340484D01*
X14323777Y-13340484D02*
X14304729Y-13330960D01*
X14304729Y-13330960D02*
X14295206Y-13321436D01*
X14590444Y-13140484D02*
X14552348Y-13140484D01*
X14552348Y-13140484D02*
X14533301Y-13150008D01*
X14533301Y-13150008D02*
X14523777Y-13159531D01*
X14523777Y-13159531D02*
X14504729Y-13188103D01*
X14504729Y-13188103D02*
X14495206Y-13226198D01*
X14495206Y-13226198D02*
X14495206Y-13302388D01*
X14495206Y-13302388D02*
X14504729Y-13321436D01*
X14504729Y-13321436D02*
X14514253Y-13330960D01*
X14514253Y-13330960D02*
X14533301Y-13340484D01*
X14533301Y-13340484D02*
X14571396Y-13340484D01*
X14571396Y-13340484D02*
X14590444Y-13330960D01*
X14590444Y-13330960D02*
X14599968Y-13321436D01*
X14599968Y-13321436D02*
X14609491Y-13302388D01*
X14609491Y-13302388D02*
X14609491Y-13254769D01*
X14609491Y-13254769D02*
X14599968Y-13235722D01*
X14599968Y-13235722D02*
X14590444Y-13226198D01*
X14590444Y-13226198D02*
X14571396Y-13216674D01*
X14571396Y-13216674D02*
X14533301Y-13216674D01*
X14533301Y-13216674D02*
X14514253Y-13226198D01*
X14514253Y-13226198D02*
X14504729Y-13235722D01*
X14504729Y-13235722D02*
X14495206Y-13254769D01*
X14847587Y-13340484D02*
X14847587Y-13140484D01*
X14933301Y-13340484D02*
X14933301Y-13235722D01*
X14933301Y-13235722D02*
X14923777Y-13216674D01*
X14923777Y-13216674D02*
X14904730Y-13207150D01*
X14904730Y-13207150D02*
X14876158Y-13207150D01*
X14876158Y-13207150D02*
X14857110Y-13216674D01*
X14857110Y-13216674D02*
X14847587Y-13226198D01*
X15057110Y-13340484D02*
X15038063Y-13330960D01*
X15038063Y-13330960D02*
X15028539Y-13321436D01*
X15028539Y-13321436D02*
X15019015Y-13302388D01*
X15019015Y-13302388D02*
X15019015Y-13245246D01*
X15019015Y-13245246D02*
X15028539Y-13226198D01*
X15028539Y-13226198D02*
X15038063Y-13216674D01*
X15038063Y-13216674D02*
X15057110Y-13207150D01*
X15057110Y-13207150D02*
X15085682Y-13207150D01*
X15085682Y-13207150D02*
X15104730Y-13216674D01*
X15104730Y-13216674D02*
X15114253Y-13226198D01*
X15114253Y-13226198D02*
X15123777Y-13245246D01*
X15123777Y-13245246D02*
X15123777Y-13302388D01*
X15123777Y-13302388D02*
X15114253Y-13321436D01*
X15114253Y-13321436D02*
X15104730Y-13330960D01*
X15104730Y-13330960D02*
X15085682Y-13340484D01*
X15085682Y-13340484D02*
X15057110Y-13340484D01*
X15238063Y-13340484D02*
X15219015Y-13330960D01*
X15219015Y-13330960D02*
X15209491Y-13311912D01*
X15209491Y-13311912D02*
X15209491Y-13140484D01*
X15390444Y-13330960D02*
X15371396Y-13340484D01*
X15371396Y-13340484D02*
X15333301Y-13340484D01*
X15333301Y-13340484D02*
X15314253Y-13330960D01*
X15314253Y-13330960D02*
X15304730Y-13311912D01*
X15304730Y-13311912D02*
X15304730Y-13235722D01*
X15304730Y-13235722D02*
X15314253Y-13216674D01*
X15314253Y-13216674D02*
X15333301Y-13207150D01*
X15333301Y-13207150D02*
X15371396Y-13207150D01*
X15371396Y-13207150D02*
X15390444Y-13216674D01*
X15390444Y-13216674D02*
X15399968Y-13235722D01*
X15399968Y-13235722D02*
X15399968Y-13254769D01*
X15399968Y-13254769D02*
X15304730Y-13273817D01*
X15476158Y-13330960D02*
X15495206Y-13340484D01*
X15495206Y-13340484D02*
X15533301Y-13340484D01*
X15533301Y-13340484D02*
X15552349Y-13330960D01*
X15552349Y-13330960D02*
X15561872Y-13311912D01*
X15561872Y-13311912D02*
X15561872Y-13302388D01*
X15561872Y-13302388D02*
X15552349Y-13283341D01*
X15552349Y-13283341D02*
X15533301Y-13273817D01*
X15533301Y-13273817D02*
X15504730Y-13273817D01*
X15504730Y-13273817D02*
X15485682Y-13264293D01*
X15485682Y-13264293D02*
X15476158Y-13245246D01*
X15476158Y-13245246D02*
X15476158Y-13235722D01*
X15476158Y-13235722D02*
X15485682Y-13216674D01*
X15485682Y-13216674D02*
X15504730Y-13207150D01*
X15504730Y-13207150D02*
X15533301Y-13207150D01*
X15533301Y-13207150D02*
X15552349Y-13216674D01*
X15799968Y-13264293D02*
X15952349Y-13264293D01*
X15876158Y-13340484D02*
X15876158Y-13188103D01*
X16180920Y-13140484D02*
X16304730Y-13140484D01*
X16304730Y-13140484D02*
X16238063Y-13216674D01*
X16238063Y-13216674D02*
X16266634Y-13216674D01*
X16266634Y-13216674D02*
X16285682Y-13226198D01*
X16285682Y-13226198D02*
X16295206Y-13235722D01*
X16295206Y-13235722D02*
X16304730Y-13254769D01*
X16304730Y-13254769D02*
X16304730Y-13302388D01*
X16304730Y-13302388D02*
X16295206Y-13321436D01*
X16295206Y-13321436D02*
X16285682Y-13330960D01*
X16285682Y-13330960D02*
X16266634Y-13340484D01*
X16266634Y-13340484D02*
X16209492Y-13340484D01*
X16209492Y-13340484D02*
X16190444Y-13330960D01*
X16190444Y-13330960D02*
X16180920Y-13321436D01*
X16533301Y-13330960D02*
X16552349Y-13340484D01*
X16552349Y-13340484D02*
X16590444Y-13340484D01*
X16590444Y-13340484D02*
X16609492Y-13330960D01*
X16609492Y-13330960D02*
X16619015Y-13311912D01*
X16619015Y-13311912D02*
X16619015Y-13302388D01*
X16619015Y-13302388D02*
X16609492Y-13283341D01*
X16609492Y-13283341D02*
X16590444Y-13273817D01*
X16590444Y-13273817D02*
X16561873Y-13273817D01*
X16561873Y-13273817D02*
X16542825Y-13264293D01*
X16542825Y-13264293D02*
X16533301Y-13245246D01*
X16533301Y-13245246D02*
X16533301Y-13235722D01*
X16533301Y-13235722D02*
X16542825Y-13216674D01*
X16542825Y-13216674D02*
X16561873Y-13207150D01*
X16561873Y-13207150D02*
X16590444Y-13207150D01*
X16590444Y-13207150D02*
X16609492Y-13216674D01*
X16733301Y-13340484D02*
X16714254Y-13330960D01*
X16714254Y-13330960D02*
X16704730Y-13311912D01*
X16704730Y-13311912D02*
X16704730Y-13140484D01*
X16838063Y-13340484D02*
X16819016Y-13330960D01*
X16819016Y-13330960D02*
X16809492Y-13321436D01*
X16809492Y-13321436D02*
X16799968Y-13302388D01*
X16799968Y-13302388D02*
X16799968Y-13245246D01*
X16799968Y-13245246D02*
X16809492Y-13226198D01*
X16809492Y-13226198D02*
X16819016Y-13216674D01*
X16819016Y-13216674D02*
X16838063Y-13207150D01*
X16838063Y-13207150D02*
X16866635Y-13207150D01*
X16866635Y-13207150D02*
X16885682Y-13216674D01*
X16885682Y-13216674D02*
X16895206Y-13226198D01*
X16895206Y-13226198D02*
X16904730Y-13245246D01*
X16904730Y-13245246D02*
X16904730Y-13302388D01*
X16904730Y-13302388D02*
X16895206Y-13321436D01*
X16895206Y-13321436D02*
X16885682Y-13330960D01*
X16885682Y-13330960D02*
X16866635Y-13340484D01*
X16866635Y-13340484D02*
X16838063Y-13340484D01*
X16961873Y-13207150D02*
X17038063Y-13207150D01*
X16990444Y-13140484D02*
X16990444Y-13311912D01*
X16990444Y-13311912D02*
X16999968Y-13330960D01*
X16999968Y-13330960D02*
X17019016Y-13340484D01*
X17019016Y-13340484D02*
X17038063Y-13340484D01*
X17095206Y-13330960D02*
X17114254Y-13340484D01*
X17114254Y-13340484D02*
X17152349Y-13340484D01*
X17152349Y-13340484D02*
X17171397Y-13330960D01*
X17171397Y-13330960D02*
X17180920Y-13311912D01*
X17180920Y-13311912D02*
X17180920Y-13302388D01*
X17180920Y-13302388D02*
X17171397Y-13283341D01*
X17171397Y-13283341D02*
X17152349Y-13273817D01*
X17152349Y-13273817D02*
X17123777Y-13273817D01*
X17123777Y-13273817D02*
X17104730Y-13264293D01*
X17104730Y-13264293D02*
X17095206Y-13245246D01*
X17095206Y-13245246D02*
X17095206Y-13235722D01*
X17095206Y-13235722D02*
X17104730Y-13216674D01*
X17104730Y-13216674D02*
X17123777Y-13207150D01*
X17123777Y-13207150D02*
X17152349Y-13207150D01*
X17152349Y-13207150D02*
X17171397Y-13216674D01*
X17247587Y-13416674D02*
X17257111Y-13407150D01*
X17257111Y-13407150D02*
X17276158Y-13378579D01*
X17276158Y-13378579D02*
X17285682Y-13359531D01*
X17285682Y-13359531D02*
X17295206Y-13330960D01*
X17295206Y-13330960D02*
X17304730Y-13283341D01*
X17304730Y-13283341D02*
X17304730Y-13245246D01*
X17304730Y-13245246D02*
X17295206Y-13197627D01*
X17295206Y-13197627D02*
X17285682Y-13169055D01*
X17285682Y-13169055D02*
X17276158Y-13150008D01*
X17276158Y-13150008D02*
X17257111Y-13121436D01*
X17257111Y-13121436D02*
X17247587Y-13111912D01*
M02*
