%TF.GenerationSoftware,KiCad,Pcbnew,7.0.10*%
%TF.CreationDate,2024-01-30T03:11:26-09:00*%
%TF.ProjectId,CustomPCB,43757374-6f6d-4504-9342-2e6b69636164,rev?*%
%TF.SameCoordinates,Original*%
%TF.FileFunction,Legend,Top*%
%TF.FilePolarity,Positive*%
%FSLAX46Y46*%
G04 Gerber Fmt 4.6, Leading zero omitted, Abs format (unit mm)*
G04 Created by KiCad (PCBNEW 7.0.10) date 2024-01-30 03:11:26*
%MOMM*%
%LPD*%
G01*
G04 APERTURE LIST*
%ADD10C,0.600000*%
%ADD11C,0.150000*%
%ADD12C,0.120000*%
G04 APERTURE END LIST*
D10*
X118306164Y-71328085D02*
X118306164Y-74970942D01*
X118306164Y-74970942D02*
X118520450Y-75399514D01*
X118520450Y-75399514D02*
X118734736Y-75613800D01*
X118734736Y-75613800D02*
X119163307Y-75828085D01*
X119163307Y-75828085D02*
X120020450Y-75828085D01*
X120020450Y-75828085D02*
X120449021Y-75613800D01*
X120449021Y-75613800D02*
X120663307Y-75399514D01*
X120663307Y-75399514D02*
X120877593Y-74970942D01*
X120877593Y-74970942D02*
X120877593Y-71328085D01*
X122806164Y-74542371D02*
X124949022Y-74542371D01*
X122377593Y-75828085D02*
X123877593Y-71328085D01*
X123877593Y-71328085D02*
X125377593Y-75828085D01*
X126663307Y-74542371D02*
X128806165Y-74542371D01*
X126234736Y-75828085D02*
X127734736Y-71328085D01*
X127734736Y-71328085D02*
X129234736Y-75828085D01*
X136734736Y-75828085D02*
X135234736Y-73685228D01*
X134163307Y-75828085D02*
X134163307Y-71328085D01*
X134163307Y-71328085D02*
X135877593Y-71328085D01*
X135877593Y-71328085D02*
X136306164Y-71542371D01*
X136306164Y-71542371D02*
X136520450Y-71756657D01*
X136520450Y-71756657D02*
X136734736Y-72185228D01*
X136734736Y-72185228D02*
X136734736Y-72828085D01*
X136734736Y-72828085D02*
X136520450Y-73256657D01*
X136520450Y-73256657D02*
X136306164Y-73470942D01*
X136306164Y-73470942D02*
X135877593Y-73685228D01*
X135877593Y-73685228D02*
X134163307Y-73685228D01*
X139520450Y-71328085D02*
X140377593Y-71328085D01*
X140377593Y-71328085D02*
X140806164Y-71542371D01*
X140806164Y-71542371D02*
X141234736Y-71970942D01*
X141234736Y-71970942D02*
X141449021Y-72828085D01*
X141449021Y-72828085D02*
X141449021Y-74328085D01*
X141449021Y-74328085D02*
X141234736Y-75185228D01*
X141234736Y-75185228D02*
X140806164Y-75613800D01*
X140806164Y-75613800D02*
X140377593Y-75828085D01*
X140377593Y-75828085D02*
X139520450Y-75828085D01*
X139520450Y-75828085D02*
X139091879Y-75613800D01*
X139091879Y-75613800D02*
X138663307Y-75185228D01*
X138663307Y-75185228D02*
X138449021Y-74328085D01*
X138449021Y-74328085D02*
X138449021Y-72828085D01*
X138449021Y-72828085D02*
X138663307Y-71970942D01*
X138663307Y-71970942D02*
X139091879Y-71542371D01*
X139091879Y-71542371D02*
X139520450Y-71328085D01*
X144877593Y-73470942D02*
X145520450Y-73685228D01*
X145520450Y-73685228D02*
X145734736Y-73899514D01*
X145734736Y-73899514D02*
X145949022Y-74328085D01*
X145949022Y-74328085D02*
X145949022Y-74970942D01*
X145949022Y-74970942D02*
X145734736Y-75399514D01*
X145734736Y-75399514D02*
X145520450Y-75613800D01*
X145520450Y-75613800D02*
X145091879Y-75828085D01*
X145091879Y-75828085D02*
X143377593Y-75828085D01*
X143377593Y-75828085D02*
X143377593Y-71328085D01*
X143377593Y-71328085D02*
X144877593Y-71328085D01*
X144877593Y-71328085D02*
X145306165Y-71542371D01*
X145306165Y-71542371D02*
X145520450Y-71756657D01*
X145520450Y-71756657D02*
X145734736Y-72185228D01*
X145734736Y-72185228D02*
X145734736Y-72613800D01*
X145734736Y-72613800D02*
X145520450Y-73042371D01*
X145520450Y-73042371D02*
X145306165Y-73256657D01*
X145306165Y-73256657D02*
X144877593Y-73470942D01*
X144877593Y-73470942D02*
X143377593Y-73470942D01*
X148734736Y-71328085D02*
X149591879Y-71328085D01*
X149591879Y-71328085D02*
X150020450Y-71542371D01*
X150020450Y-71542371D02*
X150449022Y-71970942D01*
X150449022Y-71970942D02*
X150663307Y-72828085D01*
X150663307Y-72828085D02*
X150663307Y-74328085D01*
X150663307Y-74328085D02*
X150449022Y-75185228D01*
X150449022Y-75185228D02*
X150020450Y-75613800D01*
X150020450Y-75613800D02*
X149591879Y-75828085D01*
X149591879Y-75828085D02*
X148734736Y-75828085D01*
X148734736Y-75828085D02*
X148306165Y-75613800D01*
X148306165Y-75613800D02*
X147877593Y-75185228D01*
X147877593Y-75185228D02*
X147663307Y-74328085D01*
X147663307Y-74328085D02*
X147663307Y-72828085D01*
X147663307Y-72828085D02*
X147877593Y-71970942D01*
X147877593Y-71970942D02*
X148306165Y-71542371D01*
X148306165Y-71542371D02*
X148734736Y-71328085D01*
X151949022Y-71328085D02*
X154520451Y-71328085D01*
X153234736Y-75828085D02*
X153234736Y-71328085D01*
X156020450Y-75828085D02*
X156020450Y-71328085D01*
X160734736Y-75399514D02*
X160520450Y-75613800D01*
X160520450Y-75613800D02*
X159877593Y-75828085D01*
X159877593Y-75828085D02*
X159449021Y-75828085D01*
X159449021Y-75828085D02*
X158806164Y-75613800D01*
X158806164Y-75613800D02*
X158377593Y-75185228D01*
X158377593Y-75185228D02*
X158163307Y-74756657D01*
X158163307Y-74756657D02*
X157949021Y-73899514D01*
X157949021Y-73899514D02*
X157949021Y-73256657D01*
X157949021Y-73256657D02*
X158163307Y-72399514D01*
X158163307Y-72399514D02*
X158377593Y-71970942D01*
X158377593Y-71970942D02*
X158806164Y-71542371D01*
X158806164Y-71542371D02*
X159449021Y-71328085D01*
X159449021Y-71328085D02*
X159877593Y-71328085D01*
X159877593Y-71328085D02*
X160520450Y-71542371D01*
X160520450Y-71542371D02*
X160734736Y-71756657D01*
X162449021Y-75613800D02*
X163091879Y-75828085D01*
X163091879Y-75828085D02*
X164163307Y-75828085D01*
X164163307Y-75828085D02*
X164591879Y-75613800D01*
X164591879Y-75613800D02*
X164806164Y-75399514D01*
X164806164Y-75399514D02*
X165020450Y-74970942D01*
X165020450Y-74970942D02*
X165020450Y-74542371D01*
X165020450Y-74542371D02*
X164806164Y-74113800D01*
X164806164Y-74113800D02*
X164591879Y-73899514D01*
X164591879Y-73899514D02*
X164163307Y-73685228D01*
X164163307Y-73685228D02*
X163306164Y-73470942D01*
X163306164Y-73470942D02*
X162877593Y-73256657D01*
X162877593Y-73256657D02*
X162663307Y-73042371D01*
X162663307Y-73042371D02*
X162449021Y-72613800D01*
X162449021Y-72613800D02*
X162449021Y-72185228D01*
X162449021Y-72185228D02*
X162663307Y-71756657D01*
X162663307Y-71756657D02*
X162877593Y-71542371D01*
X162877593Y-71542371D02*
X163306164Y-71328085D01*
X163306164Y-71328085D02*
X164377593Y-71328085D01*
X164377593Y-71328085D02*
X165020450Y-71542371D01*
D11*
X108514819Y-119843808D02*
X107514819Y-119843808D01*
X107514819Y-119843808D02*
X108229104Y-119510475D01*
X108229104Y-119510475D02*
X107514819Y-119177142D01*
X107514819Y-119177142D02*
X108514819Y-119177142D01*
X107610057Y-118748570D02*
X107562438Y-118700951D01*
X107562438Y-118700951D02*
X107514819Y-118605713D01*
X107514819Y-118605713D02*
X107514819Y-118367618D01*
X107514819Y-118367618D02*
X107562438Y-118272380D01*
X107562438Y-118272380D02*
X107610057Y-118224761D01*
X107610057Y-118224761D02*
X107705295Y-118177142D01*
X107705295Y-118177142D02*
X107800533Y-118177142D01*
X107800533Y-118177142D02*
X107943390Y-118224761D01*
X107943390Y-118224761D02*
X108514819Y-118796189D01*
X108514819Y-118796189D02*
X108514819Y-118177142D01*
X108419580Y-117748570D02*
X108467200Y-117700951D01*
X108467200Y-117700951D02*
X108514819Y-117748570D01*
X108514819Y-117748570D02*
X108467200Y-117796189D01*
X108467200Y-117796189D02*
X108419580Y-117748570D01*
X108419580Y-117748570D02*
X108514819Y-117748570D01*
X107514819Y-116796190D02*
X107514819Y-117272380D01*
X107514819Y-117272380D02*
X107991009Y-117319999D01*
X107991009Y-117319999D02*
X107943390Y-117272380D01*
X107943390Y-117272380D02*
X107895771Y-117177142D01*
X107895771Y-117177142D02*
X107895771Y-116939047D01*
X107895771Y-116939047D02*
X107943390Y-116843809D01*
X107943390Y-116843809D02*
X107991009Y-116796190D01*
X107991009Y-116796190D02*
X108086247Y-116748571D01*
X108086247Y-116748571D02*
X108324342Y-116748571D01*
X108324342Y-116748571D02*
X108419580Y-116796190D01*
X108419580Y-116796190D02*
X108467200Y-116843809D01*
X108467200Y-116843809D02*
X108514819Y-116939047D01*
X108514819Y-116939047D02*
X108514819Y-117177142D01*
X108514819Y-117177142D02*
X108467200Y-117272380D01*
X108467200Y-117272380D02*
X108419580Y-117319999D01*
X108514819Y-75393808D02*
X107514819Y-75393808D01*
X107514819Y-75393808D02*
X108229104Y-75060475D01*
X108229104Y-75060475D02*
X107514819Y-74727142D01*
X107514819Y-74727142D02*
X108514819Y-74727142D01*
X107610057Y-74298570D02*
X107562438Y-74250951D01*
X107562438Y-74250951D02*
X107514819Y-74155713D01*
X107514819Y-74155713D02*
X107514819Y-73917618D01*
X107514819Y-73917618D02*
X107562438Y-73822380D01*
X107562438Y-73822380D02*
X107610057Y-73774761D01*
X107610057Y-73774761D02*
X107705295Y-73727142D01*
X107705295Y-73727142D02*
X107800533Y-73727142D01*
X107800533Y-73727142D02*
X107943390Y-73774761D01*
X107943390Y-73774761D02*
X108514819Y-74346189D01*
X108514819Y-74346189D02*
X108514819Y-73727142D01*
X108419580Y-73298570D02*
X108467200Y-73250951D01*
X108467200Y-73250951D02*
X108514819Y-73298570D01*
X108514819Y-73298570D02*
X108467200Y-73346189D01*
X108467200Y-73346189D02*
X108419580Y-73298570D01*
X108419580Y-73298570D02*
X108514819Y-73298570D01*
X107514819Y-72346190D02*
X107514819Y-72822380D01*
X107514819Y-72822380D02*
X107991009Y-72869999D01*
X107991009Y-72869999D02*
X107943390Y-72822380D01*
X107943390Y-72822380D02*
X107895771Y-72727142D01*
X107895771Y-72727142D02*
X107895771Y-72489047D01*
X107895771Y-72489047D02*
X107943390Y-72393809D01*
X107943390Y-72393809D02*
X107991009Y-72346190D01*
X107991009Y-72346190D02*
X108086247Y-72298571D01*
X108086247Y-72298571D02*
X108324342Y-72298571D01*
X108324342Y-72298571D02*
X108419580Y-72346190D01*
X108419580Y-72346190D02*
X108467200Y-72393809D01*
X108467200Y-72393809D02*
X108514819Y-72489047D01*
X108514819Y-72489047D02*
X108514819Y-72727142D01*
X108514819Y-72727142D02*
X108467200Y-72822380D01*
X108467200Y-72822380D02*
X108419580Y-72869999D01*
X170744819Y-119843808D02*
X169744819Y-119843808D01*
X169744819Y-119843808D02*
X170459104Y-119510475D01*
X170459104Y-119510475D02*
X169744819Y-119177142D01*
X169744819Y-119177142D02*
X170744819Y-119177142D01*
X169840057Y-118748570D02*
X169792438Y-118700951D01*
X169792438Y-118700951D02*
X169744819Y-118605713D01*
X169744819Y-118605713D02*
X169744819Y-118367618D01*
X169744819Y-118367618D02*
X169792438Y-118272380D01*
X169792438Y-118272380D02*
X169840057Y-118224761D01*
X169840057Y-118224761D02*
X169935295Y-118177142D01*
X169935295Y-118177142D02*
X170030533Y-118177142D01*
X170030533Y-118177142D02*
X170173390Y-118224761D01*
X170173390Y-118224761D02*
X170744819Y-118796189D01*
X170744819Y-118796189D02*
X170744819Y-118177142D01*
X170649580Y-117748570D02*
X170697200Y-117700951D01*
X170697200Y-117700951D02*
X170744819Y-117748570D01*
X170744819Y-117748570D02*
X170697200Y-117796189D01*
X170697200Y-117796189D02*
X170649580Y-117748570D01*
X170649580Y-117748570D02*
X170744819Y-117748570D01*
X169744819Y-116796190D02*
X169744819Y-117272380D01*
X169744819Y-117272380D02*
X170221009Y-117319999D01*
X170221009Y-117319999D02*
X170173390Y-117272380D01*
X170173390Y-117272380D02*
X170125771Y-117177142D01*
X170125771Y-117177142D02*
X170125771Y-116939047D01*
X170125771Y-116939047D02*
X170173390Y-116843809D01*
X170173390Y-116843809D02*
X170221009Y-116796190D01*
X170221009Y-116796190D02*
X170316247Y-116748571D01*
X170316247Y-116748571D02*
X170554342Y-116748571D01*
X170554342Y-116748571D02*
X170649580Y-116796190D01*
X170649580Y-116796190D02*
X170697200Y-116843809D01*
X170697200Y-116843809D02*
X170744819Y-116939047D01*
X170744819Y-116939047D02*
X170744819Y-117177142D01*
X170744819Y-117177142D02*
X170697200Y-117272380D01*
X170697200Y-117272380D02*
X170649580Y-117319999D01*
X170744819Y-75393808D02*
X169744819Y-75393808D01*
X169744819Y-75393808D02*
X170459104Y-75060475D01*
X170459104Y-75060475D02*
X169744819Y-74727142D01*
X169744819Y-74727142D02*
X170744819Y-74727142D01*
X169840057Y-74298570D02*
X169792438Y-74250951D01*
X169792438Y-74250951D02*
X169744819Y-74155713D01*
X169744819Y-74155713D02*
X169744819Y-73917618D01*
X169744819Y-73917618D02*
X169792438Y-73822380D01*
X169792438Y-73822380D02*
X169840057Y-73774761D01*
X169840057Y-73774761D02*
X169935295Y-73727142D01*
X169935295Y-73727142D02*
X170030533Y-73727142D01*
X170030533Y-73727142D02*
X170173390Y-73774761D01*
X170173390Y-73774761D02*
X170744819Y-74346189D01*
X170744819Y-74346189D02*
X170744819Y-73727142D01*
X170649580Y-73298570D02*
X170697200Y-73250951D01*
X170697200Y-73250951D02*
X170744819Y-73298570D01*
X170744819Y-73298570D02*
X170697200Y-73346189D01*
X170697200Y-73346189D02*
X170649580Y-73298570D01*
X170649580Y-73298570D02*
X170744819Y-73298570D01*
X169744819Y-72346190D02*
X169744819Y-72822380D01*
X169744819Y-72822380D02*
X170221009Y-72869999D01*
X170221009Y-72869999D02*
X170173390Y-72822380D01*
X170173390Y-72822380D02*
X170125771Y-72727142D01*
X170125771Y-72727142D02*
X170125771Y-72489047D01*
X170125771Y-72489047D02*
X170173390Y-72393809D01*
X170173390Y-72393809D02*
X170221009Y-72346190D01*
X170221009Y-72346190D02*
X170316247Y-72298571D01*
X170316247Y-72298571D02*
X170554342Y-72298571D01*
X170554342Y-72298571D02*
X170649580Y-72346190D01*
X170649580Y-72346190D02*
X170697200Y-72393809D01*
X170697200Y-72393809D02*
X170744819Y-72489047D01*
X170744819Y-72489047D02*
X170744819Y-72727142D01*
X170744819Y-72727142D02*
X170697200Y-72822380D01*
X170697200Y-72822380D02*
X170649580Y-72869999D01*
X173566666Y-79004819D02*
X173566666Y-79719104D01*
X173566666Y-79719104D02*
X173519047Y-79861961D01*
X173519047Y-79861961D02*
X173423809Y-79957200D01*
X173423809Y-79957200D02*
X173280952Y-80004819D01*
X173280952Y-80004819D02*
X173185714Y-80004819D01*
X174471428Y-79338152D02*
X174471428Y-80004819D01*
X174233333Y-78957200D02*
X173995238Y-79671485D01*
X173995238Y-79671485D02*
X174614285Y-79671485D01*
X138924819Y-90713333D02*
X139639104Y-90713333D01*
X139639104Y-90713333D02*
X139781961Y-90760952D01*
X139781961Y-90760952D02*
X139877200Y-90856190D01*
X139877200Y-90856190D02*
X139924819Y-90999047D01*
X139924819Y-90999047D02*
X139924819Y-91094285D01*
X138924819Y-90332380D02*
X138924819Y-89713333D01*
X138924819Y-89713333D02*
X139305771Y-90046666D01*
X139305771Y-90046666D02*
X139305771Y-89903809D01*
X139305771Y-89903809D02*
X139353390Y-89808571D01*
X139353390Y-89808571D02*
X139401009Y-89760952D01*
X139401009Y-89760952D02*
X139496247Y-89713333D01*
X139496247Y-89713333D02*
X139734342Y-89713333D01*
X139734342Y-89713333D02*
X139829580Y-89760952D01*
X139829580Y-89760952D02*
X139877200Y-89808571D01*
X139877200Y-89808571D02*
X139924819Y-89903809D01*
X139924819Y-89903809D02*
X139924819Y-90189523D01*
X139924819Y-90189523D02*
X139877200Y-90284761D01*
X139877200Y-90284761D02*
X139829580Y-90332380D01*
X151624819Y-114843333D02*
X152339104Y-114843333D01*
X152339104Y-114843333D02*
X152481961Y-114890952D01*
X152481961Y-114890952D02*
X152577200Y-114986190D01*
X152577200Y-114986190D02*
X152624819Y-115129047D01*
X152624819Y-115129047D02*
X152624819Y-115224285D01*
X151720057Y-114414761D02*
X151672438Y-114367142D01*
X151672438Y-114367142D02*
X151624819Y-114271904D01*
X151624819Y-114271904D02*
X151624819Y-114033809D01*
X151624819Y-114033809D02*
X151672438Y-113938571D01*
X151672438Y-113938571D02*
X151720057Y-113890952D01*
X151720057Y-113890952D02*
X151815295Y-113843333D01*
X151815295Y-113843333D02*
X151910533Y-113843333D01*
X151910533Y-113843333D02*
X152053390Y-113890952D01*
X152053390Y-113890952D02*
X152624819Y-114462380D01*
X152624819Y-114462380D02*
X152624819Y-113843333D01*
X124144819Y-90738333D02*
X124859104Y-90738333D01*
X124859104Y-90738333D02*
X125001961Y-90785952D01*
X125001961Y-90785952D02*
X125097200Y-90881190D01*
X125097200Y-90881190D02*
X125144819Y-91024047D01*
X125144819Y-91024047D02*
X125144819Y-91119285D01*
X125144819Y-89738333D02*
X125144819Y-90309761D01*
X125144819Y-90024047D02*
X124144819Y-90024047D01*
X124144819Y-90024047D02*
X124287676Y-90119285D01*
X124287676Y-90119285D02*
X124382914Y-90214523D01*
X124382914Y-90214523D02*
X124430533Y-90309761D01*
X146239580Y-82829317D02*
X146287200Y-82876936D01*
X146287200Y-82876936D02*
X146334819Y-83019793D01*
X146334819Y-83019793D02*
X146334819Y-83115031D01*
X146334819Y-83115031D02*
X146287200Y-83257888D01*
X146287200Y-83257888D02*
X146191961Y-83353126D01*
X146191961Y-83353126D02*
X146096723Y-83400745D01*
X146096723Y-83400745D02*
X145906247Y-83448364D01*
X145906247Y-83448364D02*
X145763390Y-83448364D01*
X145763390Y-83448364D02*
X145572914Y-83400745D01*
X145572914Y-83400745D02*
X145477676Y-83353126D01*
X145477676Y-83353126D02*
X145382438Y-83257888D01*
X145382438Y-83257888D02*
X145334819Y-83115031D01*
X145334819Y-83115031D02*
X145334819Y-83019793D01*
X145334819Y-83019793D02*
X145382438Y-82876936D01*
X145382438Y-82876936D02*
X145430057Y-82829317D01*
X146334819Y-81876936D02*
X146334819Y-82448364D01*
X146334819Y-82162650D02*
X145334819Y-82162650D01*
X145334819Y-82162650D02*
X145477676Y-82257888D01*
X145477676Y-82257888D02*
X145572914Y-82353126D01*
X145572914Y-82353126D02*
X145620533Y-82448364D01*
X129709104Y-105074285D02*
X129709104Y-104598095D01*
X129994819Y-105169523D02*
X128994819Y-104836190D01*
X128994819Y-104836190D02*
X129994819Y-104502857D01*
X129090057Y-104217142D02*
X129042438Y-104169523D01*
X129042438Y-104169523D02*
X128994819Y-104074285D01*
X128994819Y-104074285D02*
X128994819Y-103836190D01*
X128994819Y-103836190D02*
X129042438Y-103740952D01*
X129042438Y-103740952D02*
X129090057Y-103693333D01*
X129090057Y-103693333D02*
X129185295Y-103645714D01*
X129185295Y-103645714D02*
X129280533Y-103645714D01*
X129280533Y-103645714D02*
X129423390Y-103693333D01*
X129423390Y-103693333D02*
X129994819Y-104264761D01*
X129994819Y-104264761D02*
X129994819Y-103645714D01*
X132249104Y-103794285D02*
X132249104Y-103318095D01*
X132534819Y-103889523D02*
X131534819Y-103556190D01*
X131534819Y-103556190D02*
X132534819Y-103222857D01*
X132534819Y-102365714D02*
X132534819Y-102937142D01*
X132534819Y-102651428D02*
X131534819Y-102651428D01*
X131534819Y-102651428D02*
X131677676Y-102746666D01*
X131677676Y-102746666D02*
X131772914Y-102841904D01*
X131772914Y-102841904D02*
X131820533Y-102937142D01*
X172174819Y-104341904D02*
X172984342Y-104341904D01*
X172984342Y-104341904D02*
X173079580Y-104294285D01*
X173079580Y-104294285D02*
X173127200Y-104246666D01*
X173127200Y-104246666D02*
X173174819Y-104151428D01*
X173174819Y-104151428D02*
X173174819Y-103960952D01*
X173174819Y-103960952D02*
X173127200Y-103865714D01*
X173127200Y-103865714D02*
X173079580Y-103818095D01*
X173079580Y-103818095D02*
X172984342Y-103770476D01*
X172984342Y-103770476D02*
X172174819Y-103770476D01*
X173127200Y-103341904D02*
X173174819Y-103199047D01*
X173174819Y-103199047D02*
X173174819Y-102960952D01*
X173174819Y-102960952D02*
X173127200Y-102865714D01*
X173127200Y-102865714D02*
X173079580Y-102818095D01*
X173079580Y-102818095D02*
X172984342Y-102770476D01*
X172984342Y-102770476D02*
X172889104Y-102770476D01*
X172889104Y-102770476D02*
X172793866Y-102818095D01*
X172793866Y-102818095D02*
X172746247Y-102865714D01*
X172746247Y-102865714D02*
X172698628Y-102960952D01*
X172698628Y-102960952D02*
X172651009Y-103151428D01*
X172651009Y-103151428D02*
X172603390Y-103246666D01*
X172603390Y-103246666D02*
X172555771Y-103294285D01*
X172555771Y-103294285D02*
X172460533Y-103341904D01*
X172460533Y-103341904D02*
X172365295Y-103341904D01*
X172365295Y-103341904D02*
X172270057Y-103294285D01*
X172270057Y-103294285D02*
X172222438Y-103246666D01*
X172222438Y-103246666D02*
X172174819Y-103151428D01*
X172174819Y-103151428D02*
X172174819Y-102913333D01*
X172174819Y-102913333D02*
X172222438Y-102770476D01*
X172651009Y-102008571D02*
X172698628Y-101865714D01*
X172698628Y-101865714D02*
X172746247Y-101818095D01*
X172746247Y-101818095D02*
X172841485Y-101770476D01*
X172841485Y-101770476D02*
X172984342Y-101770476D01*
X172984342Y-101770476D02*
X173079580Y-101818095D01*
X173079580Y-101818095D02*
X173127200Y-101865714D01*
X173127200Y-101865714D02*
X173174819Y-101960952D01*
X173174819Y-101960952D02*
X173174819Y-102341904D01*
X173174819Y-102341904D02*
X172174819Y-102341904D01*
X172174819Y-102341904D02*
X172174819Y-102008571D01*
X172174819Y-102008571D02*
X172222438Y-101913333D01*
X172222438Y-101913333D02*
X172270057Y-101865714D01*
X172270057Y-101865714D02*
X172365295Y-101818095D01*
X172365295Y-101818095D02*
X172460533Y-101818095D01*
X172460533Y-101818095D02*
X172555771Y-101865714D01*
X172555771Y-101865714D02*
X172603390Y-101913333D01*
X172603390Y-101913333D02*
X172651009Y-102008571D01*
X172651009Y-102008571D02*
X172651009Y-102341904D01*
D12*
%TO.C,J4*%
X179250000Y-89900000D02*
X164550000Y-89900000D01*
X179250000Y-80700000D02*
X179250000Y-89900000D01*
X164550000Y-80700000D02*
X166450000Y-80700000D01*
X164550000Y-83400000D02*
X164550000Y-80700000D01*
X164550000Y-89900000D02*
X164550000Y-87300000D01*
X170450000Y-80700000D02*
X179250000Y-80700000D01*
X164350000Y-89050000D02*
X164350000Y-90100000D01*
X165400000Y-90100000D02*
X164350000Y-90100000D01*
%TO.C,J3*%
X143450000Y-91710000D02*
X143570000Y-91710000D01*
X143570000Y-91710000D02*
X143570000Y-89050000D01*
X143450000Y-89050000D02*
X143570000Y-89050000D01*
X140910000Y-89050000D02*
X142240000Y-89050000D01*
X140910000Y-90380000D02*
X140910000Y-89050000D01*
%TO.C,J2*%
X156150000Y-115840000D02*
X156270000Y-115840000D01*
X156270000Y-115840000D02*
X156270000Y-113180000D01*
X156150000Y-113180000D02*
X156270000Y-113180000D01*
X153610000Y-113180000D02*
X154940000Y-113180000D01*
X153610000Y-114510000D02*
X153610000Y-113180000D01*
%TO.C,J1*%
X123250000Y-90405000D02*
X123250000Y-91735000D01*
X123250000Y-91735000D02*
X121920000Y-91735000D01*
X120650000Y-89075000D02*
X112970000Y-89075000D01*
X120650000Y-89075000D02*
X120650000Y-91735000D01*
X120650000Y-91735000D02*
X112970000Y-91735000D01*
X112970000Y-89075000D02*
X112970000Y-91735000D01*
%TO.C,C1*%
X147163000Y-81701651D02*
X155097000Y-81701651D01*
X149578000Y-78861651D02*
X152682000Y-78861651D01*
X148964000Y-79181651D02*
X150090000Y-79181651D01*
X152170000Y-80981651D02*
X154852000Y-80981651D01*
X148185000Y-79821651D02*
X150090000Y-79821651D01*
X147128000Y-81861651D02*
X155132000Y-81861651D01*
X152170000Y-80661651D02*
X154692000Y-80661651D01*
X147173000Y-81661651D02*
X155087000Y-81661651D01*
X152170000Y-80421651D02*
X154548000Y-80421651D01*
X147325000Y-81181651D02*
X150090000Y-81181651D01*
X152170000Y-80061651D02*
X154286000Y-80061651D01*
X149677000Y-78821651D02*
X152583000Y-78821651D01*
X147136000Y-81821651D02*
X155124000Y-81821651D01*
X147056000Y-82422651D02*
X155204000Y-82422651D01*
X149166000Y-79061651D02*
X153094000Y-79061651D01*
X147078000Y-82182651D02*
X155182000Y-82182651D01*
X152170000Y-79581651D02*
X153827000Y-79581651D01*
X152170000Y-79461651D02*
X153686000Y-79461651D01*
X150597000Y-78581651D02*
X151663000Y-78581651D01*
X152170000Y-79781651D02*
X154037000Y-79781651D01*
X152170000Y-80341651D02*
X154495000Y-80341651D01*
X147073000Y-82222651D02*
X155187000Y-82222651D01*
X147050000Y-82582651D02*
X155210000Y-82582651D01*
X152170000Y-80301651D02*
X154468000Y-80301651D01*
X147590000Y-80621651D02*
X150090000Y-80621651D01*
X148479000Y-79541651D02*
X150090000Y-79541651D01*
X148843000Y-79261651D02*
X150090000Y-79261651D01*
X148574000Y-79461651D02*
X150090000Y-79461651D01*
X147712000Y-80421651D02*
X150090000Y-80421651D01*
X152170000Y-79981651D02*
X154220000Y-79981651D01*
X148389000Y-79621651D02*
X150090000Y-79621651D01*
X152170000Y-81181651D02*
X154935000Y-81181651D01*
X149901000Y-78741651D02*
X152359000Y-78741651D01*
X147228000Y-81461651D02*
X155032000Y-81461651D01*
X147426000Y-80941651D02*
X150090000Y-80941651D01*
X147974000Y-80061651D02*
X150090000Y-80061651D01*
X148815000Y-87072349D02*
X148815000Y-86272349D01*
X147145000Y-81781651D02*
X155115000Y-81781651D01*
X147253000Y-81381651D02*
X155007000Y-81381651D01*
X147100000Y-82022651D02*
X155160000Y-82022651D01*
X147373000Y-81061651D02*
X150090000Y-81061651D01*
X148075000Y-79941651D02*
X150090000Y-79941651D01*
X149028000Y-79141651D02*
X150090000Y-79141651D01*
X147216000Y-81501651D02*
X155044000Y-81501651D01*
X147792000Y-80301651D02*
X150090000Y-80301651D01*
X150182000Y-78661651D02*
X152078000Y-78661651D01*
X147444000Y-80901651D02*
X150090000Y-80901651D01*
X149317000Y-78981651D02*
X152943000Y-78981651D01*
X152170000Y-80541651D02*
X154623000Y-80541651D01*
X147267000Y-81341651D02*
X154993000Y-81341651D01*
X147483000Y-80821651D02*
X150090000Y-80821651D01*
X152170000Y-79821651D02*
X154075000Y-79821651D01*
X149784000Y-78781651D02*
X152476000Y-78781651D01*
X152170000Y-80581651D02*
X154647000Y-80581651D01*
X148415000Y-86672349D02*
X149215000Y-86672349D01*
X147738000Y-80381651D02*
X150090000Y-80381651D01*
X147408000Y-80981651D02*
X150090000Y-80981651D01*
X152170000Y-81021651D02*
X154870000Y-81021651D01*
X147194000Y-81581651D02*
X155066000Y-81581651D01*
X152170000Y-80501651D02*
X154599000Y-80501651D01*
X152170000Y-79941651D02*
X154185000Y-79941651D01*
X148006000Y-80021651D02*
X150090000Y-80021651D01*
X147062000Y-82342651D02*
X155198000Y-82342651D01*
X152170000Y-81101651D02*
X154904000Y-81101651D01*
X148676000Y-79381651D02*
X150090000Y-79381651D01*
X152170000Y-79221651D02*
X153358000Y-79221651D01*
X147205000Y-81541651D02*
X155055000Y-81541651D01*
X149485000Y-78901651D02*
X152775000Y-78901651D01*
X147686000Y-80461651D02*
X150090000Y-80461651D01*
X147088000Y-82102651D02*
X155172000Y-82102651D01*
X152170000Y-80021651D02*
X154254000Y-80021651D01*
X148526000Y-79501651D02*
X150090000Y-79501651D01*
X152170000Y-79141651D02*
X153232000Y-79141651D01*
X150032000Y-78701651D02*
X152228000Y-78701651D01*
X147546000Y-80701651D02*
X150090000Y-80701651D01*
X147941000Y-80101651D02*
X150090000Y-80101651D01*
X147154000Y-81741651D02*
X155106000Y-81741651D01*
X148346000Y-79661651D02*
X150090000Y-79661651D01*
X147241000Y-81421651D02*
X155019000Y-81421651D01*
X150362000Y-78621651D02*
X151898000Y-78621651D01*
X152170000Y-81141651D02*
X154920000Y-81141651D01*
X152170000Y-80621651D02*
X154670000Y-80621651D01*
X147524000Y-80741651D02*
X150090000Y-80741651D01*
X152170000Y-80461651D02*
X154574000Y-80461651D01*
X152170000Y-80861651D02*
X154796000Y-80861651D01*
X152170000Y-80701651D02*
X154714000Y-80701651D01*
X152170000Y-79901651D02*
X154149000Y-79901651D01*
X152170000Y-79341651D02*
X153530000Y-79341651D01*
X147093000Y-82062651D02*
X155167000Y-82062651D01*
X152170000Y-80821651D02*
X154777000Y-80821651D01*
X152170000Y-80901651D02*
X154816000Y-80901651D01*
X152170000Y-80781651D02*
X154757000Y-80781651D01*
X147065000Y-82302651D02*
X155195000Y-82302651D01*
X147082000Y-82142651D02*
X155178000Y-82142651D01*
X149240000Y-79021651D02*
X153020000Y-79021651D01*
X147113000Y-81941651D02*
X155147000Y-81941651D01*
X147295000Y-81261651D02*
X154965000Y-81261651D01*
X152170000Y-80381651D02*
X154522000Y-80381651D01*
X152170000Y-80221651D02*
X154410000Y-80221651D01*
X148111000Y-79901651D02*
X150090000Y-79901651D01*
X152170000Y-81061651D02*
X154887000Y-81061651D01*
X148730000Y-79341651D02*
X150090000Y-79341651D01*
X147765000Y-80341651D02*
X150090000Y-80341651D01*
X147464000Y-80861651D02*
X150090000Y-80861651D01*
X147059000Y-82382651D02*
X155201000Y-82382651D01*
X148147000Y-79861651D02*
X150090000Y-79861651D01*
X152170000Y-79421651D02*
X153635000Y-79421651D01*
X147309000Y-81221651D02*
X154951000Y-81221651D01*
X147051000Y-82542651D02*
X155209000Y-82542651D01*
X148902000Y-79221651D02*
X150090000Y-79221651D01*
X152170000Y-79501651D02*
X153734000Y-79501651D01*
X152170000Y-80741651D02*
X154736000Y-80741651D01*
X147053000Y-82502651D02*
X155207000Y-82502651D01*
X152170000Y-80181651D02*
X154380000Y-80181651D01*
X147356000Y-81101651D02*
X150090000Y-81101651D01*
X152170000Y-79861651D02*
X154113000Y-79861651D01*
X147613000Y-80581651D02*
X150090000Y-80581651D01*
X148304000Y-79701651D02*
X150090000Y-79701651D01*
X147390000Y-81021651D02*
X150090000Y-81021651D01*
X152170000Y-79661651D02*
X153914000Y-79661651D01*
X152170000Y-79621651D02*
X153871000Y-79621651D01*
X147050000Y-82622651D02*
X155210000Y-82622651D01*
X147106000Y-81982651D02*
X155154000Y-81982651D01*
X147183000Y-81621651D02*
X155077000Y-81621651D01*
X152170000Y-79301651D02*
X153475000Y-79301651D01*
X147661000Y-80501651D02*
X150090000Y-80501651D01*
X147050000Y-82662651D02*
X155210000Y-82662651D01*
X147910000Y-80141651D02*
X150090000Y-80141651D01*
X148785000Y-79301651D02*
X150090000Y-79301651D01*
X148040000Y-79981651D02*
X150090000Y-79981651D01*
X148625000Y-79421651D02*
X150090000Y-79421651D01*
X152170000Y-79381651D02*
X153584000Y-79381651D01*
X147568000Y-80661651D02*
X150090000Y-80661651D01*
X152170000Y-80941651D02*
X154834000Y-80941651D01*
X152170000Y-79261651D02*
X153417000Y-79261651D01*
X147069000Y-82262651D02*
X155191000Y-82262651D01*
X148433000Y-79581651D02*
X150090000Y-79581651D01*
X149096000Y-79101651D02*
X153164000Y-79101651D01*
X152170000Y-80141651D02*
X154350000Y-80141651D01*
X148223000Y-79781651D02*
X150090000Y-79781651D01*
X152170000Y-80261651D02*
X154439000Y-80261651D01*
X147340000Y-81141651D02*
X150090000Y-81141651D01*
X152170000Y-79541651D02*
X153781000Y-79541651D01*
X147120000Y-81901651D02*
X155140000Y-81901651D01*
X152170000Y-79741651D02*
X153997000Y-79741651D01*
X152170000Y-80101651D02*
X154319000Y-80101651D01*
X148263000Y-79741651D02*
X150090000Y-79741651D01*
X152170000Y-79701651D02*
X153956000Y-79701651D01*
X147821000Y-80261651D02*
X150090000Y-80261651D01*
X147850000Y-80221651D02*
X150090000Y-80221651D01*
X147054000Y-82462651D02*
X155206000Y-82462651D01*
X147880000Y-80181651D02*
X150090000Y-80181651D01*
X147503000Y-80781651D02*
X150090000Y-80781651D01*
X147637000Y-80541651D02*
X150090000Y-80541651D01*
X152170000Y-79181651D02*
X153296000Y-79181651D01*
X149399000Y-78941651D02*
X152861000Y-78941651D01*
X147280000Y-81301651D02*
X154980000Y-81301651D01*
X155250000Y-82662651D02*
G75*
G03*
X147010000Y-82662651I-4120000J0D01*
G01*
X147010000Y-82662651D02*
G75*
G03*
X155250000Y-82662651I4120000J0D01*
G01*
%TO.C,A2*%
X107820000Y-112110000D02*
X128400000Y-112110000D01*
X107820000Y-96610000D02*
X107820000Y-112110000D01*
X128400000Y-109440000D02*
X107820000Y-109440000D01*
X128400000Y-112110000D02*
X128400000Y-99280000D01*
X125730000Y-99280000D02*
X125730000Y-96610000D01*
X128400000Y-99280000D02*
X125730000Y-99280000D01*
X125730000Y-99280000D02*
X107820000Y-99280000D01*
X128400000Y-98010000D02*
X128400000Y-96610000D01*
X128400000Y-96610000D02*
X127000000Y-96610000D01*
X125730000Y-96610000D02*
X107820000Y-96610000D01*
%TO.C,A1*%
X135890000Y-109430000D02*
X135890000Y-112100000D01*
X179200000Y-99140000D02*
X179200000Y-107020000D01*
X176660000Y-94060000D02*
X133220000Y-94060000D01*
X179200000Y-107020000D02*
X168780000Y-107020000D01*
X168780000Y-99140000D02*
X179200000Y-99140000D01*
X176660000Y-94060000D02*
X176660000Y-99140000D01*
X138430000Y-112100000D02*
X176660000Y-112100000D01*
X173990000Y-109430000D02*
X173990000Y-112100000D01*
X135890000Y-96730000D02*
X173990000Y-96730000D01*
X138430000Y-109430000D02*
X135890000Y-109430000D01*
X173990000Y-96730000D02*
X173990000Y-94060000D01*
X135890000Y-96730000D02*
X135890000Y-94060000D01*
X138430000Y-109430000D02*
X138430000Y-112100000D01*
X133220000Y-94060000D02*
X133220000Y-112100000D01*
X176660000Y-112100000D02*
X176660000Y-107020000D01*
X133220000Y-112100000D02*
X135890000Y-112100000D01*
X168780000Y-107020000D02*
X168780000Y-99140000D01*
X138430000Y-109430000D02*
X173990000Y-109430000D01*
%TD*%
M02*
