%TF.GenerationSoftware,KiCad,Pcbnew,7.0.10*%
%TF.CreationDate,2024-02-12T17:30:32-09:00*%
%TF.ProjectId,CustomPCB,43757374-6f6d-4504-9342-2e6b69636164,rev?*%
%TF.SameCoordinates,Original*%
%TF.FileFunction,Drillmap*%
%TF.FilePolarity,Positive*%
%FSLAX45Y45*%
G04 Gerber Fmt 4.5, Leading zero omitted, Abs format (unit mm)*
G04 Created by KiCad (PCBNEW 7.0.10) date 2024-02-12 17:30:32*
%MOMM*%
%LPD*%
G01*
G04 APERTURE LIST*
%ADD10C,0.100000*%
%ADD11C,0.200000*%
%ADD12C,0.102000*%
%ADD13C,0.152000*%
G04 APERTURE END LIST*
D10*
X12573000Y-11811000D02*
X19812000Y-11811000D01*
X12192000Y-7620000D02*
X12192000Y-11430000D01*
X19812000Y-7239000D02*
X12573000Y-7239000D01*
X20193000Y-7620000D02*
X20193000Y-11430000D01*
X12192000Y-11430000D02*
G75*
G03*
X12573000Y-11811000I381000J0D01*
G01*
X12573000Y-7239000D02*
G75*
G03*
X12192000Y-7620000I0J-381000D01*
G01*
X19812000Y-11811000D02*
G75*
G03*
X20193000Y-11430000I0J381000D01*
G01*
X20193000Y-7620000D02*
G75*
G03*
X19812000Y-7239000I-381000J0D01*
G01*
D11*
D10*
X15961000Y-7326000D02*
X16041000Y-7406000D01*
X16041000Y-7326000D02*
X15961000Y-7406000D01*
X15961000Y-7580000D02*
X16041000Y-7660000D01*
X16041000Y-7580000D02*
X15961000Y-7660000D01*
X15961000Y-7834000D02*
X16041000Y-7914000D01*
X16041000Y-7834000D02*
X15961000Y-7914000D01*
X15961000Y-8088000D02*
X16041000Y-8168000D01*
X16041000Y-8088000D02*
X15961000Y-8168000D01*
X15961000Y-8342000D02*
X16041000Y-8422000D01*
X16041000Y-8342000D02*
X15961000Y-8422000D01*
X15961000Y-8596000D02*
X16041000Y-8676000D01*
X16041000Y-8596000D02*
X15961000Y-8676000D01*
X15961000Y-8850000D02*
X16041000Y-8930000D01*
X16041000Y-8850000D02*
X15961000Y-8930000D01*
X15961000Y-9104000D02*
X16041000Y-9184000D01*
X16041000Y-9104000D02*
X15961000Y-9184000D01*
X15961000Y-9612000D02*
X16041000Y-9692000D01*
X16041000Y-9612000D02*
X15961000Y-9692000D01*
X15961000Y-9866000D02*
X16041000Y-9946000D01*
X16041000Y-9866000D02*
X15961000Y-9946000D01*
X15961000Y-10120000D02*
X16041000Y-10200000D01*
X16041000Y-10120000D02*
X15961000Y-10200000D01*
X15961000Y-10374000D02*
X16041000Y-10454000D01*
X16041000Y-10374000D02*
X15961000Y-10454000D01*
X15961000Y-10628000D02*
X16041000Y-10708000D01*
X16041000Y-10628000D02*
X15961000Y-10708000D01*
X15961000Y-10882000D02*
X16041000Y-10962000D01*
X16041000Y-10882000D02*
X15961000Y-10962000D01*
X15961000Y-11136000D02*
X16041000Y-11216000D01*
X16041000Y-11136000D02*
X15961000Y-11216000D01*
X15961000Y-11390000D02*
X16041000Y-11470000D01*
X16041000Y-11390000D02*
X15961000Y-11470000D01*
X17231000Y-7326000D02*
X17311000Y-7406000D01*
X17311000Y-7326000D02*
X17231000Y-7406000D01*
X17231000Y-7580000D02*
X17311000Y-7660000D01*
X17311000Y-7580000D02*
X17231000Y-7660000D01*
X17231000Y-7834000D02*
X17311000Y-7914000D01*
X17311000Y-7834000D02*
X17231000Y-7914000D01*
X17231000Y-8088000D02*
X17311000Y-8168000D01*
X17311000Y-8088000D02*
X17231000Y-8168000D01*
X17231000Y-8342000D02*
X17311000Y-8422000D01*
X17311000Y-8342000D02*
X17231000Y-8422000D01*
X17231000Y-8596000D02*
X17311000Y-8676000D01*
X17311000Y-8596000D02*
X17231000Y-8676000D01*
X17231000Y-8850000D02*
X17311000Y-8930000D01*
X17311000Y-8850000D02*
X17231000Y-8930000D01*
X17231000Y-9104000D02*
X17311000Y-9184000D01*
X17311000Y-9104000D02*
X17231000Y-9184000D01*
X17231000Y-9612000D02*
X17311000Y-9692000D01*
X17311000Y-9612000D02*
X17231000Y-9692000D01*
X17231000Y-9866000D02*
X17311000Y-9946000D01*
X17311000Y-9866000D02*
X17231000Y-9946000D01*
X17231000Y-10120000D02*
X17311000Y-10200000D01*
X17311000Y-10120000D02*
X17231000Y-10200000D01*
X17231000Y-10374000D02*
X17311000Y-10454000D01*
X17311000Y-10374000D02*
X17231000Y-10454000D01*
X17231000Y-10628000D02*
X17311000Y-10708000D01*
X17311000Y-10628000D02*
X17231000Y-10708000D01*
X17231000Y-10882000D02*
X17311000Y-10962000D01*
X17311000Y-10882000D02*
X17231000Y-10962000D01*
X17231000Y-11136000D02*
X17311000Y-11216000D01*
X17311000Y-11136000D02*
X17231000Y-11216000D01*
X17231000Y-11390000D02*
X17311000Y-11470000D01*
X17311000Y-11390000D02*
X17231000Y-11470000D01*
X18496265Y-9104000D02*
X18576265Y-9184000D01*
X18576265Y-9104000D02*
X18496265Y-9184000D01*
X18996265Y-9104000D02*
X19076265Y-9184000D01*
X19076265Y-9104000D02*
X18996265Y-9184000D01*
X13131000Y-7620000D02*
G75*
G03*
X13031000Y-7620000I-50000J0D01*
G01*
X13031000Y-7620000D02*
G75*
G03*
X13131000Y-7620000I50000J0D01*
G01*
X13131000Y-7874000D02*
G75*
G03*
X13031000Y-7874000I-50000J0D01*
G01*
X13031000Y-7874000D02*
G75*
G03*
X13131000Y-7874000I50000J0D01*
G01*
X13131000Y-8128000D02*
G75*
G03*
X13031000Y-8128000I-50000J0D01*
G01*
X13031000Y-8128000D02*
G75*
G03*
X13131000Y-8128000I50000J0D01*
G01*
X13131000Y-8382000D02*
G75*
G03*
X13031000Y-8382000I-50000J0D01*
G01*
X13031000Y-8382000D02*
G75*
G03*
X13131000Y-8382000I50000J0D01*
G01*
X13131000Y-8636000D02*
G75*
G03*
X13031000Y-8636000I-50000J0D01*
G01*
X13031000Y-8636000D02*
G75*
G03*
X13131000Y-8636000I50000J0D01*
G01*
X13131000Y-8890000D02*
G75*
G03*
X13031000Y-8890000I-50000J0D01*
G01*
X13031000Y-8890000D02*
G75*
G03*
X13131000Y-8890000I50000J0D01*
G01*
X13131000Y-9144000D02*
G75*
G03*
X13031000Y-9144000I-50000J0D01*
G01*
X13031000Y-9144000D02*
G75*
G03*
X13131000Y-9144000I50000J0D01*
G01*
X13131000Y-9398000D02*
G75*
G03*
X13031000Y-9398000I-50000J0D01*
G01*
X13031000Y-9398000D02*
G75*
G03*
X13131000Y-9398000I50000J0D01*
G01*
X13131000Y-9652000D02*
G75*
G03*
X13031000Y-9652000I-50000J0D01*
G01*
X13031000Y-9652000D02*
G75*
G03*
X13131000Y-9652000I50000J0D01*
G01*
X13131000Y-9906000D02*
G75*
G03*
X13031000Y-9906000I-50000J0D01*
G01*
X13031000Y-9906000D02*
G75*
G03*
X13131000Y-9906000I50000J0D01*
G01*
X13131000Y-10160000D02*
G75*
G03*
X13031000Y-10160000I-50000J0D01*
G01*
X13031000Y-10160000D02*
G75*
G03*
X13131000Y-10160000I50000J0D01*
G01*
X13131000Y-10414000D02*
G75*
G03*
X13031000Y-10414000I-50000J0D01*
G01*
X13031000Y-10414000D02*
G75*
G03*
X13131000Y-10414000I50000J0D01*
G01*
X13131000Y-10668000D02*
G75*
G03*
X13031000Y-10668000I-50000J0D01*
G01*
X13031000Y-10668000D02*
G75*
G03*
X13131000Y-10668000I50000J0D01*
G01*
X13131000Y-10922000D02*
G75*
G03*
X13031000Y-10922000I-50000J0D01*
G01*
X13031000Y-10922000D02*
G75*
G03*
X13131000Y-10922000I50000J0D01*
G01*
X13131000Y-11176000D02*
G75*
G03*
X13031000Y-11176000I-50000J0D01*
G01*
X13031000Y-11176000D02*
G75*
G03*
X13131000Y-11176000I50000J0D01*
G01*
X14655000Y-7620000D02*
G75*
G03*
X14555000Y-7620000I-50000J0D01*
G01*
X14555000Y-7620000D02*
G75*
G03*
X14655000Y-7620000I50000J0D01*
G01*
X14655000Y-7874000D02*
G75*
G03*
X14555000Y-7874000I-50000J0D01*
G01*
X14555000Y-7874000D02*
G75*
G03*
X14655000Y-7874000I50000J0D01*
G01*
X14655000Y-8128000D02*
G75*
G03*
X14555000Y-8128000I-50000J0D01*
G01*
X14555000Y-8128000D02*
G75*
G03*
X14655000Y-8128000I50000J0D01*
G01*
X14655000Y-8382000D02*
G75*
G03*
X14555000Y-8382000I-50000J0D01*
G01*
X14555000Y-8382000D02*
G75*
G03*
X14655000Y-8382000I50000J0D01*
G01*
X14655000Y-8636000D02*
G75*
G03*
X14555000Y-8636000I-50000J0D01*
G01*
X14555000Y-8636000D02*
G75*
G03*
X14655000Y-8636000I50000J0D01*
G01*
X14655000Y-8890000D02*
G75*
G03*
X14555000Y-8890000I-50000J0D01*
G01*
X14555000Y-8890000D02*
G75*
G03*
X14655000Y-8890000I50000J0D01*
G01*
X14655000Y-9144000D02*
G75*
G03*
X14555000Y-9144000I-50000J0D01*
G01*
X14555000Y-9144000D02*
G75*
G03*
X14655000Y-9144000I50000J0D01*
G01*
X14655000Y-9398000D02*
G75*
G03*
X14555000Y-9398000I-50000J0D01*
G01*
X14555000Y-9398000D02*
G75*
G03*
X14655000Y-9398000I50000J0D01*
G01*
X14655000Y-9652000D02*
G75*
G03*
X14555000Y-9652000I-50000J0D01*
G01*
X14555000Y-9652000D02*
G75*
G03*
X14655000Y-9652000I50000J0D01*
G01*
X14655000Y-9906000D02*
G75*
G03*
X14555000Y-9906000I-50000J0D01*
G01*
X14555000Y-9906000D02*
G75*
G03*
X14655000Y-9906000I50000J0D01*
G01*
X14655000Y-10160000D02*
G75*
G03*
X14555000Y-10160000I-50000J0D01*
G01*
X14555000Y-10160000D02*
G75*
G03*
X14655000Y-10160000I50000J0D01*
G01*
X14655000Y-10414000D02*
G75*
G03*
X14555000Y-10414000I-50000J0D01*
G01*
X14555000Y-10414000D02*
G75*
G03*
X14655000Y-10414000I50000J0D01*
G01*
X14655000Y-10668000D02*
G75*
G03*
X14555000Y-10668000I-50000J0D01*
G01*
X14555000Y-10668000D02*
G75*
G03*
X14655000Y-10668000I50000J0D01*
G01*
X14655000Y-10922000D02*
G75*
G03*
X14555000Y-10922000I-50000J0D01*
G01*
X14555000Y-10922000D02*
G75*
G03*
X14655000Y-10922000I50000J0D01*
G01*
X14655000Y-11176000D02*
G75*
G03*
X14555000Y-11176000I-50000J0D01*
G01*
X14555000Y-11176000D02*
G75*
G03*
X14655000Y-11176000I50000J0D01*
G01*
X15164000Y-8128000D02*
G75*
G03*
X15064000Y-8128000I-50000J0D01*
G01*
X15064000Y-8128000D02*
G75*
G03*
X15164000Y-8128000I50000J0D01*
G01*
X15671000Y-11430000D02*
G75*
G03*
X15571000Y-11430000I-50000J0D01*
G01*
X15571000Y-11430000D02*
G75*
G03*
X15671000Y-11430000I50000J0D01*
G01*
X17830000Y-7874000D02*
G75*
G03*
X17730000Y-7874000I-50000J0D01*
G01*
X17730000Y-7874000D02*
G75*
G03*
X17830000Y-7874000I50000J0D01*
G01*
X17830000Y-8128000D02*
G75*
G03*
X17730000Y-8128000I-50000J0D01*
G01*
X17730000Y-8128000D02*
G75*
G03*
X17830000Y-8128000I50000J0D01*
G01*
X17830000Y-8382000D02*
G75*
G03*
X17730000Y-8382000I-50000J0D01*
G01*
X17730000Y-8382000D02*
G75*
G03*
X17830000Y-8382000I50000J0D01*
G01*
X17830000Y-8636000D02*
G75*
G03*
X17730000Y-8636000I-50000J0D01*
G01*
X17730000Y-8636000D02*
G75*
G03*
X17830000Y-8636000I50000J0D01*
G01*
X17830000Y-10160000D02*
G75*
G03*
X17730000Y-10160000I-50000J0D01*
G01*
X17730000Y-10160000D02*
G75*
G03*
X17830000Y-10160000I50000J0D01*
G01*
X17830000Y-10414000D02*
G75*
G03*
X17730000Y-10414000I-50000J0D01*
G01*
X17730000Y-10414000D02*
G75*
G03*
X17830000Y-10414000I50000J0D01*
G01*
X17830000Y-10668000D02*
G75*
G03*
X17730000Y-10668000I-50000J0D01*
G01*
X17730000Y-10668000D02*
G75*
G03*
X17830000Y-10668000I50000J0D01*
G01*
X17830000Y-10922000D02*
G75*
G03*
X17730000Y-10922000I-50000J0D01*
G01*
X17730000Y-10922000D02*
G75*
G03*
X17830000Y-10922000I50000J0D01*
G01*
X18491375Y-8035375D02*
G75*
G03*
X18391375Y-8035375I-50000J0D01*
G01*
X18391375Y-8035375D02*
G75*
G03*
X18491375Y-8035375I50000J0D01*
G01*
X18391375Y-7935375D02*
X18391375Y-8135375D01*
X18391375Y-8135375D02*
G75*
G03*
X18491375Y-8135375I50000J0D01*
G01*
X18491375Y-8135375D02*
X18491375Y-7935375D01*
X18491375Y-7935375D02*
G75*
G03*
X18391375Y-7935375I-50000J0D01*
G01*
X18961375Y-7735375D02*
G75*
G03*
X18861375Y-7735375I-50000J0D01*
G01*
X18861375Y-7735375D02*
G75*
G03*
X18961375Y-7735375I50000J0D01*
G01*
X19011375Y-7685375D02*
X18811375Y-7685375D01*
X18811375Y-7685375D02*
G75*
G03*
X18811375Y-7785375I0J-50000D01*
G01*
X18811375Y-7785375D02*
X19011375Y-7785375D01*
X19011375Y-7785375D02*
G75*
G03*
X19011375Y-7685375I0J50000D01*
G01*
X18961375Y-8335375D02*
G75*
G03*
X18861375Y-8335375I-50000J0D01*
G01*
X18861375Y-8335375D02*
G75*
G03*
X18961375Y-8335375I50000J0D01*
G01*
X19011375Y-8285375D02*
X18811375Y-8285375D01*
X18811375Y-8285375D02*
G75*
G03*
X18811375Y-8385375I0J-50000D01*
G01*
X18811375Y-8385375D02*
X19011375Y-8385375D01*
X19011375Y-8385375D02*
G75*
G03*
X19011375Y-8285375I0J50000D01*
G01*
D12*
X18542000Y-11252000D02*
X18542000Y-11354000D01*
X18491000Y-11303000D02*
X18593000Y-11303000D01*
X18796000Y-11252000D02*
X18796000Y-11354000D01*
X18745000Y-11303000D02*
X18847000Y-11303000D01*
X19050000Y-11252000D02*
X19050000Y-11354000D01*
X18999000Y-11303000D02*
X19101000Y-11303000D01*
D13*
X19865741Y-8943741D02*
X19865741Y-8836259D01*
X19758259Y-8836259D01*
X19758259Y-8943741D01*
X19865741Y-8943741D01*
X19865741Y-9451741D02*
X19865741Y-9344259D01*
X19758259Y-9344259D01*
X19758259Y-9451741D01*
X19865741Y-9451741D01*
D11*
X12447777Y-12127484D02*
X12447777Y-11927484D01*
X12447777Y-11927484D02*
X12495396Y-11927484D01*
X12495396Y-11927484D02*
X12523967Y-11937008D01*
X12523967Y-11937008D02*
X12543015Y-11956055D01*
X12543015Y-11956055D02*
X12552539Y-11975103D01*
X12552539Y-11975103D02*
X12562062Y-12013198D01*
X12562062Y-12013198D02*
X12562062Y-12041769D01*
X12562062Y-12041769D02*
X12552539Y-12079865D01*
X12552539Y-12079865D02*
X12543015Y-12098912D01*
X12543015Y-12098912D02*
X12523967Y-12117960D01*
X12523967Y-12117960D02*
X12495396Y-12127484D01*
X12495396Y-12127484D02*
X12447777Y-12127484D01*
X12647777Y-12127484D02*
X12647777Y-11994150D01*
X12647777Y-12032246D02*
X12657301Y-12013198D01*
X12657301Y-12013198D02*
X12666824Y-12003674D01*
X12666824Y-12003674D02*
X12685872Y-11994150D01*
X12685872Y-11994150D02*
X12704920Y-11994150D01*
X12771586Y-12127484D02*
X12771586Y-11994150D01*
X12771586Y-11927484D02*
X12762062Y-11937008D01*
X12762062Y-11937008D02*
X12771586Y-11946531D01*
X12771586Y-11946531D02*
X12781110Y-11937008D01*
X12781110Y-11937008D02*
X12771586Y-11927484D01*
X12771586Y-11927484D02*
X12771586Y-11946531D01*
X12895396Y-12127484D02*
X12876348Y-12117960D01*
X12876348Y-12117960D02*
X12866824Y-12098912D01*
X12866824Y-12098912D02*
X12866824Y-11927484D01*
X13000158Y-12127484D02*
X12981110Y-12117960D01*
X12981110Y-12117960D02*
X12971586Y-12098912D01*
X12971586Y-12098912D02*
X12971586Y-11927484D01*
X13228729Y-12127484D02*
X13228729Y-11927484D01*
X13228729Y-11927484D02*
X13295396Y-12070341D01*
X13295396Y-12070341D02*
X13362062Y-11927484D01*
X13362062Y-11927484D02*
X13362062Y-12127484D01*
X13543015Y-12127484D02*
X13543015Y-12022722D01*
X13543015Y-12022722D02*
X13533491Y-12003674D01*
X13533491Y-12003674D02*
X13514443Y-11994150D01*
X13514443Y-11994150D02*
X13476348Y-11994150D01*
X13476348Y-11994150D02*
X13457301Y-12003674D01*
X13543015Y-12117960D02*
X13523967Y-12127484D01*
X13523967Y-12127484D02*
X13476348Y-12127484D01*
X13476348Y-12127484D02*
X13457301Y-12117960D01*
X13457301Y-12117960D02*
X13447777Y-12098912D01*
X13447777Y-12098912D02*
X13447777Y-12079865D01*
X13447777Y-12079865D02*
X13457301Y-12060817D01*
X13457301Y-12060817D02*
X13476348Y-12051293D01*
X13476348Y-12051293D02*
X13523967Y-12051293D01*
X13523967Y-12051293D02*
X13543015Y-12041769D01*
X13638253Y-11994150D02*
X13638253Y-12194150D01*
X13638253Y-12003674D02*
X13657301Y-11994150D01*
X13657301Y-11994150D02*
X13695396Y-11994150D01*
X13695396Y-11994150D02*
X13714443Y-12003674D01*
X13714443Y-12003674D02*
X13723967Y-12013198D01*
X13723967Y-12013198D02*
X13733491Y-12032246D01*
X13733491Y-12032246D02*
X13733491Y-12089388D01*
X13733491Y-12089388D02*
X13723967Y-12108436D01*
X13723967Y-12108436D02*
X13714443Y-12117960D01*
X13714443Y-12117960D02*
X13695396Y-12127484D01*
X13695396Y-12127484D02*
X13657301Y-12127484D01*
X13657301Y-12127484D02*
X13638253Y-12117960D01*
X13819205Y-12108436D02*
X13828729Y-12117960D01*
X13828729Y-12117960D02*
X13819205Y-12127484D01*
X13819205Y-12127484D02*
X13809682Y-12117960D01*
X13809682Y-12117960D02*
X13819205Y-12108436D01*
X13819205Y-12108436D02*
X13819205Y-12127484D01*
X13819205Y-12003674D02*
X13828729Y-12013198D01*
X13828729Y-12013198D02*
X13819205Y-12022722D01*
X13819205Y-12022722D02*
X13809682Y-12013198D01*
X13809682Y-12013198D02*
X13819205Y-12003674D01*
X13819205Y-12003674D02*
X13819205Y-12022722D01*
D10*
X12107000Y-12416000D02*
X12187000Y-12496000D01*
X12187000Y-12416000D02*
X12107000Y-12496000D01*
D11*
X12485872Y-12347484D02*
X12504920Y-12347484D01*
X12504920Y-12347484D02*
X12523967Y-12357008D01*
X12523967Y-12357008D02*
X12533491Y-12366531D01*
X12533491Y-12366531D02*
X12543015Y-12385579D01*
X12543015Y-12385579D02*
X12552539Y-12423674D01*
X12552539Y-12423674D02*
X12552539Y-12471293D01*
X12552539Y-12471293D02*
X12543015Y-12509388D01*
X12543015Y-12509388D02*
X12533491Y-12528436D01*
X12533491Y-12528436D02*
X12523967Y-12537960D01*
X12523967Y-12537960D02*
X12504920Y-12547484D01*
X12504920Y-12547484D02*
X12485872Y-12547484D01*
X12485872Y-12547484D02*
X12466824Y-12537960D01*
X12466824Y-12537960D02*
X12457301Y-12528436D01*
X12457301Y-12528436D02*
X12447777Y-12509388D01*
X12447777Y-12509388D02*
X12438253Y-12471293D01*
X12438253Y-12471293D02*
X12438253Y-12423674D01*
X12438253Y-12423674D02*
X12447777Y-12385579D01*
X12447777Y-12385579D02*
X12457301Y-12366531D01*
X12457301Y-12366531D02*
X12466824Y-12357008D01*
X12466824Y-12357008D02*
X12485872Y-12347484D01*
X12638253Y-12528436D02*
X12647777Y-12537960D01*
X12647777Y-12537960D02*
X12638253Y-12547484D01*
X12638253Y-12547484D02*
X12628729Y-12537960D01*
X12628729Y-12537960D02*
X12638253Y-12528436D01*
X12638253Y-12528436D02*
X12638253Y-12547484D01*
X12762062Y-12433198D02*
X12743015Y-12423674D01*
X12743015Y-12423674D02*
X12733491Y-12414150D01*
X12733491Y-12414150D02*
X12723967Y-12395103D01*
X12723967Y-12395103D02*
X12723967Y-12385579D01*
X12723967Y-12385579D02*
X12733491Y-12366531D01*
X12733491Y-12366531D02*
X12743015Y-12357008D01*
X12743015Y-12357008D02*
X12762062Y-12347484D01*
X12762062Y-12347484D02*
X12800158Y-12347484D01*
X12800158Y-12347484D02*
X12819205Y-12357008D01*
X12819205Y-12357008D02*
X12828729Y-12366531D01*
X12828729Y-12366531D02*
X12838253Y-12385579D01*
X12838253Y-12385579D02*
X12838253Y-12395103D01*
X12838253Y-12395103D02*
X12828729Y-12414150D01*
X12828729Y-12414150D02*
X12819205Y-12423674D01*
X12819205Y-12423674D02*
X12800158Y-12433198D01*
X12800158Y-12433198D02*
X12762062Y-12433198D01*
X12762062Y-12433198D02*
X12743015Y-12442722D01*
X12743015Y-12442722D02*
X12733491Y-12452246D01*
X12733491Y-12452246D02*
X12723967Y-12471293D01*
X12723967Y-12471293D02*
X12723967Y-12509388D01*
X12723967Y-12509388D02*
X12733491Y-12528436D01*
X12733491Y-12528436D02*
X12743015Y-12537960D01*
X12743015Y-12537960D02*
X12762062Y-12547484D01*
X12762062Y-12547484D02*
X12800158Y-12547484D01*
X12800158Y-12547484D02*
X12819205Y-12537960D01*
X12819205Y-12537960D02*
X12828729Y-12528436D01*
X12828729Y-12528436D02*
X12838253Y-12509388D01*
X12838253Y-12509388D02*
X12838253Y-12471293D01*
X12838253Y-12471293D02*
X12828729Y-12452246D01*
X12828729Y-12452246D02*
X12819205Y-12442722D01*
X12819205Y-12442722D02*
X12800158Y-12433198D01*
X12962062Y-12347484D02*
X12981110Y-12347484D01*
X12981110Y-12347484D02*
X13000158Y-12357008D01*
X13000158Y-12357008D02*
X13009682Y-12366531D01*
X13009682Y-12366531D02*
X13019205Y-12385579D01*
X13019205Y-12385579D02*
X13028729Y-12423674D01*
X13028729Y-12423674D02*
X13028729Y-12471293D01*
X13028729Y-12471293D02*
X13019205Y-12509388D01*
X13019205Y-12509388D02*
X13009682Y-12528436D01*
X13009682Y-12528436D02*
X13000158Y-12537960D01*
X13000158Y-12537960D02*
X12981110Y-12547484D01*
X12981110Y-12547484D02*
X12962062Y-12547484D01*
X12962062Y-12547484D02*
X12943015Y-12537960D01*
X12943015Y-12537960D02*
X12933491Y-12528436D01*
X12933491Y-12528436D02*
X12923967Y-12509388D01*
X12923967Y-12509388D02*
X12914443Y-12471293D01*
X12914443Y-12471293D02*
X12914443Y-12423674D01*
X12914443Y-12423674D02*
X12923967Y-12385579D01*
X12923967Y-12385579D02*
X12933491Y-12366531D01*
X12933491Y-12366531D02*
X12943015Y-12357008D01*
X12943015Y-12357008D02*
X12962062Y-12347484D01*
X13152539Y-12347484D02*
X13171586Y-12347484D01*
X13171586Y-12347484D02*
X13190634Y-12357008D01*
X13190634Y-12357008D02*
X13200158Y-12366531D01*
X13200158Y-12366531D02*
X13209682Y-12385579D01*
X13209682Y-12385579D02*
X13219205Y-12423674D01*
X13219205Y-12423674D02*
X13219205Y-12471293D01*
X13219205Y-12471293D02*
X13209682Y-12509388D01*
X13209682Y-12509388D02*
X13200158Y-12528436D01*
X13200158Y-12528436D02*
X13190634Y-12537960D01*
X13190634Y-12537960D02*
X13171586Y-12547484D01*
X13171586Y-12547484D02*
X13152539Y-12547484D01*
X13152539Y-12547484D02*
X13133491Y-12537960D01*
X13133491Y-12537960D02*
X13123967Y-12528436D01*
X13123967Y-12528436D02*
X13114443Y-12509388D01*
X13114443Y-12509388D02*
X13104920Y-12471293D01*
X13104920Y-12471293D02*
X13104920Y-12423674D01*
X13104920Y-12423674D02*
X13114443Y-12385579D01*
X13114443Y-12385579D02*
X13123967Y-12366531D01*
X13123967Y-12366531D02*
X13133491Y-12357008D01*
X13133491Y-12357008D02*
X13152539Y-12347484D01*
X13304920Y-12547484D02*
X13304920Y-12414150D01*
X13304920Y-12433198D02*
X13314443Y-12423674D01*
X13314443Y-12423674D02*
X13333491Y-12414150D01*
X13333491Y-12414150D02*
X13362063Y-12414150D01*
X13362063Y-12414150D02*
X13381110Y-12423674D01*
X13381110Y-12423674D02*
X13390634Y-12442722D01*
X13390634Y-12442722D02*
X13390634Y-12547484D01*
X13390634Y-12442722D02*
X13400158Y-12423674D01*
X13400158Y-12423674D02*
X13419205Y-12414150D01*
X13419205Y-12414150D02*
X13447777Y-12414150D01*
X13447777Y-12414150D02*
X13466824Y-12423674D01*
X13466824Y-12423674D02*
X13476348Y-12442722D01*
X13476348Y-12442722D02*
X13476348Y-12547484D01*
X13571586Y-12547484D02*
X13571586Y-12414150D01*
X13571586Y-12433198D02*
X13581110Y-12423674D01*
X13581110Y-12423674D02*
X13600158Y-12414150D01*
X13600158Y-12414150D02*
X13628729Y-12414150D01*
X13628729Y-12414150D02*
X13647777Y-12423674D01*
X13647777Y-12423674D02*
X13657301Y-12442722D01*
X13657301Y-12442722D02*
X13657301Y-12547484D01*
X13657301Y-12442722D02*
X13666824Y-12423674D01*
X13666824Y-12423674D02*
X13685872Y-12414150D01*
X13685872Y-12414150D02*
X13714443Y-12414150D01*
X13714443Y-12414150D02*
X13733491Y-12423674D01*
X13733491Y-12423674D02*
X13743015Y-12442722D01*
X13743015Y-12442722D02*
X13743015Y-12547484D01*
X14133491Y-12337960D02*
X13962063Y-12595103D01*
X14390634Y-12347484D02*
X14409682Y-12347484D01*
X14409682Y-12347484D02*
X14428729Y-12357008D01*
X14428729Y-12357008D02*
X14438253Y-12366531D01*
X14438253Y-12366531D02*
X14447777Y-12385579D01*
X14447777Y-12385579D02*
X14457301Y-12423674D01*
X14457301Y-12423674D02*
X14457301Y-12471293D01*
X14457301Y-12471293D02*
X14447777Y-12509388D01*
X14447777Y-12509388D02*
X14438253Y-12528436D01*
X14438253Y-12528436D02*
X14428729Y-12537960D01*
X14428729Y-12537960D02*
X14409682Y-12547484D01*
X14409682Y-12547484D02*
X14390634Y-12547484D01*
X14390634Y-12547484D02*
X14371586Y-12537960D01*
X14371586Y-12537960D02*
X14362063Y-12528436D01*
X14362063Y-12528436D02*
X14352539Y-12509388D01*
X14352539Y-12509388D02*
X14343015Y-12471293D01*
X14343015Y-12471293D02*
X14343015Y-12423674D01*
X14343015Y-12423674D02*
X14352539Y-12385579D01*
X14352539Y-12385579D02*
X14362063Y-12366531D01*
X14362063Y-12366531D02*
X14371586Y-12357008D01*
X14371586Y-12357008D02*
X14390634Y-12347484D01*
X14543015Y-12528436D02*
X14552539Y-12537960D01*
X14552539Y-12537960D02*
X14543015Y-12547484D01*
X14543015Y-12547484D02*
X14533491Y-12537960D01*
X14533491Y-12537960D02*
X14543015Y-12528436D01*
X14543015Y-12528436D02*
X14543015Y-12547484D01*
X14676348Y-12347484D02*
X14695396Y-12347484D01*
X14695396Y-12347484D02*
X14714444Y-12357008D01*
X14714444Y-12357008D02*
X14723967Y-12366531D01*
X14723967Y-12366531D02*
X14733491Y-12385579D01*
X14733491Y-12385579D02*
X14743015Y-12423674D01*
X14743015Y-12423674D02*
X14743015Y-12471293D01*
X14743015Y-12471293D02*
X14733491Y-12509388D01*
X14733491Y-12509388D02*
X14723967Y-12528436D01*
X14723967Y-12528436D02*
X14714444Y-12537960D01*
X14714444Y-12537960D02*
X14695396Y-12547484D01*
X14695396Y-12547484D02*
X14676348Y-12547484D01*
X14676348Y-12547484D02*
X14657301Y-12537960D01*
X14657301Y-12537960D02*
X14647777Y-12528436D01*
X14647777Y-12528436D02*
X14638253Y-12509388D01*
X14638253Y-12509388D02*
X14628729Y-12471293D01*
X14628729Y-12471293D02*
X14628729Y-12423674D01*
X14628729Y-12423674D02*
X14638253Y-12385579D01*
X14638253Y-12385579D02*
X14647777Y-12366531D01*
X14647777Y-12366531D02*
X14657301Y-12357008D01*
X14657301Y-12357008D02*
X14676348Y-12347484D01*
X14809682Y-12347484D02*
X14933491Y-12347484D01*
X14933491Y-12347484D02*
X14866825Y-12423674D01*
X14866825Y-12423674D02*
X14895396Y-12423674D01*
X14895396Y-12423674D02*
X14914444Y-12433198D01*
X14914444Y-12433198D02*
X14923967Y-12442722D01*
X14923967Y-12442722D02*
X14933491Y-12461769D01*
X14933491Y-12461769D02*
X14933491Y-12509388D01*
X14933491Y-12509388D02*
X14923967Y-12528436D01*
X14923967Y-12528436D02*
X14914444Y-12537960D01*
X14914444Y-12537960D02*
X14895396Y-12547484D01*
X14895396Y-12547484D02*
X14838253Y-12547484D01*
X14838253Y-12547484D02*
X14819206Y-12537960D01*
X14819206Y-12537960D02*
X14809682Y-12528436D01*
X15123967Y-12547484D02*
X15009682Y-12547484D01*
X15066825Y-12547484D02*
X15066825Y-12347484D01*
X15066825Y-12347484D02*
X15047777Y-12376055D01*
X15047777Y-12376055D02*
X15028729Y-12395103D01*
X15028729Y-12395103D02*
X15009682Y-12404627D01*
X15304920Y-12347484D02*
X15209682Y-12347484D01*
X15209682Y-12347484D02*
X15200158Y-12442722D01*
X15200158Y-12442722D02*
X15209682Y-12433198D01*
X15209682Y-12433198D02*
X15228729Y-12423674D01*
X15228729Y-12423674D02*
X15276348Y-12423674D01*
X15276348Y-12423674D02*
X15295396Y-12433198D01*
X15295396Y-12433198D02*
X15304920Y-12442722D01*
X15304920Y-12442722D02*
X15314444Y-12461769D01*
X15314444Y-12461769D02*
X15314444Y-12509388D01*
X15314444Y-12509388D02*
X15304920Y-12528436D01*
X15304920Y-12528436D02*
X15295396Y-12537960D01*
X15295396Y-12537960D02*
X15276348Y-12547484D01*
X15276348Y-12547484D02*
X15228729Y-12547484D01*
X15228729Y-12547484D02*
X15209682Y-12537960D01*
X15209682Y-12537960D02*
X15200158Y-12528436D01*
X15390634Y-12347484D02*
X15390634Y-12385579D01*
X15466825Y-12347484D02*
X15466825Y-12385579D01*
X15762063Y-12623674D02*
X15752539Y-12614150D01*
X15752539Y-12614150D02*
X15733491Y-12585579D01*
X15733491Y-12585579D02*
X15723968Y-12566531D01*
X15723968Y-12566531D02*
X15714444Y-12537960D01*
X15714444Y-12537960D02*
X15704920Y-12490341D01*
X15704920Y-12490341D02*
X15704920Y-12452246D01*
X15704920Y-12452246D02*
X15714444Y-12404627D01*
X15714444Y-12404627D02*
X15723968Y-12376055D01*
X15723968Y-12376055D02*
X15733491Y-12357008D01*
X15733491Y-12357008D02*
X15752539Y-12328436D01*
X15752539Y-12328436D02*
X15762063Y-12318912D01*
X15819206Y-12347484D02*
X15943015Y-12347484D01*
X15943015Y-12347484D02*
X15876348Y-12423674D01*
X15876348Y-12423674D02*
X15904920Y-12423674D01*
X15904920Y-12423674D02*
X15923968Y-12433198D01*
X15923968Y-12433198D02*
X15933491Y-12442722D01*
X15933491Y-12442722D02*
X15943015Y-12461769D01*
X15943015Y-12461769D02*
X15943015Y-12509388D01*
X15943015Y-12509388D02*
X15933491Y-12528436D01*
X15933491Y-12528436D02*
X15923968Y-12537960D01*
X15923968Y-12537960D02*
X15904920Y-12547484D01*
X15904920Y-12547484D02*
X15847777Y-12547484D01*
X15847777Y-12547484D02*
X15828729Y-12537960D01*
X15828729Y-12537960D02*
X15819206Y-12528436D01*
X16114444Y-12414150D02*
X16114444Y-12547484D01*
X16066825Y-12337960D02*
X16019206Y-12480817D01*
X16019206Y-12480817D02*
X16143015Y-12480817D01*
X16371587Y-12547484D02*
X16371587Y-12347484D01*
X16457301Y-12547484D02*
X16457301Y-12442722D01*
X16457301Y-12442722D02*
X16447777Y-12423674D01*
X16447777Y-12423674D02*
X16428730Y-12414150D01*
X16428730Y-12414150D02*
X16400158Y-12414150D01*
X16400158Y-12414150D02*
X16381110Y-12423674D01*
X16381110Y-12423674D02*
X16371587Y-12433198D01*
X16581110Y-12547484D02*
X16562063Y-12537960D01*
X16562063Y-12537960D02*
X16552539Y-12528436D01*
X16552539Y-12528436D02*
X16543015Y-12509388D01*
X16543015Y-12509388D02*
X16543015Y-12452246D01*
X16543015Y-12452246D02*
X16552539Y-12433198D01*
X16552539Y-12433198D02*
X16562063Y-12423674D01*
X16562063Y-12423674D02*
X16581110Y-12414150D01*
X16581110Y-12414150D02*
X16609682Y-12414150D01*
X16609682Y-12414150D02*
X16628730Y-12423674D01*
X16628730Y-12423674D02*
X16638253Y-12433198D01*
X16638253Y-12433198D02*
X16647777Y-12452246D01*
X16647777Y-12452246D02*
X16647777Y-12509388D01*
X16647777Y-12509388D02*
X16638253Y-12528436D01*
X16638253Y-12528436D02*
X16628730Y-12537960D01*
X16628730Y-12537960D02*
X16609682Y-12547484D01*
X16609682Y-12547484D02*
X16581110Y-12547484D01*
X16762063Y-12547484D02*
X16743015Y-12537960D01*
X16743015Y-12537960D02*
X16733491Y-12518912D01*
X16733491Y-12518912D02*
X16733491Y-12347484D01*
X16914444Y-12537960D02*
X16895396Y-12547484D01*
X16895396Y-12547484D02*
X16857301Y-12547484D01*
X16857301Y-12547484D02*
X16838253Y-12537960D01*
X16838253Y-12537960D02*
X16828730Y-12518912D01*
X16828730Y-12518912D02*
X16828730Y-12442722D01*
X16828730Y-12442722D02*
X16838253Y-12423674D01*
X16838253Y-12423674D02*
X16857301Y-12414150D01*
X16857301Y-12414150D02*
X16895396Y-12414150D01*
X16895396Y-12414150D02*
X16914444Y-12423674D01*
X16914444Y-12423674D02*
X16923968Y-12442722D01*
X16923968Y-12442722D02*
X16923968Y-12461769D01*
X16923968Y-12461769D02*
X16828730Y-12480817D01*
X17000158Y-12537960D02*
X17019206Y-12547484D01*
X17019206Y-12547484D02*
X17057301Y-12547484D01*
X17057301Y-12547484D02*
X17076349Y-12537960D01*
X17076349Y-12537960D02*
X17085873Y-12518912D01*
X17085873Y-12518912D02*
X17085873Y-12509388D01*
X17085873Y-12509388D02*
X17076349Y-12490341D01*
X17076349Y-12490341D02*
X17057301Y-12480817D01*
X17057301Y-12480817D02*
X17028730Y-12480817D01*
X17028730Y-12480817D02*
X17009682Y-12471293D01*
X17009682Y-12471293D02*
X17000158Y-12452246D01*
X17000158Y-12452246D02*
X17000158Y-12442722D01*
X17000158Y-12442722D02*
X17009682Y-12423674D01*
X17009682Y-12423674D02*
X17028730Y-12414150D01*
X17028730Y-12414150D02*
X17057301Y-12414150D01*
X17057301Y-12414150D02*
X17076349Y-12423674D01*
X17152539Y-12623674D02*
X17162063Y-12614150D01*
X17162063Y-12614150D02*
X17181111Y-12585579D01*
X17181111Y-12585579D02*
X17190634Y-12566531D01*
X17190634Y-12566531D02*
X17200158Y-12537960D01*
X17200158Y-12537960D02*
X17209682Y-12490341D01*
X17209682Y-12490341D02*
X17209682Y-12452246D01*
X17209682Y-12452246D02*
X17200158Y-12404627D01*
X17200158Y-12404627D02*
X17190634Y-12376055D01*
X17190634Y-12376055D02*
X17181111Y-12357008D01*
X17181111Y-12357008D02*
X17162063Y-12328436D01*
X17162063Y-12328436D02*
X17152539Y-12318912D01*
D10*
X12187000Y-12720000D02*
G75*
G03*
X12087000Y-12720000I-50000J0D01*
G01*
X12087000Y-12720000D02*
G75*
G03*
X12187000Y-12720000I50000J0D01*
G01*
D11*
X12552539Y-12811484D02*
X12438253Y-12811484D01*
X12495396Y-12811484D02*
X12495396Y-12611484D01*
X12495396Y-12611484D02*
X12476348Y-12640055D01*
X12476348Y-12640055D02*
X12457301Y-12659103D01*
X12457301Y-12659103D02*
X12438253Y-12668627D01*
X12638253Y-12792436D02*
X12647777Y-12801960D01*
X12647777Y-12801960D02*
X12638253Y-12811484D01*
X12638253Y-12811484D02*
X12628729Y-12801960D01*
X12628729Y-12801960D02*
X12638253Y-12792436D01*
X12638253Y-12792436D02*
X12638253Y-12811484D01*
X12771586Y-12611484D02*
X12790634Y-12611484D01*
X12790634Y-12611484D02*
X12809682Y-12621008D01*
X12809682Y-12621008D02*
X12819205Y-12630531D01*
X12819205Y-12630531D02*
X12828729Y-12649579D01*
X12828729Y-12649579D02*
X12838253Y-12687674D01*
X12838253Y-12687674D02*
X12838253Y-12735293D01*
X12838253Y-12735293D02*
X12828729Y-12773388D01*
X12828729Y-12773388D02*
X12819205Y-12792436D01*
X12819205Y-12792436D02*
X12809682Y-12801960D01*
X12809682Y-12801960D02*
X12790634Y-12811484D01*
X12790634Y-12811484D02*
X12771586Y-12811484D01*
X12771586Y-12811484D02*
X12752539Y-12801960D01*
X12752539Y-12801960D02*
X12743015Y-12792436D01*
X12743015Y-12792436D02*
X12733491Y-12773388D01*
X12733491Y-12773388D02*
X12723967Y-12735293D01*
X12723967Y-12735293D02*
X12723967Y-12687674D01*
X12723967Y-12687674D02*
X12733491Y-12649579D01*
X12733491Y-12649579D02*
X12743015Y-12630531D01*
X12743015Y-12630531D02*
X12752539Y-12621008D01*
X12752539Y-12621008D02*
X12771586Y-12611484D01*
X12962062Y-12611484D02*
X12981110Y-12611484D01*
X12981110Y-12611484D02*
X13000158Y-12621008D01*
X13000158Y-12621008D02*
X13009682Y-12630531D01*
X13009682Y-12630531D02*
X13019205Y-12649579D01*
X13019205Y-12649579D02*
X13028729Y-12687674D01*
X13028729Y-12687674D02*
X13028729Y-12735293D01*
X13028729Y-12735293D02*
X13019205Y-12773388D01*
X13019205Y-12773388D02*
X13009682Y-12792436D01*
X13009682Y-12792436D02*
X13000158Y-12801960D01*
X13000158Y-12801960D02*
X12981110Y-12811484D01*
X12981110Y-12811484D02*
X12962062Y-12811484D01*
X12962062Y-12811484D02*
X12943015Y-12801960D01*
X12943015Y-12801960D02*
X12933491Y-12792436D01*
X12933491Y-12792436D02*
X12923967Y-12773388D01*
X12923967Y-12773388D02*
X12914443Y-12735293D01*
X12914443Y-12735293D02*
X12914443Y-12687674D01*
X12914443Y-12687674D02*
X12923967Y-12649579D01*
X12923967Y-12649579D02*
X12933491Y-12630531D01*
X12933491Y-12630531D02*
X12943015Y-12621008D01*
X12943015Y-12621008D02*
X12962062Y-12611484D01*
X13152539Y-12611484D02*
X13171586Y-12611484D01*
X13171586Y-12611484D02*
X13190634Y-12621008D01*
X13190634Y-12621008D02*
X13200158Y-12630531D01*
X13200158Y-12630531D02*
X13209682Y-12649579D01*
X13209682Y-12649579D02*
X13219205Y-12687674D01*
X13219205Y-12687674D02*
X13219205Y-12735293D01*
X13219205Y-12735293D02*
X13209682Y-12773388D01*
X13209682Y-12773388D02*
X13200158Y-12792436D01*
X13200158Y-12792436D02*
X13190634Y-12801960D01*
X13190634Y-12801960D02*
X13171586Y-12811484D01*
X13171586Y-12811484D02*
X13152539Y-12811484D01*
X13152539Y-12811484D02*
X13133491Y-12801960D01*
X13133491Y-12801960D02*
X13123967Y-12792436D01*
X13123967Y-12792436D02*
X13114443Y-12773388D01*
X13114443Y-12773388D02*
X13104920Y-12735293D01*
X13104920Y-12735293D02*
X13104920Y-12687674D01*
X13104920Y-12687674D02*
X13114443Y-12649579D01*
X13114443Y-12649579D02*
X13123967Y-12630531D01*
X13123967Y-12630531D02*
X13133491Y-12621008D01*
X13133491Y-12621008D02*
X13152539Y-12611484D01*
X13304920Y-12811484D02*
X13304920Y-12678150D01*
X13304920Y-12697198D02*
X13314443Y-12687674D01*
X13314443Y-12687674D02*
X13333491Y-12678150D01*
X13333491Y-12678150D02*
X13362063Y-12678150D01*
X13362063Y-12678150D02*
X13381110Y-12687674D01*
X13381110Y-12687674D02*
X13390634Y-12706722D01*
X13390634Y-12706722D02*
X13390634Y-12811484D01*
X13390634Y-12706722D02*
X13400158Y-12687674D01*
X13400158Y-12687674D02*
X13419205Y-12678150D01*
X13419205Y-12678150D02*
X13447777Y-12678150D01*
X13447777Y-12678150D02*
X13466824Y-12687674D01*
X13466824Y-12687674D02*
X13476348Y-12706722D01*
X13476348Y-12706722D02*
X13476348Y-12811484D01*
X13571586Y-12811484D02*
X13571586Y-12678150D01*
X13571586Y-12697198D02*
X13581110Y-12687674D01*
X13581110Y-12687674D02*
X13600158Y-12678150D01*
X13600158Y-12678150D02*
X13628729Y-12678150D01*
X13628729Y-12678150D02*
X13647777Y-12687674D01*
X13647777Y-12687674D02*
X13657301Y-12706722D01*
X13657301Y-12706722D02*
X13657301Y-12811484D01*
X13657301Y-12706722D02*
X13666824Y-12687674D01*
X13666824Y-12687674D02*
X13685872Y-12678150D01*
X13685872Y-12678150D02*
X13714443Y-12678150D01*
X13714443Y-12678150D02*
X13733491Y-12687674D01*
X13733491Y-12687674D02*
X13743015Y-12706722D01*
X13743015Y-12706722D02*
X13743015Y-12811484D01*
X14133491Y-12601960D02*
X13962063Y-12859103D01*
X14390634Y-12611484D02*
X14409682Y-12611484D01*
X14409682Y-12611484D02*
X14428729Y-12621008D01*
X14428729Y-12621008D02*
X14438253Y-12630531D01*
X14438253Y-12630531D02*
X14447777Y-12649579D01*
X14447777Y-12649579D02*
X14457301Y-12687674D01*
X14457301Y-12687674D02*
X14457301Y-12735293D01*
X14457301Y-12735293D02*
X14447777Y-12773388D01*
X14447777Y-12773388D02*
X14438253Y-12792436D01*
X14438253Y-12792436D02*
X14428729Y-12801960D01*
X14428729Y-12801960D02*
X14409682Y-12811484D01*
X14409682Y-12811484D02*
X14390634Y-12811484D01*
X14390634Y-12811484D02*
X14371586Y-12801960D01*
X14371586Y-12801960D02*
X14362063Y-12792436D01*
X14362063Y-12792436D02*
X14352539Y-12773388D01*
X14352539Y-12773388D02*
X14343015Y-12735293D01*
X14343015Y-12735293D02*
X14343015Y-12687674D01*
X14343015Y-12687674D02*
X14352539Y-12649579D01*
X14352539Y-12649579D02*
X14362063Y-12630531D01*
X14362063Y-12630531D02*
X14371586Y-12621008D01*
X14371586Y-12621008D02*
X14390634Y-12611484D01*
X14543015Y-12792436D02*
X14552539Y-12801960D01*
X14552539Y-12801960D02*
X14543015Y-12811484D01*
X14543015Y-12811484D02*
X14533491Y-12801960D01*
X14533491Y-12801960D02*
X14543015Y-12792436D01*
X14543015Y-12792436D02*
X14543015Y-12811484D01*
X14676348Y-12611484D02*
X14695396Y-12611484D01*
X14695396Y-12611484D02*
X14714444Y-12621008D01*
X14714444Y-12621008D02*
X14723967Y-12630531D01*
X14723967Y-12630531D02*
X14733491Y-12649579D01*
X14733491Y-12649579D02*
X14743015Y-12687674D01*
X14743015Y-12687674D02*
X14743015Y-12735293D01*
X14743015Y-12735293D02*
X14733491Y-12773388D01*
X14733491Y-12773388D02*
X14723967Y-12792436D01*
X14723967Y-12792436D02*
X14714444Y-12801960D01*
X14714444Y-12801960D02*
X14695396Y-12811484D01*
X14695396Y-12811484D02*
X14676348Y-12811484D01*
X14676348Y-12811484D02*
X14657301Y-12801960D01*
X14657301Y-12801960D02*
X14647777Y-12792436D01*
X14647777Y-12792436D02*
X14638253Y-12773388D01*
X14638253Y-12773388D02*
X14628729Y-12735293D01*
X14628729Y-12735293D02*
X14628729Y-12687674D01*
X14628729Y-12687674D02*
X14638253Y-12649579D01*
X14638253Y-12649579D02*
X14647777Y-12630531D01*
X14647777Y-12630531D02*
X14657301Y-12621008D01*
X14657301Y-12621008D02*
X14676348Y-12611484D01*
X14809682Y-12611484D02*
X14933491Y-12611484D01*
X14933491Y-12611484D02*
X14866825Y-12687674D01*
X14866825Y-12687674D02*
X14895396Y-12687674D01*
X14895396Y-12687674D02*
X14914444Y-12697198D01*
X14914444Y-12697198D02*
X14923967Y-12706722D01*
X14923967Y-12706722D02*
X14933491Y-12725769D01*
X14933491Y-12725769D02*
X14933491Y-12773388D01*
X14933491Y-12773388D02*
X14923967Y-12792436D01*
X14923967Y-12792436D02*
X14914444Y-12801960D01*
X14914444Y-12801960D02*
X14895396Y-12811484D01*
X14895396Y-12811484D02*
X14838253Y-12811484D01*
X14838253Y-12811484D02*
X14819206Y-12801960D01*
X14819206Y-12801960D02*
X14809682Y-12792436D01*
X15028729Y-12811484D02*
X15066825Y-12811484D01*
X15066825Y-12811484D02*
X15085872Y-12801960D01*
X15085872Y-12801960D02*
X15095396Y-12792436D01*
X15095396Y-12792436D02*
X15114444Y-12763865D01*
X15114444Y-12763865D02*
X15123967Y-12725769D01*
X15123967Y-12725769D02*
X15123967Y-12649579D01*
X15123967Y-12649579D02*
X15114444Y-12630531D01*
X15114444Y-12630531D02*
X15104920Y-12621008D01*
X15104920Y-12621008D02*
X15085872Y-12611484D01*
X15085872Y-12611484D02*
X15047777Y-12611484D01*
X15047777Y-12611484D02*
X15028729Y-12621008D01*
X15028729Y-12621008D02*
X15019206Y-12630531D01*
X15019206Y-12630531D02*
X15009682Y-12649579D01*
X15009682Y-12649579D02*
X15009682Y-12697198D01*
X15009682Y-12697198D02*
X15019206Y-12716246D01*
X15019206Y-12716246D02*
X15028729Y-12725769D01*
X15028729Y-12725769D02*
X15047777Y-12735293D01*
X15047777Y-12735293D02*
X15085872Y-12735293D01*
X15085872Y-12735293D02*
X15104920Y-12725769D01*
X15104920Y-12725769D02*
X15114444Y-12716246D01*
X15114444Y-12716246D02*
X15123967Y-12697198D01*
X15295396Y-12678150D02*
X15295396Y-12811484D01*
X15247777Y-12601960D02*
X15200158Y-12744817D01*
X15200158Y-12744817D02*
X15323967Y-12744817D01*
X15390634Y-12611484D02*
X15390634Y-12649579D01*
X15466825Y-12611484D02*
X15466825Y-12649579D01*
X15762063Y-12887674D02*
X15752539Y-12878150D01*
X15752539Y-12878150D02*
X15733491Y-12849579D01*
X15733491Y-12849579D02*
X15723968Y-12830531D01*
X15723968Y-12830531D02*
X15714444Y-12801960D01*
X15714444Y-12801960D02*
X15704920Y-12754341D01*
X15704920Y-12754341D02*
X15704920Y-12716246D01*
X15704920Y-12716246D02*
X15714444Y-12668627D01*
X15714444Y-12668627D02*
X15723968Y-12640055D01*
X15723968Y-12640055D02*
X15733491Y-12621008D01*
X15733491Y-12621008D02*
X15752539Y-12592436D01*
X15752539Y-12592436D02*
X15762063Y-12582912D01*
X15923968Y-12678150D02*
X15923968Y-12811484D01*
X15876348Y-12601960D02*
X15828729Y-12744817D01*
X15828729Y-12744817D02*
X15952539Y-12744817D01*
X16066825Y-12611484D02*
X16085872Y-12611484D01*
X16085872Y-12611484D02*
X16104920Y-12621008D01*
X16104920Y-12621008D02*
X16114444Y-12630531D01*
X16114444Y-12630531D02*
X16123968Y-12649579D01*
X16123968Y-12649579D02*
X16133491Y-12687674D01*
X16133491Y-12687674D02*
X16133491Y-12735293D01*
X16133491Y-12735293D02*
X16123968Y-12773388D01*
X16123968Y-12773388D02*
X16114444Y-12792436D01*
X16114444Y-12792436D02*
X16104920Y-12801960D01*
X16104920Y-12801960D02*
X16085872Y-12811484D01*
X16085872Y-12811484D02*
X16066825Y-12811484D01*
X16066825Y-12811484D02*
X16047777Y-12801960D01*
X16047777Y-12801960D02*
X16038253Y-12792436D01*
X16038253Y-12792436D02*
X16028729Y-12773388D01*
X16028729Y-12773388D02*
X16019206Y-12735293D01*
X16019206Y-12735293D02*
X16019206Y-12687674D01*
X16019206Y-12687674D02*
X16028729Y-12649579D01*
X16028729Y-12649579D02*
X16038253Y-12630531D01*
X16038253Y-12630531D02*
X16047777Y-12621008D01*
X16047777Y-12621008D02*
X16066825Y-12611484D01*
X16371587Y-12811484D02*
X16371587Y-12611484D01*
X16457301Y-12811484D02*
X16457301Y-12706722D01*
X16457301Y-12706722D02*
X16447777Y-12687674D01*
X16447777Y-12687674D02*
X16428730Y-12678150D01*
X16428730Y-12678150D02*
X16400158Y-12678150D01*
X16400158Y-12678150D02*
X16381110Y-12687674D01*
X16381110Y-12687674D02*
X16371587Y-12697198D01*
X16581110Y-12811484D02*
X16562063Y-12801960D01*
X16562063Y-12801960D02*
X16552539Y-12792436D01*
X16552539Y-12792436D02*
X16543015Y-12773388D01*
X16543015Y-12773388D02*
X16543015Y-12716246D01*
X16543015Y-12716246D02*
X16552539Y-12697198D01*
X16552539Y-12697198D02*
X16562063Y-12687674D01*
X16562063Y-12687674D02*
X16581110Y-12678150D01*
X16581110Y-12678150D02*
X16609682Y-12678150D01*
X16609682Y-12678150D02*
X16628730Y-12687674D01*
X16628730Y-12687674D02*
X16638253Y-12697198D01*
X16638253Y-12697198D02*
X16647777Y-12716246D01*
X16647777Y-12716246D02*
X16647777Y-12773388D01*
X16647777Y-12773388D02*
X16638253Y-12792436D01*
X16638253Y-12792436D02*
X16628730Y-12801960D01*
X16628730Y-12801960D02*
X16609682Y-12811484D01*
X16609682Y-12811484D02*
X16581110Y-12811484D01*
X16762063Y-12811484D02*
X16743015Y-12801960D01*
X16743015Y-12801960D02*
X16733491Y-12782912D01*
X16733491Y-12782912D02*
X16733491Y-12611484D01*
X16914444Y-12801960D02*
X16895396Y-12811484D01*
X16895396Y-12811484D02*
X16857301Y-12811484D01*
X16857301Y-12811484D02*
X16838253Y-12801960D01*
X16838253Y-12801960D02*
X16828730Y-12782912D01*
X16828730Y-12782912D02*
X16828730Y-12706722D01*
X16828730Y-12706722D02*
X16838253Y-12687674D01*
X16838253Y-12687674D02*
X16857301Y-12678150D01*
X16857301Y-12678150D02*
X16895396Y-12678150D01*
X16895396Y-12678150D02*
X16914444Y-12687674D01*
X16914444Y-12687674D02*
X16923968Y-12706722D01*
X16923968Y-12706722D02*
X16923968Y-12725769D01*
X16923968Y-12725769D02*
X16828730Y-12744817D01*
X17000158Y-12801960D02*
X17019206Y-12811484D01*
X17019206Y-12811484D02*
X17057301Y-12811484D01*
X17057301Y-12811484D02*
X17076349Y-12801960D01*
X17076349Y-12801960D02*
X17085873Y-12782912D01*
X17085873Y-12782912D02*
X17085873Y-12773388D01*
X17085873Y-12773388D02*
X17076349Y-12754341D01*
X17076349Y-12754341D02*
X17057301Y-12744817D01*
X17057301Y-12744817D02*
X17028730Y-12744817D01*
X17028730Y-12744817D02*
X17009682Y-12735293D01*
X17009682Y-12735293D02*
X17000158Y-12716246D01*
X17000158Y-12716246D02*
X17000158Y-12706722D01*
X17000158Y-12706722D02*
X17009682Y-12687674D01*
X17009682Y-12687674D02*
X17028730Y-12678150D01*
X17028730Y-12678150D02*
X17057301Y-12678150D01*
X17057301Y-12678150D02*
X17076349Y-12687674D01*
X17323968Y-12735293D02*
X17476349Y-12735293D01*
X17400158Y-12811484D02*
X17400158Y-12659103D01*
X17704920Y-12611484D02*
X17828730Y-12611484D01*
X17828730Y-12611484D02*
X17762063Y-12687674D01*
X17762063Y-12687674D02*
X17790635Y-12687674D01*
X17790635Y-12687674D02*
X17809682Y-12697198D01*
X17809682Y-12697198D02*
X17819206Y-12706722D01*
X17819206Y-12706722D02*
X17828730Y-12725769D01*
X17828730Y-12725769D02*
X17828730Y-12773388D01*
X17828730Y-12773388D02*
X17819206Y-12792436D01*
X17819206Y-12792436D02*
X17809682Y-12801960D01*
X17809682Y-12801960D02*
X17790635Y-12811484D01*
X17790635Y-12811484D02*
X17733492Y-12811484D01*
X17733492Y-12811484D02*
X17714444Y-12801960D01*
X17714444Y-12801960D02*
X17704920Y-12792436D01*
X18057301Y-12801960D02*
X18076349Y-12811484D01*
X18076349Y-12811484D02*
X18114444Y-12811484D01*
X18114444Y-12811484D02*
X18133492Y-12801960D01*
X18133492Y-12801960D02*
X18143016Y-12782912D01*
X18143016Y-12782912D02*
X18143016Y-12773388D01*
X18143016Y-12773388D02*
X18133492Y-12754341D01*
X18133492Y-12754341D02*
X18114444Y-12744817D01*
X18114444Y-12744817D02*
X18085873Y-12744817D01*
X18085873Y-12744817D02*
X18066825Y-12735293D01*
X18066825Y-12735293D02*
X18057301Y-12716246D01*
X18057301Y-12716246D02*
X18057301Y-12706722D01*
X18057301Y-12706722D02*
X18066825Y-12687674D01*
X18066825Y-12687674D02*
X18085873Y-12678150D01*
X18085873Y-12678150D02*
X18114444Y-12678150D01*
X18114444Y-12678150D02*
X18133492Y-12687674D01*
X18257301Y-12811484D02*
X18238254Y-12801960D01*
X18238254Y-12801960D02*
X18228730Y-12782912D01*
X18228730Y-12782912D02*
X18228730Y-12611484D01*
X18362063Y-12811484D02*
X18343016Y-12801960D01*
X18343016Y-12801960D02*
X18333492Y-12792436D01*
X18333492Y-12792436D02*
X18323968Y-12773388D01*
X18323968Y-12773388D02*
X18323968Y-12716246D01*
X18323968Y-12716246D02*
X18333492Y-12697198D01*
X18333492Y-12697198D02*
X18343016Y-12687674D01*
X18343016Y-12687674D02*
X18362063Y-12678150D01*
X18362063Y-12678150D02*
X18390635Y-12678150D01*
X18390635Y-12678150D02*
X18409682Y-12687674D01*
X18409682Y-12687674D02*
X18419206Y-12697198D01*
X18419206Y-12697198D02*
X18428730Y-12716246D01*
X18428730Y-12716246D02*
X18428730Y-12773388D01*
X18428730Y-12773388D02*
X18419206Y-12792436D01*
X18419206Y-12792436D02*
X18409682Y-12801960D01*
X18409682Y-12801960D02*
X18390635Y-12811484D01*
X18390635Y-12811484D02*
X18362063Y-12811484D01*
X18485873Y-12678150D02*
X18562063Y-12678150D01*
X18514444Y-12611484D02*
X18514444Y-12782912D01*
X18514444Y-12782912D02*
X18523968Y-12801960D01*
X18523968Y-12801960D02*
X18543016Y-12811484D01*
X18543016Y-12811484D02*
X18562063Y-12811484D01*
X18619206Y-12801960D02*
X18638254Y-12811484D01*
X18638254Y-12811484D02*
X18676349Y-12811484D01*
X18676349Y-12811484D02*
X18695397Y-12801960D01*
X18695397Y-12801960D02*
X18704920Y-12782912D01*
X18704920Y-12782912D02*
X18704920Y-12773388D01*
X18704920Y-12773388D02*
X18695397Y-12754341D01*
X18695397Y-12754341D02*
X18676349Y-12744817D01*
X18676349Y-12744817D02*
X18647777Y-12744817D01*
X18647777Y-12744817D02*
X18628730Y-12735293D01*
X18628730Y-12735293D02*
X18619206Y-12716246D01*
X18619206Y-12716246D02*
X18619206Y-12706722D01*
X18619206Y-12706722D02*
X18628730Y-12687674D01*
X18628730Y-12687674D02*
X18647777Y-12678150D01*
X18647777Y-12678150D02*
X18676349Y-12678150D01*
X18676349Y-12678150D02*
X18695397Y-12687674D01*
X18771587Y-12887674D02*
X18781111Y-12878150D01*
X18781111Y-12878150D02*
X18800158Y-12849579D01*
X18800158Y-12849579D02*
X18809682Y-12830531D01*
X18809682Y-12830531D02*
X18819206Y-12801960D01*
X18819206Y-12801960D02*
X18828730Y-12754341D01*
X18828730Y-12754341D02*
X18828730Y-12716246D01*
X18828730Y-12716246D02*
X18819206Y-12668627D01*
X18819206Y-12668627D02*
X18809682Y-12640055D01*
X18809682Y-12640055D02*
X18800158Y-12621008D01*
X18800158Y-12621008D02*
X18781111Y-12592436D01*
X18781111Y-12592436D02*
X18771587Y-12582912D01*
D12*
X12136000Y-12933000D02*
X12136000Y-13035000D01*
X12085000Y-12984000D02*
X12187000Y-12984000D01*
D11*
X12552539Y-13075484D02*
X12438253Y-13075484D01*
X12495396Y-13075484D02*
X12495396Y-12875484D01*
X12495396Y-12875484D02*
X12476348Y-12904055D01*
X12476348Y-12904055D02*
X12457301Y-12923103D01*
X12457301Y-12923103D02*
X12438253Y-12932627D01*
X12638253Y-13056436D02*
X12647777Y-13065960D01*
X12647777Y-13065960D02*
X12638253Y-13075484D01*
X12638253Y-13075484D02*
X12628729Y-13065960D01*
X12628729Y-13065960D02*
X12638253Y-13056436D01*
X12638253Y-13056436D02*
X12638253Y-13075484D01*
X12771586Y-12875484D02*
X12790634Y-12875484D01*
X12790634Y-12875484D02*
X12809682Y-12885008D01*
X12809682Y-12885008D02*
X12819205Y-12894531D01*
X12819205Y-12894531D02*
X12828729Y-12913579D01*
X12828729Y-12913579D02*
X12838253Y-12951674D01*
X12838253Y-12951674D02*
X12838253Y-12999293D01*
X12838253Y-12999293D02*
X12828729Y-13037388D01*
X12828729Y-13037388D02*
X12819205Y-13056436D01*
X12819205Y-13056436D02*
X12809682Y-13065960D01*
X12809682Y-13065960D02*
X12790634Y-13075484D01*
X12790634Y-13075484D02*
X12771586Y-13075484D01*
X12771586Y-13075484D02*
X12752539Y-13065960D01*
X12752539Y-13065960D02*
X12743015Y-13056436D01*
X12743015Y-13056436D02*
X12733491Y-13037388D01*
X12733491Y-13037388D02*
X12723967Y-12999293D01*
X12723967Y-12999293D02*
X12723967Y-12951674D01*
X12723967Y-12951674D02*
X12733491Y-12913579D01*
X12733491Y-12913579D02*
X12743015Y-12894531D01*
X12743015Y-12894531D02*
X12752539Y-12885008D01*
X12752539Y-12885008D02*
X12771586Y-12875484D01*
X12914443Y-12894531D02*
X12923967Y-12885008D01*
X12923967Y-12885008D02*
X12943015Y-12875484D01*
X12943015Y-12875484D02*
X12990634Y-12875484D01*
X12990634Y-12875484D02*
X13009682Y-12885008D01*
X13009682Y-12885008D02*
X13019205Y-12894531D01*
X13019205Y-12894531D02*
X13028729Y-12913579D01*
X13028729Y-12913579D02*
X13028729Y-12932627D01*
X13028729Y-12932627D02*
X13019205Y-12961198D01*
X13019205Y-12961198D02*
X12904920Y-13075484D01*
X12904920Y-13075484D02*
X13028729Y-13075484D01*
X13152539Y-12875484D02*
X13171586Y-12875484D01*
X13171586Y-12875484D02*
X13190634Y-12885008D01*
X13190634Y-12885008D02*
X13200158Y-12894531D01*
X13200158Y-12894531D02*
X13209682Y-12913579D01*
X13209682Y-12913579D02*
X13219205Y-12951674D01*
X13219205Y-12951674D02*
X13219205Y-12999293D01*
X13219205Y-12999293D02*
X13209682Y-13037388D01*
X13209682Y-13037388D02*
X13200158Y-13056436D01*
X13200158Y-13056436D02*
X13190634Y-13065960D01*
X13190634Y-13065960D02*
X13171586Y-13075484D01*
X13171586Y-13075484D02*
X13152539Y-13075484D01*
X13152539Y-13075484D02*
X13133491Y-13065960D01*
X13133491Y-13065960D02*
X13123967Y-13056436D01*
X13123967Y-13056436D02*
X13114443Y-13037388D01*
X13114443Y-13037388D02*
X13104920Y-12999293D01*
X13104920Y-12999293D02*
X13104920Y-12951674D01*
X13104920Y-12951674D02*
X13114443Y-12913579D01*
X13114443Y-12913579D02*
X13123967Y-12894531D01*
X13123967Y-12894531D02*
X13133491Y-12885008D01*
X13133491Y-12885008D02*
X13152539Y-12875484D01*
X13304920Y-13075484D02*
X13304920Y-12942150D01*
X13304920Y-12961198D02*
X13314443Y-12951674D01*
X13314443Y-12951674D02*
X13333491Y-12942150D01*
X13333491Y-12942150D02*
X13362063Y-12942150D01*
X13362063Y-12942150D02*
X13381110Y-12951674D01*
X13381110Y-12951674D02*
X13390634Y-12970722D01*
X13390634Y-12970722D02*
X13390634Y-13075484D01*
X13390634Y-12970722D02*
X13400158Y-12951674D01*
X13400158Y-12951674D02*
X13419205Y-12942150D01*
X13419205Y-12942150D02*
X13447777Y-12942150D01*
X13447777Y-12942150D02*
X13466824Y-12951674D01*
X13466824Y-12951674D02*
X13476348Y-12970722D01*
X13476348Y-12970722D02*
X13476348Y-13075484D01*
X13571586Y-13075484D02*
X13571586Y-12942150D01*
X13571586Y-12961198D02*
X13581110Y-12951674D01*
X13581110Y-12951674D02*
X13600158Y-12942150D01*
X13600158Y-12942150D02*
X13628729Y-12942150D01*
X13628729Y-12942150D02*
X13647777Y-12951674D01*
X13647777Y-12951674D02*
X13657301Y-12970722D01*
X13657301Y-12970722D02*
X13657301Y-13075484D01*
X13657301Y-12970722D02*
X13666824Y-12951674D01*
X13666824Y-12951674D02*
X13685872Y-12942150D01*
X13685872Y-12942150D02*
X13714443Y-12942150D01*
X13714443Y-12942150D02*
X13733491Y-12951674D01*
X13733491Y-12951674D02*
X13743015Y-12970722D01*
X13743015Y-12970722D02*
X13743015Y-13075484D01*
X14133491Y-12865960D02*
X13962063Y-13123103D01*
X14390634Y-12875484D02*
X14409682Y-12875484D01*
X14409682Y-12875484D02*
X14428729Y-12885008D01*
X14428729Y-12885008D02*
X14438253Y-12894531D01*
X14438253Y-12894531D02*
X14447777Y-12913579D01*
X14447777Y-12913579D02*
X14457301Y-12951674D01*
X14457301Y-12951674D02*
X14457301Y-12999293D01*
X14457301Y-12999293D02*
X14447777Y-13037388D01*
X14447777Y-13037388D02*
X14438253Y-13056436D01*
X14438253Y-13056436D02*
X14428729Y-13065960D01*
X14428729Y-13065960D02*
X14409682Y-13075484D01*
X14409682Y-13075484D02*
X14390634Y-13075484D01*
X14390634Y-13075484D02*
X14371586Y-13065960D01*
X14371586Y-13065960D02*
X14362063Y-13056436D01*
X14362063Y-13056436D02*
X14352539Y-13037388D01*
X14352539Y-13037388D02*
X14343015Y-12999293D01*
X14343015Y-12999293D02*
X14343015Y-12951674D01*
X14343015Y-12951674D02*
X14352539Y-12913579D01*
X14352539Y-12913579D02*
X14362063Y-12894531D01*
X14362063Y-12894531D02*
X14371586Y-12885008D01*
X14371586Y-12885008D02*
X14390634Y-12875484D01*
X14543015Y-13056436D02*
X14552539Y-13065960D01*
X14552539Y-13065960D02*
X14543015Y-13075484D01*
X14543015Y-13075484D02*
X14533491Y-13065960D01*
X14533491Y-13065960D02*
X14543015Y-13056436D01*
X14543015Y-13056436D02*
X14543015Y-13075484D01*
X14676348Y-12875484D02*
X14695396Y-12875484D01*
X14695396Y-12875484D02*
X14714444Y-12885008D01*
X14714444Y-12885008D02*
X14723967Y-12894531D01*
X14723967Y-12894531D02*
X14733491Y-12913579D01*
X14733491Y-12913579D02*
X14743015Y-12951674D01*
X14743015Y-12951674D02*
X14743015Y-12999293D01*
X14743015Y-12999293D02*
X14733491Y-13037388D01*
X14733491Y-13037388D02*
X14723967Y-13056436D01*
X14723967Y-13056436D02*
X14714444Y-13065960D01*
X14714444Y-13065960D02*
X14695396Y-13075484D01*
X14695396Y-13075484D02*
X14676348Y-13075484D01*
X14676348Y-13075484D02*
X14657301Y-13065960D01*
X14657301Y-13065960D02*
X14647777Y-13056436D01*
X14647777Y-13056436D02*
X14638253Y-13037388D01*
X14638253Y-13037388D02*
X14628729Y-12999293D01*
X14628729Y-12999293D02*
X14628729Y-12951674D01*
X14628729Y-12951674D02*
X14638253Y-12913579D01*
X14638253Y-12913579D02*
X14647777Y-12894531D01*
X14647777Y-12894531D02*
X14657301Y-12885008D01*
X14657301Y-12885008D02*
X14676348Y-12875484D01*
X14914444Y-12942150D02*
X14914444Y-13075484D01*
X14866825Y-12865960D02*
X14819206Y-13008817D01*
X14819206Y-13008817D02*
X14943015Y-13008817D01*
X15057301Y-12875484D02*
X15076348Y-12875484D01*
X15076348Y-12875484D02*
X15095396Y-12885008D01*
X15095396Y-12885008D02*
X15104920Y-12894531D01*
X15104920Y-12894531D02*
X15114444Y-12913579D01*
X15114444Y-12913579D02*
X15123967Y-12951674D01*
X15123967Y-12951674D02*
X15123967Y-12999293D01*
X15123967Y-12999293D02*
X15114444Y-13037388D01*
X15114444Y-13037388D02*
X15104920Y-13056436D01*
X15104920Y-13056436D02*
X15095396Y-13065960D01*
X15095396Y-13065960D02*
X15076348Y-13075484D01*
X15076348Y-13075484D02*
X15057301Y-13075484D01*
X15057301Y-13075484D02*
X15038253Y-13065960D01*
X15038253Y-13065960D02*
X15028729Y-13056436D01*
X15028729Y-13056436D02*
X15019206Y-13037388D01*
X15019206Y-13037388D02*
X15009682Y-12999293D01*
X15009682Y-12999293D02*
X15009682Y-12951674D01*
X15009682Y-12951674D02*
X15019206Y-12913579D01*
X15019206Y-12913579D02*
X15028729Y-12894531D01*
X15028729Y-12894531D02*
X15038253Y-12885008D01*
X15038253Y-12885008D02*
X15057301Y-12875484D01*
X15200158Y-12894531D02*
X15209682Y-12885008D01*
X15209682Y-12885008D02*
X15228729Y-12875484D01*
X15228729Y-12875484D02*
X15276348Y-12875484D01*
X15276348Y-12875484D02*
X15295396Y-12885008D01*
X15295396Y-12885008D02*
X15304920Y-12894531D01*
X15304920Y-12894531D02*
X15314444Y-12913579D01*
X15314444Y-12913579D02*
X15314444Y-12932627D01*
X15314444Y-12932627D02*
X15304920Y-12961198D01*
X15304920Y-12961198D02*
X15190634Y-13075484D01*
X15190634Y-13075484D02*
X15314444Y-13075484D01*
X15390634Y-12875484D02*
X15390634Y-12913579D01*
X15466825Y-12875484D02*
X15466825Y-12913579D01*
X15762063Y-13151674D02*
X15752539Y-13142150D01*
X15752539Y-13142150D02*
X15733491Y-13113579D01*
X15733491Y-13113579D02*
X15723968Y-13094531D01*
X15723968Y-13094531D02*
X15714444Y-13065960D01*
X15714444Y-13065960D02*
X15704920Y-13018341D01*
X15704920Y-13018341D02*
X15704920Y-12980246D01*
X15704920Y-12980246D02*
X15714444Y-12932627D01*
X15714444Y-12932627D02*
X15723968Y-12904055D01*
X15723968Y-12904055D02*
X15733491Y-12885008D01*
X15733491Y-12885008D02*
X15752539Y-12856436D01*
X15752539Y-12856436D02*
X15762063Y-12846912D01*
X15819206Y-12875484D02*
X15943015Y-12875484D01*
X15943015Y-12875484D02*
X15876348Y-12951674D01*
X15876348Y-12951674D02*
X15904920Y-12951674D01*
X15904920Y-12951674D02*
X15923968Y-12961198D01*
X15923968Y-12961198D02*
X15933491Y-12970722D01*
X15933491Y-12970722D02*
X15943015Y-12989769D01*
X15943015Y-12989769D02*
X15943015Y-13037388D01*
X15943015Y-13037388D02*
X15933491Y-13056436D01*
X15933491Y-13056436D02*
X15923968Y-13065960D01*
X15923968Y-13065960D02*
X15904920Y-13075484D01*
X15904920Y-13075484D02*
X15847777Y-13075484D01*
X15847777Y-13075484D02*
X15828729Y-13065960D01*
X15828729Y-13065960D02*
X15819206Y-13056436D01*
X16181110Y-13075484D02*
X16181110Y-12875484D01*
X16266825Y-13075484D02*
X16266825Y-12970722D01*
X16266825Y-12970722D02*
X16257301Y-12951674D01*
X16257301Y-12951674D02*
X16238253Y-12942150D01*
X16238253Y-12942150D02*
X16209682Y-12942150D01*
X16209682Y-12942150D02*
X16190634Y-12951674D01*
X16190634Y-12951674D02*
X16181110Y-12961198D01*
X16390634Y-13075484D02*
X16371587Y-13065960D01*
X16371587Y-13065960D02*
X16362063Y-13056436D01*
X16362063Y-13056436D02*
X16352539Y-13037388D01*
X16352539Y-13037388D02*
X16352539Y-12980246D01*
X16352539Y-12980246D02*
X16362063Y-12961198D01*
X16362063Y-12961198D02*
X16371587Y-12951674D01*
X16371587Y-12951674D02*
X16390634Y-12942150D01*
X16390634Y-12942150D02*
X16419206Y-12942150D01*
X16419206Y-12942150D02*
X16438253Y-12951674D01*
X16438253Y-12951674D02*
X16447777Y-12961198D01*
X16447777Y-12961198D02*
X16457301Y-12980246D01*
X16457301Y-12980246D02*
X16457301Y-13037388D01*
X16457301Y-13037388D02*
X16447777Y-13056436D01*
X16447777Y-13056436D02*
X16438253Y-13065960D01*
X16438253Y-13065960D02*
X16419206Y-13075484D01*
X16419206Y-13075484D02*
X16390634Y-13075484D01*
X16571587Y-13075484D02*
X16552539Y-13065960D01*
X16552539Y-13065960D02*
X16543015Y-13046912D01*
X16543015Y-13046912D02*
X16543015Y-12875484D01*
X16723968Y-13065960D02*
X16704920Y-13075484D01*
X16704920Y-13075484D02*
X16666825Y-13075484D01*
X16666825Y-13075484D02*
X16647777Y-13065960D01*
X16647777Y-13065960D02*
X16638253Y-13046912D01*
X16638253Y-13046912D02*
X16638253Y-12970722D01*
X16638253Y-12970722D02*
X16647777Y-12951674D01*
X16647777Y-12951674D02*
X16666825Y-12942150D01*
X16666825Y-12942150D02*
X16704920Y-12942150D01*
X16704920Y-12942150D02*
X16723968Y-12951674D01*
X16723968Y-12951674D02*
X16733491Y-12970722D01*
X16733491Y-12970722D02*
X16733491Y-12989769D01*
X16733491Y-12989769D02*
X16638253Y-13008817D01*
X16809682Y-13065960D02*
X16828730Y-13075484D01*
X16828730Y-13075484D02*
X16866825Y-13075484D01*
X16866825Y-13075484D02*
X16885873Y-13065960D01*
X16885873Y-13065960D02*
X16895396Y-13046912D01*
X16895396Y-13046912D02*
X16895396Y-13037388D01*
X16895396Y-13037388D02*
X16885873Y-13018341D01*
X16885873Y-13018341D02*
X16866825Y-13008817D01*
X16866825Y-13008817D02*
X16838253Y-13008817D01*
X16838253Y-13008817D02*
X16819206Y-12999293D01*
X16819206Y-12999293D02*
X16809682Y-12980246D01*
X16809682Y-12980246D02*
X16809682Y-12970722D01*
X16809682Y-12970722D02*
X16819206Y-12951674D01*
X16819206Y-12951674D02*
X16838253Y-12942150D01*
X16838253Y-12942150D02*
X16866825Y-12942150D01*
X16866825Y-12942150D02*
X16885873Y-12951674D01*
X16962063Y-13151674D02*
X16971587Y-13142150D01*
X16971587Y-13142150D02*
X16990634Y-13113579D01*
X16990634Y-13113579D02*
X17000158Y-13094531D01*
X17000158Y-13094531D02*
X17009682Y-13065960D01*
X17009682Y-13065960D02*
X17019206Y-13018341D01*
X17019206Y-13018341D02*
X17019206Y-12980246D01*
X17019206Y-12980246D02*
X17009682Y-12932627D01*
X17009682Y-12932627D02*
X17000158Y-12904055D01*
X17000158Y-12904055D02*
X16990634Y-12885008D01*
X16990634Y-12885008D02*
X16971587Y-12856436D01*
X16971587Y-12856436D02*
X16962063Y-12846912D01*
D13*
X12164741Y-13301741D02*
X12164741Y-13194259D01*
X12057259Y-13194259D01*
X12057259Y-13301741D01*
X12164741Y-13301741D01*
D11*
X12552539Y-13339484D02*
X12438253Y-13339484D01*
X12495396Y-13339484D02*
X12495396Y-13139484D01*
X12495396Y-13139484D02*
X12476348Y-13168055D01*
X12476348Y-13168055D02*
X12457301Y-13187103D01*
X12457301Y-13187103D02*
X12438253Y-13196627D01*
X12638253Y-13320436D02*
X12647777Y-13329960D01*
X12647777Y-13329960D02*
X12638253Y-13339484D01*
X12638253Y-13339484D02*
X12628729Y-13329960D01*
X12628729Y-13329960D02*
X12638253Y-13320436D01*
X12638253Y-13320436D02*
X12638253Y-13339484D01*
X12828729Y-13139484D02*
X12733491Y-13139484D01*
X12733491Y-13139484D02*
X12723967Y-13234722D01*
X12723967Y-13234722D02*
X12733491Y-13225198D01*
X12733491Y-13225198D02*
X12752539Y-13215674D01*
X12752539Y-13215674D02*
X12800158Y-13215674D01*
X12800158Y-13215674D02*
X12819205Y-13225198D01*
X12819205Y-13225198D02*
X12828729Y-13234722D01*
X12828729Y-13234722D02*
X12838253Y-13253769D01*
X12838253Y-13253769D02*
X12838253Y-13301388D01*
X12838253Y-13301388D02*
X12828729Y-13320436D01*
X12828729Y-13320436D02*
X12819205Y-13329960D01*
X12819205Y-13329960D02*
X12800158Y-13339484D01*
X12800158Y-13339484D02*
X12752539Y-13339484D01*
X12752539Y-13339484D02*
X12733491Y-13329960D01*
X12733491Y-13329960D02*
X12723967Y-13320436D01*
X12914443Y-13158531D02*
X12923967Y-13149008D01*
X12923967Y-13149008D02*
X12943015Y-13139484D01*
X12943015Y-13139484D02*
X12990634Y-13139484D01*
X12990634Y-13139484D02*
X13009682Y-13149008D01*
X13009682Y-13149008D02*
X13019205Y-13158531D01*
X13019205Y-13158531D02*
X13028729Y-13177579D01*
X13028729Y-13177579D02*
X13028729Y-13196627D01*
X13028729Y-13196627D02*
X13019205Y-13225198D01*
X13019205Y-13225198D02*
X12904920Y-13339484D01*
X12904920Y-13339484D02*
X13028729Y-13339484D01*
X13152539Y-13139484D02*
X13171586Y-13139484D01*
X13171586Y-13139484D02*
X13190634Y-13149008D01*
X13190634Y-13149008D02*
X13200158Y-13158531D01*
X13200158Y-13158531D02*
X13209682Y-13177579D01*
X13209682Y-13177579D02*
X13219205Y-13215674D01*
X13219205Y-13215674D02*
X13219205Y-13263293D01*
X13219205Y-13263293D02*
X13209682Y-13301388D01*
X13209682Y-13301388D02*
X13200158Y-13320436D01*
X13200158Y-13320436D02*
X13190634Y-13329960D01*
X13190634Y-13329960D02*
X13171586Y-13339484D01*
X13171586Y-13339484D02*
X13152539Y-13339484D01*
X13152539Y-13339484D02*
X13133491Y-13329960D01*
X13133491Y-13329960D02*
X13123967Y-13320436D01*
X13123967Y-13320436D02*
X13114443Y-13301388D01*
X13114443Y-13301388D02*
X13104920Y-13263293D01*
X13104920Y-13263293D02*
X13104920Y-13215674D01*
X13104920Y-13215674D02*
X13114443Y-13177579D01*
X13114443Y-13177579D02*
X13123967Y-13158531D01*
X13123967Y-13158531D02*
X13133491Y-13149008D01*
X13133491Y-13149008D02*
X13152539Y-13139484D01*
X13304920Y-13339484D02*
X13304920Y-13206150D01*
X13304920Y-13225198D02*
X13314443Y-13215674D01*
X13314443Y-13215674D02*
X13333491Y-13206150D01*
X13333491Y-13206150D02*
X13362063Y-13206150D01*
X13362063Y-13206150D02*
X13381110Y-13215674D01*
X13381110Y-13215674D02*
X13390634Y-13234722D01*
X13390634Y-13234722D02*
X13390634Y-13339484D01*
X13390634Y-13234722D02*
X13400158Y-13215674D01*
X13400158Y-13215674D02*
X13419205Y-13206150D01*
X13419205Y-13206150D02*
X13447777Y-13206150D01*
X13447777Y-13206150D02*
X13466824Y-13215674D01*
X13466824Y-13215674D02*
X13476348Y-13234722D01*
X13476348Y-13234722D02*
X13476348Y-13339484D01*
X13571586Y-13339484D02*
X13571586Y-13206150D01*
X13571586Y-13225198D02*
X13581110Y-13215674D01*
X13581110Y-13215674D02*
X13600158Y-13206150D01*
X13600158Y-13206150D02*
X13628729Y-13206150D01*
X13628729Y-13206150D02*
X13647777Y-13215674D01*
X13647777Y-13215674D02*
X13657301Y-13234722D01*
X13657301Y-13234722D02*
X13657301Y-13339484D01*
X13657301Y-13234722D02*
X13666824Y-13215674D01*
X13666824Y-13215674D02*
X13685872Y-13206150D01*
X13685872Y-13206150D02*
X13714443Y-13206150D01*
X13714443Y-13206150D02*
X13733491Y-13215674D01*
X13733491Y-13215674D02*
X13743015Y-13234722D01*
X13743015Y-13234722D02*
X13743015Y-13339484D01*
X14133491Y-13129960D02*
X13962063Y-13387103D01*
X14390634Y-13139484D02*
X14409682Y-13139484D01*
X14409682Y-13139484D02*
X14428729Y-13149008D01*
X14428729Y-13149008D02*
X14438253Y-13158531D01*
X14438253Y-13158531D02*
X14447777Y-13177579D01*
X14447777Y-13177579D02*
X14457301Y-13215674D01*
X14457301Y-13215674D02*
X14457301Y-13263293D01*
X14457301Y-13263293D02*
X14447777Y-13301388D01*
X14447777Y-13301388D02*
X14438253Y-13320436D01*
X14438253Y-13320436D02*
X14428729Y-13329960D01*
X14428729Y-13329960D02*
X14409682Y-13339484D01*
X14409682Y-13339484D02*
X14390634Y-13339484D01*
X14390634Y-13339484D02*
X14371586Y-13329960D01*
X14371586Y-13329960D02*
X14362063Y-13320436D01*
X14362063Y-13320436D02*
X14352539Y-13301388D01*
X14352539Y-13301388D02*
X14343015Y-13263293D01*
X14343015Y-13263293D02*
X14343015Y-13215674D01*
X14343015Y-13215674D02*
X14352539Y-13177579D01*
X14352539Y-13177579D02*
X14362063Y-13158531D01*
X14362063Y-13158531D02*
X14371586Y-13149008D01*
X14371586Y-13149008D02*
X14390634Y-13139484D01*
X14543015Y-13320436D02*
X14552539Y-13329960D01*
X14552539Y-13329960D02*
X14543015Y-13339484D01*
X14543015Y-13339484D02*
X14533491Y-13329960D01*
X14533491Y-13329960D02*
X14543015Y-13320436D01*
X14543015Y-13320436D02*
X14543015Y-13339484D01*
X14676348Y-13139484D02*
X14695396Y-13139484D01*
X14695396Y-13139484D02*
X14714444Y-13149008D01*
X14714444Y-13149008D02*
X14723967Y-13158531D01*
X14723967Y-13158531D02*
X14733491Y-13177579D01*
X14733491Y-13177579D02*
X14743015Y-13215674D01*
X14743015Y-13215674D02*
X14743015Y-13263293D01*
X14743015Y-13263293D02*
X14733491Y-13301388D01*
X14733491Y-13301388D02*
X14723967Y-13320436D01*
X14723967Y-13320436D02*
X14714444Y-13329960D01*
X14714444Y-13329960D02*
X14695396Y-13339484D01*
X14695396Y-13339484D02*
X14676348Y-13339484D01*
X14676348Y-13339484D02*
X14657301Y-13329960D01*
X14657301Y-13329960D02*
X14647777Y-13320436D01*
X14647777Y-13320436D02*
X14638253Y-13301388D01*
X14638253Y-13301388D02*
X14628729Y-13263293D01*
X14628729Y-13263293D02*
X14628729Y-13215674D01*
X14628729Y-13215674D02*
X14638253Y-13177579D01*
X14638253Y-13177579D02*
X14647777Y-13158531D01*
X14647777Y-13158531D02*
X14657301Y-13149008D01*
X14657301Y-13149008D02*
X14676348Y-13139484D01*
X14923967Y-13139484D02*
X14828729Y-13139484D01*
X14828729Y-13139484D02*
X14819206Y-13234722D01*
X14819206Y-13234722D02*
X14828729Y-13225198D01*
X14828729Y-13225198D02*
X14847777Y-13215674D01*
X14847777Y-13215674D02*
X14895396Y-13215674D01*
X14895396Y-13215674D02*
X14914444Y-13225198D01*
X14914444Y-13225198D02*
X14923967Y-13234722D01*
X14923967Y-13234722D02*
X14933491Y-13253769D01*
X14933491Y-13253769D02*
X14933491Y-13301388D01*
X14933491Y-13301388D02*
X14923967Y-13320436D01*
X14923967Y-13320436D02*
X14914444Y-13329960D01*
X14914444Y-13329960D02*
X14895396Y-13339484D01*
X14895396Y-13339484D02*
X14847777Y-13339484D01*
X14847777Y-13339484D02*
X14828729Y-13329960D01*
X14828729Y-13329960D02*
X14819206Y-13320436D01*
X15028729Y-13339484D02*
X15066825Y-13339484D01*
X15066825Y-13339484D02*
X15085872Y-13329960D01*
X15085872Y-13329960D02*
X15095396Y-13320436D01*
X15095396Y-13320436D02*
X15114444Y-13291865D01*
X15114444Y-13291865D02*
X15123967Y-13253769D01*
X15123967Y-13253769D02*
X15123967Y-13177579D01*
X15123967Y-13177579D02*
X15114444Y-13158531D01*
X15114444Y-13158531D02*
X15104920Y-13149008D01*
X15104920Y-13149008D02*
X15085872Y-13139484D01*
X15085872Y-13139484D02*
X15047777Y-13139484D01*
X15047777Y-13139484D02*
X15028729Y-13149008D01*
X15028729Y-13149008D02*
X15019206Y-13158531D01*
X15019206Y-13158531D02*
X15009682Y-13177579D01*
X15009682Y-13177579D02*
X15009682Y-13225198D01*
X15009682Y-13225198D02*
X15019206Y-13244246D01*
X15019206Y-13244246D02*
X15028729Y-13253769D01*
X15028729Y-13253769D02*
X15047777Y-13263293D01*
X15047777Y-13263293D02*
X15085872Y-13263293D01*
X15085872Y-13263293D02*
X15104920Y-13253769D01*
X15104920Y-13253769D02*
X15114444Y-13244246D01*
X15114444Y-13244246D02*
X15123967Y-13225198D01*
X15238253Y-13225198D02*
X15219206Y-13215674D01*
X15219206Y-13215674D02*
X15209682Y-13206150D01*
X15209682Y-13206150D02*
X15200158Y-13187103D01*
X15200158Y-13187103D02*
X15200158Y-13177579D01*
X15200158Y-13177579D02*
X15209682Y-13158531D01*
X15209682Y-13158531D02*
X15219206Y-13149008D01*
X15219206Y-13149008D02*
X15238253Y-13139484D01*
X15238253Y-13139484D02*
X15276348Y-13139484D01*
X15276348Y-13139484D02*
X15295396Y-13149008D01*
X15295396Y-13149008D02*
X15304920Y-13158531D01*
X15304920Y-13158531D02*
X15314444Y-13177579D01*
X15314444Y-13177579D02*
X15314444Y-13187103D01*
X15314444Y-13187103D02*
X15304920Y-13206150D01*
X15304920Y-13206150D02*
X15295396Y-13215674D01*
X15295396Y-13215674D02*
X15276348Y-13225198D01*
X15276348Y-13225198D02*
X15238253Y-13225198D01*
X15238253Y-13225198D02*
X15219206Y-13234722D01*
X15219206Y-13234722D02*
X15209682Y-13244246D01*
X15209682Y-13244246D02*
X15200158Y-13263293D01*
X15200158Y-13263293D02*
X15200158Y-13301388D01*
X15200158Y-13301388D02*
X15209682Y-13320436D01*
X15209682Y-13320436D02*
X15219206Y-13329960D01*
X15219206Y-13329960D02*
X15238253Y-13339484D01*
X15238253Y-13339484D02*
X15276348Y-13339484D01*
X15276348Y-13339484D02*
X15295396Y-13329960D01*
X15295396Y-13329960D02*
X15304920Y-13320436D01*
X15304920Y-13320436D02*
X15314444Y-13301388D01*
X15314444Y-13301388D02*
X15314444Y-13263293D01*
X15314444Y-13263293D02*
X15304920Y-13244246D01*
X15304920Y-13244246D02*
X15295396Y-13234722D01*
X15295396Y-13234722D02*
X15276348Y-13225198D01*
X15390634Y-13139484D02*
X15390634Y-13177579D01*
X15466825Y-13139484D02*
X15466825Y-13177579D01*
X15762063Y-13415674D02*
X15752539Y-13406150D01*
X15752539Y-13406150D02*
X15733491Y-13377579D01*
X15733491Y-13377579D02*
X15723968Y-13358531D01*
X15723968Y-13358531D02*
X15714444Y-13329960D01*
X15714444Y-13329960D02*
X15704920Y-13282341D01*
X15704920Y-13282341D02*
X15704920Y-13244246D01*
X15704920Y-13244246D02*
X15714444Y-13196627D01*
X15714444Y-13196627D02*
X15723968Y-13168055D01*
X15723968Y-13168055D02*
X15733491Y-13149008D01*
X15733491Y-13149008D02*
X15752539Y-13120436D01*
X15752539Y-13120436D02*
X15762063Y-13110912D01*
X15828729Y-13158531D02*
X15838253Y-13149008D01*
X15838253Y-13149008D02*
X15857301Y-13139484D01*
X15857301Y-13139484D02*
X15904920Y-13139484D01*
X15904920Y-13139484D02*
X15923968Y-13149008D01*
X15923968Y-13149008D02*
X15933491Y-13158531D01*
X15933491Y-13158531D02*
X15943015Y-13177579D01*
X15943015Y-13177579D02*
X15943015Y-13196627D01*
X15943015Y-13196627D02*
X15933491Y-13225198D01*
X15933491Y-13225198D02*
X15819206Y-13339484D01*
X15819206Y-13339484D02*
X15943015Y-13339484D01*
X16181110Y-13339484D02*
X16181110Y-13139484D01*
X16266825Y-13339484D02*
X16266825Y-13234722D01*
X16266825Y-13234722D02*
X16257301Y-13215674D01*
X16257301Y-13215674D02*
X16238253Y-13206150D01*
X16238253Y-13206150D02*
X16209682Y-13206150D01*
X16209682Y-13206150D02*
X16190634Y-13215674D01*
X16190634Y-13215674D02*
X16181110Y-13225198D01*
X16390634Y-13339484D02*
X16371587Y-13329960D01*
X16371587Y-13329960D02*
X16362063Y-13320436D01*
X16362063Y-13320436D02*
X16352539Y-13301388D01*
X16352539Y-13301388D02*
X16352539Y-13244246D01*
X16352539Y-13244246D02*
X16362063Y-13225198D01*
X16362063Y-13225198D02*
X16371587Y-13215674D01*
X16371587Y-13215674D02*
X16390634Y-13206150D01*
X16390634Y-13206150D02*
X16419206Y-13206150D01*
X16419206Y-13206150D02*
X16438253Y-13215674D01*
X16438253Y-13215674D02*
X16447777Y-13225198D01*
X16447777Y-13225198D02*
X16457301Y-13244246D01*
X16457301Y-13244246D02*
X16457301Y-13301388D01*
X16457301Y-13301388D02*
X16447777Y-13320436D01*
X16447777Y-13320436D02*
X16438253Y-13329960D01*
X16438253Y-13329960D02*
X16419206Y-13339484D01*
X16419206Y-13339484D02*
X16390634Y-13339484D01*
X16571587Y-13339484D02*
X16552539Y-13329960D01*
X16552539Y-13329960D02*
X16543015Y-13310912D01*
X16543015Y-13310912D02*
X16543015Y-13139484D01*
X16723968Y-13329960D02*
X16704920Y-13339484D01*
X16704920Y-13339484D02*
X16666825Y-13339484D01*
X16666825Y-13339484D02*
X16647777Y-13329960D01*
X16647777Y-13329960D02*
X16638253Y-13310912D01*
X16638253Y-13310912D02*
X16638253Y-13234722D01*
X16638253Y-13234722D02*
X16647777Y-13215674D01*
X16647777Y-13215674D02*
X16666825Y-13206150D01*
X16666825Y-13206150D02*
X16704920Y-13206150D01*
X16704920Y-13206150D02*
X16723968Y-13215674D01*
X16723968Y-13215674D02*
X16733491Y-13234722D01*
X16733491Y-13234722D02*
X16733491Y-13253769D01*
X16733491Y-13253769D02*
X16638253Y-13272817D01*
X16809682Y-13329960D02*
X16828730Y-13339484D01*
X16828730Y-13339484D02*
X16866825Y-13339484D01*
X16866825Y-13339484D02*
X16885873Y-13329960D01*
X16885873Y-13329960D02*
X16895396Y-13310912D01*
X16895396Y-13310912D02*
X16895396Y-13301388D01*
X16895396Y-13301388D02*
X16885873Y-13282341D01*
X16885873Y-13282341D02*
X16866825Y-13272817D01*
X16866825Y-13272817D02*
X16838253Y-13272817D01*
X16838253Y-13272817D02*
X16819206Y-13263293D01*
X16819206Y-13263293D02*
X16809682Y-13244246D01*
X16809682Y-13244246D02*
X16809682Y-13234722D01*
X16809682Y-13234722D02*
X16819206Y-13215674D01*
X16819206Y-13215674D02*
X16838253Y-13206150D01*
X16838253Y-13206150D02*
X16866825Y-13206150D01*
X16866825Y-13206150D02*
X16885873Y-13215674D01*
X16962063Y-13415674D02*
X16971587Y-13406150D01*
X16971587Y-13406150D02*
X16990634Y-13377579D01*
X16990634Y-13377579D02*
X17000158Y-13358531D01*
X17000158Y-13358531D02*
X17009682Y-13329960D01*
X17009682Y-13329960D02*
X17019206Y-13282341D01*
X17019206Y-13282341D02*
X17019206Y-13244246D01*
X17019206Y-13244246D02*
X17009682Y-13196627D01*
X17009682Y-13196627D02*
X17000158Y-13168055D01*
X17000158Y-13168055D02*
X16990634Y-13149008D01*
X16990634Y-13149008D02*
X16971587Y-13120436D01*
X16971587Y-13120436D02*
X16962063Y-13110912D01*
M02*
