M48
; DRILL file {KiCad 7.0.10} date Thu Feb  1 12:14:37 2024
; FORMAT={-:-/ absolute / metric / decimal}
; #@! TF.CreationDate,2024-02-01T12:14:37-09:00
; #@! TF.GenerationSoftware,Kicad,Pcbnew,7.0.10
; #@! TF.FileFunction,Plated,1,2,PTH
FMAT,2
METRIC
; #@! TA.AperFunction,Plated,PTH,ComponentDrill
T1C0.800
; #@! TA.AperFunction,Plated,PTH,ComponentDrill
T2C1.000
%
G90
G05
T1
X109.22Y-98.01
X109.22Y-110.71
X111.76Y-98.01
X111.76Y-110.71
X114.3Y-98.01
X114.3Y-110.71
X116.84Y-98.01
X116.84Y-110.71
X119.38Y-98.01
X119.38Y-110.71
X121.92Y-98.01
X121.92Y-110.71
X124.46Y-98.01
X124.46Y-110.71
X127.0Y-98.01
X127.0Y-110.71
X151.13Y-80.163
X151.13Y-85.163
T2
X114.3Y-90.405
X116.84Y-90.405
X119.38Y-90.405
X121.92Y-90.405
X137.16Y-95.46
X137.16Y-110.7
X139.7Y-95.46
X139.7Y-110.7
X142.24Y-90.38
X142.24Y-95.46
X142.24Y-110.7
X144.78Y-95.46
X144.78Y-110.7
X147.32Y-95.46
X147.32Y-110.7
X149.86Y-95.46
X149.86Y-110.7
X152.4Y-95.46
X152.4Y-110.7
X154.94Y-95.46
X154.94Y-110.7
X154.94Y-114.51
X157.48Y-95.46
X157.48Y-110.7
X160.02Y-95.46
X160.02Y-110.7
X162.56Y-95.46
X162.56Y-110.7
X165.1Y-95.46
X165.1Y-110.7
X167.64Y-95.46
X167.64Y-110.7
X170.18Y-95.46
X170.18Y-110.7
X172.72Y-95.46
X172.72Y-110.7
T2
G00X165.45Y-86.3
M15
G01X165.45Y-84.3
M16
G05
G00X169.45Y-80.6
M15
G01X167.45Y-80.6
M16
G05
G00X171.45Y-86.3
M15
G01X171.45Y-84.3
M16
G05
M30
