%TF.GenerationSoftware,KiCad,Pcbnew,7.0.10*%
%TF.CreationDate,2024-01-30T03:11:26-09:00*%
%TF.ProjectId,CustomPCB,43757374-6f6d-4504-9342-2e6b69636164,rev?*%
%TF.SameCoordinates,Original*%
%TF.FileFunction,Copper,L1,Top*%
%TF.FilePolarity,Positive*%
%FSLAX46Y46*%
G04 Gerber Fmt 4.6, Leading zero omitted, Abs format (unit mm)*
G04 Created by KiCad (PCBNEW 7.0.10) date 2024-01-30 03:11:26*
%MOMM*%
%LPD*%
G01*
G04 APERTURE LIST*
G04 Aperture macros list*
%AMRoundRect*
0 Rectangle with rounded corners*
0 $1 Rounding radius*
0 $2 $3 $4 $5 $6 $7 $8 $9 X,Y pos of 4 corners*
0 Add a 4 corners polygon primitive as box body*
4,1,4,$2,$3,$4,$5,$6,$7,$8,$9,$2,$3,0*
0 Add four circle primitives for the rounded corners*
1,1,$1+$1,$2,$3*
1,1,$1+$1,$4,$5*
1,1,$1+$1,$6,$7*
1,1,$1+$1,$8,$9*
0 Add four rect primitives between the rounded corners*
20,1,$1+$1,$2,$3,$4,$5,0*
20,1,$1+$1,$4,$5,$6,$7,0*
20,1,$1+$1,$6,$7,$8,$9,0*
20,1,$1+$1,$8,$9,$2,$3,0*%
G04 Aperture macros list end*
%TA.AperFunction,ComponentPad*%
%ADD10R,3.500000X3.500000*%
%TD*%
%TA.AperFunction,ComponentPad*%
%ADD11RoundRect,0.750000X0.750000X1.000000X-0.750000X1.000000X-0.750000X-1.000000X0.750000X-1.000000X0*%
%TD*%
%TA.AperFunction,ComponentPad*%
%ADD12RoundRect,0.875000X0.875000X0.875000X-0.875000X0.875000X-0.875000X-0.875000X0.875000X-0.875000X0*%
%TD*%
%TA.AperFunction,ComponentPad*%
%ADD13R,1.700000X1.700000*%
%TD*%
%TA.AperFunction,ComponentPad*%
%ADD14O,1.700000X1.700000*%
%TD*%
%TA.AperFunction,ComponentPad*%
%ADD15R,1.600000X1.600000*%
%TD*%
%TA.AperFunction,ComponentPad*%
%ADD16C,1.600000*%
%TD*%
%TA.AperFunction,ComponentPad*%
%ADD17O,1.600000X1.600000*%
%TD*%
%TA.AperFunction,Conductor*%
%ADD18C,0.300000*%
%TD*%
%TA.AperFunction,Conductor*%
%ADD19C,0.800000*%
%TD*%
G04 APERTURE END LIST*
D10*
%TO.P,J4,1*%
%TO.N,/5v Negative*%
X165450000Y-85300000D03*
D11*
%TO.P,J4,2*%
%TO.N,/5v Positive*%
X171450000Y-85300000D03*
D12*
%TO.P,J4,3*%
%TO.N,N/C*%
X168450000Y-80600000D03*
%TD*%
D13*
%TO.P,J3,1,Pin_1*%
%TO.N,/Logic Negative*%
X142240000Y-90380000D03*
%TD*%
%TO.P,J2,1,Pin_1*%
%TO.N,/Pin*%
X154940000Y-114510000D03*
%TD*%
%TO.P,J1,1,Pin_1*%
%TO.N,/Step Power*%
X121920000Y-90405000D03*
D14*
%TO.P,J1,2,Pin_2*%
X119380000Y-90405000D03*
%TO.P,J1,3,Pin_3*%
X116840000Y-90405000D03*
%TO.P,J1,4,Pin_4*%
X114300000Y-90405000D03*
%TD*%
D15*
%TO.P,C1,1*%
%TO.N,/5v Negative*%
X151130000Y-85162651D03*
D16*
%TO.P,C1,2*%
%TO.N,/5v Positive*%
X151130000Y-80162651D03*
%TD*%
D15*
%TO.P,A2,1,GND*%
%TO.N,/Logic Negative*%
X127000000Y-98010000D03*
D17*
%TO.P,A2,2,VDD*%
%TO.N,/Logic Positive*%
X124460000Y-98010000D03*
%TO.P,A2,3,1B*%
%TO.N,/Step Power*%
X121920000Y-98010000D03*
%TO.P,A2,4,1A*%
X119380000Y-98010000D03*
%TO.P,A2,5,2A*%
X116840000Y-98010000D03*
%TO.P,A2,6,2B*%
X114300000Y-98010000D03*
%TO.P,A2,7,GND*%
%TO.N,/5v Negative*%
X111760000Y-98010000D03*
%TO.P,A2,8,VMOT*%
%TO.N,/5v Positive*%
X109220000Y-98010000D03*
%TO.P,A2,9,~{ENABLE}*%
%TO.N,unconnected-(A2-~{ENABLE}-Pad9)*%
X109220000Y-110710000D03*
%TO.P,A2,10,MS1*%
%TO.N,unconnected-(A2-MS1-Pad10)*%
X111760000Y-110710000D03*
%TO.P,A2,11,MS2*%
%TO.N,unconnected-(A2-MS2-Pad11)*%
X114300000Y-110710000D03*
%TO.P,A2,12,MS3*%
%TO.N,unconnected-(A2-MS3-Pad12)*%
X116840000Y-110710000D03*
%TO.P,A2,13,~{RESET}*%
%TO.N,/Signal*%
X119380000Y-110710000D03*
%TO.P,A2,14,~{SLEEP}*%
X121920000Y-110710000D03*
%TO.P,A2,15,STEP*%
X124460000Y-110710000D03*
%TO.P,A2,16,DIR*%
X127000000Y-110710000D03*
%TD*%
D15*
%TO.P,A1,1,D1/TX*%
%TO.N,unconnected-(A1-D1{slash}TX-Pad1)*%
X137160000Y-110700000D03*
D17*
%TO.P,A1,2,D0/RX*%
%TO.N,unconnected-(A1-D0{slash}RX-Pad2)*%
X139700000Y-110700000D03*
%TO.P,A1,3,~{RESET}*%
%TO.N,unconnected-(A1-~{RESET}-Pad3)*%
X142240000Y-110700000D03*
%TO.P,A1,4,GND*%
%TO.N,unconnected-(A1-GND-Pad4)*%
X144780000Y-110700000D03*
%TO.P,A1,5,D2*%
%TO.N,unconnected-(A1-D2-Pad5)*%
X147320000Y-110700000D03*
%TO.P,A1,6,D3*%
%TO.N,/Signal*%
X149860000Y-110700000D03*
%TO.P,A1,7,D4*%
X152400000Y-110700000D03*
%TO.P,A1,8,D5*%
%TO.N,/Pin*%
X154940000Y-110700000D03*
%TO.P,A1,9,D6*%
%TO.N,/Signal*%
X157480000Y-110700000D03*
%TO.P,A1,10,D7*%
X160020000Y-110700000D03*
%TO.P,A1,11,D8*%
%TO.N,unconnected-(A1-D8-Pad11)*%
X162560000Y-110700000D03*
%TO.P,A1,12,D9*%
%TO.N,unconnected-(A1-D9-Pad12)*%
X165100000Y-110700000D03*
%TO.P,A1,13,D10*%
%TO.N,unconnected-(A1-D10-Pad13)*%
X167640000Y-110700000D03*
%TO.P,A1,14,D11*%
%TO.N,unconnected-(A1-D11-Pad14)*%
X170180000Y-110700000D03*
%TO.P,A1,15,D12*%
%TO.N,unconnected-(A1-D12-Pad15)*%
X172720000Y-110700000D03*
%TO.P,A1,16,D13*%
%TO.N,unconnected-(A1-D13-Pad16)*%
X172720000Y-95460000D03*
%TO.P,A1,17,3V3*%
%TO.N,unconnected-(A1-3V3-Pad17)*%
X170180000Y-95460000D03*
%TO.P,A1,18,AREF*%
%TO.N,unconnected-(A1-AREF-Pad18)*%
X167640000Y-95460000D03*
%TO.P,A1,19,A0*%
%TO.N,unconnected-(A1-A0-Pad19)*%
X165100000Y-95460000D03*
%TO.P,A1,20,A1*%
%TO.N,unconnected-(A1-A1-Pad20)*%
X162560000Y-95460000D03*
%TO.P,A1,21,A2*%
%TO.N,unconnected-(A1-A2-Pad21)*%
X160020000Y-95460000D03*
%TO.P,A1,22,A3*%
%TO.N,unconnected-(A1-A3-Pad22)*%
X157480000Y-95460000D03*
%TO.P,A1,23,A4*%
%TO.N,unconnected-(A1-A4-Pad23)*%
X154940000Y-95460000D03*
%TO.P,A1,24,A5*%
%TO.N,unconnected-(A1-A5-Pad24)*%
X152400000Y-95460000D03*
%TO.P,A1,25,A6*%
%TO.N,unconnected-(A1-A6-Pad25)*%
X149860000Y-95460000D03*
%TO.P,A1,26,A7*%
%TO.N,unconnected-(A1-A7-Pad26)*%
X147320000Y-95460000D03*
%TO.P,A1,27,+5V*%
%TO.N,/Logic Positive*%
X144780000Y-95460000D03*
%TO.P,A1,28,~{RESET}*%
%TO.N,unconnected-(A1-~{RESET}-Pad28)*%
X142240000Y-95460000D03*
%TO.P,A1,29,GND*%
%TO.N,/Logic Negative*%
X139700000Y-95460000D03*
%TO.P,A1,30,VIN*%
%TO.N,unconnected-(A1-VIN-Pad30)*%
X137160000Y-95460000D03*
%TD*%
D18*
%TO.N,/Signal*%
X126990000Y-118320000D02*
X119380000Y-110710000D01*
X158750000Y-118320000D02*
X126990000Y-118320000D01*
X160020000Y-117050000D02*
X158750000Y-118320000D01*
X160020000Y-110700000D02*
X160020000Y-117050000D01*
X128260000Y-117050000D02*
X157480000Y-117050000D01*
X121920000Y-110710000D02*
X128260000Y-117050000D01*
X157480000Y-117050000D02*
X157480000Y-110700000D01*
X124460000Y-110710000D02*
X129530000Y-115780000D01*
X129530000Y-115780000D02*
X147320000Y-115780000D01*
X147320000Y-115780000D02*
X152400000Y-110700000D01*
X130800000Y-114510000D02*
X127000000Y-110710000D01*
X146050000Y-114510000D02*
X130800000Y-114510000D01*
X149860000Y-110700000D02*
X146050000Y-114510000D01*
%TO.N,/Pin*%
X154940000Y-114510000D02*
X154940000Y-110700000D01*
D19*
%TO.N,/5v Positive*%
X153612651Y-77680000D02*
X151130000Y-80162651D01*
X171450000Y-77680000D02*
X153612651Y-77680000D01*
X171450000Y-85300000D02*
X171450000Y-77680000D01*
X116897349Y-80162651D02*
X109220000Y-87840000D01*
X109220000Y-87840000D02*
X109220000Y-98010000D01*
X151130000Y-80162651D02*
X116897349Y-80162651D01*
%TO.N,/5v Negative*%
X111760000Y-87840000D02*
X111760000Y-98010000D01*
X114300000Y-85300000D02*
X111760000Y-87840000D01*
X165450000Y-85300000D02*
X114300000Y-85300000D01*
%TO.N,/Logic Positive*%
X129540000Y-87840000D02*
X124460000Y-92920000D01*
X124460000Y-92920000D02*
X124460000Y-98010000D01*
X144780000Y-87840000D02*
X129540000Y-87840000D01*
X144780000Y-95460000D02*
X144780000Y-87840000D01*
%TO.N,/Logic Negative*%
X127000000Y-94190000D02*
X127000000Y-98010000D01*
X130810000Y-90380000D02*
X127000000Y-94190000D01*
X139700000Y-90380000D02*
X130810000Y-90380000D01*
X139700000Y-90380000D02*
X142240000Y-90380000D01*
X139700000Y-95460000D02*
X139700000Y-90380000D01*
%TO.N,/Step Power*%
X114300000Y-98010000D02*
X114300000Y-90405000D01*
X116840000Y-98010000D02*
X116840000Y-90405000D01*
X119380000Y-98010000D02*
X119380000Y-90405000D01*
X121920000Y-98010000D02*
X121920000Y-90405000D01*
%TD*%
%TA.AperFunction,NonConductor*%
G36*
X173992702Y-69040617D02*
G01*
X174405533Y-69058642D01*
X174416268Y-69059582D01*
X174823279Y-69113166D01*
X174833898Y-69115038D01*
X175234699Y-69203893D01*
X175245111Y-69206682D01*
X175636640Y-69330131D01*
X175646775Y-69333820D01*
X176026042Y-69490919D01*
X176035834Y-69495485D01*
X176399965Y-69685039D01*
X176409305Y-69690432D01*
X176733511Y-69896974D01*
X176755516Y-69910993D01*
X176764377Y-69917197D01*
X177090050Y-70167094D01*
X177098337Y-70174048D01*
X177400980Y-70451370D01*
X177408629Y-70459019D01*
X177685951Y-70761662D01*
X177692905Y-70769949D01*
X177942802Y-71095622D01*
X177949006Y-71104483D01*
X178169559Y-71450680D01*
X178174968Y-71460048D01*
X178364511Y-71824159D01*
X178369083Y-71833963D01*
X178526173Y-72213209D01*
X178529872Y-72223372D01*
X178639529Y-72571160D01*
X178653311Y-72614869D01*
X178656111Y-72625319D01*
X178744958Y-73026084D01*
X178746836Y-73036737D01*
X178800415Y-73443711D01*
X178801358Y-73454487D01*
X178819382Y-73867297D01*
X178819500Y-73872706D01*
X178819500Y-118317293D01*
X178819382Y-118322702D01*
X178801358Y-118735512D01*
X178800415Y-118746288D01*
X178746836Y-119153262D01*
X178744958Y-119163915D01*
X178656111Y-119564680D01*
X178653311Y-119575130D01*
X178529873Y-119966625D01*
X178526173Y-119976790D01*
X178369083Y-120356036D01*
X178364511Y-120365840D01*
X178174968Y-120729951D01*
X178169559Y-120739319D01*
X177949006Y-121085516D01*
X177942802Y-121094377D01*
X177692905Y-121420050D01*
X177685951Y-121428337D01*
X177408629Y-121730980D01*
X177400980Y-121738629D01*
X177098337Y-122015951D01*
X177090050Y-122022905D01*
X176764377Y-122272802D01*
X176755516Y-122279006D01*
X176409319Y-122499559D01*
X176399951Y-122504968D01*
X176035840Y-122694511D01*
X176026036Y-122699083D01*
X175646790Y-122856173D01*
X175636625Y-122859873D01*
X175245130Y-122983311D01*
X175234680Y-122986111D01*
X174833915Y-123074958D01*
X174823262Y-123076836D01*
X174416288Y-123130415D01*
X174405512Y-123131358D01*
X173992703Y-123149382D01*
X173987294Y-123149500D01*
X111762706Y-123149500D01*
X111757297Y-123149382D01*
X111344487Y-123131358D01*
X111333711Y-123130415D01*
X110926737Y-123076836D01*
X110916084Y-123074958D01*
X110878573Y-123066642D01*
X110515316Y-122986110D01*
X110504873Y-122983312D01*
X110113372Y-122859872D01*
X110103209Y-122856173D01*
X109723963Y-122699083D01*
X109714159Y-122694511D01*
X109592928Y-122631402D01*
X109350042Y-122504964D01*
X109340686Y-122499563D01*
X109167581Y-122389282D01*
X108994483Y-122279006D01*
X108985622Y-122272802D01*
X108659949Y-122022905D01*
X108651662Y-122015951D01*
X108349019Y-121738629D01*
X108341370Y-121730980D01*
X108064048Y-121428337D01*
X108057094Y-121420050D01*
X107807197Y-121094377D01*
X107800993Y-121085516D01*
X107778963Y-121050936D01*
X107580432Y-120739305D01*
X107575039Y-120729965D01*
X107385485Y-120365834D01*
X107380916Y-120356036D01*
X107223820Y-119976775D01*
X107220131Y-119966640D01*
X107096682Y-119575111D01*
X107093893Y-119564699D01*
X107005038Y-119163898D01*
X107003166Y-119153279D01*
X106949582Y-118746268D01*
X106948642Y-118735533D01*
X106930618Y-118322702D01*
X106930559Y-118320000D01*
X110154551Y-118320000D01*
X110174317Y-118571151D01*
X110233126Y-118816110D01*
X110329533Y-119048859D01*
X110461160Y-119263653D01*
X110461161Y-119263656D01*
X110461164Y-119263659D01*
X110624776Y-119455224D01*
X110759123Y-119569967D01*
X110816343Y-119618838D01*
X110816346Y-119618839D01*
X111031140Y-119750466D01*
X111263889Y-119846873D01*
X111508852Y-119905683D01*
X111697118Y-119920500D01*
X111697126Y-119920500D01*
X111822874Y-119920500D01*
X111822882Y-119920500D01*
X112011148Y-119905683D01*
X112256111Y-119846873D01*
X112488859Y-119750466D01*
X112703659Y-119618836D01*
X112895224Y-119455224D01*
X113058836Y-119263659D01*
X113190466Y-119048859D01*
X113286873Y-118816111D01*
X113345683Y-118571148D01*
X113365449Y-118320000D01*
X113345683Y-118068852D01*
X113286873Y-117823889D01*
X113190466Y-117591140D01*
X113058839Y-117376346D01*
X113058838Y-117376343D01*
X112968707Y-117270814D01*
X112895224Y-117184776D01*
X112761535Y-117070595D01*
X112703656Y-117021161D01*
X112703653Y-117021160D01*
X112488859Y-116889533D01*
X112256110Y-116793126D01*
X112011151Y-116734317D01*
X111822887Y-116719500D01*
X111822882Y-116719500D01*
X111697118Y-116719500D01*
X111697112Y-116719500D01*
X111508848Y-116734317D01*
X111263889Y-116793126D01*
X111031140Y-116889533D01*
X110816346Y-117021160D01*
X110816343Y-117021161D01*
X110624776Y-117184776D01*
X110461161Y-117376343D01*
X110461160Y-117376346D01*
X110329533Y-117591140D01*
X110233126Y-117823889D01*
X110174317Y-118068848D01*
X110154551Y-118320000D01*
X106930559Y-118320000D01*
X106930500Y-118317293D01*
X106930500Y-110710001D01*
X107914532Y-110710001D01*
X107934364Y-110936686D01*
X107934366Y-110936697D01*
X107993258Y-111156488D01*
X107993261Y-111156497D01*
X108089431Y-111362732D01*
X108089432Y-111362734D01*
X108219954Y-111549141D01*
X108380858Y-111710045D01*
X108380861Y-111710047D01*
X108567266Y-111840568D01*
X108773504Y-111936739D01*
X108993308Y-111995635D01*
X109155230Y-112009801D01*
X109219998Y-112015468D01*
X109220000Y-112015468D01*
X109220002Y-112015468D01*
X109276673Y-112010509D01*
X109446692Y-111995635D01*
X109666496Y-111936739D01*
X109872734Y-111840568D01*
X110059139Y-111710047D01*
X110220047Y-111549139D01*
X110350568Y-111362734D01*
X110377618Y-111304724D01*
X110423790Y-111252285D01*
X110490983Y-111233133D01*
X110557865Y-111253348D01*
X110602382Y-111304725D01*
X110629429Y-111362728D01*
X110629432Y-111362734D01*
X110759954Y-111549141D01*
X110920858Y-111710045D01*
X110920861Y-111710047D01*
X111107266Y-111840568D01*
X111313504Y-111936739D01*
X111533308Y-111995635D01*
X111695230Y-112009801D01*
X111759998Y-112015468D01*
X111760000Y-112015468D01*
X111760002Y-112015468D01*
X111816673Y-112010509D01*
X111986692Y-111995635D01*
X112206496Y-111936739D01*
X112412734Y-111840568D01*
X112599139Y-111710047D01*
X112760047Y-111549139D01*
X112890568Y-111362734D01*
X112917618Y-111304724D01*
X112963790Y-111252285D01*
X113030983Y-111233133D01*
X113097865Y-111253348D01*
X113142382Y-111304725D01*
X113169429Y-111362728D01*
X113169432Y-111362734D01*
X113299954Y-111549141D01*
X113460858Y-111710045D01*
X113460861Y-111710047D01*
X113647266Y-111840568D01*
X113853504Y-111936739D01*
X114073308Y-111995635D01*
X114235230Y-112009801D01*
X114299998Y-112015468D01*
X114300000Y-112015468D01*
X114300002Y-112015468D01*
X114356673Y-112010509D01*
X114526692Y-111995635D01*
X114746496Y-111936739D01*
X114952734Y-111840568D01*
X115139139Y-111710047D01*
X115300047Y-111549139D01*
X115430568Y-111362734D01*
X115457618Y-111304724D01*
X115503790Y-111252285D01*
X115570983Y-111233133D01*
X115637865Y-111253348D01*
X115682382Y-111304725D01*
X115709429Y-111362728D01*
X115709432Y-111362734D01*
X115839954Y-111549141D01*
X116000858Y-111710045D01*
X116000861Y-111710047D01*
X116187266Y-111840568D01*
X116393504Y-111936739D01*
X116613308Y-111995635D01*
X116775230Y-112009801D01*
X116839998Y-112015468D01*
X116840000Y-112015468D01*
X116840002Y-112015468D01*
X116896673Y-112010509D01*
X117066692Y-111995635D01*
X117286496Y-111936739D01*
X117492734Y-111840568D01*
X117679139Y-111710047D01*
X117840047Y-111549139D01*
X117970568Y-111362734D01*
X117997618Y-111304724D01*
X118043790Y-111252285D01*
X118110983Y-111233133D01*
X118177865Y-111253348D01*
X118222382Y-111304725D01*
X118249429Y-111362728D01*
X118249432Y-111362734D01*
X118379954Y-111549141D01*
X118540858Y-111710045D01*
X118540861Y-111710047D01*
X118727266Y-111840568D01*
X118933504Y-111936739D01*
X119153308Y-111995635D01*
X119315230Y-112009801D01*
X119379998Y-112015468D01*
X119380000Y-112015468D01*
X119380002Y-112015468D01*
X119411421Y-112012719D01*
X119606692Y-111995635D01*
X119644012Y-111985635D01*
X119647162Y-111984791D01*
X119717012Y-111986452D01*
X119766938Y-112016884D01*
X126469564Y-118719510D01*
X126479635Y-118732080D01*
X126479822Y-118731926D01*
X126484795Y-118737937D01*
X126484797Y-118737939D01*
X126484798Y-118737940D01*
X126506460Y-118758282D01*
X126535832Y-118785864D01*
X126538629Y-118788575D01*
X126558967Y-118808913D01*
X126562450Y-118811615D01*
X126571326Y-118819196D01*
X126591435Y-118838079D01*
X126604607Y-118850448D01*
X126604609Y-118850449D01*
X126623205Y-118860672D01*
X126639470Y-118871357D01*
X126656232Y-118884360D01*
X126656235Y-118884361D01*
X126656236Y-118884362D01*
X126698140Y-118902495D01*
X126708612Y-118907625D01*
X126748632Y-118929627D01*
X126764340Y-118933659D01*
X126769186Y-118934904D01*
X126787598Y-118941207D01*
X126807073Y-118949635D01*
X126852179Y-118956778D01*
X126863574Y-118959138D01*
X126907823Y-118970500D01*
X126929051Y-118970500D01*
X126948448Y-118972026D01*
X126969403Y-118975345D01*
X126969404Y-118975346D01*
X126969404Y-118975345D01*
X126969405Y-118975346D01*
X127014852Y-118971050D01*
X127026521Y-118970500D01*
X158664495Y-118970500D01*
X158680505Y-118972267D01*
X158680528Y-118972026D01*
X158688289Y-118972758D01*
X158688296Y-118972760D01*
X158758262Y-118970560D01*
X158762157Y-118970500D01*
X158790925Y-118970500D01*
X158795287Y-118969948D01*
X158806939Y-118969030D01*
X158852569Y-118967597D01*
X158872956Y-118961673D01*
X158891996Y-118957731D01*
X158913058Y-118955071D01*
X158955520Y-118938258D01*
X158966557Y-118934480D01*
X159010398Y-118921744D01*
X159028665Y-118910939D01*
X159046136Y-118902380D01*
X159065871Y-118894568D01*
X159102816Y-118867725D01*
X159112558Y-118861326D01*
X159151865Y-118838081D01*
X159166870Y-118823075D01*
X159181668Y-118810436D01*
X159198837Y-118797963D01*
X159227946Y-118762774D01*
X159235790Y-118754154D01*
X159669944Y-118320000D01*
X172384551Y-118320000D01*
X172404317Y-118571151D01*
X172463126Y-118816110D01*
X172559533Y-119048859D01*
X172691160Y-119263653D01*
X172691161Y-119263656D01*
X172691164Y-119263659D01*
X172854776Y-119455224D01*
X172989123Y-119569967D01*
X173046343Y-119618838D01*
X173046346Y-119618839D01*
X173261140Y-119750466D01*
X173493889Y-119846873D01*
X173738852Y-119905683D01*
X173927118Y-119920500D01*
X173927126Y-119920500D01*
X174052874Y-119920500D01*
X174052882Y-119920500D01*
X174241148Y-119905683D01*
X174486111Y-119846873D01*
X174718859Y-119750466D01*
X174933659Y-119618836D01*
X175125224Y-119455224D01*
X175288836Y-119263659D01*
X175420466Y-119048859D01*
X175516873Y-118816111D01*
X175575683Y-118571148D01*
X175595449Y-118320000D01*
X175575683Y-118068852D01*
X175516873Y-117823889D01*
X175420466Y-117591140D01*
X175288839Y-117376346D01*
X175288838Y-117376343D01*
X175198707Y-117270814D01*
X175125224Y-117184776D01*
X174991535Y-117070595D01*
X174933656Y-117021161D01*
X174933653Y-117021160D01*
X174718859Y-116889533D01*
X174486110Y-116793126D01*
X174241151Y-116734317D01*
X174052887Y-116719500D01*
X174052882Y-116719500D01*
X173927118Y-116719500D01*
X173927112Y-116719500D01*
X173738848Y-116734317D01*
X173493889Y-116793126D01*
X173261140Y-116889533D01*
X173046346Y-117021160D01*
X173046343Y-117021161D01*
X172854776Y-117184776D01*
X172691161Y-117376343D01*
X172691160Y-117376346D01*
X172559533Y-117591140D01*
X172463126Y-117823889D01*
X172404317Y-118068848D01*
X172384551Y-118320000D01*
X159669944Y-118320000D01*
X160419513Y-117570431D01*
X160432079Y-117560365D01*
X160431925Y-117560178D01*
X160437933Y-117555205D01*
X160437940Y-117555202D01*
X160473635Y-117517190D01*
X160485865Y-117504167D01*
X160488578Y-117501367D01*
X160508911Y-117481035D01*
X160511606Y-117477560D01*
X160519199Y-117468669D01*
X160519884Y-117467940D01*
X160550448Y-117435393D01*
X160560674Y-117416790D01*
X160571353Y-117400533D01*
X160584362Y-117383764D01*
X160602491Y-117341866D01*
X160607620Y-117331395D01*
X160629627Y-117291368D01*
X160634905Y-117270806D01*
X160641207Y-117252399D01*
X160649635Y-117232927D01*
X160656777Y-117187825D01*
X160659140Y-117176418D01*
X160670500Y-117132177D01*
X160670500Y-117110949D01*
X160672027Y-117091549D01*
X160672087Y-117091170D01*
X160675346Y-117070595D01*
X160671217Y-117026915D01*
X160671050Y-117025147D01*
X160670500Y-117013478D01*
X160670500Y-111896682D01*
X160690185Y-111829643D01*
X160723371Y-111795111D01*
X160859139Y-111700047D01*
X161020047Y-111539139D01*
X161150568Y-111352734D01*
X161177618Y-111294724D01*
X161223790Y-111242285D01*
X161290983Y-111223133D01*
X161357865Y-111243348D01*
X161402382Y-111294725D01*
X161429429Y-111352728D01*
X161429432Y-111352734D01*
X161559954Y-111539141D01*
X161720858Y-111700045D01*
X161720861Y-111700047D01*
X161907266Y-111830568D01*
X162113504Y-111926739D01*
X162333308Y-111985635D01*
X162495230Y-111999801D01*
X162559998Y-112005468D01*
X162560000Y-112005468D01*
X162560002Y-112005468D01*
X162616807Y-112000498D01*
X162786692Y-111985635D01*
X163006496Y-111926739D01*
X163212734Y-111830568D01*
X163399139Y-111700047D01*
X163560047Y-111539139D01*
X163690568Y-111352734D01*
X163717618Y-111294724D01*
X163763790Y-111242285D01*
X163830983Y-111223133D01*
X163897865Y-111243348D01*
X163942382Y-111294725D01*
X163969429Y-111352728D01*
X163969432Y-111352734D01*
X164099954Y-111539141D01*
X164260858Y-111700045D01*
X164260861Y-111700047D01*
X164447266Y-111830568D01*
X164653504Y-111926739D01*
X164873308Y-111985635D01*
X165035230Y-111999801D01*
X165099998Y-112005468D01*
X165100000Y-112005468D01*
X165100002Y-112005468D01*
X165156807Y-112000498D01*
X165326692Y-111985635D01*
X165546496Y-111926739D01*
X165752734Y-111830568D01*
X165939139Y-111700047D01*
X166100047Y-111539139D01*
X166230568Y-111352734D01*
X166257618Y-111294724D01*
X166303790Y-111242285D01*
X166370983Y-111223133D01*
X166437865Y-111243348D01*
X166482382Y-111294725D01*
X166509429Y-111352728D01*
X166509432Y-111352734D01*
X166639954Y-111539141D01*
X166800858Y-111700045D01*
X166800861Y-111700047D01*
X166987266Y-111830568D01*
X167193504Y-111926739D01*
X167413308Y-111985635D01*
X167575230Y-111999801D01*
X167639998Y-112005468D01*
X167640000Y-112005468D01*
X167640002Y-112005468D01*
X167696807Y-112000498D01*
X167866692Y-111985635D01*
X168086496Y-111926739D01*
X168292734Y-111830568D01*
X168479139Y-111700047D01*
X168640047Y-111539139D01*
X168770568Y-111352734D01*
X168797618Y-111294724D01*
X168843790Y-111242285D01*
X168910983Y-111223133D01*
X168977865Y-111243348D01*
X169022382Y-111294725D01*
X169049429Y-111352728D01*
X169049432Y-111352734D01*
X169179954Y-111539141D01*
X169340858Y-111700045D01*
X169340861Y-111700047D01*
X169527266Y-111830568D01*
X169733504Y-111926739D01*
X169953308Y-111985635D01*
X170115230Y-111999801D01*
X170179998Y-112005468D01*
X170180000Y-112005468D01*
X170180002Y-112005468D01*
X170236807Y-112000498D01*
X170406692Y-111985635D01*
X170626496Y-111926739D01*
X170832734Y-111830568D01*
X171019139Y-111700047D01*
X171180047Y-111539139D01*
X171310568Y-111352734D01*
X171337618Y-111294724D01*
X171383790Y-111242285D01*
X171450983Y-111223133D01*
X171517865Y-111243348D01*
X171562382Y-111294725D01*
X171589429Y-111352728D01*
X171589432Y-111352734D01*
X171719954Y-111539141D01*
X171880858Y-111700045D01*
X171880861Y-111700047D01*
X172067266Y-111830568D01*
X172273504Y-111926739D01*
X172493308Y-111985635D01*
X172655230Y-111999801D01*
X172719998Y-112005468D01*
X172720000Y-112005468D01*
X172720002Y-112005468D01*
X172776807Y-112000498D01*
X172946692Y-111985635D01*
X173166496Y-111926739D01*
X173372734Y-111830568D01*
X173559139Y-111700047D01*
X173720047Y-111539139D01*
X173850568Y-111352734D01*
X173946739Y-111146496D01*
X174005635Y-110926692D01*
X174025468Y-110700000D01*
X174005635Y-110473308D01*
X173949420Y-110263511D01*
X173946741Y-110253511D01*
X173946738Y-110253502D01*
X173877618Y-110105275D01*
X173850568Y-110047266D01*
X173720047Y-109860861D01*
X173720045Y-109860858D01*
X173559141Y-109699954D01*
X173372734Y-109569432D01*
X173372732Y-109569431D01*
X173166497Y-109473261D01*
X173166488Y-109473258D01*
X172946697Y-109414366D01*
X172946693Y-109414365D01*
X172946692Y-109414365D01*
X172946691Y-109414364D01*
X172946686Y-109414364D01*
X172720002Y-109394532D01*
X172719998Y-109394532D01*
X172493313Y-109414364D01*
X172493302Y-109414366D01*
X172273511Y-109473258D01*
X172273502Y-109473261D01*
X172067267Y-109569431D01*
X172067265Y-109569432D01*
X171880858Y-109699954D01*
X171719954Y-109860858D01*
X171589432Y-110047265D01*
X171589431Y-110047267D01*
X171562382Y-110105275D01*
X171516209Y-110157714D01*
X171449016Y-110176866D01*
X171382135Y-110156650D01*
X171337618Y-110105275D01*
X171310568Y-110047266D01*
X171180047Y-109860861D01*
X171180045Y-109860858D01*
X171019141Y-109699954D01*
X170832734Y-109569432D01*
X170832732Y-109569431D01*
X170626497Y-109473261D01*
X170626488Y-109473258D01*
X170406697Y-109414366D01*
X170406693Y-109414365D01*
X170406692Y-109414365D01*
X170406691Y-109414364D01*
X170406686Y-109414364D01*
X170180002Y-109394532D01*
X170179998Y-109394532D01*
X169953313Y-109414364D01*
X169953302Y-109414366D01*
X169733511Y-109473258D01*
X169733502Y-109473261D01*
X169527267Y-109569431D01*
X169527265Y-109569432D01*
X169340858Y-109699954D01*
X169179954Y-109860858D01*
X169049432Y-110047265D01*
X169049431Y-110047267D01*
X169022382Y-110105275D01*
X168976209Y-110157714D01*
X168909016Y-110176866D01*
X168842135Y-110156650D01*
X168797618Y-110105275D01*
X168770568Y-110047266D01*
X168640047Y-109860861D01*
X168640045Y-109860858D01*
X168479141Y-109699954D01*
X168292734Y-109569432D01*
X168292732Y-109569431D01*
X168086497Y-109473261D01*
X168086488Y-109473258D01*
X167866697Y-109414366D01*
X167866693Y-109414365D01*
X167866692Y-109414365D01*
X167866691Y-109414364D01*
X167866686Y-109414364D01*
X167640002Y-109394532D01*
X167639998Y-109394532D01*
X167413313Y-109414364D01*
X167413302Y-109414366D01*
X167193511Y-109473258D01*
X167193502Y-109473261D01*
X166987267Y-109569431D01*
X166987265Y-109569432D01*
X166800858Y-109699954D01*
X166639954Y-109860858D01*
X166509432Y-110047265D01*
X166509431Y-110047267D01*
X166482382Y-110105275D01*
X166436209Y-110157714D01*
X166369016Y-110176866D01*
X166302135Y-110156650D01*
X166257618Y-110105275D01*
X166230568Y-110047266D01*
X166100047Y-109860861D01*
X166100045Y-109860858D01*
X165939141Y-109699954D01*
X165752734Y-109569432D01*
X165752732Y-109569431D01*
X165546497Y-109473261D01*
X165546488Y-109473258D01*
X165326697Y-109414366D01*
X165326693Y-109414365D01*
X165326692Y-109414365D01*
X165326691Y-109414364D01*
X165326686Y-109414364D01*
X165100002Y-109394532D01*
X165099998Y-109394532D01*
X164873313Y-109414364D01*
X164873302Y-109414366D01*
X164653511Y-109473258D01*
X164653502Y-109473261D01*
X164447267Y-109569431D01*
X164447265Y-109569432D01*
X164260858Y-109699954D01*
X164099954Y-109860858D01*
X163969432Y-110047265D01*
X163969431Y-110047267D01*
X163942382Y-110105275D01*
X163896209Y-110157714D01*
X163829016Y-110176866D01*
X163762135Y-110156650D01*
X163717618Y-110105275D01*
X163690568Y-110047266D01*
X163560047Y-109860861D01*
X163560045Y-109860858D01*
X163399141Y-109699954D01*
X163212734Y-109569432D01*
X163212732Y-109569431D01*
X163006497Y-109473261D01*
X163006488Y-109473258D01*
X162786697Y-109414366D01*
X162786693Y-109414365D01*
X162786692Y-109414365D01*
X162786691Y-109414364D01*
X162786686Y-109414364D01*
X162560002Y-109394532D01*
X162559998Y-109394532D01*
X162333313Y-109414364D01*
X162333302Y-109414366D01*
X162113511Y-109473258D01*
X162113502Y-109473261D01*
X161907267Y-109569431D01*
X161907265Y-109569432D01*
X161720858Y-109699954D01*
X161559954Y-109860858D01*
X161429432Y-110047265D01*
X161429431Y-110047267D01*
X161402382Y-110105275D01*
X161356209Y-110157714D01*
X161289016Y-110176866D01*
X161222135Y-110156650D01*
X161177618Y-110105275D01*
X161150568Y-110047266D01*
X161020047Y-109860861D01*
X161020045Y-109860858D01*
X160859141Y-109699954D01*
X160672734Y-109569432D01*
X160672732Y-109569431D01*
X160466497Y-109473261D01*
X160466488Y-109473258D01*
X160246697Y-109414366D01*
X160246693Y-109414365D01*
X160246692Y-109414365D01*
X160246691Y-109414364D01*
X160246686Y-109414364D01*
X160020002Y-109394532D01*
X160019998Y-109394532D01*
X159793313Y-109414364D01*
X159793302Y-109414366D01*
X159573511Y-109473258D01*
X159573502Y-109473261D01*
X159367267Y-109569431D01*
X159367265Y-109569432D01*
X159180858Y-109699954D01*
X159019954Y-109860858D01*
X158889432Y-110047265D01*
X158889431Y-110047267D01*
X158862382Y-110105275D01*
X158816209Y-110157714D01*
X158749016Y-110176866D01*
X158682135Y-110156650D01*
X158637618Y-110105275D01*
X158610568Y-110047266D01*
X158480047Y-109860861D01*
X158480045Y-109860858D01*
X158319141Y-109699954D01*
X158132734Y-109569432D01*
X158132732Y-109569431D01*
X157926497Y-109473261D01*
X157926488Y-109473258D01*
X157706697Y-109414366D01*
X157706693Y-109414365D01*
X157706692Y-109414365D01*
X157706691Y-109414364D01*
X157706686Y-109414364D01*
X157480002Y-109394532D01*
X157479998Y-109394532D01*
X157253313Y-109414364D01*
X157253302Y-109414366D01*
X157033511Y-109473258D01*
X157033502Y-109473261D01*
X156827267Y-109569431D01*
X156827265Y-109569432D01*
X156640858Y-109699954D01*
X156479954Y-109860858D01*
X156349432Y-110047265D01*
X156349431Y-110047267D01*
X156322382Y-110105275D01*
X156276209Y-110157714D01*
X156209016Y-110176866D01*
X156142135Y-110156650D01*
X156097618Y-110105275D01*
X156070568Y-110047266D01*
X155940047Y-109860861D01*
X155940045Y-109860858D01*
X155779141Y-109699954D01*
X155592734Y-109569432D01*
X155592732Y-109569431D01*
X155386497Y-109473261D01*
X155386488Y-109473258D01*
X155166697Y-109414366D01*
X155166693Y-109414365D01*
X155166692Y-109414365D01*
X155166691Y-109414364D01*
X155166686Y-109414364D01*
X154940002Y-109394532D01*
X154939998Y-109394532D01*
X154713313Y-109414364D01*
X154713302Y-109414366D01*
X154493511Y-109473258D01*
X154493502Y-109473261D01*
X154287267Y-109569431D01*
X154287265Y-109569432D01*
X154100858Y-109699954D01*
X153939954Y-109860858D01*
X153809432Y-110047265D01*
X153809431Y-110047267D01*
X153782382Y-110105275D01*
X153736209Y-110157714D01*
X153669016Y-110176866D01*
X153602135Y-110156650D01*
X153557618Y-110105275D01*
X153530568Y-110047266D01*
X153400047Y-109860861D01*
X153400045Y-109860858D01*
X153239141Y-109699954D01*
X153052734Y-109569432D01*
X153052732Y-109569431D01*
X152846497Y-109473261D01*
X152846488Y-109473258D01*
X152626697Y-109414366D01*
X152626693Y-109414365D01*
X152626692Y-109414365D01*
X152626691Y-109414364D01*
X152626686Y-109414364D01*
X152400002Y-109394532D01*
X152399998Y-109394532D01*
X152173313Y-109414364D01*
X152173302Y-109414366D01*
X151953511Y-109473258D01*
X151953502Y-109473261D01*
X151747267Y-109569431D01*
X151747265Y-109569432D01*
X151560858Y-109699954D01*
X151399954Y-109860858D01*
X151269432Y-110047265D01*
X151269431Y-110047267D01*
X151242382Y-110105275D01*
X151196209Y-110157714D01*
X151129016Y-110176866D01*
X151062135Y-110156650D01*
X151017618Y-110105275D01*
X150990568Y-110047266D01*
X150860047Y-109860861D01*
X150860045Y-109860858D01*
X150699141Y-109699954D01*
X150512734Y-109569432D01*
X150512732Y-109569431D01*
X150306497Y-109473261D01*
X150306488Y-109473258D01*
X150086697Y-109414366D01*
X150086693Y-109414365D01*
X150086692Y-109414365D01*
X150086691Y-109414364D01*
X150086686Y-109414364D01*
X149860002Y-109394532D01*
X149859998Y-109394532D01*
X149633313Y-109414364D01*
X149633302Y-109414366D01*
X149413511Y-109473258D01*
X149413502Y-109473261D01*
X149207267Y-109569431D01*
X149207265Y-109569432D01*
X149020858Y-109699954D01*
X148859954Y-109860858D01*
X148729432Y-110047265D01*
X148729431Y-110047267D01*
X148702382Y-110105275D01*
X148656209Y-110157714D01*
X148589016Y-110176866D01*
X148522135Y-110156650D01*
X148477618Y-110105275D01*
X148450568Y-110047266D01*
X148320047Y-109860861D01*
X148320045Y-109860858D01*
X148159141Y-109699954D01*
X147972734Y-109569432D01*
X147972732Y-109569431D01*
X147766497Y-109473261D01*
X147766488Y-109473258D01*
X147546697Y-109414366D01*
X147546693Y-109414365D01*
X147546692Y-109414365D01*
X147546691Y-109414364D01*
X147546686Y-109414364D01*
X147320002Y-109394532D01*
X147319998Y-109394532D01*
X147093313Y-109414364D01*
X147093302Y-109414366D01*
X146873511Y-109473258D01*
X146873502Y-109473261D01*
X146667267Y-109569431D01*
X146667265Y-109569432D01*
X146480858Y-109699954D01*
X146319954Y-109860858D01*
X146189432Y-110047265D01*
X146189431Y-110047267D01*
X146162382Y-110105275D01*
X146116209Y-110157714D01*
X146049016Y-110176866D01*
X145982135Y-110156650D01*
X145937618Y-110105275D01*
X145910568Y-110047266D01*
X145780047Y-109860861D01*
X145780045Y-109860858D01*
X145619141Y-109699954D01*
X145432734Y-109569432D01*
X145432732Y-109569431D01*
X145226497Y-109473261D01*
X145226488Y-109473258D01*
X145006697Y-109414366D01*
X145006693Y-109414365D01*
X145006692Y-109414365D01*
X145006691Y-109414364D01*
X145006686Y-109414364D01*
X144780002Y-109394532D01*
X144779998Y-109394532D01*
X144553313Y-109414364D01*
X144553302Y-109414366D01*
X144333511Y-109473258D01*
X144333502Y-109473261D01*
X144127267Y-109569431D01*
X144127265Y-109569432D01*
X143940858Y-109699954D01*
X143779954Y-109860858D01*
X143649432Y-110047265D01*
X143649431Y-110047267D01*
X143622382Y-110105275D01*
X143576209Y-110157714D01*
X143509016Y-110176866D01*
X143442135Y-110156650D01*
X143397618Y-110105275D01*
X143370568Y-110047266D01*
X143240047Y-109860861D01*
X143240045Y-109860858D01*
X143079141Y-109699954D01*
X142892734Y-109569432D01*
X142892732Y-109569431D01*
X142686497Y-109473261D01*
X142686488Y-109473258D01*
X142466697Y-109414366D01*
X142466693Y-109414365D01*
X142466692Y-109414365D01*
X142466691Y-109414364D01*
X142466686Y-109414364D01*
X142240002Y-109394532D01*
X142239998Y-109394532D01*
X142013313Y-109414364D01*
X142013302Y-109414366D01*
X141793511Y-109473258D01*
X141793502Y-109473261D01*
X141587267Y-109569431D01*
X141587265Y-109569432D01*
X141400858Y-109699954D01*
X141239954Y-109860858D01*
X141109432Y-110047265D01*
X141109431Y-110047267D01*
X141082382Y-110105275D01*
X141036209Y-110157714D01*
X140969016Y-110176866D01*
X140902135Y-110156650D01*
X140857618Y-110105275D01*
X140830568Y-110047266D01*
X140700047Y-109860861D01*
X140700045Y-109860858D01*
X140539141Y-109699954D01*
X140352734Y-109569432D01*
X140352732Y-109569431D01*
X140146497Y-109473261D01*
X140146488Y-109473258D01*
X139926697Y-109414366D01*
X139926693Y-109414365D01*
X139926692Y-109414365D01*
X139926691Y-109414364D01*
X139926686Y-109414364D01*
X139700002Y-109394532D01*
X139699998Y-109394532D01*
X139473313Y-109414364D01*
X139473302Y-109414366D01*
X139253511Y-109473258D01*
X139253502Y-109473261D01*
X139047267Y-109569431D01*
X139047265Y-109569432D01*
X138860858Y-109699954D01*
X138699954Y-109860858D01*
X138682725Y-109885464D01*
X138628147Y-109929088D01*
X138558648Y-109936280D01*
X138496294Y-109904757D01*
X138460882Y-109844526D01*
X138457861Y-109827591D01*
X138454091Y-109792516D01*
X138403797Y-109657671D01*
X138403793Y-109657664D01*
X138317547Y-109542455D01*
X138317544Y-109542452D01*
X138202335Y-109456206D01*
X138202328Y-109456202D01*
X138067482Y-109405908D01*
X138067483Y-109405908D01*
X138007883Y-109399501D01*
X138007881Y-109399500D01*
X138007873Y-109399500D01*
X138007864Y-109399500D01*
X136312129Y-109399500D01*
X136312123Y-109399501D01*
X136252516Y-109405908D01*
X136117671Y-109456202D01*
X136117664Y-109456206D01*
X136002455Y-109542452D01*
X136002452Y-109542455D01*
X135916206Y-109657664D01*
X135916202Y-109657671D01*
X135865908Y-109792517D01*
X135859501Y-109852116D01*
X135859500Y-109852135D01*
X135859500Y-111547870D01*
X135859501Y-111547876D01*
X135865908Y-111607483D01*
X135916202Y-111742328D01*
X135916206Y-111742335D01*
X136002452Y-111857544D01*
X136002455Y-111857547D01*
X136117664Y-111943793D01*
X136117671Y-111943797D01*
X136252517Y-111994091D01*
X136252516Y-111994091D01*
X136259444Y-111994835D01*
X136312127Y-112000500D01*
X138007872Y-112000499D01*
X138067483Y-111994091D01*
X138202331Y-111943796D01*
X138317546Y-111857546D01*
X138403796Y-111742331D01*
X138454091Y-111607483D01*
X138457862Y-111572401D01*
X138484599Y-111507855D01*
X138541990Y-111468006D01*
X138611816Y-111465511D01*
X138671905Y-111501163D01*
X138682726Y-111514536D01*
X138699956Y-111539143D01*
X138860858Y-111700045D01*
X138860861Y-111700047D01*
X139047266Y-111830568D01*
X139253504Y-111926739D01*
X139473308Y-111985635D01*
X139635230Y-111999801D01*
X139699998Y-112005468D01*
X139700000Y-112005468D01*
X139700002Y-112005468D01*
X139756807Y-112000498D01*
X139926692Y-111985635D01*
X140146496Y-111926739D01*
X140352734Y-111830568D01*
X140539139Y-111700047D01*
X140700047Y-111539139D01*
X140830568Y-111352734D01*
X140857618Y-111294724D01*
X140903790Y-111242285D01*
X140970983Y-111223133D01*
X141037865Y-111243348D01*
X141082382Y-111294725D01*
X141109429Y-111352728D01*
X141109432Y-111352734D01*
X141239954Y-111539141D01*
X141400858Y-111700045D01*
X141400861Y-111700047D01*
X141587266Y-111830568D01*
X141793504Y-111926739D01*
X142013308Y-111985635D01*
X142175230Y-111999801D01*
X142239998Y-112005468D01*
X142240000Y-112005468D01*
X142240002Y-112005468D01*
X142296807Y-112000498D01*
X142466692Y-111985635D01*
X142686496Y-111926739D01*
X142892734Y-111830568D01*
X143079139Y-111700047D01*
X143240047Y-111539139D01*
X143370568Y-111352734D01*
X143397618Y-111294724D01*
X143443790Y-111242285D01*
X143510983Y-111223133D01*
X143577865Y-111243348D01*
X143622382Y-111294725D01*
X143649429Y-111352728D01*
X143649432Y-111352734D01*
X143779954Y-111539141D01*
X143940858Y-111700045D01*
X143940861Y-111700047D01*
X144127266Y-111830568D01*
X144333504Y-111926739D01*
X144553308Y-111985635D01*
X144715230Y-111999801D01*
X144779998Y-112005468D01*
X144780000Y-112005468D01*
X144780002Y-112005468D01*
X144836807Y-112000498D01*
X145006692Y-111985635D01*
X145226496Y-111926739D01*
X145432734Y-111830568D01*
X145619139Y-111700047D01*
X145780047Y-111539139D01*
X145910568Y-111352734D01*
X145937618Y-111294724D01*
X145983790Y-111242285D01*
X146050983Y-111223133D01*
X146117865Y-111243348D01*
X146162382Y-111294725D01*
X146189429Y-111352728D01*
X146189432Y-111352734D01*
X146319954Y-111539141D01*
X146480858Y-111700045D01*
X146480861Y-111700047D01*
X146667266Y-111830568D01*
X146873504Y-111926739D01*
X147093308Y-111985635D01*
X147320000Y-112005468D01*
X147325352Y-112004999D01*
X147393850Y-112018763D01*
X147444035Y-112067375D01*
X147459972Y-112135403D01*
X147436601Y-112201248D01*
X147423844Y-112216208D01*
X145816873Y-113823181D01*
X145755550Y-113856666D01*
X145729192Y-113859500D01*
X131120808Y-113859500D01*
X131053769Y-113839815D01*
X131033127Y-113823181D01*
X128306884Y-111096938D01*
X128273399Y-111035615D01*
X128274791Y-110977162D01*
X128285633Y-110936699D01*
X128285632Y-110936699D01*
X128285635Y-110936692D01*
X128305468Y-110710000D01*
X128285635Y-110483308D01*
X128226739Y-110263504D01*
X128130568Y-110057266D01*
X128000047Y-109870861D01*
X128000045Y-109870858D01*
X127839141Y-109709954D01*
X127652734Y-109579432D01*
X127652732Y-109579431D01*
X127446497Y-109483261D01*
X127446488Y-109483258D01*
X127226697Y-109424366D01*
X127226693Y-109424365D01*
X127226692Y-109424365D01*
X127226691Y-109424364D01*
X127226686Y-109424364D01*
X127000002Y-109404532D01*
X126999998Y-109404532D01*
X126773313Y-109424364D01*
X126773302Y-109424366D01*
X126553511Y-109483258D01*
X126553502Y-109483261D01*
X126347267Y-109579431D01*
X126347265Y-109579432D01*
X126160858Y-109709954D01*
X125999954Y-109870858D01*
X125869432Y-110057265D01*
X125869431Y-110057267D01*
X125842382Y-110115275D01*
X125796209Y-110167714D01*
X125729016Y-110186866D01*
X125662135Y-110166650D01*
X125617618Y-110115275D01*
X125590568Y-110057267D01*
X125590567Y-110057265D01*
X125583566Y-110047267D01*
X125460047Y-109870861D01*
X125460045Y-109870858D01*
X125299141Y-109709954D01*
X125112734Y-109579432D01*
X125112732Y-109579431D01*
X124906497Y-109483261D01*
X124906488Y-109483258D01*
X124686697Y-109424366D01*
X124686693Y-109424365D01*
X124686692Y-109424365D01*
X124686691Y-109424364D01*
X124686686Y-109424364D01*
X124460002Y-109404532D01*
X124459998Y-109404532D01*
X124233313Y-109424364D01*
X124233302Y-109424366D01*
X124013511Y-109483258D01*
X124013502Y-109483261D01*
X123807267Y-109579431D01*
X123807265Y-109579432D01*
X123620858Y-109709954D01*
X123459954Y-109870858D01*
X123329432Y-110057265D01*
X123329431Y-110057267D01*
X123302382Y-110115275D01*
X123256209Y-110167714D01*
X123189016Y-110186866D01*
X123122135Y-110166650D01*
X123077618Y-110115275D01*
X123050568Y-110057267D01*
X123050567Y-110057265D01*
X123043566Y-110047267D01*
X122920047Y-109870861D01*
X122920045Y-109870858D01*
X122759141Y-109709954D01*
X122572734Y-109579432D01*
X122572732Y-109579431D01*
X122366497Y-109483261D01*
X122366488Y-109483258D01*
X122146697Y-109424366D01*
X122146693Y-109424365D01*
X122146692Y-109424365D01*
X122146691Y-109424364D01*
X122146686Y-109424364D01*
X121920002Y-109404532D01*
X121919998Y-109404532D01*
X121693313Y-109424364D01*
X121693302Y-109424366D01*
X121473511Y-109483258D01*
X121473502Y-109483261D01*
X121267267Y-109579431D01*
X121267265Y-109579432D01*
X121080858Y-109709954D01*
X120919954Y-109870858D01*
X120789432Y-110057265D01*
X120789431Y-110057267D01*
X120762382Y-110115275D01*
X120716209Y-110167714D01*
X120649016Y-110186866D01*
X120582135Y-110166650D01*
X120537618Y-110115275D01*
X120510568Y-110057267D01*
X120510567Y-110057265D01*
X120503566Y-110047267D01*
X120380047Y-109870861D01*
X120380045Y-109870858D01*
X120219141Y-109709954D01*
X120032734Y-109579432D01*
X120032732Y-109579431D01*
X119826497Y-109483261D01*
X119826488Y-109483258D01*
X119606697Y-109424366D01*
X119606693Y-109424365D01*
X119606692Y-109424365D01*
X119606691Y-109424364D01*
X119606686Y-109424364D01*
X119380002Y-109404532D01*
X119379998Y-109404532D01*
X119153313Y-109424364D01*
X119153302Y-109424366D01*
X118933511Y-109483258D01*
X118933502Y-109483261D01*
X118727267Y-109579431D01*
X118727265Y-109579432D01*
X118540858Y-109709954D01*
X118379954Y-109870858D01*
X118249432Y-110057265D01*
X118249431Y-110057267D01*
X118222382Y-110115275D01*
X118176209Y-110167714D01*
X118109016Y-110186866D01*
X118042135Y-110166650D01*
X117997618Y-110115275D01*
X117970568Y-110057267D01*
X117970567Y-110057265D01*
X117963566Y-110047267D01*
X117840047Y-109870861D01*
X117840045Y-109870858D01*
X117679141Y-109709954D01*
X117492734Y-109579432D01*
X117492732Y-109579431D01*
X117286497Y-109483261D01*
X117286488Y-109483258D01*
X117066697Y-109424366D01*
X117066693Y-109424365D01*
X117066692Y-109424365D01*
X117066691Y-109424364D01*
X117066686Y-109424364D01*
X116840002Y-109404532D01*
X116839998Y-109404532D01*
X116613313Y-109424364D01*
X116613302Y-109424366D01*
X116393511Y-109483258D01*
X116393502Y-109483261D01*
X116187267Y-109579431D01*
X116187265Y-109579432D01*
X116000858Y-109709954D01*
X115839954Y-109870858D01*
X115709432Y-110057265D01*
X115709431Y-110057267D01*
X115682382Y-110115275D01*
X115636209Y-110167714D01*
X115569016Y-110186866D01*
X115502135Y-110166650D01*
X115457618Y-110115275D01*
X115430568Y-110057267D01*
X115430567Y-110057265D01*
X115423566Y-110047267D01*
X115300047Y-109870861D01*
X115300045Y-109870858D01*
X115139141Y-109709954D01*
X114952734Y-109579432D01*
X114952732Y-109579431D01*
X114746497Y-109483261D01*
X114746488Y-109483258D01*
X114526697Y-109424366D01*
X114526693Y-109424365D01*
X114526692Y-109424365D01*
X114526691Y-109424364D01*
X114526686Y-109424364D01*
X114300002Y-109404532D01*
X114299998Y-109404532D01*
X114073313Y-109424364D01*
X114073302Y-109424366D01*
X113853511Y-109483258D01*
X113853502Y-109483261D01*
X113647267Y-109579431D01*
X113647265Y-109579432D01*
X113460858Y-109709954D01*
X113299954Y-109870858D01*
X113169432Y-110057265D01*
X113169431Y-110057267D01*
X113142382Y-110115275D01*
X113096209Y-110167714D01*
X113029016Y-110186866D01*
X112962135Y-110166650D01*
X112917618Y-110115275D01*
X112890568Y-110057267D01*
X112890567Y-110057265D01*
X112883566Y-110047267D01*
X112760047Y-109870861D01*
X112760045Y-109870858D01*
X112599141Y-109709954D01*
X112412734Y-109579432D01*
X112412732Y-109579431D01*
X112206497Y-109483261D01*
X112206488Y-109483258D01*
X111986697Y-109424366D01*
X111986693Y-109424365D01*
X111986692Y-109424365D01*
X111986691Y-109424364D01*
X111986686Y-109424364D01*
X111760002Y-109404532D01*
X111759998Y-109404532D01*
X111533313Y-109424364D01*
X111533302Y-109424366D01*
X111313511Y-109483258D01*
X111313502Y-109483261D01*
X111107267Y-109579431D01*
X111107265Y-109579432D01*
X110920858Y-109709954D01*
X110759954Y-109870858D01*
X110629432Y-110057265D01*
X110629431Y-110057267D01*
X110602382Y-110115275D01*
X110556209Y-110167714D01*
X110489016Y-110186866D01*
X110422135Y-110166650D01*
X110377618Y-110115275D01*
X110350568Y-110057267D01*
X110350567Y-110057265D01*
X110343566Y-110047267D01*
X110220047Y-109870861D01*
X110220045Y-109870858D01*
X110059141Y-109709954D01*
X109872734Y-109579432D01*
X109872732Y-109579431D01*
X109666497Y-109483261D01*
X109666488Y-109483258D01*
X109446697Y-109424366D01*
X109446693Y-109424365D01*
X109446692Y-109424365D01*
X109446691Y-109424364D01*
X109446686Y-109424364D01*
X109220002Y-109404532D01*
X109219998Y-109404532D01*
X108993313Y-109424364D01*
X108993302Y-109424366D01*
X108773511Y-109483258D01*
X108773502Y-109483261D01*
X108567267Y-109579431D01*
X108567265Y-109579432D01*
X108380858Y-109709954D01*
X108219954Y-109870858D01*
X108089432Y-110057265D01*
X108089431Y-110057267D01*
X107993261Y-110263502D01*
X107993258Y-110263511D01*
X107934366Y-110483302D01*
X107934364Y-110483313D01*
X107914532Y-110709998D01*
X107914532Y-110710001D01*
X106930500Y-110710001D01*
X106930500Y-98010001D01*
X107914532Y-98010001D01*
X107934364Y-98236686D01*
X107934366Y-98236697D01*
X107993258Y-98456488D01*
X107993261Y-98456497D01*
X108089431Y-98662732D01*
X108089432Y-98662734D01*
X108219954Y-98849141D01*
X108380858Y-99010045D01*
X108380861Y-99010047D01*
X108567266Y-99140568D01*
X108773504Y-99236739D01*
X108993308Y-99295635D01*
X109155230Y-99309801D01*
X109219998Y-99315468D01*
X109220000Y-99315468D01*
X109220002Y-99315468D01*
X109276807Y-99310498D01*
X109446692Y-99295635D01*
X109666496Y-99236739D01*
X109872734Y-99140568D01*
X110059139Y-99010047D01*
X110220047Y-98849139D01*
X110350568Y-98662734D01*
X110377618Y-98604724D01*
X110423790Y-98552285D01*
X110490983Y-98533133D01*
X110557865Y-98553348D01*
X110602382Y-98604725D01*
X110629429Y-98662728D01*
X110629432Y-98662734D01*
X110759954Y-98849141D01*
X110920858Y-99010045D01*
X110920861Y-99010047D01*
X111107266Y-99140568D01*
X111313504Y-99236739D01*
X111533308Y-99295635D01*
X111695230Y-99309801D01*
X111759998Y-99315468D01*
X111760000Y-99315468D01*
X111760002Y-99315468D01*
X111816807Y-99310498D01*
X111986692Y-99295635D01*
X112206496Y-99236739D01*
X112412734Y-99140568D01*
X112599139Y-99010047D01*
X112760047Y-98849139D01*
X112890568Y-98662734D01*
X112917618Y-98604724D01*
X112963790Y-98552285D01*
X113030983Y-98533133D01*
X113097865Y-98553348D01*
X113142382Y-98604725D01*
X113169429Y-98662728D01*
X113169432Y-98662734D01*
X113299954Y-98849141D01*
X113460858Y-99010045D01*
X113460861Y-99010047D01*
X113647266Y-99140568D01*
X113853504Y-99236739D01*
X114073308Y-99295635D01*
X114235230Y-99309801D01*
X114299998Y-99315468D01*
X114300000Y-99315468D01*
X114300002Y-99315468D01*
X114356807Y-99310498D01*
X114526692Y-99295635D01*
X114746496Y-99236739D01*
X114952734Y-99140568D01*
X115139139Y-99010047D01*
X115300047Y-98849139D01*
X115430568Y-98662734D01*
X115457618Y-98604724D01*
X115503790Y-98552285D01*
X115570983Y-98533133D01*
X115637865Y-98553348D01*
X115682382Y-98604725D01*
X115709429Y-98662728D01*
X115709432Y-98662734D01*
X115839954Y-98849141D01*
X116000858Y-99010045D01*
X116000861Y-99010047D01*
X116187266Y-99140568D01*
X116393504Y-99236739D01*
X116613308Y-99295635D01*
X116775230Y-99309801D01*
X116839998Y-99315468D01*
X116840000Y-99315468D01*
X116840002Y-99315468D01*
X116896807Y-99310498D01*
X117066692Y-99295635D01*
X117286496Y-99236739D01*
X117492734Y-99140568D01*
X117679139Y-99010047D01*
X117840047Y-98849139D01*
X117970568Y-98662734D01*
X117997618Y-98604724D01*
X118043790Y-98552285D01*
X118110983Y-98533133D01*
X118177865Y-98553348D01*
X118222382Y-98604725D01*
X118249429Y-98662728D01*
X118249432Y-98662734D01*
X118379954Y-98849141D01*
X118540858Y-99010045D01*
X118540861Y-99010047D01*
X118727266Y-99140568D01*
X118933504Y-99236739D01*
X119153308Y-99295635D01*
X119315230Y-99309801D01*
X119379998Y-99315468D01*
X119380000Y-99315468D01*
X119380002Y-99315468D01*
X119436807Y-99310498D01*
X119606692Y-99295635D01*
X119826496Y-99236739D01*
X120032734Y-99140568D01*
X120219139Y-99010047D01*
X120380047Y-98849139D01*
X120510568Y-98662734D01*
X120537618Y-98604724D01*
X120583790Y-98552285D01*
X120650983Y-98533133D01*
X120717865Y-98553348D01*
X120762382Y-98604725D01*
X120789429Y-98662728D01*
X120789432Y-98662734D01*
X120919954Y-98849141D01*
X121080858Y-99010045D01*
X121080861Y-99010047D01*
X121267266Y-99140568D01*
X121473504Y-99236739D01*
X121693308Y-99295635D01*
X121855230Y-99309801D01*
X121919998Y-99315468D01*
X121920000Y-99315468D01*
X121920002Y-99315468D01*
X121976807Y-99310498D01*
X122146692Y-99295635D01*
X122366496Y-99236739D01*
X122572734Y-99140568D01*
X122759139Y-99010047D01*
X122920047Y-98849139D01*
X123050568Y-98662734D01*
X123077618Y-98604724D01*
X123123790Y-98552285D01*
X123190983Y-98533133D01*
X123257865Y-98553348D01*
X123302382Y-98604725D01*
X123329429Y-98662728D01*
X123329432Y-98662734D01*
X123459954Y-98849141D01*
X123620858Y-99010045D01*
X123620861Y-99010047D01*
X123807266Y-99140568D01*
X124013504Y-99236739D01*
X124233308Y-99295635D01*
X124395230Y-99309801D01*
X124459998Y-99315468D01*
X124460000Y-99315468D01*
X124460002Y-99315468D01*
X124516807Y-99310498D01*
X124686692Y-99295635D01*
X124906496Y-99236739D01*
X125112734Y-99140568D01*
X125299139Y-99010047D01*
X125460047Y-98849139D01*
X125477272Y-98824539D01*
X125531848Y-98780913D01*
X125601346Y-98773718D01*
X125663701Y-98805239D01*
X125699116Y-98865468D01*
X125702138Y-98882406D01*
X125705908Y-98917483D01*
X125756202Y-99052328D01*
X125756206Y-99052335D01*
X125842452Y-99167544D01*
X125842455Y-99167547D01*
X125957664Y-99253793D01*
X125957671Y-99253797D01*
X126092517Y-99304091D01*
X126092516Y-99304091D01*
X126099444Y-99304835D01*
X126152127Y-99310500D01*
X127847872Y-99310499D01*
X127907483Y-99304091D01*
X128042331Y-99253796D01*
X128157546Y-99167546D01*
X128243796Y-99052331D01*
X128294091Y-98917483D01*
X128300500Y-98857873D01*
X128300499Y-97162128D01*
X128294091Y-97102517D01*
X128243796Y-96967669D01*
X128243795Y-96967668D01*
X128243793Y-96967664D01*
X128157547Y-96852455D01*
X128157544Y-96852452D01*
X128042335Y-96766206D01*
X128042328Y-96766202D01*
X127981167Y-96743391D01*
X127925233Y-96701520D01*
X127900816Y-96636056D01*
X127900500Y-96627209D01*
X127900500Y-94614361D01*
X127920185Y-94547322D01*
X127936819Y-94526680D01*
X131146681Y-91316819D01*
X131208004Y-91283334D01*
X131234362Y-91280500D01*
X138675500Y-91280500D01*
X138742539Y-91300185D01*
X138788294Y-91352989D01*
X138799500Y-91404500D01*
X138799500Y-94469951D01*
X138779815Y-94536990D01*
X138763181Y-94557632D01*
X138699954Y-94620858D01*
X138569432Y-94807265D01*
X138569431Y-94807267D01*
X138542382Y-94865275D01*
X138496209Y-94917714D01*
X138429016Y-94936866D01*
X138362135Y-94916650D01*
X138317618Y-94865275D01*
X138290568Y-94807267D01*
X138290567Y-94807265D01*
X138160045Y-94620858D01*
X137999141Y-94459954D01*
X137812734Y-94329432D01*
X137812732Y-94329431D01*
X137606497Y-94233261D01*
X137606488Y-94233258D01*
X137386697Y-94174366D01*
X137386693Y-94174365D01*
X137386692Y-94174365D01*
X137386691Y-94174364D01*
X137386686Y-94174364D01*
X137160002Y-94154532D01*
X137159998Y-94154532D01*
X136933313Y-94174364D01*
X136933302Y-94174366D01*
X136713511Y-94233258D01*
X136713502Y-94233261D01*
X136507267Y-94329431D01*
X136507265Y-94329432D01*
X136320858Y-94459954D01*
X136159954Y-94620858D01*
X136029432Y-94807265D01*
X136029431Y-94807267D01*
X135933261Y-95013502D01*
X135933258Y-95013511D01*
X135874366Y-95233302D01*
X135874364Y-95233313D01*
X135854532Y-95459998D01*
X135854532Y-95460001D01*
X135874364Y-95686686D01*
X135874366Y-95686697D01*
X135933258Y-95906488D01*
X135933261Y-95906497D01*
X136029431Y-96112732D01*
X136029432Y-96112734D01*
X136159954Y-96299141D01*
X136320858Y-96460045D01*
X136320861Y-96460047D01*
X136507266Y-96590568D01*
X136713504Y-96686739D01*
X136933308Y-96745635D01*
X137095230Y-96759801D01*
X137159998Y-96765468D01*
X137160000Y-96765468D01*
X137160002Y-96765468D01*
X137216673Y-96760509D01*
X137386692Y-96745635D01*
X137606496Y-96686739D01*
X137812734Y-96590568D01*
X137999139Y-96460047D01*
X138160047Y-96299139D01*
X138290568Y-96112734D01*
X138317618Y-96054724D01*
X138363790Y-96002285D01*
X138430983Y-95983133D01*
X138497865Y-96003348D01*
X138542382Y-96054725D01*
X138569429Y-96112728D01*
X138569432Y-96112734D01*
X138699954Y-96299141D01*
X138860858Y-96460045D01*
X138860861Y-96460047D01*
X139047266Y-96590568D01*
X139253504Y-96686739D01*
X139473308Y-96745635D01*
X139635230Y-96759801D01*
X139699998Y-96765468D01*
X139700000Y-96765468D01*
X139700002Y-96765468D01*
X139756673Y-96760509D01*
X139926692Y-96745635D01*
X140146496Y-96686739D01*
X140352734Y-96590568D01*
X140539139Y-96460047D01*
X140700047Y-96299139D01*
X140830568Y-96112734D01*
X140857618Y-96054724D01*
X140903790Y-96002285D01*
X140970983Y-95983133D01*
X141037865Y-96003348D01*
X141082382Y-96054725D01*
X141109429Y-96112728D01*
X141109432Y-96112734D01*
X141239954Y-96299141D01*
X141400858Y-96460045D01*
X141400861Y-96460047D01*
X141587266Y-96590568D01*
X141793504Y-96686739D01*
X142013308Y-96745635D01*
X142175230Y-96759801D01*
X142239998Y-96765468D01*
X142240000Y-96765468D01*
X142240002Y-96765468D01*
X142296673Y-96760509D01*
X142466692Y-96745635D01*
X142686496Y-96686739D01*
X142892734Y-96590568D01*
X143079139Y-96460047D01*
X143240047Y-96299139D01*
X143370568Y-96112734D01*
X143397618Y-96054724D01*
X143443790Y-96002285D01*
X143510983Y-95983133D01*
X143577865Y-96003348D01*
X143622382Y-96054725D01*
X143649429Y-96112728D01*
X143649432Y-96112734D01*
X143779954Y-96299141D01*
X143940858Y-96460045D01*
X143940861Y-96460047D01*
X144127266Y-96590568D01*
X144333504Y-96686739D01*
X144553308Y-96745635D01*
X144715230Y-96759801D01*
X144779998Y-96765468D01*
X144780000Y-96765468D01*
X144780002Y-96765468D01*
X144836673Y-96760509D01*
X145006692Y-96745635D01*
X145226496Y-96686739D01*
X145432734Y-96590568D01*
X145619139Y-96460047D01*
X145780047Y-96299139D01*
X145910568Y-96112734D01*
X145937618Y-96054724D01*
X145983790Y-96002285D01*
X146050983Y-95983133D01*
X146117865Y-96003348D01*
X146162382Y-96054725D01*
X146189429Y-96112728D01*
X146189432Y-96112734D01*
X146319954Y-96299141D01*
X146480858Y-96460045D01*
X146480861Y-96460047D01*
X146667266Y-96590568D01*
X146873504Y-96686739D01*
X147093308Y-96745635D01*
X147255230Y-96759801D01*
X147319998Y-96765468D01*
X147320000Y-96765468D01*
X147320002Y-96765468D01*
X147376673Y-96760509D01*
X147546692Y-96745635D01*
X147766496Y-96686739D01*
X147972734Y-96590568D01*
X148159139Y-96460047D01*
X148320047Y-96299139D01*
X148450568Y-96112734D01*
X148477618Y-96054724D01*
X148523790Y-96002285D01*
X148590983Y-95983133D01*
X148657865Y-96003348D01*
X148702382Y-96054725D01*
X148729429Y-96112728D01*
X148729432Y-96112734D01*
X148859954Y-96299141D01*
X149020858Y-96460045D01*
X149020861Y-96460047D01*
X149207266Y-96590568D01*
X149413504Y-96686739D01*
X149633308Y-96745635D01*
X149795230Y-96759801D01*
X149859998Y-96765468D01*
X149860000Y-96765468D01*
X149860002Y-96765468D01*
X149916673Y-96760509D01*
X150086692Y-96745635D01*
X150306496Y-96686739D01*
X150512734Y-96590568D01*
X150699139Y-96460047D01*
X150860047Y-96299139D01*
X150990568Y-96112734D01*
X151017618Y-96054724D01*
X151063790Y-96002285D01*
X151130983Y-95983133D01*
X151197865Y-96003348D01*
X151242382Y-96054725D01*
X151269429Y-96112728D01*
X151269432Y-96112734D01*
X151399954Y-96299141D01*
X151560858Y-96460045D01*
X151560861Y-96460047D01*
X151747266Y-96590568D01*
X151953504Y-96686739D01*
X152173308Y-96745635D01*
X152335230Y-96759801D01*
X152399998Y-96765468D01*
X152400000Y-96765468D01*
X152400002Y-96765468D01*
X152456673Y-96760509D01*
X152626692Y-96745635D01*
X152846496Y-96686739D01*
X153052734Y-96590568D01*
X153239139Y-96460047D01*
X153400047Y-96299139D01*
X153530568Y-96112734D01*
X153557618Y-96054724D01*
X153603790Y-96002285D01*
X153670983Y-95983133D01*
X153737865Y-96003348D01*
X153782382Y-96054725D01*
X153809429Y-96112728D01*
X153809432Y-96112734D01*
X153939954Y-96299141D01*
X154100858Y-96460045D01*
X154100861Y-96460047D01*
X154287266Y-96590568D01*
X154493504Y-96686739D01*
X154713308Y-96745635D01*
X154875230Y-96759801D01*
X154939998Y-96765468D01*
X154940000Y-96765468D01*
X154940002Y-96765468D01*
X154996673Y-96760509D01*
X155166692Y-96745635D01*
X155386496Y-96686739D01*
X155592734Y-96590568D01*
X155779139Y-96460047D01*
X155940047Y-96299139D01*
X156070568Y-96112734D01*
X156097618Y-96054724D01*
X156143790Y-96002285D01*
X156210983Y-95983133D01*
X156277865Y-96003348D01*
X156322382Y-96054725D01*
X156349429Y-96112728D01*
X156349432Y-96112734D01*
X156479954Y-96299141D01*
X156640858Y-96460045D01*
X156640861Y-96460047D01*
X156827266Y-96590568D01*
X157033504Y-96686739D01*
X157253308Y-96745635D01*
X157415230Y-96759801D01*
X157479998Y-96765468D01*
X157480000Y-96765468D01*
X157480002Y-96765468D01*
X157536673Y-96760509D01*
X157706692Y-96745635D01*
X157926496Y-96686739D01*
X158132734Y-96590568D01*
X158319139Y-96460047D01*
X158480047Y-96299139D01*
X158610568Y-96112734D01*
X158637618Y-96054724D01*
X158683790Y-96002285D01*
X158750983Y-95983133D01*
X158817865Y-96003348D01*
X158862382Y-96054725D01*
X158889429Y-96112728D01*
X158889432Y-96112734D01*
X159019954Y-96299141D01*
X159180858Y-96460045D01*
X159180861Y-96460047D01*
X159367266Y-96590568D01*
X159573504Y-96686739D01*
X159793308Y-96745635D01*
X159955230Y-96759801D01*
X160019998Y-96765468D01*
X160020000Y-96765468D01*
X160020002Y-96765468D01*
X160076673Y-96760509D01*
X160246692Y-96745635D01*
X160466496Y-96686739D01*
X160672734Y-96590568D01*
X160859139Y-96460047D01*
X161020047Y-96299139D01*
X161150568Y-96112734D01*
X161177618Y-96054724D01*
X161223790Y-96002285D01*
X161290983Y-95983133D01*
X161357865Y-96003348D01*
X161402382Y-96054725D01*
X161429429Y-96112728D01*
X161429432Y-96112734D01*
X161559954Y-96299141D01*
X161720858Y-96460045D01*
X161720861Y-96460047D01*
X161907266Y-96590568D01*
X162113504Y-96686739D01*
X162333308Y-96745635D01*
X162495230Y-96759801D01*
X162559998Y-96765468D01*
X162560000Y-96765468D01*
X162560002Y-96765468D01*
X162616673Y-96760509D01*
X162786692Y-96745635D01*
X163006496Y-96686739D01*
X163212734Y-96590568D01*
X163399139Y-96460047D01*
X163560047Y-96299139D01*
X163690568Y-96112734D01*
X163717618Y-96054724D01*
X163763790Y-96002285D01*
X163830983Y-95983133D01*
X163897865Y-96003348D01*
X163942382Y-96054725D01*
X163969429Y-96112728D01*
X163969432Y-96112734D01*
X164099954Y-96299141D01*
X164260858Y-96460045D01*
X164260861Y-96460047D01*
X164447266Y-96590568D01*
X164653504Y-96686739D01*
X164873308Y-96745635D01*
X165035230Y-96759801D01*
X165099998Y-96765468D01*
X165100000Y-96765468D01*
X165100002Y-96765468D01*
X165156673Y-96760509D01*
X165326692Y-96745635D01*
X165546496Y-96686739D01*
X165752734Y-96590568D01*
X165939139Y-96460047D01*
X166100047Y-96299139D01*
X166230568Y-96112734D01*
X166257618Y-96054724D01*
X166303790Y-96002285D01*
X166370983Y-95983133D01*
X166437865Y-96003348D01*
X166482382Y-96054725D01*
X166509429Y-96112728D01*
X166509432Y-96112734D01*
X166639954Y-96299141D01*
X166800858Y-96460045D01*
X166800861Y-96460047D01*
X166987266Y-96590568D01*
X167193504Y-96686739D01*
X167413308Y-96745635D01*
X167575230Y-96759801D01*
X167639998Y-96765468D01*
X167640000Y-96765468D01*
X167640002Y-96765468D01*
X167696673Y-96760509D01*
X167866692Y-96745635D01*
X168086496Y-96686739D01*
X168292734Y-96590568D01*
X168479139Y-96460047D01*
X168640047Y-96299139D01*
X168770568Y-96112734D01*
X168797618Y-96054724D01*
X168843790Y-96002285D01*
X168910983Y-95983133D01*
X168977865Y-96003348D01*
X169022382Y-96054725D01*
X169049429Y-96112728D01*
X169049432Y-96112734D01*
X169179954Y-96299141D01*
X169340858Y-96460045D01*
X169340861Y-96460047D01*
X169527266Y-96590568D01*
X169733504Y-96686739D01*
X169953308Y-96745635D01*
X170115230Y-96759801D01*
X170179998Y-96765468D01*
X170180000Y-96765468D01*
X170180002Y-96765468D01*
X170236673Y-96760509D01*
X170406692Y-96745635D01*
X170626496Y-96686739D01*
X170832734Y-96590568D01*
X171019139Y-96460047D01*
X171180047Y-96299139D01*
X171310568Y-96112734D01*
X171337618Y-96054724D01*
X171383790Y-96002285D01*
X171450983Y-95983133D01*
X171517865Y-96003348D01*
X171562382Y-96054725D01*
X171589429Y-96112728D01*
X171589432Y-96112734D01*
X171719954Y-96299141D01*
X171880858Y-96460045D01*
X171880861Y-96460047D01*
X172067266Y-96590568D01*
X172273504Y-96686739D01*
X172493308Y-96745635D01*
X172655230Y-96759801D01*
X172719998Y-96765468D01*
X172720000Y-96765468D01*
X172720002Y-96765468D01*
X172776673Y-96760509D01*
X172946692Y-96745635D01*
X173166496Y-96686739D01*
X173372734Y-96590568D01*
X173559139Y-96460047D01*
X173720047Y-96299139D01*
X173850568Y-96112734D01*
X173946739Y-95906496D01*
X174005635Y-95686692D01*
X174025468Y-95460000D01*
X174005635Y-95233308D01*
X173946739Y-95013504D01*
X173850568Y-94807266D01*
X173720047Y-94620861D01*
X173720045Y-94620858D01*
X173559141Y-94459954D01*
X173372734Y-94329432D01*
X173372732Y-94329431D01*
X173166497Y-94233261D01*
X173166488Y-94233258D01*
X172946697Y-94174366D01*
X172946693Y-94174365D01*
X172946692Y-94174365D01*
X172946691Y-94174364D01*
X172946686Y-94174364D01*
X172720002Y-94154532D01*
X172719998Y-94154532D01*
X172493313Y-94174364D01*
X172493302Y-94174366D01*
X172273511Y-94233258D01*
X172273502Y-94233261D01*
X172067267Y-94329431D01*
X172067265Y-94329432D01*
X171880858Y-94459954D01*
X171719954Y-94620858D01*
X171589432Y-94807265D01*
X171589431Y-94807267D01*
X171562382Y-94865275D01*
X171516209Y-94917714D01*
X171449016Y-94936866D01*
X171382135Y-94916650D01*
X171337618Y-94865275D01*
X171310568Y-94807267D01*
X171310567Y-94807265D01*
X171180045Y-94620858D01*
X171019141Y-94459954D01*
X170832734Y-94329432D01*
X170832732Y-94329431D01*
X170626497Y-94233261D01*
X170626488Y-94233258D01*
X170406697Y-94174366D01*
X170406693Y-94174365D01*
X170406692Y-94174365D01*
X170406691Y-94174364D01*
X170406686Y-94174364D01*
X170180002Y-94154532D01*
X170179998Y-94154532D01*
X169953313Y-94174364D01*
X169953302Y-94174366D01*
X169733511Y-94233258D01*
X169733502Y-94233261D01*
X169527267Y-94329431D01*
X169527265Y-94329432D01*
X169340858Y-94459954D01*
X169179954Y-94620858D01*
X169049432Y-94807265D01*
X169049431Y-94807267D01*
X169022382Y-94865275D01*
X168976209Y-94917714D01*
X168909016Y-94936866D01*
X168842135Y-94916650D01*
X168797618Y-94865275D01*
X168770568Y-94807267D01*
X168770567Y-94807265D01*
X168640045Y-94620858D01*
X168479141Y-94459954D01*
X168292734Y-94329432D01*
X168292732Y-94329431D01*
X168086497Y-94233261D01*
X168086488Y-94233258D01*
X167866697Y-94174366D01*
X167866693Y-94174365D01*
X167866692Y-94174365D01*
X167866691Y-94174364D01*
X167866686Y-94174364D01*
X167640002Y-94154532D01*
X167639998Y-94154532D01*
X167413313Y-94174364D01*
X167413302Y-94174366D01*
X167193511Y-94233258D01*
X167193502Y-94233261D01*
X166987267Y-94329431D01*
X166987265Y-94329432D01*
X166800858Y-94459954D01*
X166639954Y-94620858D01*
X166509432Y-94807265D01*
X166509431Y-94807267D01*
X166482382Y-94865275D01*
X166436209Y-94917714D01*
X166369016Y-94936866D01*
X166302135Y-94916650D01*
X166257618Y-94865275D01*
X166230568Y-94807267D01*
X166230567Y-94807265D01*
X166100045Y-94620858D01*
X165939141Y-94459954D01*
X165752734Y-94329432D01*
X165752732Y-94329431D01*
X165546497Y-94233261D01*
X165546488Y-94233258D01*
X165326697Y-94174366D01*
X165326693Y-94174365D01*
X165326692Y-94174365D01*
X165326691Y-94174364D01*
X165326686Y-94174364D01*
X165100002Y-94154532D01*
X165099998Y-94154532D01*
X164873313Y-94174364D01*
X164873302Y-94174366D01*
X164653511Y-94233258D01*
X164653502Y-94233261D01*
X164447267Y-94329431D01*
X164447265Y-94329432D01*
X164260858Y-94459954D01*
X164099954Y-94620858D01*
X163969432Y-94807265D01*
X163969431Y-94807267D01*
X163942382Y-94865275D01*
X163896209Y-94917714D01*
X163829016Y-94936866D01*
X163762135Y-94916650D01*
X163717618Y-94865275D01*
X163690568Y-94807267D01*
X163690567Y-94807265D01*
X163560045Y-94620858D01*
X163399141Y-94459954D01*
X163212734Y-94329432D01*
X163212732Y-94329431D01*
X163006497Y-94233261D01*
X163006488Y-94233258D01*
X162786697Y-94174366D01*
X162786693Y-94174365D01*
X162786692Y-94174365D01*
X162786691Y-94174364D01*
X162786686Y-94174364D01*
X162560002Y-94154532D01*
X162559998Y-94154532D01*
X162333313Y-94174364D01*
X162333302Y-94174366D01*
X162113511Y-94233258D01*
X162113502Y-94233261D01*
X161907267Y-94329431D01*
X161907265Y-94329432D01*
X161720858Y-94459954D01*
X161559954Y-94620858D01*
X161429432Y-94807265D01*
X161429431Y-94807267D01*
X161402382Y-94865275D01*
X161356209Y-94917714D01*
X161289016Y-94936866D01*
X161222135Y-94916650D01*
X161177618Y-94865275D01*
X161150568Y-94807267D01*
X161150567Y-94807265D01*
X161020045Y-94620858D01*
X160859141Y-94459954D01*
X160672734Y-94329432D01*
X160672732Y-94329431D01*
X160466497Y-94233261D01*
X160466488Y-94233258D01*
X160246697Y-94174366D01*
X160246693Y-94174365D01*
X160246692Y-94174365D01*
X160246691Y-94174364D01*
X160246686Y-94174364D01*
X160020002Y-94154532D01*
X160019998Y-94154532D01*
X159793313Y-94174364D01*
X159793302Y-94174366D01*
X159573511Y-94233258D01*
X159573502Y-94233261D01*
X159367267Y-94329431D01*
X159367265Y-94329432D01*
X159180858Y-94459954D01*
X159019954Y-94620858D01*
X158889432Y-94807265D01*
X158889431Y-94807267D01*
X158862382Y-94865275D01*
X158816209Y-94917714D01*
X158749016Y-94936866D01*
X158682135Y-94916650D01*
X158637618Y-94865275D01*
X158610568Y-94807267D01*
X158610567Y-94807265D01*
X158480045Y-94620858D01*
X158319141Y-94459954D01*
X158132734Y-94329432D01*
X158132732Y-94329431D01*
X157926497Y-94233261D01*
X157926488Y-94233258D01*
X157706697Y-94174366D01*
X157706693Y-94174365D01*
X157706692Y-94174365D01*
X157706691Y-94174364D01*
X157706686Y-94174364D01*
X157480002Y-94154532D01*
X157479998Y-94154532D01*
X157253313Y-94174364D01*
X157253302Y-94174366D01*
X157033511Y-94233258D01*
X157033502Y-94233261D01*
X156827267Y-94329431D01*
X156827265Y-94329432D01*
X156640858Y-94459954D01*
X156479954Y-94620858D01*
X156349432Y-94807265D01*
X156349431Y-94807267D01*
X156322382Y-94865275D01*
X156276209Y-94917714D01*
X156209016Y-94936866D01*
X156142135Y-94916650D01*
X156097618Y-94865275D01*
X156070568Y-94807267D01*
X156070567Y-94807265D01*
X155940045Y-94620858D01*
X155779141Y-94459954D01*
X155592734Y-94329432D01*
X155592732Y-94329431D01*
X155386497Y-94233261D01*
X155386488Y-94233258D01*
X155166697Y-94174366D01*
X155166693Y-94174365D01*
X155166692Y-94174365D01*
X155166691Y-94174364D01*
X155166686Y-94174364D01*
X154940002Y-94154532D01*
X154939998Y-94154532D01*
X154713313Y-94174364D01*
X154713302Y-94174366D01*
X154493511Y-94233258D01*
X154493502Y-94233261D01*
X154287267Y-94329431D01*
X154287265Y-94329432D01*
X154100858Y-94459954D01*
X153939954Y-94620858D01*
X153809432Y-94807265D01*
X153809431Y-94807267D01*
X153782382Y-94865275D01*
X153736209Y-94917714D01*
X153669016Y-94936866D01*
X153602135Y-94916650D01*
X153557618Y-94865275D01*
X153530568Y-94807267D01*
X153530567Y-94807265D01*
X153400045Y-94620858D01*
X153239141Y-94459954D01*
X153052734Y-94329432D01*
X153052732Y-94329431D01*
X152846497Y-94233261D01*
X152846488Y-94233258D01*
X152626697Y-94174366D01*
X152626693Y-94174365D01*
X152626692Y-94174365D01*
X152626691Y-94174364D01*
X152626686Y-94174364D01*
X152400002Y-94154532D01*
X152399998Y-94154532D01*
X152173313Y-94174364D01*
X152173302Y-94174366D01*
X151953511Y-94233258D01*
X151953502Y-94233261D01*
X151747267Y-94329431D01*
X151747265Y-94329432D01*
X151560858Y-94459954D01*
X151399954Y-94620858D01*
X151269432Y-94807265D01*
X151269431Y-94807267D01*
X151242382Y-94865275D01*
X151196209Y-94917714D01*
X151129016Y-94936866D01*
X151062135Y-94916650D01*
X151017618Y-94865275D01*
X150990568Y-94807267D01*
X150990567Y-94807265D01*
X150860045Y-94620858D01*
X150699141Y-94459954D01*
X150512734Y-94329432D01*
X150512732Y-94329431D01*
X150306497Y-94233261D01*
X150306488Y-94233258D01*
X150086697Y-94174366D01*
X150086693Y-94174365D01*
X150086692Y-94174365D01*
X150086691Y-94174364D01*
X150086686Y-94174364D01*
X149860002Y-94154532D01*
X149859998Y-94154532D01*
X149633313Y-94174364D01*
X149633302Y-94174366D01*
X149413511Y-94233258D01*
X149413502Y-94233261D01*
X149207267Y-94329431D01*
X149207265Y-94329432D01*
X149020858Y-94459954D01*
X148859954Y-94620858D01*
X148729432Y-94807265D01*
X148729431Y-94807267D01*
X148702382Y-94865275D01*
X148656209Y-94917714D01*
X148589016Y-94936866D01*
X148522135Y-94916650D01*
X148477618Y-94865275D01*
X148450568Y-94807267D01*
X148450567Y-94807265D01*
X148320045Y-94620858D01*
X148159141Y-94459954D01*
X147972734Y-94329432D01*
X147972732Y-94329431D01*
X147766497Y-94233261D01*
X147766488Y-94233258D01*
X147546697Y-94174366D01*
X147546693Y-94174365D01*
X147546692Y-94174365D01*
X147546691Y-94174364D01*
X147546686Y-94174364D01*
X147320002Y-94154532D01*
X147319998Y-94154532D01*
X147093313Y-94174364D01*
X147093302Y-94174366D01*
X146873511Y-94233258D01*
X146873502Y-94233261D01*
X146667267Y-94329431D01*
X146667265Y-94329432D01*
X146480858Y-94459954D01*
X146319954Y-94620858D01*
X146189432Y-94807265D01*
X146189431Y-94807267D01*
X146162382Y-94865275D01*
X146116209Y-94917714D01*
X146049016Y-94936866D01*
X145982135Y-94916650D01*
X145937618Y-94865275D01*
X145910568Y-94807267D01*
X145910567Y-94807265D01*
X145780045Y-94620858D01*
X145716819Y-94557632D01*
X145683334Y-94496309D01*
X145680500Y-94469951D01*
X145680500Y-87745354D01*
X145671986Y-87705299D01*
X145669955Y-87692480D01*
X145669149Y-87684812D01*
X145665674Y-87651744D01*
X145653017Y-87612792D01*
X145649660Y-87600267D01*
X145641144Y-87560197D01*
X145624483Y-87522778D01*
X145619836Y-87510672D01*
X145607179Y-87471716D01*
X145586698Y-87436242D01*
X145580806Y-87424678D01*
X145564149Y-87387266D01*
X145540083Y-87354142D01*
X145533015Y-87343258D01*
X145512535Y-87307788D01*
X145512533Y-87307784D01*
X145512531Y-87307781D01*
X145512528Y-87307777D01*
X145485128Y-87277348D01*
X145476957Y-87267258D01*
X145474458Y-87263819D01*
X145452888Y-87234129D01*
X145434429Y-87217508D01*
X145422447Y-87206719D01*
X145413270Y-87197542D01*
X145401343Y-87184296D01*
X145385871Y-87167112D01*
X145366222Y-87152836D01*
X145352746Y-87143045D01*
X145342659Y-87134877D01*
X145312222Y-87107471D01*
X145312211Y-87107464D01*
X145276742Y-87086985D01*
X145265858Y-87079917D01*
X145232736Y-87055853D01*
X145232732Y-87055850D01*
X145212230Y-87046722D01*
X145195316Y-87039191D01*
X145183756Y-87033301D01*
X145148284Y-87012821D01*
X145148281Y-87012820D01*
X145148277Y-87012818D01*
X145109331Y-87000164D01*
X145097212Y-86995512D01*
X145095343Y-86994680D01*
X145059803Y-86978856D01*
X145047712Y-86976286D01*
X145019744Y-86970341D01*
X145007209Y-86966982D01*
X144968257Y-86954326D01*
X144968255Y-86954325D01*
X144927519Y-86950043D01*
X144914705Y-86948014D01*
X144874646Y-86939500D01*
X144827192Y-86939500D01*
X129620627Y-86939500D01*
X129601228Y-86937973D01*
X129587388Y-86935781D01*
X129519664Y-86939330D01*
X129513175Y-86939500D01*
X129492808Y-86939500D01*
X129481715Y-86940665D01*
X129472552Y-86941628D01*
X129466091Y-86942136D01*
X129398358Y-86945686D01*
X129398353Y-86945687D01*
X129384803Y-86949317D01*
X129365691Y-86952859D01*
X129351749Y-86954325D01*
X129351736Y-86954327D01*
X129287242Y-86975283D01*
X129281033Y-86977122D01*
X129236976Y-86988928D01*
X129215515Y-86994679D01*
X129215514Y-86994679D01*
X129215512Y-86994680D01*
X129208688Y-86998157D01*
X129203020Y-87001045D01*
X129185053Y-87008487D01*
X129171714Y-87012821D01*
X129112996Y-87046722D01*
X129107295Y-87049817D01*
X129046850Y-87080617D01*
X129035951Y-87089442D01*
X129019931Y-87100452D01*
X129007787Y-87107464D01*
X129007783Y-87107467D01*
X128957395Y-87152836D01*
X128952466Y-87157046D01*
X128936621Y-87169878D01*
X128922203Y-87184296D01*
X128917497Y-87188761D01*
X128867113Y-87234127D01*
X128867105Y-87234136D01*
X128858872Y-87245468D01*
X128846238Y-87260260D01*
X123880263Y-92226236D01*
X123865474Y-92238869D01*
X123854126Y-92247114D01*
X123808751Y-92297508D01*
X123804288Y-92302211D01*
X123789891Y-92316609D01*
X123789875Y-92316627D01*
X123777058Y-92332452D01*
X123772852Y-92337376D01*
X123727469Y-92387781D01*
X123727466Y-92387785D01*
X123720458Y-92399923D01*
X123709444Y-92415948D01*
X123700626Y-92426837D01*
X123700616Y-92426853D01*
X123669819Y-92487294D01*
X123666722Y-92492997D01*
X123632821Y-92551713D01*
X123628487Y-92565053D01*
X123621045Y-92583020D01*
X123614680Y-92595512D01*
X123597126Y-92661018D01*
X123595284Y-92667234D01*
X123574326Y-92731742D01*
X123574325Y-92731745D01*
X123572860Y-92745686D01*
X123569315Y-92764812D01*
X123565686Y-92778352D01*
X123562136Y-92846091D01*
X123561628Y-92852552D01*
X123559500Y-92872811D01*
X123559500Y-92893174D01*
X123559330Y-92899663D01*
X123555781Y-92967387D01*
X123557973Y-92981225D01*
X123559500Y-93000626D01*
X123559500Y-97019951D01*
X123539815Y-97086990D01*
X123523181Y-97107632D01*
X123459954Y-97170858D01*
X123329432Y-97357265D01*
X123329431Y-97357267D01*
X123302382Y-97415275D01*
X123256209Y-97467714D01*
X123189016Y-97486866D01*
X123122135Y-97466650D01*
X123077618Y-97415275D01*
X123050568Y-97357267D01*
X123050567Y-97357265D01*
X122920045Y-97170858D01*
X122856819Y-97107632D01*
X122823334Y-97046309D01*
X122820500Y-97019951D01*
X122820500Y-91856439D01*
X122840185Y-91789400D01*
X122892989Y-91743645D01*
X122901168Y-91740257D01*
X123012326Y-91698798D01*
X123012326Y-91698797D01*
X123012331Y-91698796D01*
X123127546Y-91612546D01*
X123213796Y-91497331D01*
X123264091Y-91362483D01*
X123270500Y-91302873D01*
X123270499Y-89507128D01*
X123264091Y-89447517D01*
X123262810Y-89444083D01*
X123213797Y-89312671D01*
X123213793Y-89312664D01*
X123127547Y-89197455D01*
X123127544Y-89197452D01*
X123012335Y-89111206D01*
X123012328Y-89111202D01*
X122877482Y-89060908D01*
X122877483Y-89060908D01*
X122817883Y-89054501D01*
X122817881Y-89054500D01*
X122817873Y-89054500D01*
X122817864Y-89054500D01*
X121022129Y-89054500D01*
X121022123Y-89054501D01*
X120962516Y-89060908D01*
X120827671Y-89111202D01*
X120827664Y-89111206D01*
X120712455Y-89197452D01*
X120712452Y-89197455D01*
X120626206Y-89312664D01*
X120626203Y-89312669D01*
X120577189Y-89444083D01*
X120535317Y-89500016D01*
X120469853Y-89524433D01*
X120401580Y-89509581D01*
X120373326Y-89488430D01*
X120251402Y-89366506D01*
X120251395Y-89366501D01*
X120057834Y-89230967D01*
X120057830Y-89230965D01*
X120057828Y-89230964D01*
X119843663Y-89131097D01*
X119843659Y-89131096D01*
X119843655Y-89131094D01*
X119615413Y-89069938D01*
X119615403Y-89069936D01*
X119380001Y-89049341D01*
X119379999Y-89049341D01*
X119144596Y-89069936D01*
X119144586Y-89069938D01*
X118916344Y-89131094D01*
X118916335Y-89131098D01*
X118702171Y-89230964D01*
X118702169Y-89230965D01*
X118508597Y-89366505D01*
X118341505Y-89533597D01*
X118211575Y-89719158D01*
X118156998Y-89762783D01*
X118087500Y-89769977D01*
X118025145Y-89738454D01*
X118008425Y-89719158D01*
X117878494Y-89533597D01*
X117711402Y-89366506D01*
X117711395Y-89366501D01*
X117517834Y-89230967D01*
X117517830Y-89230965D01*
X117517828Y-89230964D01*
X117303663Y-89131097D01*
X117303659Y-89131096D01*
X117303655Y-89131094D01*
X117075413Y-89069938D01*
X117075403Y-89069936D01*
X116840001Y-89049341D01*
X116839999Y-89049341D01*
X116604596Y-89069936D01*
X116604586Y-89069938D01*
X116376344Y-89131094D01*
X116376335Y-89131098D01*
X116162171Y-89230964D01*
X116162169Y-89230965D01*
X115968597Y-89366505D01*
X115801505Y-89533597D01*
X115671575Y-89719158D01*
X115616998Y-89762783D01*
X115547500Y-89769977D01*
X115485145Y-89738454D01*
X115468425Y-89719158D01*
X115338494Y-89533597D01*
X115171402Y-89366506D01*
X115171395Y-89366501D01*
X114977834Y-89230967D01*
X114977830Y-89230965D01*
X114977828Y-89230964D01*
X114763663Y-89131097D01*
X114763659Y-89131096D01*
X114763655Y-89131094D01*
X114535413Y-89069938D01*
X114535403Y-89069936D01*
X114300001Y-89049341D01*
X114299999Y-89049341D01*
X114064596Y-89069936D01*
X114064586Y-89069938D01*
X113836344Y-89131094D01*
X113836335Y-89131098D01*
X113622171Y-89230964D01*
X113622169Y-89230965D01*
X113428597Y-89366505D01*
X113261505Y-89533597D01*
X113125965Y-89727169D01*
X113125964Y-89727171D01*
X113026098Y-89941335D01*
X113026094Y-89941344D01*
X112964938Y-90169586D01*
X112964936Y-90169596D01*
X112944341Y-90404999D01*
X112944341Y-90405000D01*
X112964936Y-90640403D01*
X112964938Y-90640413D01*
X113026094Y-90868655D01*
X113026096Y-90868659D01*
X113026097Y-90868663D01*
X113030000Y-90877032D01*
X113125965Y-91082830D01*
X113125967Y-91082834D01*
X113234281Y-91237521D01*
X113261501Y-91276396D01*
X113261506Y-91276402D01*
X113363181Y-91378077D01*
X113396666Y-91439400D01*
X113399500Y-91465758D01*
X113399500Y-97019951D01*
X113379815Y-97086990D01*
X113363181Y-97107632D01*
X113299954Y-97170858D01*
X113169432Y-97357265D01*
X113169431Y-97357267D01*
X113142382Y-97415275D01*
X113096209Y-97467714D01*
X113029016Y-97486866D01*
X112962135Y-97466650D01*
X112917618Y-97415275D01*
X112890568Y-97357267D01*
X112890567Y-97357265D01*
X112760045Y-97170858D01*
X112696819Y-97107632D01*
X112663334Y-97046309D01*
X112660500Y-97019951D01*
X112660500Y-88264361D01*
X112680185Y-88197322D01*
X112696819Y-88176680D01*
X114636680Y-86236819D01*
X114698003Y-86203334D01*
X114724361Y-86200500D01*
X149820780Y-86200500D01*
X149887819Y-86220185D01*
X149920043Y-86250185D01*
X149972454Y-86320197D01*
X149972455Y-86320197D01*
X149972456Y-86320199D01*
X150087664Y-86406444D01*
X150087671Y-86406448D01*
X150222517Y-86456742D01*
X150222516Y-86456742D01*
X150229444Y-86457486D01*
X150282127Y-86463151D01*
X151977872Y-86463150D01*
X152037483Y-86456742D01*
X152172331Y-86406447D01*
X152287546Y-86320197D01*
X152339955Y-86250187D01*
X152395887Y-86208318D01*
X152439220Y-86200500D01*
X163075501Y-86200500D01*
X163142540Y-86220185D01*
X163188295Y-86272989D01*
X163199501Y-86324500D01*
X163199501Y-87097876D01*
X163205908Y-87157483D01*
X163256202Y-87292328D01*
X163256206Y-87292335D01*
X163342452Y-87407544D01*
X163342455Y-87407547D01*
X163457664Y-87493793D01*
X163457671Y-87493797D01*
X163592517Y-87544091D01*
X163592516Y-87544091D01*
X163599444Y-87544835D01*
X163652127Y-87550500D01*
X167247872Y-87550499D01*
X167307483Y-87544091D01*
X167442331Y-87493796D01*
X167557546Y-87407546D01*
X167643796Y-87292331D01*
X167694091Y-87157483D01*
X167700500Y-87097873D01*
X167700499Y-83502128D01*
X167694091Y-83442517D01*
X167654431Y-83336184D01*
X167643797Y-83307671D01*
X167643793Y-83307664D01*
X167557547Y-83192455D01*
X167557544Y-83192452D01*
X167442335Y-83106206D01*
X167442328Y-83106202D01*
X167395061Y-83088573D01*
X167339127Y-83046702D01*
X167314710Y-82981238D01*
X167329562Y-82912965D01*
X167378967Y-82863559D01*
X167444972Y-82848566D01*
X167458053Y-82849261D01*
X167481349Y-82850499D01*
X167481369Y-82850499D01*
X167481378Y-82850500D01*
X167481386Y-82850500D01*
X169418614Y-82850500D01*
X169418622Y-82850500D01*
X169471241Y-82847705D01*
X169701126Y-82803245D01*
X169920190Y-82720574D01*
X170122132Y-82602070D01*
X170301142Y-82451142D01*
X170330698Y-82416087D01*
X170388960Y-82377521D01*
X170458823Y-82376576D01*
X170518107Y-82413553D01*
X170547988Y-82476710D01*
X170549500Y-82496015D01*
X170549500Y-82951704D01*
X170529815Y-83018743D01*
X170477011Y-83064498D01*
X170455799Y-83071945D01*
X170285318Y-83114903D01*
X170080377Y-83207991D01*
X170080367Y-83207997D01*
X169895354Y-83336174D01*
X169895342Y-83336184D01*
X169736184Y-83495342D01*
X169736174Y-83495354D01*
X169607997Y-83680367D01*
X169607991Y-83680377D01*
X169514903Y-83885318D01*
X169514902Y-83885321D01*
X169459905Y-84103579D01*
X169459904Y-84103586D01*
X169449500Y-84235777D01*
X169449500Y-86364208D01*
X169449501Y-86364223D01*
X169459904Y-86496413D01*
X169459905Y-86496420D01*
X169514902Y-86714678D01*
X169514903Y-86714681D01*
X169607991Y-86919622D01*
X169607997Y-86919632D01*
X169736174Y-87104645D01*
X169736178Y-87104650D01*
X169736181Y-87104654D01*
X169895346Y-87263819D01*
X169895350Y-87263822D01*
X169895354Y-87263825D01*
X169958807Y-87307785D01*
X170080374Y-87392007D01*
X170285317Y-87485096D01*
X170285321Y-87485097D01*
X170503579Y-87540094D01*
X170503581Y-87540094D01*
X170503588Y-87540096D01*
X170635783Y-87550500D01*
X172264216Y-87550499D01*
X172396412Y-87540096D01*
X172614683Y-87485096D01*
X172819626Y-87392007D01*
X173004654Y-87263819D01*
X173163819Y-87104654D01*
X173292007Y-86919626D01*
X173385096Y-86714683D01*
X173440096Y-86496412D01*
X173450500Y-86364217D01*
X173450499Y-84235784D01*
X173440096Y-84103588D01*
X173415280Y-84005106D01*
X173385097Y-83885321D01*
X173385096Y-83885318D01*
X173377484Y-83868560D01*
X173292007Y-83680374D01*
X173260297Y-83634603D01*
X173163825Y-83495354D01*
X173163822Y-83495350D01*
X173163819Y-83495346D01*
X173004654Y-83336181D01*
X173004650Y-83336178D01*
X173004645Y-83336174D01*
X172819632Y-83207997D01*
X172819630Y-83207995D01*
X172819626Y-83207993D01*
X172785411Y-83192452D01*
X172614681Y-83114903D01*
X172444201Y-83071945D01*
X172384004Y-83036477D01*
X172352538Y-82974093D01*
X172350500Y-82951704D01*
X172350500Y-77585354D01*
X172341986Y-77545299D01*
X172339955Y-77532480D01*
X172335674Y-77491744D01*
X172323017Y-77452792D01*
X172319660Y-77440267D01*
X172311144Y-77400197D01*
X172294483Y-77362778D01*
X172289836Y-77350672D01*
X172277179Y-77311716D01*
X172256698Y-77276242D01*
X172250806Y-77264678D01*
X172234149Y-77227266D01*
X172210083Y-77194142D01*
X172203015Y-77183258D01*
X172182535Y-77147788D01*
X172182533Y-77147784D01*
X172182531Y-77147781D01*
X172182528Y-77147777D01*
X172155128Y-77117348D01*
X172146957Y-77107258D01*
X172122888Y-77074129D01*
X172122887Y-77074128D01*
X172092447Y-77046719D01*
X172083270Y-77037542D01*
X172071343Y-77024296D01*
X172055871Y-77007112D01*
X172036222Y-76992836D01*
X172022746Y-76983045D01*
X172012659Y-76974877D01*
X171982222Y-76947471D01*
X171982211Y-76947464D01*
X171946742Y-76926985D01*
X171935858Y-76919917D01*
X171902736Y-76895853D01*
X171902732Y-76895850D01*
X171882230Y-76886722D01*
X171865316Y-76879191D01*
X171853756Y-76873301D01*
X171818284Y-76852821D01*
X171818281Y-76852820D01*
X171818277Y-76852818D01*
X171779331Y-76840164D01*
X171767212Y-76835512D01*
X171765343Y-76834680D01*
X171729803Y-76818856D01*
X171717712Y-76816286D01*
X171689744Y-76810341D01*
X171677209Y-76806982D01*
X171638257Y-76794326D01*
X171638255Y-76794325D01*
X171597519Y-76790043D01*
X171584705Y-76788014D01*
X171544646Y-76779500D01*
X171497192Y-76779500D01*
X153693278Y-76779500D01*
X153673879Y-76777973D01*
X153660039Y-76775781D01*
X153592315Y-76779330D01*
X153585826Y-76779500D01*
X153565459Y-76779500D01*
X153554366Y-76780665D01*
X153545203Y-76781628D01*
X153538742Y-76782136D01*
X153471009Y-76785686D01*
X153471004Y-76785687D01*
X153457454Y-76789317D01*
X153438342Y-76792859D01*
X153424400Y-76794325D01*
X153424387Y-76794327D01*
X153359893Y-76815283D01*
X153353684Y-76817122D01*
X153309627Y-76828928D01*
X153288166Y-76834679D01*
X153288165Y-76834679D01*
X153288163Y-76834680D01*
X153281339Y-76838157D01*
X153275671Y-76841045D01*
X153257704Y-76848487D01*
X153244365Y-76852821D01*
X153185647Y-76886722D01*
X153179946Y-76889817D01*
X153119501Y-76920617D01*
X153108602Y-76929442D01*
X153092582Y-76940452D01*
X153080438Y-76947464D01*
X153080434Y-76947467D01*
X153030046Y-76992836D01*
X153025117Y-76997046D01*
X153009272Y-77009878D01*
X152994854Y-77024296D01*
X152990148Y-77028761D01*
X152939764Y-77074127D01*
X152939756Y-77074136D01*
X152931523Y-77085468D01*
X152918889Y-77100260D01*
X151196945Y-78822204D01*
X151135622Y-78855689D01*
X151120072Y-78858051D01*
X150903312Y-78877015D01*
X150903302Y-78877017D01*
X150683511Y-78935909D01*
X150683502Y-78935912D01*
X150477267Y-79032082D01*
X150477265Y-79032083D01*
X150290862Y-79162602D01*
X150259248Y-79194217D01*
X150227631Y-79225833D01*
X150166311Y-79259317D01*
X150139952Y-79262151D01*
X116977976Y-79262151D01*
X116958577Y-79260624D01*
X116944737Y-79258431D01*
X116877012Y-79261981D01*
X116870523Y-79262151D01*
X116850157Y-79262151D01*
X116839064Y-79263316D01*
X116829901Y-79264279D01*
X116823440Y-79264787D01*
X116755701Y-79268337D01*
X116742161Y-79271966D01*
X116723035Y-79275511D01*
X116709094Y-79276976D01*
X116709091Y-79276977D01*
X116644583Y-79297935D01*
X116638367Y-79299777D01*
X116572861Y-79317331D01*
X116560369Y-79323696D01*
X116542402Y-79331138D01*
X116529062Y-79335472D01*
X116470346Y-79369373D01*
X116464643Y-79372470D01*
X116404202Y-79403267D01*
X116404186Y-79403277D01*
X116393297Y-79412095D01*
X116377272Y-79423109D01*
X116365134Y-79430117D01*
X116365130Y-79430120D01*
X116314725Y-79475503D01*
X116309801Y-79479709D01*
X116293976Y-79492526D01*
X116293958Y-79492542D01*
X116279560Y-79506939D01*
X116274857Y-79511402D01*
X116224463Y-79556777D01*
X116216218Y-79568125D01*
X116203585Y-79582914D01*
X108640263Y-87146236D01*
X108625474Y-87158869D01*
X108614126Y-87167114D01*
X108568751Y-87217508D01*
X108564288Y-87222211D01*
X108549891Y-87236609D01*
X108549875Y-87236627D01*
X108537058Y-87252452D01*
X108532852Y-87257376D01*
X108487469Y-87307781D01*
X108487466Y-87307785D01*
X108480458Y-87319923D01*
X108469444Y-87335948D01*
X108460626Y-87346837D01*
X108460616Y-87346853D01*
X108429819Y-87407294D01*
X108426722Y-87412997D01*
X108392821Y-87471713D01*
X108388487Y-87485053D01*
X108381045Y-87503020D01*
X108374680Y-87515512D01*
X108357126Y-87581018D01*
X108355284Y-87587234D01*
X108334326Y-87651742D01*
X108334325Y-87651745D01*
X108332860Y-87665686D01*
X108329315Y-87684812D01*
X108325686Y-87698352D01*
X108322136Y-87766091D01*
X108321628Y-87772552D01*
X108319500Y-87792811D01*
X108319500Y-87813174D01*
X108319330Y-87819663D01*
X108315781Y-87887387D01*
X108317973Y-87901225D01*
X108319500Y-87920626D01*
X108319500Y-97019951D01*
X108299815Y-97086990D01*
X108283181Y-97107632D01*
X108219954Y-97170858D01*
X108089432Y-97357265D01*
X108089431Y-97357267D01*
X107993261Y-97563502D01*
X107993258Y-97563511D01*
X107934366Y-97783302D01*
X107934364Y-97783313D01*
X107914532Y-98009998D01*
X107914532Y-98010001D01*
X106930500Y-98010001D01*
X106930500Y-73872706D01*
X106930559Y-73870000D01*
X110154551Y-73870000D01*
X110174317Y-74121151D01*
X110233126Y-74366110D01*
X110329533Y-74598859D01*
X110461160Y-74813653D01*
X110461161Y-74813656D01*
X110461164Y-74813659D01*
X110624776Y-75005224D01*
X110773066Y-75131875D01*
X110816343Y-75168838D01*
X110816346Y-75168839D01*
X111031140Y-75300466D01*
X111263889Y-75396873D01*
X111508852Y-75455683D01*
X111697118Y-75470500D01*
X111697126Y-75470500D01*
X111822874Y-75470500D01*
X111822882Y-75470500D01*
X112011148Y-75455683D01*
X112256111Y-75396873D01*
X112488859Y-75300466D01*
X112703659Y-75168836D01*
X112895224Y-75005224D01*
X113058836Y-74813659D01*
X113190466Y-74598859D01*
X113286873Y-74366111D01*
X113345683Y-74121148D01*
X113365449Y-73870000D01*
X172384551Y-73870000D01*
X172404317Y-74121151D01*
X172463126Y-74366110D01*
X172559533Y-74598859D01*
X172691160Y-74813653D01*
X172691161Y-74813656D01*
X172691164Y-74813659D01*
X172854776Y-75005224D01*
X173003066Y-75131875D01*
X173046343Y-75168838D01*
X173046346Y-75168839D01*
X173261140Y-75300466D01*
X173493889Y-75396873D01*
X173738852Y-75455683D01*
X173927118Y-75470500D01*
X173927126Y-75470500D01*
X174052874Y-75470500D01*
X174052882Y-75470500D01*
X174241148Y-75455683D01*
X174486111Y-75396873D01*
X174718859Y-75300466D01*
X174933659Y-75168836D01*
X175125224Y-75005224D01*
X175288836Y-74813659D01*
X175420466Y-74598859D01*
X175516873Y-74366111D01*
X175575683Y-74121148D01*
X175595449Y-73870000D01*
X175575683Y-73618852D01*
X175516873Y-73373889D01*
X175420466Y-73141141D01*
X175420466Y-73141140D01*
X175288839Y-72926346D01*
X175288838Y-72926343D01*
X175251875Y-72883066D01*
X175125224Y-72734776D01*
X174984831Y-72614869D01*
X174933656Y-72571161D01*
X174933653Y-72571160D01*
X174718859Y-72439533D01*
X174486110Y-72343126D01*
X174241151Y-72284317D01*
X174052887Y-72269500D01*
X174052882Y-72269500D01*
X173927118Y-72269500D01*
X173927112Y-72269500D01*
X173738848Y-72284317D01*
X173493889Y-72343126D01*
X173261140Y-72439533D01*
X173046346Y-72571160D01*
X173046343Y-72571161D01*
X172854776Y-72734776D01*
X172691161Y-72926343D01*
X172691160Y-72926346D01*
X172559533Y-73141140D01*
X172463126Y-73373889D01*
X172404317Y-73618848D01*
X172384551Y-73870000D01*
X113365449Y-73870000D01*
X113345683Y-73618852D01*
X113286873Y-73373889D01*
X113190466Y-73141141D01*
X113190466Y-73141140D01*
X113058839Y-72926346D01*
X113058838Y-72926343D01*
X113021875Y-72883066D01*
X112895224Y-72734776D01*
X112754831Y-72614869D01*
X112703656Y-72571161D01*
X112703653Y-72571160D01*
X112488859Y-72439533D01*
X112256110Y-72343126D01*
X112011151Y-72284317D01*
X111822887Y-72269500D01*
X111822882Y-72269500D01*
X111697118Y-72269500D01*
X111697112Y-72269500D01*
X111508848Y-72284317D01*
X111263889Y-72343126D01*
X111031140Y-72439533D01*
X110816346Y-72571160D01*
X110816343Y-72571161D01*
X110624776Y-72734776D01*
X110461161Y-72926343D01*
X110461160Y-72926346D01*
X110329533Y-73141140D01*
X110233126Y-73373889D01*
X110174317Y-73618848D01*
X110154551Y-73870000D01*
X106930559Y-73870000D01*
X106930618Y-73867297D01*
X106940126Y-73649529D01*
X106948642Y-73454464D01*
X106949582Y-73443732D01*
X107003166Y-73036716D01*
X107005037Y-73026105D01*
X107093894Y-72625294D01*
X107096681Y-72614894D01*
X107220133Y-72223352D01*
X107223817Y-72213231D01*
X107380922Y-71833948D01*
X107385480Y-71824174D01*
X107575044Y-71460024D01*
X107580426Y-71450703D01*
X107800999Y-71104473D01*
X107807190Y-71095630D01*
X108057101Y-70769940D01*
X108064039Y-70761671D01*
X108341380Y-70459008D01*
X108349008Y-70451380D01*
X108651671Y-70174039D01*
X108659940Y-70167101D01*
X108985630Y-69917190D01*
X108994473Y-69910999D01*
X109340703Y-69690426D01*
X109350024Y-69685044D01*
X109714174Y-69495480D01*
X109723948Y-69490922D01*
X110103231Y-69333817D01*
X110113352Y-69330133D01*
X110504894Y-69206681D01*
X110515294Y-69203894D01*
X110916105Y-69115037D01*
X110926716Y-69113166D01*
X111333732Y-69059582D01*
X111344464Y-69058642D01*
X111757297Y-69040617D01*
X111762706Y-69040500D01*
X111804170Y-69040500D01*
X173945830Y-69040500D01*
X173987294Y-69040500D01*
X173992702Y-69040617D01*
G37*
%TD.AperFunction*%
%TA.AperFunction,NonConductor*%
G36*
X166541104Y-78600185D02*
G01*
X166586859Y-78652989D01*
X166596803Y-78722147D01*
X166568866Y-78784429D01*
X166447934Y-78927861D01*
X166447929Y-78927868D01*
X166329425Y-79129810D01*
X166293189Y-79225832D01*
X166246755Y-79348874D01*
X166246754Y-79348876D01*
X166246754Y-79348878D01*
X166202295Y-79578755D01*
X166202295Y-79578756D01*
X166199501Y-79631347D01*
X166199500Y-79631386D01*
X166199500Y-81568613D01*
X166199501Y-81568652D01*
X166202295Y-81621243D01*
X166202295Y-81621244D01*
X166246754Y-81851121D01*
X166246755Y-81851126D01*
X166295326Y-81979832D01*
X166329425Y-82070189D01*
X166447929Y-82272131D01*
X166447934Y-82272138D01*
X166598856Y-82451141D01*
X166598858Y-82451143D01*
X166777861Y-82602065D01*
X166777868Y-82602070D01*
X166979810Y-82720574D01*
X167198874Y-82803245D01*
X167201517Y-82803756D01*
X167202537Y-82804282D01*
X167203950Y-82804683D01*
X167203868Y-82804970D01*
X167263598Y-82835814D01*
X167298493Y-82896346D01*
X167295122Y-82966134D01*
X167254556Y-83023021D01*
X167189674Y-83048946D01*
X167177969Y-83049500D01*
X163652129Y-83049500D01*
X163652123Y-83049501D01*
X163592516Y-83055908D01*
X163457671Y-83106202D01*
X163457664Y-83106206D01*
X163342455Y-83192452D01*
X163342452Y-83192455D01*
X163256206Y-83307664D01*
X163256202Y-83307671D01*
X163205908Y-83442517D01*
X163200229Y-83495342D01*
X163199501Y-83502123D01*
X163199500Y-83502135D01*
X163199500Y-84275500D01*
X163179815Y-84342539D01*
X163127011Y-84388294D01*
X163075500Y-84399500D01*
X152550991Y-84399500D01*
X152483952Y-84379815D01*
X152438197Y-84327011D01*
X152427701Y-84288752D01*
X152424091Y-84255167D01*
X152373797Y-84120322D01*
X152373793Y-84120315D01*
X152287547Y-84005106D01*
X152287544Y-84005103D01*
X152172335Y-83918857D01*
X152172328Y-83918853D01*
X152037482Y-83868559D01*
X152037483Y-83868559D01*
X151977883Y-83862152D01*
X151977881Y-83862151D01*
X151977873Y-83862151D01*
X151977864Y-83862151D01*
X150282129Y-83862151D01*
X150282123Y-83862152D01*
X150222516Y-83868559D01*
X150087671Y-83918853D01*
X150087664Y-83918857D01*
X149972455Y-84005103D01*
X149972452Y-84005106D01*
X149886206Y-84120315D01*
X149886202Y-84120322D01*
X149843136Y-84235791D01*
X149835909Y-84255168D01*
X149832297Y-84288757D01*
X149805561Y-84353306D01*
X149748169Y-84393154D01*
X149709009Y-84399500D01*
X114380627Y-84399500D01*
X114361228Y-84397973D01*
X114347389Y-84395781D01*
X114347388Y-84395781D01*
X114305563Y-84397973D01*
X114279670Y-84399330D01*
X114273180Y-84399500D01*
X114252798Y-84399500D01*
X114244787Y-84400342D01*
X114176058Y-84387765D01*
X114125040Y-84340027D01*
X114107930Y-84272284D01*
X114130161Y-84206046D01*
X114144159Y-84189339D01*
X115528529Y-82804970D01*
X117234029Y-81099470D01*
X117295352Y-81065985D01*
X117321710Y-81063151D01*
X150139952Y-81063151D01*
X150206991Y-81082836D01*
X150227628Y-81099465D01*
X150290861Y-81162698D01*
X150477266Y-81293219D01*
X150683504Y-81389390D01*
X150903308Y-81448286D01*
X151065230Y-81462452D01*
X151129998Y-81468119D01*
X151130000Y-81468119D01*
X151130002Y-81468119D01*
X151186673Y-81463160D01*
X151356692Y-81448286D01*
X151576496Y-81389390D01*
X151782734Y-81293219D01*
X151969139Y-81162698D01*
X152130047Y-81001790D01*
X152260568Y-80815385D01*
X152356739Y-80609147D01*
X152415635Y-80389343D01*
X152434599Y-80172575D01*
X152460051Y-80107508D01*
X152470438Y-80095711D01*
X153949332Y-78616819D01*
X154010655Y-78583334D01*
X154037013Y-78580500D01*
X166474065Y-78580500D01*
X166541104Y-78600185D01*
G37*
%TD.AperFunction*%
%TA.AperFunction,NonConductor*%
G36*
X143822539Y-88760185D02*
G01*
X143868294Y-88812989D01*
X143879500Y-88864500D01*
X143879500Y-94469951D01*
X143859815Y-94536990D01*
X143843181Y-94557632D01*
X143779954Y-94620858D01*
X143649432Y-94807265D01*
X143649431Y-94807267D01*
X143622382Y-94865275D01*
X143576209Y-94917714D01*
X143509016Y-94936866D01*
X143442135Y-94916650D01*
X143397618Y-94865275D01*
X143370568Y-94807267D01*
X143370567Y-94807265D01*
X143240045Y-94620858D01*
X143079141Y-94459954D01*
X142892734Y-94329432D01*
X142892732Y-94329431D01*
X142686497Y-94233261D01*
X142686488Y-94233258D01*
X142466697Y-94174366D01*
X142466693Y-94174365D01*
X142466692Y-94174365D01*
X142466691Y-94174364D01*
X142466686Y-94174364D01*
X142240002Y-94154532D01*
X142239998Y-94154532D01*
X142013313Y-94174364D01*
X142013302Y-94174366D01*
X141793511Y-94233258D01*
X141793502Y-94233261D01*
X141587267Y-94329431D01*
X141587265Y-94329432D01*
X141400858Y-94459954D01*
X141239954Y-94620858D01*
X141109432Y-94807265D01*
X141109431Y-94807267D01*
X141082382Y-94865275D01*
X141036209Y-94917714D01*
X140969016Y-94936866D01*
X140902135Y-94916650D01*
X140857618Y-94865275D01*
X140830568Y-94807267D01*
X140830567Y-94807265D01*
X140700045Y-94620858D01*
X140636819Y-94557632D01*
X140603334Y-94496309D01*
X140600500Y-94469951D01*
X140600500Y-91404500D01*
X140620185Y-91337461D01*
X140672989Y-91291706D01*
X140724500Y-91280500D01*
X140788560Y-91280500D01*
X140855599Y-91300185D01*
X140901354Y-91352989D01*
X140904742Y-91361167D01*
X140946202Y-91472328D01*
X140946206Y-91472335D01*
X141032452Y-91587544D01*
X141032455Y-91587547D01*
X141147664Y-91673793D01*
X141147671Y-91673797D01*
X141282517Y-91724091D01*
X141282516Y-91724091D01*
X141289444Y-91724835D01*
X141342127Y-91730500D01*
X143137872Y-91730499D01*
X143197483Y-91724091D01*
X143332331Y-91673796D01*
X143447546Y-91587546D01*
X143533796Y-91472331D01*
X143584091Y-91337483D01*
X143590500Y-91277873D01*
X143590499Y-89482128D01*
X143584091Y-89422517D01*
X143575257Y-89398833D01*
X143533797Y-89287671D01*
X143533793Y-89287664D01*
X143447547Y-89172455D01*
X143447544Y-89172452D01*
X143332335Y-89086206D01*
X143332328Y-89086202D01*
X143197482Y-89035908D01*
X143197483Y-89035908D01*
X143137883Y-89029501D01*
X143137881Y-89029500D01*
X143137873Y-89029500D01*
X143137864Y-89029500D01*
X141342129Y-89029500D01*
X141342123Y-89029501D01*
X141282516Y-89035908D01*
X141147671Y-89086202D01*
X141147664Y-89086206D01*
X141032455Y-89172452D01*
X141032452Y-89172455D01*
X140946206Y-89287664D01*
X140946202Y-89287671D01*
X140904742Y-89398833D01*
X140862871Y-89454767D01*
X140797407Y-89479184D01*
X140788560Y-89479500D01*
X130890627Y-89479500D01*
X130871228Y-89477973D01*
X130857388Y-89475781D01*
X130789664Y-89479330D01*
X130783175Y-89479500D01*
X130762808Y-89479500D01*
X130751715Y-89480665D01*
X130742552Y-89481628D01*
X130736091Y-89482136D01*
X130668358Y-89485686D01*
X130668353Y-89485687D01*
X130654803Y-89489317D01*
X130635691Y-89492859D01*
X130621749Y-89494325D01*
X130621736Y-89494327D01*
X130557242Y-89515283D01*
X130551033Y-89517122D01*
X130506976Y-89528928D01*
X130485515Y-89534679D01*
X130485514Y-89534679D01*
X130485512Y-89534680D01*
X130473020Y-89541045D01*
X130455053Y-89548487D01*
X130441714Y-89552821D01*
X130382996Y-89586722D01*
X130377295Y-89589817D01*
X130316850Y-89620617D01*
X130305951Y-89629442D01*
X130289931Y-89640452D01*
X130277787Y-89647464D01*
X130277783Y-89647467D01*
X130227395Y-89692836D01*
X130222466Y-89697046D01*
X130206621Y-89709878D01*
X130192203Y-89724296D01*
X130187497Y-89728761D01*
X130137113Y-89774127D01*
X130137105Y-89774136D01*
X130128872Y-89785468D01*
X130116238Y-89800260D01*
X126420263Y-93496236D01*
X126405474Y-93508869D01*
X126394126Y-93517114D01*
X126348751Y-93567508D01*
X126344288Y-93572211D01*
X126329891Y-93586609D01*
X126329875Y-93586627D01*
X126317058Y-93602452D01*
X126312852Y-93607376D01*
X126267469Y-93657781D01*
X126267466Y-93657785D01*
X126260458Y-93669923D01*
X126249444Y-93685948D01*
X126240626Y-93696837D01*
X126240616Y-93696853D01*
X126209819Y-93757294D01*
X126206722Y-93762997D01*
X126172821Y-93821713D01*
X126168487Y-93835053D01*
X126161045Y-93853020D01*
X126154680Y-93865512D01*
X126137126Y-93931018D01*
X126135284Y-93937234D01*
X126114326Y-94001742D01*
X126114325Y-94001745D01*
X126112860Y-94015686D01*
X126109315Y-94034812D01*
X126105686Y-94048352D01*
X126102136Y-94116091D01*
X126101628Y-94122552D01*
X126099500Y-94142811D01*
X126099500Y-94163174D01*
X126099330Y-94169663D01*
X126095781Y-94237387D01*
X126097973Y-94251225D01*
X126099500Y-94270626D01*
X126099500Y-96627209D01*
X126079815Y-96694248D01*
X126027011Y-96740003D01*
X126018833Y-96743391D01*
X125957671Y-96766202D01*
X125957664Y-96766206D01*
X125842455Y-96852452D01*
X125842452Y-96852455D01*
X125756206Y-96967664D01*
X125756202Y-96967671D01*
X125705908Y-97102516D01*
X125702137Y-97137596D01*
X125675398Y-97202146D01*
X125618006Y-97241994D01*
X125548180Y-97244487D01*
X125488092Y-97208834D01*
X125477273Y-97195462D01*
X125460045Y-97170858D01*
X125396819Y-97107632D01*
X125363334Y-97046309D01*
X125360500Y-97019951D01*
X125360500Y-93344361D01*
X125380185Y-93277322D01*
X125396819Y-93256680D01*
X129876681Y-88776819D01*
X129938004Y-88743334D01*
X129964362Y-88740500D01*
X143755500Y-88740500D01*
X143822539Y-88760185D01*
G37*
%TD.AperFunction*%
%TA.AperFunction,NonConductor*%
G36*
X120504340Y-91293068D02*
G01*
X120560273Y-91334939D01*
X120577189Y-91365917D01*
X120626202Y-91497328D01*
X120626206Y-91497335D01*
X120712452Y-91612544D01*
X120712455Y-91612547D01*
X120827664Y-91698793D01*
X120827673Y-91698798D01*
X120938832Y-91740257D01*
X120994766Y-91782127D01*
X121019184Y-91847592D01*
X121019500Y-91856439D01*
X121019500Y-97019951D01*
X120999815Y-97086990D01*
X120983181Y-97107632D01*
X120919954Y-97170858D01*
X120789432Y-97357265D01*
X120789431Y-97357267D01*
X120762382Y-97415275D01*
X120716209Y-97467714D01*
X120649016Y-97486866D01*
X120582135Y-97466650D01*
X120537618Y-97415275D01*
X120510568Y-97357267D01*
X120510567Y-97357265D01*
X120380045Y-97170858D01*
X120316819Y-97107632D01*
X120283334Y-97046309D01*
X120280500Y-97019951D01*
X120280500Y-91465758D01*
X120300185Y-91398719D01*
X120316818Y-91378078D01*
X120341907Y-91352989D01*
X120373327Y-91321568D01*
X120434648Y-91288084D01*
X120504340Y-91293068D01*
G37*
%TD.AperFunction*%
%TA.AperFunction,NonConductor*%
G36*
X118194855Y-91071546D02*
G01*
X118211575Y-91090842D01*
X118341501Y-91276396D01*
X118341506Y-91276402D01*
X118443181Y-91378077D01*
X118476666Y-91439400D01*
X118479500Y-91465758D01*
X118479500Y-97019951D01*
X118459815Y-97086990D01*
X118443181Y-97107632D01*
X118379954Y-97170858D01*
X118249432Y-97357265D01*
X118249431Y-97357267D01*
X118222382Y-97415275D01*
X118176209Y-97467714D01*
X118109016Y-97486866D01*
X118042135Y-97466650D01*
X117997618Y-97415275D01*
X117970568Y-97357267D01*
X117970567Y-97357265D01*
X117840045Y-97170858D01*
X117776819Y-97107632D01*
X117743334Y-97046309D01*
X117740500Y-97019951D01*
X117740500Y-91465758D01*
X117760185Y-91398719D01*
X117776819Y-91378077D01*
X117819957Y-91334939D01*
X117878495Y-91276401D01*
X118008425Y-91090842D01*
X118063002Y-91047217D01*
X118132500Y-91040023D01*
X118194855Y-91071546D01*
G37*
%TD.AperFunction*%
%TA.AperFunction,NonConductor*%
G36*
X115654855Y-91071546D02*
G01*
X115671575Y-91090842D01*
X115801501Y-91276396D01*
X115801506Y-91276402D01*
X115903181Y-91378077D01*
X115936666Y-91439400D01*
X115939500Y-91465758D01*
X115939500Y-97019951D01*
X115919815Y-97086990D01*
X115903181Y-97107632D01*
X115839954Y-97170858D01*
X115709432Y-97357265D01*
X115709431Y-97357267D01*
X115682382Y-97415275D01*
X115636209Y-97467714D01*
X115569016Y-97486866D01*
X115502135Y-97466650D01*
X115457618Y-97415275D01*
X115430568Y-97357267D01*
X115430567Y-97357265D01*
X115300045Y-97170858D01*
X115236819Y-97107632D01*
X115203334Y-97046309D01*
X115200500Y-97019951D01*
X115200500Y-91465758D01*
X115220185Y-91398719D01*
X115236819Y-91378077D01*
X115279957Y-91334939D01*
X115338495Y-91276401D01*
X115468425Y-91090842D01*
X115523002Y-91047217D01*
X115592500Y-91040023D01*
X115654855Y-91071546D01*
G37*
%TD.AperFunction*%
%TA.AperFunction,NonConductor*%
G36*
X110780353Y-87655658D02*
G01*
X110836287Y-87697529D01*
X110860704Y-87762994D01*
X110860342Y-87784788D01*
X110859500Y-87792800D01*
X110859500Y-87813174D01*
X110859330Y-87819663D01*
X110855781Y-87887387D01*
X110857973Y-87901225D01*
X110859500Y-87920626D01*
X110859500Y-97019951D01*
X110839815Y-97086990D01*
X110823181Y-97107632D01*
X110759954Y-97170858D01*
X110629432Y-97357265D01*
X110629431Y-97357267D01*
X110602382Y-97415275D01*
X110556209Y-97467714D01*
X110489016Y-97486866D01*
X110422135Y-97466650D01*
X110377618Y-97415275D01*
X110350568Y-97357267D01*
X110350567Y-97357265D01*
X110220045Y-97170858D01*
X110156819Y-97107632D01*
X110123334Y-97046309D01*
X110120500Y-97019951D01*
X110120500Y-88264361D01*
X110140185Y-88197322D01*
X110156819Y-88176680D01*
X110198390Y-88135107D01*
X110649339Y-87684158D01*
X110710662Y-87650674D01*
X110780353Y-87655658D01*
G37*
%TD.AperFunction*%
%TA.AperFunction,NonConductor*%
G36*
X149592834Y-111974790D02*
G01*
X149633308Y-111985635D01*
X149860000Y-112005468D01*
X149865352Y-112004999D01*
X149933850Y-112018763D01*
X149984035Y-112067375D01*
X149999972Y-112135403D01*
X149976601Y-112201248D01*
X149963844Y-112216208D01*
X147086873Y-115093181D01*
X147025550Y-115126666D01*
X146999192Y-115129500D01*
X146649807Y-115129500D01*
X146582768Y-115109815D01*
X146537013Y-115057011D01*
X146527069Y-114987853D01*
X146556094Y-114924297D01*
X146562126Y-114917819D01*
X147927429Y-113552516D01*
X149473062Y-112006882D01*
X149534383Y-111973399D01*
X149592834Y-111974790D01*
G37*
%TD.AperFunction*%
%TA.AperFunction,NonConductor*%
G36*
X127337012Y-111986452D02*
G01*
X127386938Y-112016884D01*
X130279564Y-114909510D01*
X130289638Y-114922084D01*
X130289825Y-114921930D01*
X130293571Y-114926458D01*
X130294065Y-114927609D01*
X130296573Y-114930739D01*
X130298973Y-114934520D01*
X130297448Y-114935487D01*
X130321138Y-114990660D01*
X130309618Y-115059573D01*
X130262669Y-115111319D01*
X130198029Y-115129500D01*
X129850808Y-115129500D01*
X129783769Y-115109815D01*
X129763127Y-115093181D01*
X126896154Y-112226208D01*
X126862669Y-112164885D01*
X126867653Y-112095193D01*
X126909525Y-112039260D01*
X126974989Y-112014843D01*
X126994638Y-112014998D01*
X127000000Y-112015468D01*
X127226692Y-111995635D01*
X127264012Y-111985635D01*
X127267162Y-111984791D01*
X127337012Y-111986452D01*
G37*
%TD.AperFunction*%
%TA.AperFunction,NonConductor*%
G36*
X156277865Y-111243348D02*
G01*
X156322382Y-111294725D01*
X156349429Y-111352728D01*
X156349432Y-111352734D01*
X156479954Y-111539141D01*
X156640855Y-111700042D01*
X156640858Y-111700044D01*
X156640861Y-111700047D01*
X156776626Y-111795109D01*
X156820248Y-111849683D01*
X156829500Y-111896682D01*
X156829500Y-116275500D01*
X156809815Y-116342539D01*
X156757011Y-116388294D01*
X156705500Y-116399500D01*
X147919807Y-116399500D01*
X147852768Y-116379815D01*
X147807013Y-116327011D01*
X147797069Y-116257853D01*
X147826094Y-116194297D01*
X147832126Y-116187819D01*
X149110435Y-114909510D01*
X152013062Y-112006882D01*
X152074383Y-111973399D01*
X152132834Y-111974790D01*
X152173308Y-111985635D01*
X152335230Y-111999801D01*
X152399998Y-112005468D01*
X152400000Y-112005468D01*
X152400002Y-112005468D01*
X152456807Y-112000498D01*
X152626692Y-111985635D01*
X152846496Y-111926739D01*
X153052734Y-111830568D01*
X153239139Y-111700047D01*
X153400047Y-111539139D01*
X153530568Y-111352734D01*
X153557618Y-111294724D01*
X153603790Y-111242285D01*
X153670983Y-111223133D01*
X153737865Y-111243348D01*
X153782382Y-111294725D01*
X153809429Y-111352728D01*
X153809432Y-111352734D01*
X153939954Y-111539141D01*
X154100855Y-111700042D01*
X154100858Y-111700044D01*
X154100861Y-111700047D01*
X154236626Y-111795109D01*
X154280248Y-111849683D01*
X154289500Y-111896682D01*
X154289500Y-113035500D01*
X154269815Y-113102539D01*
X154217011Y-113148294D01*
X154165501Y-113159500D01*
X154042130Y-113159500D01*
X154042123Y-113159501D01*
X153982516Y-113165908D01*
X153847671Y-113216202D01*
X153847664Y-113216206D01*
X153732455Y-113302452D01*
X153732452Y-113302455D01*
X153646206Y-113417664D01*
X153646202Y-113417671D01*
X153595908Y-113552517D01*
X153589501Y-113612116D01*
X153589501Y-113612123D01*
X153589500Y-113612135D01*
X153589500Y-115407870D01*
X153589501Y-115407876D01*
X153595908Y-115467483D01*
X153646202Y-115602328D01*
X153646206Y-115602335D01*
X153732452Y-115717544D01*
X153732455Y-115717547D01*
X153847664Y-115803793D01*
X153847671Y-115803797D01*
X153982517Y-115854091D01*
X153982516Y-115854091D01*
X153989444Y-115854835D01*
X154042127Y-115860500D01*
X155837872Y-115860499D01*
X155897483Y-115854091D01*
X156032331Y-115803796D01*
X156147546Y-115717546D01*
X156233796Y-115602331D01*
X156284091Y-115467483D01*
X156290500Y-115407873D01*
X156290499Y-113612128D01*
X156284091Y-113552517D01*
X156233796Y-113417669D01*
X156233795Y-113417668D01*
X156233793Y-113417664D01*
X156147547Y-113302455D01*
X156147544Y-113302452D01*
X156032335Y-113216206D01*
X156032328Y-113216202D01*
X155897482Y-113165908D01*
X155897483Y-113165908D01*
X155837883Y-113159501D01*
X155837881Y-113159500D01*
X155837873Y-113159500D01*
X155837865Y-113159500D01*
X155714500Y-113159500D01*
X155647461Y-113139815D01*
X155601706Y-113087011D01*
X155590500Y-113035500D01*
X155590500Y-111896682D01*
X155610185Y-111829643D01*
X155643371Y-111795111D01*
X155779139Y-111700047D01*
X155940047Y-111539139D01*
X156070568Y-111352734D01*
X156097618Y-111294724D01*
X156143790Y-111242285D01*
X156210983Y-111223133D01*
X156277865Y-111243348D01*
G37*
%TD.AperFunction*%
%TA.AperFunction,NonConductor*%
G36*
X124797012Y-111986452D02*
G01*
X124846938Y-112016884D01*
X129009564Y-116179509D01*
X129019644Y-116192090D01*
X129019831Y-116191936D01*
X129023578Y-116196466D01*
X129024072Y-116197617D01*
X129026578Y-116200745D01*
X129028977Y-116204525D01*
X129027452Y-116205492D01*
X129051139Y-116260670D01*
X129039613Y-116329583D01*
X128992660Y-116381324D01*
X128928029Y-116399500D01*
X128580808Y-116399500D01*
X128513769Y-116379815D01*
X128493127Y-116363181D01*
X124356154Y-112226208D01*
X124322669Y-112164885D01*
X124327653Y-112095193D01*
X124369525Y-112039260D01*
X124434989Y-112014843D01*
X124454638Y-112014998D01*
X124460000Y-112015468D01*
X124686692Y-111995635D01*
X124724012Y-111985635D01*
X124727162Y-111984791D01*
X124797012Y-111986452D01*
G37*
%TD.AperFunction*%
%TA.AperFunction,NonConductor*%
G36*
X158817865Y-111243348D02*
G01*
X158862382Y-111294725D01*
X158889429Y-111352728D01*
X158889432Y-111352734D01*
X159019954Y-111539141D01*
X159180855Y-111700042D01*
X159180858Y-111700044D01*
X159180861Y-111700047D01*
X159316626Y-111795109D01*
X159360248Y-111849683D01*
X159369500Y-111896682D01*
X159369500Y-116729192D01*
X159349815Y-116796231D01*
X159333181Y-116816873D01*
X158516873Y-117633181D01*
X158455550Y-117666666D01*
X158429192Y-117669500D01*
X158077154Y-117669500D01*
X158010115Y-117649815D01*
X157964360Y-117597011D01*
X157954416Y-117527853D01*
X157983441Y-117464297D01*
X157986761Y-117460617D01*
X157988099Y-117459192D01*
X158010448Y-117435393D01*
X158014765Y-117427539D01*
X158027891Y-117408226D01*
X158033600Y-117401326D01*
X158058240Y-117348961D01*
X158061752Y-117342070D01*
X158089627Y-117291368D01*
X158091857Y-117282679D01*
X158099764Y-117260720D01*
X158103579Y-117252612D01*
X158107334Y-117232927D01*
X158114418Y-117195787D01*
X158116105Y-117188238D01*
X158130500Y-117132177D01*
X158130500Y-117123207D01*
X158132697Y-117099969D01*
X158134304Y-117091549D01*
X158134376Y-117091170D01*
X158130745Y-117033457D01*
X158130500Y-117025671D01*
X158130500Y-111896682D01*
X158150185Y-111829643D01*
X158183371Y-111795111D01*
X158319139Y-111700047D01*
X158480047Y-111539139D01*
X158610568Y-111352734D01*
X158637618Y-111294724D01*
X158683790Y-111242285D01*
X158750983Y-111223133D01*
X158817865Y-111243348D01*
G37*
%TD.AperFunction*%
%TA.AperFunction,NonConductor*%
G36*
X122257012Y-111986452D02*
G01*
X122306938Y-112016884D01*
X127739564Y-117449510D01*
X127749638Y-117462084D01*
X127749825Y-117461930D01*
X127753571Y-117466458D01*
X127754065Y-117467609D01*
X127756573Y-117470739D01*
X127758973Y-117474520D01*
X127757448Y-117475487D01*
X127781138Y-117530660D01*
X127769618Y-117599573D01*
X127722669Y-117651319D01*
X127658029Y-117669500D01*
X127310808Y-117669500D01*
X127243769Y-117649815D01*
X127223127Y-117633181D01*
X121816154Y-112226208D01*
X121782669Y-112164885D01*
X121787653Y-112095193D01*
X121829525Y-112039260D01*
X121894989Y-112014843D01*
X121914638Y-112014998D01*
X121920000Y-112015468D01*
X122146692Y-111995635D01*
X122184012Y-111985635D01*
X122187162Y-111984791D01*
X122257012Y-111986452D01*
G37*
%TD.AperFunction*%
M02*
