%TF.GenerationSoftware,KiCad,Pcbnew,7.0.10*%
%TF.CreationDate,2024-02-12T17:30:29-09:00*%
%TF.ProjectId,CustomPCB,43757374-6f6d-4504-9342-2e6b69636164,rev?*%
%TF.SameCoordinates,Original*%
%TF.FileFunction,Copper,L2,Bot*%
%TF.FilePolarity,Positive*%
%FSLAX46Y46*%
G04 Gerber Fmt 4.6, Leading zero omitted, Abs format (unit mm)*
G04 Created by KiCad (PCBNEW 7.0.10) date 2024-02-12 17:30:29*
%MOMM*%
%LPD*%
G01*
G04 APERTURE LIST*
G04 Aperture macros list*
%AMRoundRect*
0 Rectangle with rounded corners*
0 $1 Rounding radius*
0 $2 $3 $4 $5 $6 $7 $8 $9 X,Y pos of 4 corners*
0 Add a 4 corners polygon primitive as box body*
4,1,4,$2,$3,$4,$5,$6,$7,$8,$9,$2,$3,0*
0 Add four circle primitives for the rounded corners*
1,1,$1+$1,$2,$3*
1,1,$1+$1,$4,$5*
1,1,$1+$1,$6,$7*
1,1,$1+$1,$8,$9*
0 Add four rect primitives between the rounded corners*
20,1,$1+$1,$2,$3,$4,$5,0*
20,1,$1+$1,$4,$5,$6,$7,0*
20,1,$1+$1,$6,$7,$8,$9,0*
20,1,$1+$1,$8,$9,$2,$3,0*%
G04 Aperture macros list end*
%TA.AperFunction,ComponentPad*%
%ADD10R,1.730000X2.030000*%
%TD*%
%TA.AperFunction,ComponentPad*%
%ADD11O,1.730000X2.030000*%
%TD*%
%TA.AperFunction,ComponentPad*%
%ADD12R,1.700000X1.700000*%
%TD*%
%TA.AperFunction,ComponentPad*%
%ADD13O,1.700000X1.700000*%
%TD*%
%TA.AperFunction,ComponentPad*%
%ADD14R,1.600000X1.600000*%
%TD*%
%TA.AperFunction,ComponentPad*%
%ADD15O,1.600000X1.600000*%
%TD*%
%TA.AperFunction,ComponentPad*%
%ADD16R,3.000000X3.000000*%
%TD*%
%TA.AperFunction,ComponentPad*%
%ADD17C,3.000000*%
%TD*%
%TA.AperFunction,ComponentPad*%
%ADD18RoundRect,0.875000X-0.875000X0.875000X-0.875000X-0.875000X0.875000X-0.875000X0.875000X0.875000X0*%
%TD*%
%TA.AperFunction,ComponentPad*%
%ADD19RoundRect,0.750000X-1.000000X0.750000X-1.000000X-0.750000X1.000000X-0.750000X1.000000X0.750000X0*%
%TD*%
%TA.AperFunction,ComponentPad*%
%ADD20R,3.500000X3.500000*%
%TD*%
%TA.AperFunction,ComponentPad*%
%ADD21C,1.600000*%
%TD*%
%TA.AperFunction,Conductor*%
%ADD22C,0.900000*%
%TD*%
G04 APERTURE END LIST*
D10*
%TO.P,Fan_Header_1,1,-*%
%TO.N,/12v Negative*%
X185420000Y-113030000D03*
D11*
%TO.P,Fan_Header_1,2,+*%
%TO.N,/12v Positive*%
X187960000Y-113030000D03*
%TO.P,Fan_Header_1,3,Tacho*%
%TO.N,unconnected-(Fan_Header_1-Tacho-Pad3)*%
X190500000Y-113030000D03*
%TD*%
D12*
%TO.P,Motor_2,1,Pin_1*%
%TO.N,/Motor1A*%
X177800000Y-86360000D03*
D13*
%TO.P,Motor_2,2,Pin_2*%
%TO.N,/Motor1B*%
X177800000Y-83820000D03*
%TO.P,Motor_2,3,Pin_3*%
%TO.N,/Motor1C*%
X177800000Y-81280000D03*
%TO.P,Motor_2,4,Pin_4*%
%TO.N,/Motor1D*%
X177800000Y-78740000D03*
%TD*%
D12*
%TO.P,Motor_1,1,Pin_1*%
%TO.N,/Motor2A*%
X177800000Y-109220000D03*
D13*
%TO.P,Motor_1,2,Pin_2*%
%TO.N,/Motor2B*%
X177800000Y-106680000D03*
%TO.P,Motor_1,3,Pin_3*%
%TO.N,/Motor2C*%
X177800000Y-104140000D03*
%TO.P,Motor_1,4,Pin_4*%
%TO.N,/Motor2D*%
X177800000Y-101600000D03*
%TD*%
D12*
%TO.P,J2,1,Pin_1*%
%TO.N,/Logic Negative*%
X156210000Y-114300000D03*
%TD*%
D14*
%TO.P,TMC2088_2,1,GND*%
%TO.N,/Logic Negative*%
X172710000Y-91440000D03*
D15*
%TO.P,TMC2088_2,2,VDD*%
%TO.N,/Logic Positive*%
X172710000Y-88900000D03*
%TO.P,TMC2088_2,3,1B*%
%TO.N,/Motor1A*%
X172710000Y-86360000D03*
%TO.P,TMC2088_2,4,1A*%
%TO.N,/Motor1B*%
X172710000Y-83820000D03*
%TO.P,TMC2088_2,5,2A*%
%TO.N,/Motor1C*%
X172710000Y-81280000D03*
%TO.P,TMC2088_2,6,2B*%
%TO.N,/Motor1D*%
X172710000Y-78740000D03*
%TO.P,TMC2088_2,7,GND*%
%TO.N,/12v Negative*%
X172710000Y-76200000D03*
%TO.P,TMC2088_2,8,VMOT*%
%TO.N,/12v Positive*%
X172710000Y-73660000D03*
%TO.P,TMC2088_2,9,~{ENABLE}*%
%TO.N,/Enable Pin*%
X160010000Y-73660000D03*
%TO.P,TMC2088_2,10,MS1*%
%TO.N,unconnected-(TMC2088_2-MS1-Pad10)*%
X160010000Y-76200000D03*
%TO.P,TMC2088_2,11,MS2*%
%TO.N,unconnected-(TMC2088_2-MS2-Pad11)*%
X160010000Y-78740000D03*
%TO.P,TMC2088_2,12,MS3*%
%TO.N,unconnected-(TMC2088_2-MS3-Pad12)*%
X160010000Y-81280000D03*
%TO.P,TMC2088_2,13,~{RESET}*%
%TO.N,/Reset1*%
X160010000Y-83820000D03*
%TO.P,TMC2088_2,14,~{SLEEP}*%
%TO.N,unconnected-(TMC2088_2-~{SLEEP}-Pad14)*%
X160010000Y-86360000D03*
%TO.P,TMC2088_2,15,STEP*%
%TO.N,/Step1*%
X160010000Y-88900000D03*
%TO.P,TMC2088_2,16,DIR*%
%TO.N,/Direction1*%
X160010000Y-91440000D03*
%TD*%
D16*
%TO.P,Pwr_Switch_1,1,Pin_1*%
%TO.N,/12v Positive Terminal*%
X198120000Y-88900000D03*
D17*
%TO.P,Pwr_Switch_1,2,Pin_2*%
%TO.N,/12v Positive*%
X198120000Y-93980000D03*
%TD*%
D14*
%TO.P,TMC2088_1,1,GND*%
%TO.N,/Logic Negative*%
X172710000Y-114300000D03*
D15*
%TO.P,TMC2088_1,2,VDD*%
%TO.N,/Logic Positive*%
X172710000Y-111760000D03*
%TO.P,TMC2088_1,3,1B*%
%TO.N,/Motor2A*%
X172710000Y-109220000D03*
%TO.P,TMC2088_1,4,1A*%
%TO.N,/Motor2B*%
X172710000Y-106680000D03*
%TO.P,TMC2088_1,5,2A*%
%TO.N,/Motor2C*%
X172710000Y-104140000D03*
%TO.P,TMC2088_1,6,2B*%
%TO.N,/Motor2D*%
X172710000Y-101600000D03*
%TO.P,TMC2088_1,7,GND*%
%TO.N,/12v Negative*%
X172710000Y-99060000D03*
%TO.P,TMC2088_1,8,VMOT*%
%TO.N,/12v Positive*%
X172710000Y-96520000D03*
%TO.P,TMC2088_1,9,~{ENABLE}*%
%TO.N,/Enable Pin*%
X160010000Y-96520000D03*
%TO.P,TMC2088_1,10,MS1*%
%TO.N,unconnected-(TMC2088_1-MS1-Pad10)*%
X160010000Y-99060000D03*
%TO.P,TMC2088_1,11,MS2*%
%TO.N,unconnected-(TMC2088_1-MS2-Pad11)*%
X160010000Y-101600000D03*
%TO.P,TMC2088_1,12,MS3*%
%TO.N,unconnected-(TMC2088_1-MS3-Pad12)*%
X160010000Y-104140000D03*
%TO.P,TMC2088_1,13,~{RESET}*%
%TO.N,/Reset2*%
X160010000Y-106680000D03*
%TO.P,TMC2088_1,14,~{SLEEP}*%
%TO.N,unconnected-(TMC2088_1-~{SLEEP}-Pad14)*%
X160010000Y-109220000D03*
%TO.P,TMC2088_1,15,STEP*%
%TO.N,/Step2*%
X160010000Y-111760000D03*
%TO.P,TMC2088_1,16,DIR*%
%TO.N,/Direction2*%
X160010000Y-114300000D03*
%TD*%
D18*
%TO.P,DC_12V_1,3*%
%TO.N,N/C*%
X184413750Y-80353750D03*
D19*
%TO.P,DC_12V_1,2*%
%TO.N,/12v Negative*%
X189113750Y-77353750D03*
D20*
%TO.P,DC_12V_1,1*%
%TO.N,/12v Positive Terminal*%
X189113750Y-83353750D03*
%TD*%
D12*
%TO.P,J1,1,Pin_1*%
%TO.N,/Limit Pin*%
X151140000Y-81280000D03*
%TD*%
D14*
%TO.P,100uF_C1,1*%
%TO.N,/12v Positive*%
X190362651Y-91440000D03*
D21*
%TO.P,100uF_C1,2*%
%TO.N,/12v Negative*%
X185362651Y-91440000D03*
%TD*%
D14*
%TO.P,Arduino_1,1,D1/TX*%
%TO.N,unconnected-(Arduino_1-D1{slash}TX-Pad1)*%
X146050000Y-111760000D03*
D15*
%TO.P,Arduino_1,2,D0/RX*%
%TO.N,unconnected-(Arduino_1-D0{slash}RX-Pad2)*%
X146050000Y-109220000D03*
%TO.P,Arduino_1,3,~{RESET}*%
%TO.N,unconnected-(Arduino_1-~{RESET}-Pad3)*%
X146050000Y-106680000D03*
%TO.P,Arduino_1,4,GND*%
%TO.N,unconnected-(Arduino_1-GND-Pad4)*%
X146050000Y-104140000D03*
%TO.P,Arduino_1,5,D2*%
%TO.N,/D2 Breakout*%
X146050000Y-101600000D03*
%TO.P,Arduino_1,6,D3*%
%TO.N,/Direction2*%
X146050000Y-99060000D03*
%TO.P,Arduino_1,7,D4*%
%TO.N,/Step2*%
X146050000Y-96520000D03*
%TO.P,Arduino_1,8,D5*%
%TO.N,/Reset2*%
X146050000Y-93980000D03*
%TO.P,Arduino_1,9,D6*%
%TO.N,/Direction1*%
X146050000Y-91440000D03*
%TO.P,Arduino_1,10,D7*%
%TO.N,/Step1*%
X146050000Y-88900000D03*
%TO.P,Arduino_1,11,D8*%
%TO.N,/Reset1*%
X146050000Y-86360000D03*
%TO.P,Arduino_1,12,D9*%
%TO.N,/Enable Pin*%
X146050000Y-83820000D03*
%TO.P,Arduino_1,13,D10*%
%TO.N,/Limit Pin*%
X146050000Y-81280000D03*
%TO.P,Arduino_1,14,D11*%
%TO.N,/D11 Breakout*%
X146050000Y-78740000D03*
%TO.P,Arduino_1,15,D12*%
%TO.N,/D12 Breakout*%
X146050000Y-76200000D03*
%TO.P,Arduino_1,16,D13*%
%TO.N,/D13 Breakout*%
X130810000Y-76200000D03*
%TO.P,Arduino_1,17,3V3*%
%TO.N,unconnected-(Arduino_1-3V3-Pad17)*%
X130810000Y-78740000D03*
%TO.P,Arduino_1,18,AREF*%
%TO.N,unconnected-(Arduino_1-AREF-Pad18)*%
X130810000Y-81280000D03*
%TO.P,Arduino_1,19,A0*%
%TO.N,unconnected-(Arduino_1-A0-Pad19)*%
X130810000Y-83820000D03*
%TO.P,Arduino_1,20,A1*%
%TO.N,unconnected-(Arduino_1-A1-Pad20)*%
X130810000Y-86360000D03*
%TO.P,Arduino_1,21,A2*%
%TO.N,unconnected-(Arduino_1-A2-Pad21)*%
X130810000Y-88900000D03*
%TO.P,Arduino_1,22,A3*%
%TO.N,unconnected-(Arduino_1-A3-Pad22)*%
X130810000Y-91440000D03*
%TO.P,Arduino_1,23,A4*%
%TO.N,unconnected-(Arduino_1-A4-Pad23)*%
X130810000Y-93980000D03*
%TO.P,Arduino_1,24,A5*%
%TO.N,unconnected-(Arduino_1-A5-Pad24)*%
X130810000Y-96520000D03*
%TO.P,Arduino_1,25,A6*%
%TO.N,unconnected-(Arduino_1-A6-Pad25)*%
X130810000Y-99060000D03*
%TO.P,Arduino_1,26,A7*%
%TO.N,unconnected-(Arduino_1-A7-Pad26)*%
X130810000Y-101600000D03*
%TO.P,Arduino_1,27,+5V*%
%TO.N,/Logic Positive*%
X130810000Y-104140000D03*
%TO.P,Arduino_1,28,~{RESET}*%
%TO.N,unconnected-(Arduino_1-~{RESET}-Pad28)*%
X130810000Y-106680000D03*
%TO.P,Arduino_1,29,GND*%
%TO.N,/Logic Negative*%
X130810000Y-109220000D03*
%TO.P,Arduino_1,30,VIN*%
%TO.N,unconnected-(Arduino_1-VIN-Pad30)*%
X130810000Y-111760000D03*
%TD*%
D22*
%TO.N,/12v Positive*%
X176255302Y-96520000D02*
X172710000Y-96520000D01*
X178932651Y-93842651D02*
X176255302Y-96520000D01*
X178932651Y-93842651D02*
X174160000Y-89070000D01*
X187960000Y-93842651D02*
X178932651Y-93842651D01*
X187960000Y-93842651D02*
X190362651Y-91440000D01*
X187960000Y-113030000D02*
X187960000Y-93842651D01*
%TO.N,/Logic Negative*%
X156210000Y-115750000D02*
X142420000Y-115750000D01*
X172710000Y-114300000D02*
X171260000Y-115750000D01*
X142420000Y-115750000D02*
X135890000Y-109220000D01*
X156210000Y-115750000D02*
X156210000Y-114300000D01*
X171260000Y-115750000D02*
X156210000Y-115750000D01*
X135890000Y-109220000D02*
X130810000Y-109220000D01*
%TO.N,/12v Negative*%
X172710000Y-76200000D02*
X171260000Y-77650000D01*
X171260000Y-97610000D02*
X172710000Y-99060000D01*
X171260000Y-77650000D02*
X171260000Y-97610000D01*
%TO.N,/12v Positive*%
X174160000Y-75110000D02*
X174160000Y-89070000D01*
X187960000Y-113030000D02*
X188082651Y-112907349D01*
X172710000Y-73660000D02*
X174160000Y-75110000D01*
%TD*%
M02*
