<?xml version="1.0" standalone="no"?>
 <!DOCTYPE svg PUBLIC "-//W3C//DTD SVG 1.1//EN" 
 "http://www.w3.org/Graphics/SVG/1.1/DTD/svg11.dtd"> 
<svg
  xmlns:svg="http://www.w3.org/2000/svg"
  xmlns="http://www.w3.org/2000/svg"
  xmlns:xlink="http://www.w3.org/1999/xlink"
  version="1.1"
  width="297.0022mm" height="210.0072mm" viewBox="0.0000 0.0000 297.0022 210.0072">
<title>SVG Image created as CustomPCB-NPTH-drl_map.svg date 2024/01/30 03:11:29 </title>
  <desc>Image generated by PCBNEW </desc>
<g style="fill:#000000; fill-opacity:1.0000;stroke:#000000; stroke-opacity:1.0000;
stroke-linecap:round; stroke-linejoin:round;"
 transform="translate(0 0) scale(1 1)">
</g>
<g style="fill:#000000; fill-opacity:0.0; 
stroke:#000000; stroke-width:0.0000; stroke-opacity:1; 
stroke-linecap:round; stroke-linejoin:round;">
</g>
<g style="fill:#000000; fill-opacity:0.0; 
stroke:#000000; stroke-width:0.2120; stroke-opacity:1; 
stroke-linecap:round; stroke-linejoin:round;">
<path d="M82.5264 120.8983
L214.4758 120.8983
" />
<path d="M71.7550 15.8774
L71.7550 110.1269
" />
<path d="M214.4758 5.1060
L82.5264 5.1060
" />
<path d="M225.2471 110.1269
L225.2471 15.8774
" />
<path d="M225.2471 15.8774 A10.7714 10.7714 0.0 0 0 214.4758 5.1060" />
<path d="M214.4758 120.8983 A10.7714 10.7714 0.0 0 0 225.2471 110.1269" />
<path d="M71.7550 110.1269 A10.7714 10.7714 0.0 0 0 82.5264 120.8983" />
<path d="M82.5264 5.1060 A10.7714 10.7714 0.0 0 0 71.7550 15.8774" />
</g>
<g style="fill:#000000; fill-opacity:0.0; 
stroke:#000000; stroke-width:0.4241; stroke-opacity:1; 
stroke-linecap:round; stroke-linejoin:round;">
</g>
<g style="fill:#000000; fill-opacity:0.0; 
stroke:#000000; stroke-width:0.5725; stroke-opacity:1; 
stroke-linecap:round; stroke-linejoin:round;">
<path d="M79.6640 13.0149
L85.3889 18.7399
" />
<path d="M85.3889 13.0149
L79.6640 18.7399
" />
<path d="M79.6640 107.2645
L85.3889 112.9894
" />
<path d="M85.3889 107.2645
L79.6640 112.9894
" />
<path d="M211.6133 13.0149
L217.3382 18.7399
" />
<path d="M217.3382 13.0149
L211.6133 18.7399
" />
<path d="M211.6133 107.2645
L217.3382 112.9894
" />
<path d="M217.3382 107.2645
L211.6133 112.9894
" />
</g>
<g style="fill:#000000; fill-opacity:0.0; 
stroke:#000000; stroke-width:0.4241; stroke-opacity:1; 
stroke-linecap:round; stroke-linejoin:round;">
</g>
<g style="fill:#000000; fill-opacity:0.0; 
stroke:#000000; stroke-width:0.2000; stroke-opacity:1; 
stroke-linecap:round; stroke-linejoin:round;">
<text x="73.6490" y="124.2043"
textLength="14.8667" font-size="2.6667" lengthAdjust="spacingAndGlyphs"
text-anchor="start" opacity="0">Drill Map:</text>
<g class="stroked-text"><desc>Drill Map:</desc>
<path d="M74.2568 124.1192
L74.2568 122.1192
" />
<path d="M74.2568 122.1192
L74.7330 122.1192
" />
<path d="M74.7330 122.1192
L75.0187 122.2144
" />
<path d="M75.0187 122.2144
L75.2092 122.4049
" />
<path d="M75.2092 122.4049
L75.3044 122.5954
" />
<path d="M75.3044 122.5954
L75.3997 122.9763
" />
<path d="M75.3997 122.9763
L75.3997 123.2620
" />
<path d="M75.3997 123.2620
L75.3044 123.6430
" />
<path d="M75.3044 123.6430
L75.2092 123.8334
" />
<path d="M75.2092 123.8334
L75.0187 124.0239
" />
<path d="M75.0187 124.0239
L74.7330 124.1192
" />
<path d="M74.7330 124.1192
L74.2568 124.1192
" />
<path d="M76.2568 124.1192
L76.2568 122.7858
" />
<path d="M76.2568 123.1668
L76.3520 122.9763
" />
<path d="M76.3520 122.9763
L76.4473 122.8811
" />
<path d="M76.4473 122.8811
L76.6378 122.7858
" />
<path d="M76.6378 122.7858
L76.8282 122.7858
" />
<path d="M77.4949 124.1192
L77.4949 122.7858
" />
<path d="M77.4949 122.1192
L77.3997 122.2144
" />
<path d="M77.3997 122.2144
L77.4949 122.3096
" />
<path d="M77.4949 122.3096
L77.5901 122.2144
" />
<path d="M77.5901 122.2144
L77.4949 122.1192
" />
<path d="M77.4949 122.1192
L77.4949 122.3096
" />
<path d="M78.7330 124.1192
L78.5425 124.0239
" />
<path d="M78.5425 124.0239
L78.4473 123.8334
" />
<path d="M78.4473 123.8334
L78.4473 122.1192
" />
<path d="M79.7806 124.1192
L79.5901 124.0239
" />
<path d="M79.5901 124.0239
L79.4949 123.8334
" />
<path d="M79.4949 123.8334
L79.4949 122.1192
" />
<path d="M82.0663 124.1192
L82.0663 122.1192
" />
<path d="M82.0663 122.1192
L82.7330 123.5477
" />
<path d="M82.7330 123.5477
L83.3997 122.1192
" />
<path d="M83.3997 122.1192
L83.3997 124.1192
" />
<path d="M85.2092 124.1192
L85.2092 123.0715
" />
<path d="M85.2092 123.0715
L85.1139 122.8811
" />
<path d="M85.1139 122.8811
L84.9235 122.7858
" />
<path d="M84.9235 122.7858
L84.5425 122.7858
" />
<path d="M84.5425 122.7858
L84.3520 122.8811
" />
<path d="M85.2092 124.0239
L85.0187 124.1192
" />
<path d="M85.0187 124.1192
L84.5425 124.1192
" />
<path d="M84.5425 124.1192
L84.3520 124.0239
" />
<path d="M84.3520 124.0239
L84.2568 123.8334
" />
<path d="M84.2568 123.8334
L84.2568 123.6430
" />
<path d="M84.2568 123.6430
L84.3520 123.4525
" />
<path d="M84.3520 123.4525
L84.5425 123.3573
" />
<path d="M84.5425 123.3573
L85.0187 123.3573
" />
<path d="M85.0187 123.3573
L85.2092 123.2620
" />
<path d="M86.1616 122.7858
L86.1616 124.7858
" />
<path d="M86.1616 122.8811
L86.3520 122.7858
" />
<path d="M86.3520 122.7858
L86.7330 122.7858
" />
<path d="M86.7330 122.7858
L86.9235 122.8811
" />
<path d="M86.9235 122.8811
L87.0187 122.9763
" />
<path d="M87.0187 122.9763
L87.1139 123.1668
" />
<path d="M87.1139 123.1668
L87.1139 123.7382
" />
<path d="M87.1139 123.7382
L87.0187 123.9287
" />
<path d="M87.0187 123.9287
L86.9235 124.0239
" />
<path d="M86.9235 124.0239
L86.7330 124.1192
" />
<path d="M86.7330 124.1192
L86.3520 124.1192
" />
<path d="M86.3520 124.1192
L86.1616 124.0239
" />
<path d="M87.9711 123.9287
L88.0663 124.0239
" />
<path d="M88.0663 124.0239
L87.9711 124.1192
" />
<path d="M87.9711 124.1192
L87.8759 124.0239
" />
<path d="M87.8759 124.0239
L87.9711 123.9287
" />
<path d="M87.9711 123.9287
L87.9711 124.1192
" />
<path d="M87.9711 122.8811
L88.0663 122.9763
" />
<path d="M88.0663 122.9763
L87.9711 123.0715
" />
<path d="M87.9711 123.0715
L87.8759 122.9763
" />
<path d="M87.8759 122.9763
L87.9711 122.8811
" />
<path d="M87.9711 122.8811
L87.9711 123.0715
" />
</g></g>
<g style="fill:#000000; fill-opacity:0.0; 
stroke:#000000; stroke-width:0.2120; stroke-opacity:1; 
stroke-linecap:round; stroke-linejoin:round;">
<path d="M69.6490 126.4043
L71.6490 128.4043
" />
<path d="M71.6490 126.4043
L69.6490 128.4043
" />
</g>
<g style="fill:#000000; fill-opacity:0.0; 
stroke:#000000; stroke-width:0.4241; stroke-opacity:1; 
stroke-linecap:round; stroke-linejoin:round;">
</g>
<g style="fill:#000000; fill-opacity:0.0; 
stroke:#000000; stroke-width:0.2000; stroke-opacity:1; 
stroke-linecap:round; stroke-linejoin:round;">
<text x="73.6490" y="128.4043"
textLength="66.6762" font-size="2.6667" lengthAdjust="spacingAndGlyphs"
text-anchor="start" opacity="0">2.700mm / 0.1063" (4 holes) (not plated)</text>
<g class="stroked-text"><desc>2.700mm / 0.1063" (4 holes) (not plated)</desc>
<path d="M74.1616 126.5096
L74.2568 126.4144
" />
<path d="M74.2568 126.4144
L74.4473 126.3192
" />
<path d="M74.4473 126.3192
L74.9235 126.3192
" />
<path d="M74.9235 126.3192
L75.1139 126.4144
" />
<path d="M75.1139 126.4144
L75.2092 126.5096
" />
<path d="M75.2092 126.5096
L75.3044 126.7001
" />
<path d="M75.3044 126.7001
L75.3044 126.8906
" />
<path d="M75.3044 126.8906
L75.2092 127.1763
" />
<path d="M75.2092 127.1763
L74.0663 128.3192
" />
<path d="M74.0663 128.3192
L75.3044 128.3192
" />
<path d="M76.1616 128.1287
L76.2568 128.2239
" />
<path d="M76.2568 128.2239
L76.1616 128.3192
" />
<path d="M76.1616 128.3192
L76.0663 128.2239
" />
<path d="M76.0663 128.2239
L76.1616 128.1287
" />
<path d="M76.1616 128.1287
L76.1616 128.3192
" />
<path d="M76.9235 126.3192
L78.2568 126.3192
" />
<path d="M78.2568 126.3192
L77.3997 128.3192
" />
<path d="M79.3997 126.3192
L79.5901 126.3192
" />
<path d="M79.5901 126.3192
L79.7806 126.4144
" />
<path d="M79.7806 126.4144
L79.8759 126.5096
" />
<path d="M79.8759 126.5096
L79.9711 126.7001
" />
<path d="M79.9711 126.7001
L80.0663 127.0811
" />
<path d="M80.0663 127.0811
L80.0663 127.5573
" />
<path d="M80.0663 127.5573
L79.9711 127.9382
" />
<path d="M79.9711 127.9382
L79.8759 128.1287
" />
<path d="M79.8759 128.1287
L79.7806 128.2239
" />
<path d="M79.7806 128.2239
L79.5901 128.3192
" />
<path d="M79.5901 128.3192
L79.3997 128.3192
" />
<path d="M79.3997 128.3192
L79.2092 128.2239
" />
<path d="M79.2092 128.2239
L79.1139 128.1287
" />
<path d="M79.1139 128.1287
L79.0187 127.9382
" />
<path d="M79.0187 127.9382
L78.9235 127.5573
" />
<path d="M78.9235 127.5573
L78.9235 127.0811
" />
<path d="M78.9235 127.0811
L79.0187 126.7001
" />
<path d="M79.0187 126.7001
L79.1139 126.5096
" />
<path d="M79.1139 126.5096
L79.2092 126.4144
" />
<path d="M79.2092 126.4144
L79.3997 126.3192
" />
<path d="M81.3044 126.3192
L81.4949 126.3192
" />
<path d="M81.4949 126.3192
L81.6854 126.4144
" />
<path d="M81.6854 126.4144
L81.7806 126.5096
" />
<path d="M81.7806 126.5096
L81.8759 126.7001
" />
<path d="M81.8759 126.7001
L81.9711 127.0811
" />
<path d="M81.9711 127.0811
L81.9711 127.5573
" />
<path d="M81.9711 127.5573
L81.8759 127.9382
" />
<path d="M81.8759 127.9382
L81.7806 128.1287
" />
<path d="M81.7806 128.1287
L81.6854 128.2239
" />
<path d="M81.6854 128.2239
L81.4949 128.3192
" />
<path d="M81.4949 128.3192
L81.3044 128.3192
" />
<path d="M81.3044 128.3192
L81.1139 128.2239
" />
<path d="M81.1139 128.2239
L81.0187 128.1287
" />
<path d="M81.0187 128.1287
L80.9235 127.9382
" />
<path d="M80.9235 127.9382
L80.8282 127.5573
" />
<path d="M80.8282 127.5573
L80.8282 127.0811
" />
<path d="M80.8282 127.0811
L80.9235 126.7001
" />
<path d="M80.9235 126.7001
L81.0187 126.5096
" />
<path d="M81.0187 126.5096
L81.1139 126.4144
" />
<path d="M81.1139 126.4144
L81.3044 126.3192
" />
<path d="M82.8282 128.3192
L82.8282 126.9858
" />
<path d="M82.8282 127.1763
L82.9235 127.0811
" />
<path d="M82.9235 127.0811
L83.1139 126.9858
" />
<path d="M83.1139 126.9858
L83.3997 126.9858
" />
<path d="M83.3997 126.9858
L83.5901 127.0811
" />
<path d="M83.5901 127.0811
L83.6854 127.2715
" />
<path d="M83.6854 127.2715
L83.6854 128.3192
" />
<path d="M83.6854 127.2715
L83.7806 127.0811
" />
<path d="M83.7806 127.0811
L83.9711 126.9858
" />
<path d="M83.9711 126.9858
L84.2568 126.9858
" />
<path d="M84.2568 126.9858
L84.4473 127.0811
" />
<path d="M84.4473 127.0811
L84.5425 127.2715
" />
<path d="M84.5425 127.2715
L84.5425 128.3192
" />
<path d="M85.4949 128.3192
L85.4949 126.9858
" />
<path d="M85.4949 127.1763
L85.5901 127.0811
" />
<path d="M85.5901 127.0811
L85.7806 126.9858
" />
<path d="M85.7806 126.9858
L86.0663 126.9858
" />
<path d="M86.0663 126.9858
L86.2568 127.0811
" />
<path d="M86.2568 127.0811
L86.3520 127.2715
" />
<path d="M86.3520 127.2715
L86.3520 128.3192
" />
<path d="M86.3520 127.2715
L86.4473 127.0811
" />
<path d="M86.4473 127.0811
L86.6378 126.9858
" />
<path d="M86.6378 126.9858
L86.9235 126.9858
" />
<path d="M86.9235 126.9858
L87.1139 127.0811
" />
<path d="M87.1139 127.0811
L87.2092 127.2715
" />
<path d="M87.2092 127.2715
L87.2092 128.3192
" />
<path d="M91.1140 126.2239
L89.3997 128.7954
" />
<path d="M93.6854 126.3192
L93.8759 126.3192
" />
<path d="M93.8759 126.3192
L94.0663 126.4144
" />
<path d="M94.0663 126.4144
L94.1616 126.5096
" />
<path d="M94.1616 126.5096
L94.2568 126.7001
" />
<path d="M94.2568 126.7001
L94.3520 127.0811
" />
<path d="M94.3520 127.0811
L94.3520 127.5573
" />
<path d="M94.3520 127.5573
L94.2568 127.9382
" />
<path d="M94.2568 127.9382
L94.1616 128.1287
" />
<path d="M94.1616 128.1287
L94.0663 128.2239
" />
<path d="M94.0663 128.2239
L93.8759 128.3192
" />
<path d="M93.8759 128.3192
L93.6854 128.3192
" />
<path d="M93.6854 128.3192
L93.4949 128.2239
" />
<path d="M93.4949 128.2239
L93.3997 128.1287
" />
<path d="M93.3997 128.1287
L93.3044 127.9382
" />
<path d="M93.3044 127.9382
L93.2092 127.5573
" />
<path d="M93.2092 127.5573
L93.2092 127.0811
" />
<path d="M93.2092 127.0811
L93.3044 126.7001
" />
<path d="M93.3044 126.7001
L93.3997 126.5096
" />
<path d="M93.3997 126.5096
L93.4949 126.4144
" />
<path d="M93.4949 126.4144
L93.6854 126.3192
" />
<path d="M95.2092 128.1287
L95.3044 128.2239
" />
<path d="M95.3044 128.2239
L95.2092 128.3192
" />
<path d="M95.2092 128.3192
L95.1140 128.2239
" />
<path d="M95.1140 128.2239
L95.2092 128.1287
" />
<path d="M95.2092 128.1287
L95.2092 128.3192
" />
<path d="M97.2092 128.3192
L96.0663 128.3192
" />
<path d="M96.6378 128.3192
L96.6378 126.3192
" />
<path d="M96.6378 126.3192
L96.4473 126.6049
" />
<path d="M96.4473 126.6049
L96.2568 126.7954
" />
<path d="M96.2568 126.7954
L96.0663 126.8906
" />
<path d="M98.4473 126.3192
L98.6378 126.3192
" />
<path d="M98.6378 126.3192
L98.8282 126.4144
" />
<path d="M98.8282 126.4144
L98.9235 126.5096
" />
<path d="M98.9235 126.5096
L99.0187 126.7001
" />
<path d="M99.0187 126.7001
L99.1140 127.0811
" />
<path d="M99.1140 127.0811
L99.1140 127.5573
" />
<path d="M99.1140 127.5573
L99.0187 127.9382
" />
<path d="M99.0187 127.9382
L98.9235 128.1287
" />
<path d="M98.9235 128.1287
L98.8282 128.2239
" />
<path d="M98.8282 128.2239
L98.6378 128.3192
" />
<path d="M98.6378 128.3192
L98.4473 128.3192
" />
<path d="M98.4473 128.3192
L98.2568 128.2239
" />
<path d="M98.2568 128.2239
L98.1616 128.1287
" />
<path d="M98.1616 128.1287
L98.0663 127.9382
" />
<path d="M98.0663 127.9382
L97.9711 127.5573
" />
<path d="M97.9711 127.5573
L97.9711 127.0811
" />
<path d="M97.9711 127.0811
L98.0663 126.7001
" />
<path d="M98.0663 126.7001
L98.1616 126.5096
" />
<path d="M98.1616 126.5096
L98.2568 126.4144
" />
<path d="M98.2568 126.4144
L98.4473 126.3192
" />
<path d="M100.8282 126.3192
L100.4473 126.3192
" />
<path d="M100.4473 126.3192
L100.2568 126.4144
" />
<path d="M100.2568 126.4144
L100.1616 126.5096
" />
<path d="M100.1616 126.5096
L99.9711 126.7954
" />
<path d="M99.9711 126.7954
L99.8759 127.1763
" />
<path d="M99.8759 127.1763
L99.8759 127.9382
" />
<path d="M99.8759 127.9382
L99.9711 128.1287
" />
<path d="M99.9711 128.1287
L100.0663 128.2239
" />
<path d="M100.0663 128.2239
L100.2568 128.3192
" />
<path d="M100.2568 128.3192
L100.6378 128.3192
" />
<path d="M100.6378 128.3192
L100.8282 128.2239
" />
<path d="M100.8282 128.2239
L100.9235 128.1287
" />
<path d="M100.9235 128.1287
L101.0187 127.9382
" />
<path d="M101.0187 127.9382
L101.0187 127.4620
" />
<path d="M101.0187 127.4620
L100.9235 127.2715
" />
<path d="M100.9235 127.2715
L100.8282 127.1763
" />
<path d="M100.8282 127.1763
L100.6378 127.0811
" />
<path d="M100.6378 127.0811
L100.2568 127.0811
" />
<path d="M100.2568 127.0811
L100.0663 127.1763
" />
<path d="M100.0663 127.1763
L99.9711 127.2715
" />
<path d="M99.9711 127.2715
L99.8759 127.4620
" />
<path d="M101.6854 126.3192
L102.9235 126.3192
" />
<path d="M102.9235 126.3192
L102.2568 127.0811
" />
<path d="M102.2568 127.0811
L102.5425 127.0811
" />
<path d="M102.5425 127.0811
L102.7330 127.1763
" />
<path d="M102.7330 127.1763
L102.8282 127.2715
" />
<path d="M102.8282 127.2715
L102.9235 127.4620
" />
<path d="M102.9235 127.4620
L102.9235 127.9382
" />
<path d="M102.9235 127.9382
L102.8282 128.1287
" />
<path d="M102.8282 128.1287
L102.7330 128.2239
" />
<path d="M102.7330 128.2239
L102.5425 128.3192
" />
<path d="M102.5425 128.3192
L101.9711 128.3192
" />
<path d="M101.9711 128.3192
L101.7806 128.2239
" />
<path d="M101.7806 128.2239
L101.6854 128.1287
" />
<path d="M103.6854 126.3192
L103.6854 126.7001
" />
<path d="M104.4473 126.3192
L104.4473 126.7001
" />
<path d="M107.3997 129.0811
L107.3044 128.9858
" />
<path d="M107.3044 128.9858
L107.1140 128.7001
" />
<path d="M107.1140 128.7001
L107.0187 128.5096
" />
<path d="M107.0187 128.5096
L106.9235 128.2239
" />
<path d="M106.9235 128.2239
L106.8282 127.7477
" />
<path d="M106.8282 127.7477
L106.8282 127.3668
" />
<path d="M106.8282 127.3668
L106.9235 126.8906
" />
<path d="M106.9235 126.8906
L107.0187 126.6049
" />
<path d="M107.0187 126.6049
L107.1140 126.4144
" />
<path d="M107.1140 126.4144
L107.3044 126.1287
" />
<path d="M107.3044 126.1287
L107.3997 126.0334
" />
<path d="M109.0187 126.9858
L109.0187 128.3192
" />
<path d="M108.5425 126.2239
L108.0663 127.6525
" />
<path d="M108.0663 127.6525
L109.3044 127.6525
" />
<path d="M111.5902 128.3192
L111.5902 126.3192
" />
<path d="M112.4473 128.3192
L112.4473 127.2715
" />
<path d="M112.4473 127.2715
L112.3521 127.0811
" />
<path d="M112.3521 127.0811
L112.1616 126.9858
" />
<path d="M112.1616 126.9858
L111.8759 126.9858
" />
<path d="M111.8759 126.9858
L111.6854 127.0811
" />
<path d="M111.6854 127.0811
L111.5902 127.1763
" />
<path d="M113.6854 128.3192
L113.4949 128.2239
" />
<path d="M113.4949 128.2239
L113.3997 128.1287
" />
<path d="M113.3997 128.1287
L113.3044 127.9382
" />
<path d="M113.3044 127.9382
L113.3044 127.3668
" />
<path d="M113.3044 127.3668
L113.3997 127.1763
" />
<path d="M113.3997 127.1763
L113.4949 127.0811
" />
<path d="M113.4949 127.0811
L113.6854 126.9858
" />
<path d="M113.6854 126.9858
L113.9711 126.9858
" />
<path d="M113.9711 126.9858
L114.1616 127.0811
" />
<path d="M114.1616 127.0811
L114.2568 127.1763
" />
<path d="M114.2568 127.1763
L114.3521 127.3668
" />
<path d="M114.3521 127.3668
L114.3521 127.9382
" />
<path d="M114.3521 127.9382
L114.2568 128.1287
" />
<path d="M114.2568 128.1287
L114.1616 128.2239
" />
<path d="M114.1616 128.2239
L113.9711 128.3192
" />
<path d="M113.9711 128.3192
L113.6854 128.3192
" />
<path d="M115.4949 128.3192
L115.3044 128.2239
" />
<path d="M115.3044 128.2239
L115.2092 128.0334
" />
<path d="M115.2092 128.0334
L115.2092 126.3192
" />
<path d="M117.0187 128.2239
L116.8282 128.3192
" />
<path d="M116.8282 128.3192
L116.4473 128.3192
" />
<path d="M116.4473 128.3192
L116.2568 128.2239
" />
<path d="M116.2568 128.2239
L116.1616 128.0334
" />
<path d="M116.1616 128.0334
L116.1616 127.2715
" />
<path d="M116.1616 127.2715
L116.2568 127.0811
" />
<path d="M116.2568 127.0811
L116.4473 126.9858
" />
<path d="M116.4473 126.9858
L116.8282 126.9858
" />
<path d="M116.8282 126.9858
L117.0187 127.0811
" />
<path d="M117.0187 127.0811
L117.1140 127.2715
" />
<path d="M117.1140 127.2715
L117.1140 127.4620
" />
<path d="M117.1140 127.4620
L116.1616 127.6525
" />
<path d="M117.8759 128.2239
L118.0663 128.3192
" />
<path d="M118.0663 128.3192
L118.4473 128.3192
" />
<path d="M118.4473 128.3192
L118.6378 128.2239
" />
<path d="M118.6378 128.2239
L118.7330 128.0334
" />
<path d="M118.7330 128.0334
L118.7330 127.9382
" />
<path d="M118.7330 127.9382
L118.6378 127.7477
" />
<path d="M118.6378 127.7477
L118.4473 127.6525
" />
<path d="M118.4473 127.6525
L118.1616 127.6525
" />
<path d="M118.1616 127.6525
L117.9711 127.5573
" />
<path d="M117.9711 127.5573
L117.8759 127.3668
" />
<path d="M117.8759 127.3668
L117.8759 127.2715
" />
<path d="M117.8759 127.2715
L117.9711 127.0811
" />
<path d="M117.9711 127.0811
L118.1616 126.9858
" />
<path d="M118.1616 126.9858
L118.4473 126.9858
" />
<path d="M118.4473 126.9858
L118.6378 127.0811
" />
<path d="M119.3997 129.0811
L119.4949 128.9858
" />
<path d="M119.4949 128.9858
L119.6854 128.7001
" />
<path d="M119.6854 128.7001
L119.7806 128.5096
" />
<path d="M119.7806 128.5096
L119.8759 128.2239
" />
<path d="M119.8759 128.2239
L119.9711 127.7477
" />
<path d="M119.9711 127.7477
L119.9711 127.3668
" />
<path d="M119.9711 127.3668
L119.8759 126.8906
" />
<path d="M119.8759 126.8906
L119.7806 126.6049
" />
<path d="M119.7806 126.6049
L119.6854 126.4144
" />
<path d="M119.6854 126.4144
L119.4949 126.1287
" />
<path d="M119.4949 126.1287
L119.3997 126.0334
" />
<path d="M123.0187 129.0811
L122.9235 128.9858
" />
<path d="M122.9235 128.9858
L122.7330 128.7001
" />
<path d="M122.7330 128.7001
L122.6378 128.5096
" />
<path d="M122.6378 128.5096
L122.5425 128.2239
" />
<path d="M122.5425 128.2239
L122.4473 127.7477
" />
<path d="M122.4473 127.7477
L122.4473 127.3668
" />
<path d="M122.4473 127.3668
L122.5425 126.8906
" />
<path d="M122.5425 126.8906
L122.6378 126.6049
" />
<path d="M122.6378 126.6049
L122.7330 126.4144
" />
<path d="M122.7330 126.4144
L122.9235 126.1287
" />
<path d="M122.9235 126.1287
L123.0187 126.0334
" />
<path d="M123.7806 126.9858
L123.7806 128.3192
" />
<path d="M123.7806 127.1763
L123.8759 127.0811
" />
<path d="M123.8759 127.0811
L124.0663 126.9858
" />
<path d="M124.0663 126.9858
L124.3521 126.9858
" />
<path d="M124.3521 126.9858
L124.5425 127.0811
" />
<path d="M124.5425 127.0811
L124.6378 127.2715
" />
<path d="M124.6378 127.2715
L124.6378 128.3192
" />
<path d="M125.8759 128.3192
L125.6854 128.2239
" />
<path d="M125.6854 128.2239
L125.5902 128.1287
" />
<path d="M125.5902 128.1287
L125.4949 127.9382
" />
<path d="M125.4949 127.9382
L125.4949 127.3668
" />
<path d="M125.4949 127.3668
L125.5902 127.1763
" />
<path d="M125.5902 127.1763
L125.6854 127.0811
" />
<path d="M125.6854 127.0811
L125.8759 126.9858
" />
<path d="M125.8759 126.9858
L126.1616 126.9858
" />
<path d="M126.1616 126.9858
L126.3521 127.0811
" />
<path d="M126.3521 127.0811
L126.4473 127.1763
" />
<path d="M126.4473 127.1763
L126.5425 127.3668
" />
<path d="M126.5425 127.3668
L126.5425 127.9382
" />
<path d="M126.5425 127.9382
L126.4473 128.1287
" />
<path d="M126.4473 128.1287
L126.3521 128.2239
" />
<path d="M126.3521 128.2239
L126.1616 128.3192
" />
<path d="M126.1616 128.3192
L125.8759 128.3192
" />
<path d="M127.1140 126.9858
L127.8759 126.9858
" />
<path d="M127.3997 126.3192
L127.3997 128.0334
" />
<path d="M127.3997 128.0334
L127.4949 128.2239
" />
<path d="M127.4949 128.2239
L127.6854 128.3192
" />
<path d="M127.6854 128.3192
L127.8759 128.3192
" />
<path d="M130.0664 126.9858
L130.0664 128.9858
" />
<path d="M130.0664 127.0811
L130.2568 126.9858
" />
<path d="M130.2568 126.9858
L130.6378 126.9858
" />
<path d="M130.6378 126.9858
L130.8283 127.0811
" />
<path d="M130.8283 127.0811
L130.9235 127.1763
" />
<path d="M130.9235 127.1763
L131.0187 127.3668
" />
<path d="M131.0187 127.3668
L131.0187 127.9382
" />
<path d="M131.0187 127.9382
L130.9235 128.1287
" />
<path d="M130.9235 128.1287
L130.8283 128.2239
" />
<path d="M130.8283 128.2239
L130.6378 128.3192
" />
<path d="M130.6378 128.3192
L130.2568 128.3192
" />
<path d="M130.2568 128.3192
L130.0664 128.2239
" />
<path d="M132.1616 128.3192
L131.9711 128.2239
" />
<path d="M131.9711 128.2239
L131.8759 128.0334
" />
<path d="M131.8759 128.0334
L131.8759 126.3192
" />
<path d="M133.7806 128.3192
L133.7806 127.2715
" />
<path d="M133.7806 127.2715
L133.6854 127.0811
" />
<path d="M133.6854 127.0811
L133.4949 126.9858
" />
<path d="M133.4949 126.9858
L133.1140 126.9858
" />
<path d="M133.1140 126.9858
L132.9235 127.0811
" />
<path d="M133.7806 128.2239
L133.5902 128.3192
" />
<path d="M133.5902 128.3192
L133.1140 128.3192
" />
<path d="M133.1140 128.3192
L132.9235 128.2239
" />
<path d="M132.9235 128.2239
L132.8283 128.0334
" />
<path d="M132.8283 128.0334
L132.8283 127.8430
" />
<path d="M132.8283 127.8430
L132.9235 127.6525
" />
<path d="M132.9235 127.6525
L133.1140 127.5573
" />
<path d="M133.1140 127.5573
L133.5902 127.5573
" />
<path d="M133.5902 127.5573
L133.7806 127.4620
" />
<path d="M134.4473 126.9858
L135.2092 126.9858
" />
<path d="M134.7330 126.3192
L134.7330 128.0334
" />
<path d="M134.7330 128.0334
L134.8283 128.2239
" />
<path d="M134.8283 128.2239
L135.0187 128.3192
" />
<path d="M135.0187 128.3192
L135.2092 128.3192
" />
<path d="M136.6378 128.2239
L136.4473 128.3192
" />
<path d="M136.4473 128.3192
L136.0664 128.3192
" />
<path d="M136.0664 128.3192
L135.8759 128.2239
" />
<path d="M135.8759 128.2239
L135.7806 128.0334
" />
<path d="M135.7806 128.0334
L135.7806 127.2715
" />
<path d="M135.7806 127.2715
L135.8759 127.0811
" />
<path d="M135.8759 127.0811
L136.0664 126.9858
" />
<path d="M136.0664 126.9858
L136.4473 126.9858
" />
<path d="M136.4473 126.9858
L136.6378 127.0811
" />
<path d="M136.6378 127.0811
L136.7330 127.2715
" />
<path d="M136.7330 127.2715
L136.7330 127.4620
" />
<path d="M136.7330 127.4620
L135.7806 127.6525
" />
<path d="M138.4473 128.3192
L138.4473 126.3192
" />
<path d="M138.4473 128.2239
L138.2568 128.3192
" />
<path d="M138.2568 128.3192
L137.8759 128.3192
" />
<path d="M137.8759 128.3192
L137.6854 128.2239
" />
<path d="M137.6854 128.2239
L137.5902 128.1287
" />
<path d="M137.5902 128.1287
L137.4949 127.9382
" />
<path d="M137.4949 127.9382
L137.4949 127.3668
" />
<path d="M137.4949 127.3668
L137.5902 127.1763
" />
<path d="M137.5902 127.1763
L137.6854 127.0811
" />
<path d="M137.6854 127.0811
L137.8759 126.9858
" />
<path d="M137.8759 126.9858
L138.2568 126.9858
" />
<path d="M138.2568 126.9858
L138.4473 127.0811
" />
<path d="M139.2092 129.0811
L139.3045 128.9858
" />
<path d="M139.3045 128.9858
L139.4949 128.7001
" />
<path d="M139.4949 128.7001
L139.5902 128.5096
" />
<path d="M139.5902 128.5096
L139.6854 128.2239
" />
<path d="M139.6854 128.2239
L139.7806 127.7477
" />
<path d="M139.7806 127.7477
L139.7806 127.3668
" />
<path d="M139.7806 127.3668
L139.6854 126.8906
" />
<path d="M139.6854 126.8906
L139.5902 126.6049
" />
<path d="M139.5902 126.6049
L139.4949 126.4144
" />
<path d="M139.4949 126.4144
L139.3045 126.1287
" />
<path d="M139.3045 126.1287
L139.2092 126.0334
" />
</g></g> 
</svg>
