M48
; DRILL file {KiCad 7.0.10} date Tue Feb  6 11:08:14 2024
; FORMAT={-:-/ absolute / inch / decimal}
; #@! TF.CreationDate,2024-02-06T11:08:14-09:00
; #@! TF.GenerationSoftware,Kicad,Pcbnew,7.0.10
; #@! TF.FileFunction,Plated,1,2,PTH
FMAT,2
INCH
; #@! TA.AperFunction,Plated,PTH,ComponentDrill
T1C0.0315
; #@! TA.AperFunction,Plated,PTH,ComponentDrill
T2C0.0394
%
G90
G05
T1
X4.3Y-3.8587
X4.3Y-4.3587
X4.4Y-3.8587
X4.4Y-4.3587
X4.5Y-3.8587
X4.5Y-4.3587
X4.6Y-3.8587
X4.6Y-4.3587
X4.7Y-3.8587
X4.7Y-4.3587
X4.8Y-3.8587
X4.8Y-4.3587
X4.9Y-3.8587
X4.9Y-4.3587
X5.0Y-3.8587
X5.0Y-4.3587
X5.95Y-3.156
X5.95Y-3.3529
T2
X4.5Y-3.5593
X4.6Y-3.5593
X4.7Y-3.5593
X4.8Y-3.5593
X5.4Y-3.7583
X5.4Y-4.3583
X5.5Y-3.7583
X5.5Y-4.3583
X5.6Y-3.5583
X5.6Y-3.7583
X5.6Y-4.3583
X5.7Y-3.7583
X5.7Y-4.3583
X5.8Y-3.7583
X5.8Y-4.3583
X5.9Y-3.7583
X5.9Y-4.3583
X6.0Y-3.7583
X6.0Y-4.3583
X6.1Y-3.7583
X6.1Y-4.3583
X6.1Y-4.5083
X6.2Y-3.7583
X6.2Y-4.3583
X6.3Y-3.7583
X6.3Y-4.3583
X6.4Y-3.7583
X6.4Y-4.3583
X6.5Y-3.7583
X6.5Y-4.3583
X6.6Y-3.7583
X6.6Y-4.3583
X6.7Y-3.7583
X6.7Y-4.3583
X6.8Y-3.7583
X6.8Y-4.3583
T2
G00X6.5138Y-3.3976
M15
G01X6.5138Y-3.3189
M16
G05
G00X6.6713Y-3.1732
M15
G01X6.5925Y-3.1732
M16
G05
G00X6.75Y-3.3976
M15
G01X6.75Y-3.3189
M16
G05
M30
