%TF.GenerationSoftware,KiCad,Pcbnew,7.0.10*%
%TF.CreationDate,2024-01-30T03:11:26-09:00*%
%TF.ProjectId,CustomPCB,43757374-6f6d-4504-9342-2e6b69636164,rev?*%
%TF.SameCoordinates,Original*%
%TF.FileFunction,Soldermask,Bot*%
%TF.FilePolarity,Negative*%
%FSLAX46Y46*%
G04 Gerber Fmt 4.6, Leading zero omitted, Abs format (unit mm)*
G04 Created by KiCad (PCBNEW 7.0.10) date 2024-01-30 03:11:26*
%MOMM*%
%LPD*%
G01*
G04 APERTURE LIST*
G04 Aperture macros list*
%AMRoundRect*
0 Rectangle with rounded corners*
0 $1 Rounding radius*
0 $2 $3 $4 $5 $6 $7 $8 $9 X,Y pos of 4 corners*
0 Add a 4 corners polygon primitive as box body*
4,1,4,$2,$3,$4,$5,$6,$7,$8,$9,$2,$3,0*
0 Add four circle primitives for the rounded corners*
1,1,$1+$1,$2,$3*
1,1,$1+$1,$4,$5*
1,1,$1+$1,$6,$7*
1,1,$1+$1,$8,$9*
0 Add four rect primitives between the rounded corners*
20,1,$1+$1,$2,$3,$4,$5,0*
20,1,$1+$1,$4,$5,$6,$7,0*
20,1,$1+$1,$6,$7,$8,$9,0*
20,1,$1+$1,$8,$9,$2,$3,0*%
G04 Aperture macros list end*
%ADD10C,2.700000*%
%ADD11R,3.500000X3.500000*%
%ADD12RoundRect,0.750000X0.750000X1.000000X-0.750000X1.000000X-0.750000X-1.000000X0.750000X-1.000000X0*%
%ADD13RoundRect,0.875000X0.875000X0.875000X-0.875000X0.875000X-0.875000X-0.875000X0.875000X-0.875000X0*%
%ADD14R,1.700000X1.700000*%
%ADD15O,1.700000X1.700000*%
%ADD16R,1.600000X1.600000*%
%ADD17C,1.600000*%
%ADD18O,1.600000X1.600000*%
G04 APERTURE END LIST*
D10*
%TO.C,M2.5*%
X111760000Y-118320000D03*
%TD*%
%TO.C,M2.5*%
X111760000Y-73870000D03*
%TD*%
%TO.C,M2.5*%
X173990000Y-118320000D03*
%TD*%
%TO.C,M2.5*%
X173990000Y-73870000D03*
%TD*%
D11*
%TO.C,J4*%
X165450000Y-85300000D03*
D12*
X171450000Y-85300000D03*
D13*
X168450000Y-80600000D03*
%TD*%
D14*
%TO.C,J3*%
X142240000Y-90380000D03*
%TD*%
%TO.C,J2*%
X154940000Y-114510000D03*
%TD*%
%TO.C,J1*%
X121920000Y-90405000D03*
D15*
X119380000Y-90405000D03*
X116840000Y-90405000D03*
X114300000Y-90405000D03*
%TD*%
D16*
%TO.C,C1*%
X151130000Y-85162651D03*
D17*
X151130000Y-80162651D03*
%TD*%
D16*
%TO.C,A2*%
X127000000Y-98010000D03*
D18*
X124460000Y-98010000D03*
X121920000Y-98010000D03*
X119380000Y-98010000D03*
X116840000Y-98010000D03*
X114300000Y-98010000D03*
X111760000Y-98010000D03*
X109220000Y-98010000D03*
X109220000Y-110710000D03*
X111760000Y-110710000D03*
X114300000Y-110710000D03*
X116840000Y-110710000D03*
X119380000Y-110710000D03*
X121920000Y-110710000D03*
X124460000Y-110710000D03*
X127000000Y-110710000D03*
%TD*%
D16*
%TO.C,A1*%
X137160000Y-110700000D03*
D18*
X139700000Y-110700000D03*
X142240000Y-110700000D03*
X144780000Y-110700000D03*
X147320000Y-110700000D03*
X149860000Y-110700000D03*
X152400000Y-110700000D03*
X154940000Y-110700000D03*
X157480000Y-110700000D03*
X160020000Y-110700000D03*
X162560000Y-110700000D03*
X165100000Y-110700000D03*
X167640000Y-110700000D03*
X170180000Y-110700000D03*
X172720000Y-110700000D03*
X172720000Y-95460000D03*
X170180000Y-95460000D03*
X167640000Y-95460000D03*
X165100000Y-95460000D03*
X162560000Y-95460000D03*
X160020000Y-95460000D03*
X157480000Y-95460000D03*
X154940000Y-95460000D03*
X152400000Y-95460000D03*
X149860000Y-95460000D03*
X147320000Y-95460000D03*
X144780000Y-95460000D03*
X142240000Y-95460000D03*
X139700000Y-95460000D03*
X137160000Y-95460000D03*
%TD*%
M02*
