%TF.GenerationSoftware,KiCad,Pcbnew,7.0.10*%
%TF.CreationDate,2024-02-06T11:08:26-09:00*%
%TF.ProjectId,CustomPCB,43757374-6f6d-4504-9342-2e6b69636164,rev?*%
%TF.SameCoordinates,Original*%
%TF.FileFunction,Legend,Top*%
%TF.FilePolarity,Positive*%
%FSLAX46Y46*%
G04 Gerber Fmt 4.6, Leading zero omitted, Abs format (unit mm)*
G04 Created by KiCad (PCBNEW 7.0.10) date 2024-02-06 11:08:26*
%MOMM*%
%LPD*%
G01*
G04 APERTURE LIST*
%ADD10C,0.600000*%
%ADD11C,0.150000*%
%ADD12C,0.120000*%
G04 APERTURE END LIST*
D10*
X118306164Y-71328085D02*
X118306164Y-74970942D01*
X118306164Y-74970942D02*
X118520450Y-75399514D01*
X118520450Y-75399514D02*
X118734736Y-75613800D01*
X118734736Y-75613800D02*
X119163307Y-75828085D01*
X119163307Y-75828085D02*
X120020450Y-75828085D01*
X120020450Y-75828085D02*
X120449021Y-75613800D01*
X120449021Y-75613800D02*
X120663307Y-75399514D01*
X120663307Y-75399514D02*
X120877593Y-74970942D01*
X120877593Y-74970942D02*
X120877593Y-71328085D01*
X122806164Y-74542371D02*
X124949022Y-74542371D01*
X122377593Y-75828085D02*
X123877593Y-71328085D01*
X123877593Y-71328085D02*
X125377593Y-75828085D01*
X126663307Y-74542371D02*
X128806165Y-74542371D01*
X126234736Y-75828085D02*
X127734736Y-71328085D01*
X127734736Y-71328085D02*
X129234736Y-75828085D01*
X136734736Y-75828085D02*
X135234736Y-73685228D01*
X134163307Y-75828085D02*
X134163307Y-71328085D01*
X134163307Y-71328085D02*
X135877593Y-71328085D01*
X135877593Y-71328085D02*
X136306164Y-71542371D01*
X136306164Y-71542371D02*
X136520450Y-71756657D01*
X136520450Y-71756657D02*
X136734736Y-72185228D01*
X136734736Y-72185228D02*
X136734736Y-72828085D01*
X136734736Y-72828085D02*
X136520450Y-73256657D01*
X136520450Y-73256657D02*
X136306164Y-73470942D01*
X136306164Y-73470942D02*
X135877593Y-73685228D01*
X135877593Y-73685228D02*
X134163307Y-73685228D01*
X139520450Y-71328085D02*
X140377593Y-71328085D01*
X140377593Y-71328085D02*
X140806164Y-71542371D01*
X140806164Y-71542371D02*
X141234736Y-71970942D01*
X141234736Y-71970942D02*
X141449021Y-72828085D01*
X141449021Y-72828085D02*
X141449021Y-74328085D01*
X141449021Y-74328085D02*
X141234736Y-75185228D01*
X141234736Y-75185228D02*
X140806164Y-75613800D01*
X140806164Y-75613800D02*
X140377593Y-75828085D01*
X140377593Y-75828085D02*
X139520450Y-75828085D01*
X139520450Y-75828085D02*
X139091879Y-75613800D01*
X139091879Y-75613800D02*
X138663307Y-75185228D01*
X138663307Y-75185228D02*
X138449021Y-74328085D01*
X138449021Y-74328085D02*
X138449021Y-72828085D01*
X138449021Y-72828085D02*
X138663307Y-71970942D01*
X138663307Y-71970942D02*
X139091879Y-71542371D01*
X139091879Y-71542371D02*
X139520450Y-71328085D01*
X144877593Y-73470942D02*
X145520450Y-73685228D01*
X145520450Y-73685228D02*
X145734736Y-73899514D01*
X145734736Y-73899514D02*
X145949022Y-74328085D01*
X145949022Y-74328085D02*
X145949022Y-74970942D01*
X145949022Y-74970942D02*
X145734736Y-75399514D01*
X145734736Y-75399514D02*
X145520450Y-75613800D01*
X145520450Y-75613800D02*
X145091879Y-75828085D01*
X145091879Y-75828085D02*
X143377593Y-75828085D01*
X143377593Y-75828085D02*
X143377593Y-71328085D01*
X143377593Y-71328085D02*
X144877593Y-71328085D01*
X144877593Y-71328085D02*
X145306165Y-71542371D01*
X145306165Y-71542371D02*
X145520450Y-71756657D01*
X145520450Y-71756657D02*
X145734736Y-72185228D01*
X145734736Y-72185228D02*
X145734736Y-72613800D01*
X145734736Y-72613800D02*
X145520450Y-73042371D01*
X145520450Y-73042371D02*
X145306165Y-73256657D01*
X145306165Y-73256657D02*
X144877593Y-73470942D01*
X144877593Y-73470942D02*
X143377593Y-73470942D01*
X148734736Y-71328085D02*
X149591879Y-71328085D01*
X149591879Y-71328085D02*
X150020450Y-71542371D01*
X150020450Y-71542371D02*
X150449022Y-71970942D01*
X150449022Y-71970942D02*
X150663307Y-72828085D01*
X150663307Y-72828085D02*
X150663307Y-74328085D01*
X150663307Y-74328085D02*
X150449022Y-75185228D01*
X150449022Y-75185228D02*
X150020450Y-75613800D01*
X150020450Y-75613800D02*
X149591879Y-75828085D01*
X149591879Y-75828085D02*
X148734736Y-75828085D01*
X148734736Y-75828085D02*
X148306165Y-75613800D01*
X148306165Y-75613800D02*
X147877593Y-75185228D01*
X147877593Y-75185228D02*
X147663307Y-74328085D01*
X147663307Y-74328085D02*
X147663307Y-72828085D01*
X147663307Y-72828085D02*
X147877593Y-71970942D01*
X147877593Y-71970942D02*
X148306165Y-71542371D01*
X148306165Y-71542371D02*
X148734736Y-71328085D01*
X151949022Y-71328085D02*
X154520451Y-71328085D01*
X153234736Y-75828085D02*
X153234736Y-71328085D01*
X156020450Y-75828085D02*
X156020450Y-71328085D01*
X160734736Y-75399514D02*
X160520450Y-75613800D01*
X160520450Y-75613800D02*
X159877593Y-75828085D01*
X159877593Y-75828085D02*
X159449021Y-75828085D01*
X159449021Y-75828085D02*
X158806164Y-75613800D01*
X158806164Y-75613800D02*
X158377593Y-75185228D01*
X158377593Y-75185228D02*
X158163307Y-74756657D01*
X158163307Y-74756657D02*
X157949021Y-73899514D01*
X157949021Y-73899514D02*
X157949021Y-73256657D01*
X157949021Y-73256657D02*
X158163307Y-72399514D01*
X158163307Y-72399514D02*
X158377593Y-71970942D01*
X158377593Y-71970942D02*
X158806164Y-71542371D01*
X158806164Y-71542371D02*
X159449021Y-71328085D01*
X159449021Y-71328085D02*
X159877593Y-71328085D01*
X159877593Y-71328085D02*
X160520450Y-71542371D01*
X160520450Y-71542371D02*
X160734736Y-71756657D01*
X162449021Y-75613800D02*
X163091879Y-75828085D01*
X163091879Y-75828085D02*
X164163307Y-75828085D01*
X164163307Y-75828085D02*
X164591879Y-75613800D01*
X164591879Y-75613800D02*
X164806164Y-75399514D01*
X164806164Y-75399514D02*
X165020450Y-74970942D01*
X165020450Y-74970942D02*
X165020450Y-74542371D01*
X165020450Y-74542371D02*
X164806164Y-74113800D01*
X164806164Y-74113800D02*
X164591879Y-73899514D01*
X164591879Y-73899514D02*
X164163307Y-73685228D01*
X164163307Y-73685228D02*
X163306164Y-73470942D01*
X163306164Y-73470942D02*
X162877593Y-73256657D01*
X162877593Y-73256657D02*
X162663307Y-73042371D01*
X162663307Y-73042371D02*
X162449021Y-72613800D01*
X162449021Y-72613800D02*
X162449021Y-72185228D01*
X162449021Y-72185228D02*
X162663307Y-71756657D01*
X162663307Y-71756657D02*
X162877593Y-71542371D01*
X162877593Y-71542371D02*
X163306164Y-71328085D01*
X163306164Y-71328085D02*
X164377593Y-71328085D01*
X164377593Y-71328085D02*
X165020450Y-71542371D01*
D11*
X168542857Y-89354819D02*
X168542857Y-88354819D01*
X168542857Y-88354819D02*
X168780952Y-88354819D01*
X168780952Y-88354819D02*
X168923809Y-88402438D01*
X168923809Y-88402438D02*
X169019047Y-88497676D01*
X169019047Y-88497676D02*
X169066666Y-88592914D01*
X169066666Y-88592914D02*
X169114285Y-88783390D01*
X169114285Y-88783390D02*
X169114285Y-88926247D01*
X169114285Y-88926247D02*
X169066666Y-89116723D01*
X169066666Y-89116723D02*
X169019047Y-89211961D01*
X169019047Y-89211961D02*
X168923809Y-89307200D01*
X168923809Y-89307200D02*
X168780952Y-89354819D01*
X168780952Y-89354819D02*
X168542857Y-89354819D01*
X170114285Y-89259580D02*
X170066666Y-89307200D01*
X170066666Y-89307200D02*
X169923809Y-89354819D01*
X169923809Y-89354819D02*
X169828571Y-89354819D01*
X169828571Y-89354819D02*
X169685714Y-89307200D01*
X169685714Y-89307200D02*
X169590476Y-89211961D01*
X169590476Y-89211961D02*
X169542857Y-89116723D01*
X169542857Y-89116723D02*
X169495238Y-88926247D01*
X169495238Y-88926247D02*
X169495238Y-88783390D01*
X169495238Y-88783390D02*
X169542857Y-88592914D01*
X169542857Y-88592914D02*
X169590476Y-88497676D01*
X169590476Y-88497676D02*
X169685714Y-88402438D01*
X169685714Y-88402438D02*
X169828571Y-88354819D01*
X169828571Y-88354819D02*
X169923809Y-88354819D01*
X169923809Y-88354819D02*
X170066666Y-88402438D01*
X170066666Y-88402438D02*
X170114285Y-88450057D01*
X171304762Y-89354819D02*
X171304762Y-88354819D01*
X171304762Y-88354819D02*
X171685714Y-88354819D01*
X171685714Y-88354819D02*
X171780952Y-88402438D01*
X171780952Y-88402438D02*
X171828571Y-88450057D01*
X171828571Y-88450057D02*
X171876190Y-88545295D01*
X171876190Y-88545295D02*
X171876190Y-88688152D01*
X171876190Y-88688152D02*
X171828571Y-88783390D01*
X171828571Y-88783390D02*
X171780952Y-88831009D01*
X171780952Y-88831009D02*
X171685714Y-88878628D01*
X171685714Y-88878628D02*
X171304762Y-88878628D01*
X172447619Y-89354819D02*
X172352381Y-89307200D01*
X172352381Y-89307200D02*
X172304762Y-89259580D01*
X172304762Y-89259580D02*
X172257143Y-89164342D01*
X172257143Y-89164342D02*
X172257143Y-88878628D01*
X172257143Y-88878628D02*
X172304762Y-88783390D01*
X172304762Y-88783390D02*
X172352381Y-88735771D01*
X172352381Y-88735771D02*
X172447619Y-88688152D01*
X172447619Y-88688152D02*
X172590476Y-88688152D01*
X172590476Y-88688152D02*
X172685714Y-88735771D01*
X172685714Y-88735771D02*
X172733333Y-88783390D01*
X172733333Y-88783390D02*
X172780952Y-88878628D01*
X172780952Y-88878628D02*
X172780952Y-89164342D01*
X172780952Y-89164342D02*
X172733333Y-89259580D01*
X172733333Y-89259580D02*
X172685714Y-89307200D01*
X172685714Y-89307200D02*
X172590476Y-89354819D01*
X172590476Y-89354819D02*
X172447619Y-89354819D01*
X173114286Y-88688152D02*
X173304762Y-89354819D01*
X173304762Y-89354819D02*
X173495238Y-88878628D01*
X173495238Y-88878628D02*
X173685714Y-89354819D01*
X173685714Y-89354819D02*
X173876190Y-88688152D01*
X174638095Y-89307200D02*
X174542857Y-89354819D01*
X174542857Y-89354819D02*
X174352381Y-89354819D01*
X174352381Y-89354819D02*
X174257143Y-89307200D01*
X174257143Y-89307200D02*
X174209524Y-89211961D01*
X174209524Y-89211961D02*
X174209524Y-88831009D01*
X174209524Y-88831009D02*
X174257143Y-88735771D01*
X174257143Y-88735771D02*
X174352381Y-88688152D01*
X174352381Y-88688152D02*
X174542857Y-88688152D01*
X174542857Y-88688152D02*
X174638095Y-88735771D01*
X174638095Y-88735771D02*
X174685714Y-88831009D01*
X174685714Y-88831009D02*
X174685714Y-88926247D01*
X174685714Y-88926247D02*
X174209524Y-89021485D01*
X175114286Y-89354819D02*
X175114286Y-88688152D01*
X175114286Y-88878628D02*
X175161905Y-88783390D01*
X175161905Y-88783390D02*
X175209524Y-88735771D01*
X175209524Y-88735771D02*
X175304762Y-88688152D01*
X175304762Y-88688152D02*
X175400000Y-88688152D01*
X170744819Y-75393808D02*
X169744819Y-75393808D01*
X169744819Y-75393808D02*
X170459104Y-75060475D01*
X170459104Y-75060475D02*
X169744819Y-74727142D01*
X169744819Y-74727142D02*
X170744819Y-74727142D01*
X169840057Y-74298570D02*
X169792438Y-74250951D01*
X169792438Y-74250951D02*
X169744819Y-74155713D01*
X169744819Y-74155713D02*
X169744819Y-73917618D01*
X169744819Y-73917618D02*
X169792438Y-73822380D01*
X169792438Y-73822380D02*
X169840057Y-73774761D01*
X169840057Y-73774761D02*
X169935295Y-73727142D01*
X169935295Y-73727142D02*
X170030533Y-73727142D01*
X170030533Y-73727142D02*
X170173390Y-73774761D01*
X170173390Y-73774761D02*
X170744819Y-74346189D01*
X170744819Y-74346189D02*
X170744819Y-73727142D01*
X170649580Y-73298570D02*
X170697200Y-73250951D01*
X170697200Y-73250951D02*
X170744819Y-73298570D01*
X170744819Y-73298570D02*
X170697200Y-73346189D01*
X170697200Y-73346189D02*
X170649580Y-73298570D01*
X170649580Y-73298570D02*
X170744819Y-73298570D01*
X169744819Y-72346190D02*
X169744819Y-72822380D01*
X169744819Y-72822380D02*
X170221009Y-72869999D01*
X170221009Y-72869999D02*
X170173390Y-72822380D01*
X170173390Y-72822380D02*
X170125771Y-72727142D01*
X170125771Y-72727142D02*
X170125771Y-72489047D01*
X170125771Y-72489047D02*
X170173390Y-72393809D01*
X170173390Y-72393809D02*
X170221009Y-72346190D01*
X170221009Y-72346190D02*
X170316247Y-72298571D01*
X170316247Y-72298571D02*
X170554342Y-72298571D01*
X170554342Y-72298571D02*
X170649580Y-72346190D01*
X170649580Y-72346190D02*
X170697200Y-72393809D01*
X170697200Y-72393809D02*
X170744819Y-72489047D01*
X170744819Y-72489047D02*
X170744819Y-72727142D01*
X170744819Y-72727142D02*
X170697200Y-72822380D01*
X170697200Y-72822380D02*
X170649580Y-72869999D01*
X108514819Y-119843808D02*
X107514819Y-119843808D01*
X107514819Y-119843808D02*
X108229104Y-119510475D01*
X108229104Y-119510475D02*
X107514819Y-119177142D01*
X107514819Y-119177142D02*
X108514819Y-119177142D01*
X107610057Y-118748570D02*
X107562438Y-118700951D01*
X107562438Y-118700951D02*
X107514819Y-118605713D01*
X107514819Y-118605713D02*
X107514819Y-118367618D01*
X107514819Y-118367618D02*
X107562438Y-118272380D01*
X107562438Y-118272380D02*
X107610057Y-118224761D01*
X107610057Y-118224761D02*
X107705295Y-118177142D01*
X107705295Y-118177142D02*
X107800533Y-118177142D01*
X107800533Y-118177142D02*
X107943390Y-118224761D01*
X107943390Y-118224761D02*
X108514819Y-118796189D01*
X108514819Y-118796189D02*
X108514819Y-118177142D01*
X108419580Y-117748570D02*
X108467200Y-117700951D01*
X108467200Y-117700951D02*
X108514819Y-117748570D01*
X108514819Y-117748570D02*
X108467200Y-117796189D01*
X108467200Y-117796189D02*
X108419580Y-117748570D01*
X108419580Y-117748570D02*
X108514819Y-117748570D01*
X107514819Y-116796190D02*
X107514819Y-117272380D01*
X107514819Y-117272380D02*
X107991009Y-117319999D01*
X107991009Y-117319999D02*
X107943390Y-117272380D01*
X107943390Y-117272380D02*
X107895771Y-117177142D01*
X107895771Y-117177142D02*
X107895771Y-116939047D01*
X107895771Y-116939047D02*
X107943390Y-116843809D01*
X107943390Y-116843809D02*
X107991009Y-116796190D01*
X107991009Y-116796190D02*
X108086247Y-116748571D01*
X108086247Y-116748571D02*
X108324342Y-116748571D01*
X108324342Y-116748571D02*
X108419580Y-116796190D01*
X108419580Y-116796190D02*
X108467200Y-116843809D01*
X108467200Y-116843809D02*
X108514819Y-116939047D01*
X108514819Y-116939047D02*
X108514819Y-117177142D01*
X108514819Y-117177142D02*
X108467200Y-117272380D01*
X108467200Y-117272380D02*
X108419580Y-117319999D01*
X170744819Y-119843808D02*
X169744819Y-119843808D01*
X169744819Y-119843808D02*
X170459104Y-119510475D01*
X170459104Y-119510475D02*
X169744819Y-119177142D01*
X169744819Y-119177142D02*
X170744819Y-119177142D01*
X169840057Y-118748570D02*
X169792438Y-118700951D01*
X169792438Y-118700951D02*
X169744819Y-118605713D01*
X169744819Y-118605713D02*
X169744819Y-118367618D01*
X169744819Y-118367618D02*
X169792438Y-118272380D01*
X169792438Y-118272380D02*
X169840057Y-118224761D01*
X169840057Y-118224761D02*
X169935295Y-118177142D01*
X169935295Y-118177142D02*
X170030533Y-118177142D01*
X170030533Y-118177142D02*
X170173390Y-118224761D01*
X170173390Y-118224761D02*
X170744819Y-118796189D01*
X170744819Y-118796189D02*
X170744819Y-118177142D01*
X170649580Y-117748570D02*
X170697200Y-117700951D01*
X170697200Y-117700951D02*
X170744819Y-117748570D01*
X170744819Y-117748570D02*
X170697200Y-117796189D01*
X170697200Y-117796189D02*
X170649580Y-117748570D01*
X170649580Y-117748570D02*
X170744819Y-117748570D01*
X169744819Y-116796190D02*
X169744819Y-117272380D01*
X169744819Y-117272380D02*
X170221009Y-117319999D01*
X170221009Y-117319999D02*
X170173390Y-117272380D01*
X170173390Y-117272380D02*
X170125771Y-117177142D01*
X170125771Y-117177142D02*
X170125771Y-116939047D01*
X170125771Y-116939047D02*
X170173390Y-116843809D01*
X170173390Y-116843809D02*
X170221009Y-116796190D01*
X170221009Y-116796190D02*
X170316247Y-116748571D01*
X170316247Y-116748571D02*
X170554342Y-116748571D01*
X170554342Y-116748571D02*
X170649580Y-116796190D01*
X170649580Y-116796190D02*
X170697200Y-116843809D01*
X170697200Y-116843809D02*
X170744819Y-116939047D01*
X170744819Y-116939047D02*
X170744819Y-117177142D01*
X170744819Y-117177142D02*
X170697200Y-117272380D01*
X170697200Y-117272380D02*
X170649580Y-117319999D01*
X132249104Y-105675237D02*
X132249104Y-105199047D01*
X132534819Y-105770475D02*
X131534819Y-105437142D01*
X131534819Y-105437142D02*
X132534819Y-105103809D01*
X132534819Y-104770475D02*
X131868152Y-104770475D01*
X132058628Y-104770475D02*
X131963390Y-104722856D01*
X131963390Y-104722856D02*
X131915771Y-104675237D01*
X131915771Y-104675237D02*
X131868152Y-104579999D01*
X131868152Y-104579999D02*
X131868152Y-104484761D01*
X132534819Y-103722856D02*
X131534819Y-103722856D01*
X132487200Y-103722856D02*
X132534819Y-103818094D01*
X132534819Y-103818094D02*
X132534819Y-104008570D01*
X132534819Y-104008570D02*
X132487200Y-104103808D01*
X132487200Y-104103808D02*
X132439580Y-104151427D01*
X132439580Y-104151427D02*
X132344342Y-104199046D01*
X132344342Y-104199046D02*
X132058628Y-104199046D01*
X132058628Y-104199046D02*
X131963390Y-104151427D01*
X131963390Y-104151427D02*
X131915771Y-104103808D01*
X131915771Y-104103808D02*
X131868152Y-104008570D01*
X131868152Y-104008570D02*
X131868152Y-103818094D01*
X131868152Y-103818094D02*
X131915771Y-103722856D01*
X131868152Y-102818094D02*
X132534819Y-102818094D01*
X131868152Y-103246665D02*
X132391961Y-103246665D01*
X132391961Y-103246665D02*
X132487200Y-103199046D01*
X132487200Y-103199046D02*
X132534819Y-103103808D01*
X132534819Y-103103808D02*
X132534819Y-102960951D01*
X132534819Y-102960951D02*
X132487200Y-102865713D01*
X132487200Y-102865713D02*
X132439580Y-102818094D01*
X132534819Y-102341903D02*
X131868152Y-102341903D01*
X131534819Y-102341903D02*
X131582438Y-102389522D01*
X131582438Y-102389522D02*
X131630057Y-102341903D01*
X131630057Y-102341903D02*
X131582438Y-102294284D01*
X131582438Y-102294284D02*
X131534819Y-102341903D01*
X131534819Y-102341903D02*
X131630057Y-102341903D01*
X131868152Y-101865713D02*
X132534819Y-101865713D01*
X131963390Y-101865713D02*
X131915771Y-101818094D01*
X131915771Y-101818094D02*
X131868152Y-101722856D01*
X131868152Y-101722856D02*
X131868152Y-101579999D01*
X131868152Y-101579999D02*
X131915771Y-101484761D01*
X131915771Y-101484761D02*
X132011009Y-101437142D01*
X132011009Y-101437142D02*
X132534819Y-101437142D01*
X132534819Y-100818094D02*
X132487200Y-100913332D01*
X132487200Y-100913332D02*
X132439580Y-100960951D01*
X132439580Y-100960951D02*
X132344342Y-101008570D01*
X132344342Y-101008570D02*
X132058628Y-101008570D01*
X132058628Y-101008570D02*
X131963390Y-100960951D01*
X131963390Y-100960951D02*
X131915771Y-100913332D01*
X131915771Y-100913332D02*
X131868152Y-100818094D01*
X131868152Y-100818094D02*
X131868152Y-100675237D01*
X131868152Y-100675237D02*
X131915771Y-100579999D01*
X131915771Y-100579999D02*
X131963390Y-100532380D01*
X131963390Y-100532380D02*
X132058628Y-100484761D01*
X132058628Y-100484761D02*
X132344342Y-100484761D01*
X132344342Y-100484761D02*
X132439580Y-100532380D01*
X132439580Y-100532380D02*
X132487200Y-100579999D01*
X132487200Y-100579999D02*
X132534819Y-100675237D01*
X132534819Y-100675237D02*
X132534819Y-100818094D01*
X172174819Y-104341904D02*
X172984342Y-104341904D01*
X172984342Y-104341904D02*
X173079580Y-104294285D01*
X173079580Y-104294285D02*
X173127200Y-104246666D01*
X173127200Y-104246666D02*
X173174819Y-104151428D01*
X173174819Y-104151428D02*
X173174819Y-103960952D01*
X173174819Y-103960952D02*
X173127200Y-103865714D01*
X173127200Y-103865714D02*
X173079580Y-103818095D01*
X173079580Y-103818095D02*
X172984342Y-103770476D01*
X172984342Y-103770476D02*
X172174819Y-103770476D01*
X173127200Y-103341904D02*
X173174819Y-103199047D01*
X173174819Y-103199047D02*
X173174819Y-102960952D01*
X173174819Y-102960952D02*
X173127200Y-102865714D01*
X173127200Y-102865714D02*
X173079580Y-102818095D01*
X173079580Y-102818095D02*
X172984342Y-102770476D01*
X172984342Y-102770476D02*
X172889104Y-102770476D01*
X172889104Y-102770476D02*
X172793866Y-102818095D01*
X172793866Y-102818095D02*
X172746247Y-102865714D01*
X172746247Y-102865714D02*
X172698628Y-102960952D01*
X172698628Y-102960952D02*
X172651009Y-103151428D01*
X172651009Y-103151428D02*
X172603390Y-103246666D01*
X172603390Y-103246666D02*
X172555771Y-103294285D01*
X172555771Y-103294285D02*
X172460533Y-103341904D01*
X172460533Y-103341904D02*
X172365295Y-103341904D01*
X172365295Y-103341904D02*
X172270057Y-103294285D01*
X172270057Y-103294285D02*
X172222438Y-103246666D01*
X172222438Y-103246666D02*
X172174819Y-103151428D01*
X172174819Y-103151428D02*
X172174819Y-102913333D01*
X172174819Y-102913333D02*
X172222438Y-102770476D01*
X172651009Y-102008571D02*
X172698628Y-101865714D01*
X172698628Y-101865714D02*
X172746247Y-101818095D01*
X172746247Y-101818095D02*
X172841485Y-101770476D01*
X172841485Y-101770476D02*
X172984342Y-101770476D01*
X172984342Y-101770476D02*
X173079580Y-101818095D01*
X173079580Y-101818095D02*
X173127200Y-101865714D01*
X173127200Y-101865714D02*
X173174819Y-101960952D01*
X173174819Y-101960952D02*
X173174819Y-102341904D01*
X173174819Y-102341904D02*
X172174819Y-102341904D01*
X172174819Y-102341904D02*
X172174819Y-102008571D01*
X172174819Y-102008571D02*
X172222438Y-101913333D01*
X172222438Y-101913333D02*
X172270057Y-101865714D01*
X172270057Y-101865714D02*
X172365295Y-101818095D01*
X172365295Y-101818095D02*
X172460533Y-101818095D01*
X172460533Y-101818095D02*
X172555771Y-101865714D01*
X172555771Y-101865714D02*
X172603390Y-101913333D01*
X172603390Y-101913333D02*
X172651009Y-102008571D01*
X172651009Y-102008571D02*
X172651009Y-102341904D01*
X146239580Y-82829317D02*
X146287200Y-82876936D01*
X146287200Y-82876936D02*
X146334819Y-83019793D01*
X146334819Y-83019793D02*
X146334819Y-83115031D01*
X146334819Y-83115031D02*
X146287200Y-83257888D01*
X146287200Y-83257888D02*
X146191961Y-83353126D01*
X146191961Y-83353126D02*
X146096723Y-83400745D01*
X146096723Y-83400745D02*
X145906247Y-83448364D01*
X145906247Y-83448364D02*
X145763390Y-83448364D01*
X145763390Y-83448364D02*
X145572914Y-83400745D01*
X145572914Y-83400745D02*
X145477676Y-83353126D01*
X145477676Y-83353126D02*
X145382438Y-83257888D01*
X145382438Y-83257888D02*
X145334819Y-83115031D01*
X145334819Y-83115031D02*
X145334819Y-83019793D01*
X145334819Y-83019793D02*
X145382438Y-82876936D01*
X145382438Y-82876936D02*
X145430057Y-82829317D01*
X146334819Y-81876936D02*
X146334819Y-82448364D01*
X146334819Y-82162650D02*
X145334819Y-82162650D01*
X145334819Y-82162650D02*
X145477676Y-82257888D01*
X145477676Y-82257888D02*
X145572914Y-82353126D01*
X145572914Y-82353126D02*
X145620533Y-82448364D01*
X129994819Y-108740952D02*
X128994819Y-108740952D01*
X128994819Y-108740952D02*
X129709104Y-108407619D01*
X129709104Y-108407619D02*
X128994819Y-108074286D01*
X128994819Y-108074286D02*
X129994819Y-108074286D01*
X129994819Y-107455238D02*
X129947200Y-107550476D01*
X129947200Y-107550476D02*
X129899580Y-107598095D01*
X129899580Y-107598095D02*
X129804342Y-107645714D01*
X129804342Y-107645714D02*
X129518628Y-107645714D01*
X129518628Y-107645714D02*
X129423390Y-107598095D01*
X129423390Y-107598095D02*
X129375771Y-107550476D01*
X129375771Y-107550476D02*
X129328152Y-107455238D01*
X129328152Y-107455238D02*
X129328152Y-107312381D01*
X129328152Y-107312381D02*
X129375771Y-107217143D01*
X129375771Y-107217143D02*
X129423390Y-107169524D01*
X129423390Y-107169524D02*
X129518628Y-107121905D01*
X129518628Y-107121905D02*
X129804342Y-107121905D01*
X129804342Y-107121905D02*
X129899580Y-107169524D01*
X129899580Y-107169524D02*
X129947200Y-107217143D01*
X129947200Y-107217143D02*
X129994819Y-107312381D01*
X129994819Y-107312381D02*
X129994819Y-107455238D01*
X129328152Y-106836190D02*
X129328152Y-106455238D01*
X128994819Y-106693333D02*
X129851961Y-106693333D01*
X129851961Y-106693333D02*
X129947200Y-106645714D01*
X129947200Y-106645714D02*
X129994819Y-106550476D01*
X129994819Y-106550476D02*
X129994819Y-106455238D01*
X129994819Y-105979047D02*
X129947200Y-106074285D01*
X129947200Y-106074285D02*
X129899580Y-106121904D01*
X129899580Y-106121904D02*
X129804342Y-106169523D01*
X129804342Y-106169523D02*
X129518628Y-106169523D01*
X129518628Y-106169523D02*
X129423390Y-106121904D01*
X129423390Y-106121904D02*
X129375771Y-106074285D01*
X129375771Y-106074285D02*
X129328152Y-105979047D01*
X129328152Y-105979047D02*
X129328152Y-105836190D01*
X129328152Y-105836190D02*
X129375771Y-105740952D01*
X129375771Y-105740952D02*
X129423390Y-105693333D01*
X129423390Y-105693333D02*
X129518628Y-105645714D01*
X129518628Y-105645714D02*
X129804342Y-105645714D01*
X129804342Y-105645714D02*
X129899580Y-105693333D01*
X129899580Y-105693333D02*
X129947200Y-105740952D01*
X129947200Y-105740952D02*
X129994819Y-105836190D01*
X129994819Y-105836190D02*
X129994819Y-105979047D01*
X129994819Y-105217142D02*
X129328152Y-105217142D01*
X129518628Y-105217142D02*
X129423390Y-105169523D01*
X129423390Y-105169523D02*
X129375771Y-105121904D01*
X129375771Y-105121904D02*
X129328152Y-105026666D01*
X129328152Y-105026666D02*
X129328152Y-104931428D01*
X129994819Y-103836189D02*
X128994819Y-103836189D01*
X128994819Y-103836189D02*
X128994819Y-103598094D01*
X128994819Y-103598094D02*
X129042438Y-103455237D01*
X129042438Y-103455237D02*
X129137676Y-103359999D01*
X129137676Y-103359999D02*
X129232914Y-103312380D01*
X129232914Y-103312380D02*
X129423390Y-103264761D01*
X129423390Y-103264761D02*
X129566247Y-103264761D01*
X129566247Y-103264761D02*
X129756723Y-103312380D01*
X129756723Y-103312380D02*
X129851961Y-103359999D01*
X129851961Y-103359999D02*
X129947200Y-103455237D01*
X129947200Y-103455237D02*
X129994819Y-103598094D01*
X129994819Y-103598094D02*
X129994819Y-103836189D01*
X129994819Y-102836189D02*
X129328152Y-102836189D01*
X129518628Y-102836189D02*
X129423390Y-102788570D01*
X129423390Y-102788570D02*
X129375771Y-102740951D01*
X129375771Y-102740951D02*
X129328152Y-102645713D01*
X129328152Y-102645713D02*
X129328152Y-102550475D01*
X129994819Y-102217141D02*
X129328152Y-102217141D01*
X128994819Y-102217141D02*
X129042438Y-102264760D01*
X129042438Y-102264760D02*
X129090057Y-102217141D01*
X129090057Y-102217141D02*
X129042438Y-102169522D01*
X129042438Y-102169522D02*
X128994819Y-102217141D01*
X128994819Y-102217141D02*
X129090057Y-102217141D01*
X129328152Y-101836189D02*
X129994819Y-101598094D01*
X129994819Y-101598094D02*
X129328152Y-101359999D01*
X129947200Y-100598094D02*
X129994819Y-100693332D01*
X129994819Y-100693332D02*
X129994819Y-100883808D01*
X129994819Y-100883808D02*
X129947200Y-100979046D01*
X129947200Y-100979046D02*
X129851961Y-101026665D01*
X129851961Y-101026665D02*
X129471009Y-101026665D01*
X129471009Y-101026665D02*
X129375771Y-100979046D01*
X129375771Y-100979046D02*
X129328152Y-100883808D01*
X129328152Y-100883808D02*
X129328152Y-100693332D01*
X129328152Y-100693332D02*
X129375771Y-100598094D01*
X129375771Y-100598094D02*
X129471009Y-100550475D01*
X129471009Y-100550475D02*
X129566247Y-100550475D01*
X129566247Y-100550475D02*
X129661485Y-101026665D01*
X129994819Y-100121903D02*
X129328152Y-100121903D01*
X129518628Y-100121903D02*
X129423390Y-100074284D01*
X129423390Y-100074284D02*
X129375771Y-100026665D01*
X129375771Y-100026665D02*
X129328152Y-99931427D01*
X129328152Y-99931427D02*
X129328152Y-99836189D01*
X150035238Y-117294819D02*
X149559048Y-117294819D01*
X149559048Y-117294819D02*
X149559048Y-116294819D01*
X150368572Y-117294819D02*
X150368572Y-116628152D01*
X150368572Y-116294819D02*
X150320953Y-116342438D01*
X150320953Y-116342438D02*
X150368572Y-116390057D01*
X150368572Y-116390057D02*
X150416191Y-116342438D01*
X150416191Y-116342438D02*
X150368572Y-116294819D01*
X150368572Y-116294819D02*
X150368572Y-116390057D01*
X150844762Y-117294819D02*
X150844762Y-116628152D01*
X150844762Y-116723390D02*
X150892381Y-116675771D01*
X150892381Y-116675771D02*
X150987619Y-116628152D01*
X150987619Y-116628152D02*
X151130476Y-116628152D01*
X151130476Y-116628152D02*
X151225714Y-116675771D01*
X151225714Y-116675771D02*
X151273333Y-116771009D01*
X151273333Y-116771009D02*
X151273333Y-117294819D01*
X151273333Y-116771009D02*
X151320952Y-116675771D01*
X151320952Y-116675771D02*
X151416190Y-116628152D01*
X151416190Y-116628152D02*
X151559047Y-116628152D01*
X151559047Y-116628152D02*
X151654286Y-116675771D01*
X151654286Y-116675771D02*
X151701905Y-116771009D01*
X151701905Y-116771009D02*
X151701905Y-117294819D01*
X152178095Y-117294819D02*
X152178095Y-116628152D01*
X152178095Y-116294819D02*
X152130476Y-116342438D01*
X152130476Y-116342438D02*
X152178095Y-116390057D01*
X152178095Y-116390057D02*
X152225714Y-116342438D01*
X152225714Y-116342438D02*
X152178095Y-116294819D01*
X152178095Y-116294819D02*
X152178095Y-116390057D01*
X152511428Y-116628152D02*
X152892380Y-116628152D01*
X152654285Y-116294819D02*
X152654285Y-117151961D01*
X152654285Y-117151961D02*
X152701904Y-117247200D01*
X152701904Y-117247200D02*
X152797142Y-117294819D01*
X152797142Y-117294819D02*
X152892380Y-117294819D01*
X153940000Y-117247200D02*
X154082857Y-117294819D01*
X154082857Y-117294819D02*
X154320952Y-117294819D01*
X154320952Y-117294819D02*
X154416190Y-117247200D01*
X154416190Y-117247200D02*
X154463809Y-117199580D01*
X154463809Y-117199580D02*
X154511428Y-117104342D01*
X154511428Y-117104342D02*
X154511428Y-117009104D01*
X154511428Y-117009104D02*
X154463809Y-116913866D01*
X154463809Y-116913866D02*
X154416190Y-116866247D01*
X154416190Y-116866247D02*
X154320952Y-116818628D01*
X154320952Y-116818628D02*
X154130476Y-116771009D01*
X154130476Y-116771009D02*
X154035238Y-116723390D01*
X154035238Y-116723390D02*
X153987619Y-116675771D01*
X153987619Y-116675771D02*
X153940000Y-116580533D01*
X153940000Y-116580533D02*
X153940000Y-116485295D01*
X153940000Y-116485295D02*
X153987619Y-116390057D01*
X153987619Y-116390057D02*
X154035238Y-116342438D01*
X154035238Y-116342438D02*
X154130476Y-116294819D01*
X154130476Y-116294819D02*
X154368571Y-116294819D01*
X154368571Y-116294819D02*
X154511428Y-116342438D01*
X154844762Y-116628152D02*
X155035238Y-117294819D01*
X155035238Y-117294819D02*
X155225714Y-116818628D01*
X155225714Y-116818628D02*
X155416190Y-117294819D01*
X155416190Y-117294819D02*
X155606666Y-116628152D01*
X155987619Y-117294819D02*
X155987619Y-116628152D01*
X155987619Y-116294819D02*
X155940000Y-116342438D01*
X155940000Y-116342438D02*
X155987619Y-116390057D01*
X155987619Y-116390057D02*
X156035238Y-116342438D01*
X156035238Y-116342438D02*
X155987619Y-116294819D01*
X155987619Y-116294819D02*
X155987619Y-116390057D01*
X156320952Y-116628152D02*
X156701904Y-116628152D01*
X156463809Y-116294819D02*
X156463809Y-117151961D01*
X156463809Y-117151961D02*
X156511428Y-117247200D01*
X156511428Y-117247200D02*
X156606666Y-117294819D01*
X156606666Y-117294819D02*
X156701904Y-117294819D01*
X157463809Y-117247200D02*
X157368571Y-117294819D01*
X157368571Y-117294819D02*
X157178095Y-117294819D01*
X157178095Y-117294819D02*
X157082857Y-117247200D01*
X157082857Y-117247200D02*
X157035238Y-117199580D01*
X157035238Y-117199580D02*
X156987619Y-117104342D01*
X156987619Y-117104342D02*
X156987619Y-116818628D01*
X156987619Y-116818628D02*
X157035238Y-116723390D01*
X157035238Y-116723390D02*
X157082857Y-116675771D01*
X157082857Y-116675771D02*
X157178095Y-116628152D01*
X157178095Y-116628152D02*
X157368571Y-116628152D01*
X157368571Y-116628152D02*
X157463809Y-116675771D01*
X157892381Y-117294819D02*
X157892381Y-116294819D01*
X158320952Y-117294819D02*
X158320952Y-116771009D01*
X158320952Y-116771009D02*
X158273333Y-116675771D01*
X158273333Y-116675771D02*
X158178095Y-116628152D01*
X158178095Y-116628152D02*
X158035238Y-116628152D01*
X158035238Y-116628152D02*
X157940000Y-116675771D01*
X157940000Y-116675771D02*
X157892381Y-116723390D01*
X159559048Y-116913866D02*
X160320953Y-116913866D01*
X137335238Y-88084819D02*
X136859048Y-88084819D01*
X136859048Y-88084819D02*
X136859048Y-87084819D01*
X137668572Y-88084819D02*
X137668572Y-87418152D01*
X137668572Y-87084819D02*
X137620953Y-87132438D01*
X137620953Y-87132438D02*
X137668572Y-87180057D01*
X137668572Y-87180057D02*
X137716191Y-87132438D01*
X137716191Y-87132438D02*
X137668572Y-87084819D01*
X137668572Y-87084819D02*
X137668572Y-87180057D01*
X138144762Y-88084819D02*
X138144762Y-87418152D01*
X138144762Y-87513390D02*
X138192381Y-87465771D01*
X138192381Y-87465771D02*
X138287619Y-87418152D01*
X138287619Y-87418152D02*
X138430476Y-87418152D01*
X138430476Y-87418152D02*
X138525714Y-87465771D01*
X138525714Y-87465771D02*
X138573333Y-87561009D01*
X138573333Y-87561009D02*
X138573333Y-88084819D01*
X138573333Y-87561009D02*
X138620952Y-87465771D01*
X138620952Y-87465771D02*
X138716190Y-87418152D01*
X138716190Y-87418152D02*
X138859047Y-87418152D01*
X138859047Y-87418152D02*
X138954286Y-87465771D01*
X138954286Y-87465771D02*
X139001905Y-87561009D01*
X139001905Y-87561009D02*
X139001905Y-88084819D01*
X139478095Y-88084819D02*
X139478095Y-87418152D01*
X139478095Y-87084819D02*
X139430476Y-87132438D01*
X139430476Y-87132438D02*
X139478095Y-87180057D01*
X139478095Y-87180057D02*
X139525714Y-87132438D01*
X139525714Y-87132438D02*
X139478095Y-87084819D01*
X139478095Y-87084819D02*
X139478095Y-87180057D01*
X139811428Y-87418152D02*
X140192380Y-87418152D01*
X139954285Y-87084819D02*
X139954285Y-87941961D01*
X139954285Y-87941961D02*
X140001904Y-88037200D01*
X140001904Y-88037200D02*
X140097142Y-88084819D01*
X140097142Y-88084819D02*
X140192380Y-88084819D01*
X141240000Y-88037200D02*
X141382857Y-88084819D01*
X141382857Y-88084819D02*
X141620952Y-88084819D01*
X141620952Y-88084819D02*
X141716190Y-88037200D01*
X141716190Y-88037200D02*
X141763809Y-87989580D01*
X141763809Y-87989580D02*
X141811428Y-87894342D01*
X141811428Y-87894342D02*
X141811428Y-87799104D01*
X141811428Y-87799104D02*
X141763809Y-87703866D01*
X141763809Y-87703866D02*
X141716190Y-87656247D01*
X141716190Y-87656247D02*
X141620952Y-87608628D01*
X141620952Y-87608628D02*
X141430476Y-87561009D01*
X141430476Y-87561009D02*
X141335238Y-87513390D01*
X141335238Y-87513390D02*
X141287619Y-87465771D01*
X141287619Y-87465771D02*
X141240000Y-87370533D01*
X141240000Y-87370533D02*
X141240000Y-87275295D01*
X141240000Y-87275295D02*
X141287619Y-87180057D01*
X141287619Y-87180057D02*
X141335238Y-87132438D01*
X141335238Y-87132438D02*
X141430476Y-87084819D01*
X141430476Y-87084819D02*
X141668571Y-87084819D01*
X141668571Y-87084819D02*
X141811428Y-87132438D01*
X142144762Y-87418152D02*
X142335238Y-88084819D01*
X142335238Y-88084819D02*
X142525714Y-87608628D01*
X142525714Y-87608628D02*
X142716190Y-88084819D01*
X142716190Y-88084819D02*
X142906666Y-87418152D01*
X143287619Y-88084819D02*
X143287619Y-87418152D01*
X143287619Y-87084819D02*
X143240000Y-87132438D01*
X143240000Y-87132438D02*
X143287619Y-87180057D01*
X143287619Y-87180057D02*
X143335238Y-87132438D01*
X143335238Y-87132438D02*
X143287619Y-87084819D01*
X143287619Y-87084819D02*
X143287619Y-87180057D01*
X143620952Y-87418152D02*
X144001904Y-87418152D01*
X143763809Y-87084819D02*
X143763809Y-87941961D01*
X143763809Y-87941961D02*
X143811428Y-88037200D01*
X143811428Y-88037200D02*
X143906666Y-88084819D01*
X143906666Y-88084819D02*
X144001904Y-88084819D01*
X144763809Y-88037200D02*
X144668571Y-88084819D01*
X144668571Y-88084819D02*
X144478095Y-88084819D01*
X144478095Y-88084819D02*
X144382857Y-88037200D01*
X144382857Y-88037200D02*
X144335238Y-87989580D01*
X144335238Y-87989580D02*
X144287619Y-87894342D01*
X144287619Y-87894342D02*
X144287619Y-87608628D01*
X144287619Y-87608628D02*
X144335238Y-87513390D01*
X144335238Y-87513390D02*
X144382857Y-87465771D01*
X144382857Y-87465771D02*
X144478095Y-87418152D01*
X144478095Y-87418152D02*
X144668571Y-87418152D01*
X144668571Y-87418152D02*
X144763809Y-87465771D01*
X145192381Y-88084819D02*
X145192381Y-87084819D01*
X145620952Y-88084819D02*
X145620952Y-87561009D01*
X145620952Y-87561009D02*
X145573333Y-87465771D01*
X145573333Y-87465771D02*
X145478095Y-87418152D01*
X145478095Y-87418152D02*
X145335238Y-87418152D01*
X145335238Y-87418152D02*
X145240000Y-87465771D01*
X145240000Y-87465771D02*
X145192381Y-87513390D01*
X146859048Y-87703866D02*
X147620953Y-87703866D01*
X147240000Y-88084819D02*
X147240000Y-87322914D01*
X108514819Y-75393808D02*
X107514819Y-75393808D01*
X107514819Y-75393808D02*
X108229104Y-75060475D01*
X108229104Y-75060475D02*
X107514819Y-74727142D01*
X107514819Y-74727142D02*
X108514819Y-74727142D01*
X107610057Y-74298570D02*
X107562438Y-74250951D01*
X107562438Y-74250951D02*
X107514819Y-74155713D01*
X107514819Y-74155713D02*
X107514819Y-73917618D01*
X107514819Y-73917618D02*
X107562438Y-73822380D01*
X107562438Y-73822380D02*
X107610057Y-73774761D01*
X107610057Y-73774761D02*
X107705295Y-73727142D01*
X107705295Y-73727142D02*
X107800533Y-73727142D01*
X107800533Y-73727142D02*
X107943390Y-73774761D01*
X107943390Y-73774761D02*
X108514819Y-74346189D01*
X108514819Y-74346189D02*
X108514819Y-73727142D01*
X108419580Y-73298570D02*
X108467200Y-73250951D01*
X108467200Y-73250951D02*
X108514819Y-73298570D01*
X108514819Y-73298570D02*
X108467200Y-73346189D01*
X108467200Y-73346189D02*
X108419580Y-73298570D01*
X108419580Y-73298570D02*
X108514819Y-73298570D01*
X107514819Y-72346190D02*
X107514819Y-72822380D01*
X107514819Y-72822380D02*
X107991009Y-72869999D01*
X107991009Y-72869999D02*
X107943390Y-72822380D01*
X107943390Y-72822380D02*
X107895771Y-72727142D01*
X107895771Y-72727142D02*
X107895771Y-72489047D01*
X107895771Y-72489047D02*
X107943390Y-72393809D01*
X107943390Y-72393809D02*
X107991009Y-72346190D01*
X107991009Y-72346190D02*
X108086247Y-72298571D01*
X108086247Y-72298571D02*
X108324342Y-72298571D01*
X108324342Y-72298571D02*
X108419580Y-72346190D01*
X108419580Y-72346190D02*
X108467200Y-72393809D01*
X108467200Y-72393809D02*
X108514819Y-72489047D01*
X108514819Y-72489047D02*
X108514819Y-72727142D01*
X108514819Y-72727142D02*
X108467200Y-72822380D01*
X108467200Y-72822380D02*
X108419580Y-72869999D01*
X116276666Y-88084819D02*
X116276666Y-87084819D01*
X116276666Y-87084819D02*
X116609999Y-87799104D01*
X116609999Y-87799104D02*
X116943332Y-87084819D01*
X116943332Y-87084819D02*
X116943332Y-88084819D01*
X117562380Y-88084819D02*
X117467142Y-88037200D01*
X117467142Y-88037200D02*
X117419523Y-87989580D01*
X117419523Y-87989580D02*
X117371904Y-87894342D01*
X117371904Y-87894342D02*
X117371904Y-87608628D01*
X117371904Y-87608628D02*
X117419523Y-87513390D01*
X117419523Y-87513390D02*
X117467142Y-87465771D01*
X117467142Y-87465771D02*
X117562380Y-87418152D01*
X117562380Y-87418152D02*
X117705237Y-87418152D01*
X117705237Y-87418152D02*
X117800475Y-87465771D01*
X117800475Y-87465771D02*
X117848094Y-87513390D01*
X117848094Y-87513390D02*
X117895713Y-87608628D01*
X117895713Y-87608628D02*
X117895713Y-87894342D01*
X117895713Y-87894342D02*
X117848094Y-87989580D01*
X117848094Y-87989580D02*
X117800475Y-88037200D01*
X117800475Y-88037200D02*
X117705237Y-88084819D01*
X117705237Y-88084819D02*
X117562380Y-88084819D01*
X118181428Y-87418152D02*
X118562380Y-87418152D01*
X118324285Y-87084819D02*
X118324285Y-87941961D01*
X118324285Y-87941961D02*
X118371904Y-88037200D01*
X118371904Y-88037200D02*
X118467142Y-88084819D01*
X118467142Y-88084819D02*
X118562380Y-88084819D01*
X119038571Y-88084819D02*
X118943333Y-88037200D01*
X118943333Y-88037200D02*
X118895714Y-87989580D01*
X118895714Y-87989580D02*
X118848095Y-87894342D01*
X118848095Y-87894342D02*
X118848095Y-87608628D01*
X118848095Y-87608628D02*
X118895714Y-87513390D01*
X118895714Y-87513390D02*
X118943333Y-87465771D01*
X118943333Y-87465771D02*
X119038571Y-87418152D01*
X119038571Y-87418152D02*
X119181428Y-87418152D01*
X119181428Y-87418152D02*
X119276666Y-87465771D01*
X119276666Y-87465771D02*
X119324285Y-87513390D01*
X119324285Y-87513390D02*
X119371904Y-87608628D01*
X119371904Y-87608628D02*
X119371904Y-87894342D01*
X119371904Y-87894342D02*
X119324285Y-87989580D01*
X119324285Y-87989580D02*
X119276666Y-88037200D01*
X119276666Y-88037200D02*
X119181428Y-88084819D01*
X119181428Y-88084819D02*
X119038571Y-88084819D01*
X119800476Y-88084819D02*
X119800476Y-87418152D01*
X119800476Y-87608628D02*
X119848095Y-87513390D01*
X119848095Y-87513390D02*
X119895714Y-87465771D01*
X119895714Y-87465771D02*
X119990952Y-87418152D01*
X119990952Y-87418152D02*
X120086190Y-87418152D01*
D12*
%TO.C,DC Power*%
X179250000Y-89900000D02*
X164550000Y-89900000D01*
X179250000Y-80700000D02*
X179250000Y-89900000D01*
X164550000Y-80700000D02*
X166450000Y-80700000D01*
X164550000Y-83400000D02*
X164550000Y-80700000D01*
X164550000Y-89900000D02*
X164550000Y-87300000D01*
X170450000Y-80700000D02*
X179250000Y-80700000D01*
X164350000Y-89050000D02*
X164350000Y-90100000D01*
X165400000Y-90100000D02*
X164350000Y-90100000D01*
%TO.C,Arduino*%
X133220000Y-112100000D02*
X135890000Y-112100000D01*
X138430000Y-112100000D02*
X176660000Y-112100000D01*
X176660000Y-112100000D02*
X176660000Y-107020000D01*
X135890000Y-109430000D02*
X135890000Y-112100000D01*
X138430000Y-109430000D02*
X138430000Y-112100000D01*
X138430000Y-109430000D02*
X135890000Y-109430000D01*
X138430000Y-109430000D02*
X173990000Y-109430000D01*
X173990000Y-109430000D02*
X173990000Y-112100000D01*
X168780000Y-107020000D02*
X168780000Y-99140000D01*
X179200000Y-107020000D02*
X168780000Y-107020000D01*
X168780000Y-99140000D02*
X179200000Y-99140000D01*
X179200000Y-99140000D02*
X179200000Y-107020000D01*
X135890000Y-96730000D02*
X173990000Y-96730000D01*
X135890000Y-96730000D02*
X135890000Y-94060000D01*
X173990000Y-96730000D02*
X173990000Y-94060000D01*
X133220000Y-94060000D02*
X133220000Y-112100000D01*
X176660000Y-94060000D02*
X176660000Y-99140000D01*
X176660000Y-94060000D02*
X133220000Y-94060000D01*
%TO.C,C1*%
X148815000Y-87072349D02*
X148815000Y-86272349D01*
X148415000Y-86672349D02*
X149215000Y-86672349D01*
X147050000Y-82662651D02*
X155210000Y-82662651D01*
X147050000Y-82622651D02*
X155210000Y-82622651D01*
X147050000Y-82582651D02*
X155210000Y-82582651D01*
X147051000Y-82542651D02*
X155209000Y-82542651D01*
X147053000Y-82502651D02*
X155207000Y-82502651D01*
X147054000Y-82462651D02*
X155206000Y-82462651D01*
X147056000Y-82422651D02*
X155204000Y-82422651D01*
X147059000Y-82382651D02*
X155201000Y-82382651D01*
X147062000Y-82342651D02*
X155198000Y-82342651D01*
X147065000Y-82302651D02*
X155195000Y-82302651D01*
X147069000Y-82262651D02*
X155191000Y-82262651D01*
X147073000Y-82222651D02*
X155187000Y-82222651D01*
X147078000Y-82182651D02*
X155182000Y-82182651D01*
X147082000Y-82142651D02*
X155178000Y-82142651D01*
X147088000Y-82102651D02*
X155172000Y-82102651D01*
X147093000Y-82062651D02*
X155167000Y-82062651D01*
X147100000Y-82022651D02*
X155160000Y-82022651D01*
X147106000Y-81982651D02*
X155154000Y-81982651D01*
X147113000Y-81941651D02*
X155147000Y-81941651D01*
X147120000Y-81901651D02*
X155140000Y-81901651D01*
X147128000Y-81861651D02*
X155132000Y-81861651D01*
X147136000Y-81821651D02*
X155124000Y-81821651D01*
X147145000Y-81781651D02*
X155115000Y-81781651D01*
X147154000Y-81741651D02*
X155106000Y-81741651D01*
X147163000Y-81701651D02*
X155097000Y-81701651D01*
X147173000Y-81661651D02*
X155087000Y-81661651D01*
X147183000Y-81621651D02*
X155077000Y-81621651D01*
X147194000Y-81581651D02*
X155066000Y-81581651D01*
X147205000Y-81541651D02*
X155055000Y-81541651D01*
X147216000Y-81501651D02*
X155044000Y-81501651D01*
X147228000Y-81461651D02*
X155032000Y-81461651D01*
X147241000Y-81421651D02*
X155019000Y-81421651D01*
X147253000Y-81381651D02*
X155007000Y-81381651D01*
X147267000Y-81341651D02*
X154993000Y-81341651D01*
X147280000Y-81301651D02*
X154980000Y-81301651D01*
X147295000Y-81261651D02*
X154965000Y-81261651D01*
X147309000Y-81221651D02*
X154951000Y-81221651D01*
X147325000Y-81181651D02*
X150090000Y-81181651D01*
X152170000Y-81181651D02*
X154935000Y-81181651D01*
X147340000Y-81141651D02*
X150090000Y-81141651D01*
X152170000Y-81141651D02*
X154920000Y-81141651D01*
X147356000Y-81101651D02*
X150090000Y-81101651D01*
X152170000Y-81101651D02*
X154904000Y-81101651D01*
X147373000Y-81061651D02*
X150090000Y-81061651D01*
X152170000Y-81061651D02*
X154887000Y-81061651D01*
X147390000Y-81021651D02*
X150090000Y-81021651D01*
X152170000Y-81021651D02*
X154870000Y-81021651D01*
X147408000Y-80981651D02*
X150090000Y-80981651D01*
X152170000Y-80981651D02*
X154852000Y-80981651D01*
X147426000Y-80941651D02*
X150090000Y-80941651D01*
X152170000Y-80941651D02*
X154834000Y-80941651D01*
X147444000Y-80901651D02*
X150090000Y-80901651D01*
X152170000Y-80901651D02*
X154816000Y-80901651D01*
X147464000Y-80861651D02*
X150090000Y-80861651D01*
X152170000Y-80861651D02*
X154796000Y-80861651D01*
X147483000Y-80821651D02*
X150090000Y-80821651D01*
X152170000Y-80821651D02*
X154777000Y-80821651D01*
X147503000Y-80781651D02*
X150090000Y-80781651D01*
X152170000Y-80781651D02*
X154757000Y-80781651D01*
X147524000Y-80741651D02*
X150090000Y-80741651D01*
X152170000Y-80741651D02*
X154736000Y-80741651D01*
X147546000Y-80701651D02*
X150090000Y-80701651D01*
X152170000Y-80701651D02*
X154714000Y-80701651D01*
X147568000Y-80661651D02*
X150090000Y-80661651D01*
X152170000Y-80661651D02*
X154692000Y-80661651D01*
X147590000Y-80621651D02*
X150090000Y-80621651D01*
X152170000Y-80621651D02*
X154670000Y-80621651D01*
X147613000Y-80581651D02*
X150090000Y-80581651D01*
X152170000Y-80581651D02*
X154647000Y-80581651D01*
X147637000Y-80541651D02*
X150090000Y-80541651D01*
X152170000Y-80541651D02*
X154623000Y-80541651D01*
X147661000Y-80501651D02*
X150090000Y-80501651D01*
X152170000Y-80501651D02*
X154599000Y-80501651D01*
X147686000Y-80461651D02*
X150090000Y-80461651D01*
X152170000Y-80461651D02*
X154574000Y-80461651D01*
X147712000Y-80421651D02*
X150090000Y-80421651D01*
X152170000Y-80421651D02*
X154548000Y-80421651D01*
X147738000Y-80381651D02*
X150090000Y-80381651D01*
X152170000Y-80381651D02*
X154522000Y-80381651D01*
X147765000Y-80341651D02*
X150090000Y-80341651D01*
X152170000Y-80341651D02*
X154495000Y-80341651D01*
X147792000Y-80301651D02*
X150090000Y-80301651D01*
X152170000Y-80301651D02*
X154468000Y-80301651D01*
X147821000Y-80261651D02*
X150090000Y-80261651D01*
X152170000Y-80261651D02*
X154439000Y-80261651D01*
X147850000Y-80221651D02*
X150090000Y-80221651D01*
X152170000Y-80221651D02*
X154410000Y-80221651D01*
X147880000Y-80181651D02*
X150090000Y-80181651D01*
X152170000Y-80181651D02*
X154380000Y-80181651D01*
X147910000Y-80141651D02*
X150090000Y-80141651D01*
X152170000Y-80141651D02*
X154350000Y-80141651D01*
X147941000Y-80101651D02*
X150090000Y-80101651D01*
X152170000Y-80101651D02*
X154319000Y-80101651D01*
X147974000Y-80061651D02*
X150090000Y-80061651D01*
X152170000Y-80061651D02*
X154286000Y-80061651D01*
X148006000Y-80021651D02*
X150090000Y-80021651D01*
X152170000Y-80021651D02*
X154254000Y-80021651D01*
X148040000Y-79981651D02*
X150090000Y-79981651D01*
X152170000Y-79981651D02*
X154220000Y-79981651D01*
X148075000Y-79941651D02*
X150090000Y-79941651D01*
X152170000Y-79941651D02*
X154185000Y-79941651D01*
X148111000Y-79901651D02*
X150090000Y-79901651D01*
X152170000Y-79901651D02*
X154149000Y-79901651D01*
X148147000Y-79861651D02*
X150090000Y-79861651D01*
X152170000Y-79861651D02*
X154113000Y-79861651D01*
X148185000Y-79821651D02*
X150090000Y-79821651D01*
X152170000Y-79821651D02*
X154075000Y-79821651D01*
X148223000Y-79781651D02*
X150090000Y-79781651D01*
X152170000Y-79781651D02*
X154037000Y-79781651D01*
X148263000Y-79741651D02*
X150090000Y-79741651D01*
X152170000Y-79741651D02*
X153997000Y-79741651D01*
X148304000Y-79701651D02*
X150090000Y-79701651D01*
X152170000Y-79701651D02*
X153956000Y-79701651D01*
X148346000Y-79661651D02*
X150090000Y-79661651D01*
X152170000Y-79661651D02*
X153914000Y-79661651D01*
X148389000Y-79621651D02*
X150090000Y-79621651D01*
X152170000Y-79621651D02*
X153871000Y-79621651D01*
X148433000Y-79581651D02*
X150090000Y-79581651D01*
X152170000Y-79581651D02*
X153827000Y-79581651D01*
X148479000Y-79541651D02*
X150090000Y-79541651D01*
X152170000Y-79541651D02*
X153781000Y-79541651D01*
X148526000Y-79501651D02*
X150090000Y-79501651D01*
X152170000Y-79501651D02*
X153734000Y-79501651D01*
X148574000Y-79461651D02*
X150090000Y-79461651D01*
X152170000Y-79461651D02*
X153686000Y-79461651D01*
X148625000Y-79421651D02*
X150090000Y-79421651D01*
X152170000Y-79421651D02*
X153635000Y-79421651D01*
X148676000Y-79381651D02*
X150090000Y-79381651D01*
X152170000Y-79381651D02*
X153584000Y-79381651D01*
X148730000Y-79341651D02*
X150090000Y-79341651D01*
X152170000Y-79341651D02*
X153530000Y-79341651D01*
X148785000Y-79301651D02*
X150090000Y-79301651D01*
X152170000Y-79301651D02*
X153475000Y-79301651D01*
X148843000Y-79261651D02*
X150090000Y-79261651D01*
X152170000Y-79261651D02*
X153417000Y-79261651D01*
X148902000Y-79221651D02*
X150090000Y-79221651D01*
X152170000Y-79221651D02*
X153358000Y-79221651D01*
X148964000Y-79181651D02*
X150090000Y-79181651D01*
X152170000Y-79181651D02*
X153296000Y-79181651D01*
X149028000Y-79141651D02*
X150090000Y-79141651D01*
X152170000Y-79141651D02*
X153232000Y-79141651D01*
X149096000Y-79101651D02*
X153164000Y-79101651D01*
X149166000Y-79061651D02*
X153094000Y-79061651D01*
X149240000Y-79021651D02*
X153020000Y-79021651D01*
X149317000Y-78981651D02*
X152943000Y-78981651D01*
X149399000Y-78941651D02*
X152861000Y-78941651D01*
X149485000Y-78901651D02*
X152775000Y-78901651D01*
X149578000Y-78861651D02*
X152682000Y-78861651D01*
X149677000Y-78821651D02*
X152583000Y-78821651D01*
X149784000Y-78781651D02*
X152476000Y-78781651D01*
X149901000Y-78741651D02*
X152359000Y-78741651D01*
X150032000Y-78701651D02*
X152228000Y-78701651D01*
X150182000Y-78661651D02*
X152078000Y-78661651D01*
X150362000Y-78621651D02*
X151898000Y-78621651D01*
X150597000Y-78581651D02*
X151663000Y-78581651D01*
X155250000Y-82662651D02*
G75*
G03*
X147010000Y-82662651I-4120000J0D01*
G01*
X147010000Y-82662651D02*
G75*
G03*
X155250000Y-82662651I4120000J0D01*
G01*
%TO.C,Motor Driver*%
X128400000Y-96610000D02*
X127000000Y-96610000D01*
X125730000Y-96610000D02*
X107820000Y-96610000D01*
X107820000Y-96610000D02*
X107820000Y-112110000D01*
X128400000Y-98010000D02*
X128400000Y-96610000D01*
X128400000Y-99280000D02*
X125730000Y-99280000D01*
X125730000Y-99280000D02*
X125730000Y-96610000D01*
X125730000Y-99280000D02*
X107820000Y-99280000D01*
X128400000Y-109440000D02*
X107820000Y-109440000D01*
X128400000Y-112110000D02*
X128400000Y-99280000D01*
X107820000Y-112110000D02*
X128400000Y-112110000D01*
%TO.C,Limit Switch -*%
X156150000Y-115840000D02*
X156270000Y-115840000D01*
X156270000Y-115840000D02*
X156270000Y-113180000D01*
X153610000Y-114510000D02*
X153610000Y-113180000D01*
X153610000Y-113180000D02*
X154940000Y-113180000D01*
X156150000Y-113180000D02*
X156270000Y-113180000D01*
%TO.C,Limit Switch +*%
X143450000Y-91710000D02*
X143570000Y-91710000D01*
X143570000Y-91710000D02*
X143570000Y-89050000D01*
X140910000Y-90380000D02*
X140910000Y-89050000D01*
X140910000Y-89050000D02*
X142240000Y-89050000D01*
X143450000Y-89050000D02*
X143570000Y-89050000D01*
%TO.C,Motor*%
X120650000Y-89075000D02*
X112970000Y-89075000D01*
X120650000Y-89075000D02*
X120650000Y-91735000D01*
X112970000Y-89075000D02*
X112970000Y-91735000D01*
X123250000Y-90405000D02*
X123250000Y-91735000D01*
X123250000Y-91735000D02*
X121920000Y-91735000D01*
X120650000Y-91735000D02*
X112970000Y-91735000D01*
%TD*%
M02*
